<svg width="9248" height="9954" viewBox="0 0 9248 9954" fill="none" xmlns="http://www.w3.org/2000/svg">
<path d="M131.764 9811.9V9425.06H0V9340.85H352.468V9425.06H220.704V9811.9H131.764Z" fill="black"/>
<path d="M405.178 9340.85H491.483V9473.09L486.213 9531.64H491.483C500.707 9516.29 513.883 9503.79 531.012 9494.14C548.581 9484.05 568.126 9479.01 589.647 9479.01C631.372 9479.01 662.117 9491.29 681.882 9515.85C702.085 9540.41 712.187 9573.96 712.187 9616.51V9811.9H625.882V9627.03C625.882 9604.66 620.612 9587.78 610.07 9576.38C599.529 9564.53 584.816 9558.61 565.93 9558.61C554.071 9558.61 543.53 9561.24 534.306 9566.51C525.083 9571.33 517.177 9578.13 510.589 9586.9C504.44 9595.67 499.609 9605.98 496.095 9617.82C493.02 9629.23 491.483 9641.51 491.483 9654.66V9811.9H405.178V9340.85Z" fill="black"/>
<path d="M1089.18 9734.27C1074.24 9760.58 1054.04 9781.85 1028.56 9798.08C1003.53 9814.31 972.784 9822.42 936.329 9822.42C911.733 9822.42 888.895 9818.26 867.812 9809.92C847.169 9801.15 829.162 9789.09 813.789 9773.74C798.417 9758.39 786.339 9740.41 777.554 9719.79C769.209 9698.74 765.037 9675.72 765.037 9650.72C765.037 9627.47 769.209 9605.54 777.554 9584.93C785.899 9563.88 797.538 9545.67 812.472 9530.32C827.405 9514.53 844.973 9502.03 865.177 9492.82C885.82 9483.61 908.439 9479.01 933.035 9479.01C958.949 9479.01 982.007 9483.39 1002.21 9492.17C1022.41 9500.5 1039.32 9512.34 1052.94 9527.69C1066.56 9542.6 1076.88 9560.37 1083.9 9580.98C1090.93 9601.59 1094.45 9623.96 1094.45 9648.08C1094.45 9651.15 1094.45 9653.79 1094.45 9655.98C1094.01 9658.61 1093.79 9661.02 1093.79 9663.22C1093.35 9665.41 1093.13 9667.82 1093.13 9670.45H850.024C851.781 9683.61 855.295 9695.01 860.565 9704.66C866.275 9713.87 873.083 9721.77 880.989 9728.35C889.334 9734.49 898.338 9739.09 908 9742.16C917.663 9744.79 927.545 9746.11 937.647 9746.11C957.411 9746.11 973.662 9741.72 986.399 9732.95C999.576 9723.74 1009.9 9712.34 1017.36 9698.74L1089.18 9734.27ZM1010.78 9609.27C1010.34 9603.57 1008.36 9597.21 1004.85 9590.19C1001.77 9583.17 996.941 9576.59 990.352 9570.45C984.204 9564.31 976.298 9559.27 966.635 9555.32C957.412 9551.38 946.212 9549.4 933.035 9549.4C914.588 9549.4 898.338 9554.67 884.283 9565.19C870.228 9575.72 860.346 9590.41 854.636 9609.27H1010.78Z" fill="black"/>
<path d="M1375.36 9531.64H1380.63C1390.73 9515.41 1404.35 9502.69 1421.48 9493.48C1438.61 9483.83 1458.15 9479.01 1480.11 9479.01C1500.32 9479.01 1518.1 9482.3 1533.48 9488.88C1548.85 9495.46 1561.37 9504.89 1571.03 9517.17C1581.13 9529.01 1588.6 9543.48 1593.43 9560.59C1598.7 9577.25 1601.33 9595.89 1601.33 9616.51V9811.9H1515.03V9627.03C1515.03 9603.79 1509.76 9586.68 1499.22 9575.72C1489.12 9564.31 1474.18 9558.61 1454.42 9558.61C1442.56 9558.61 1432.02 9561.24 1422.79 9566.51C1414.01 9571.33 1406.32 9578.13 1399.74 9586.9C1393.59 9595.23 1388.76 9605.32 1385.24 9617.16C1382.17 9628.57 1380.63 9640.85 1380.63 9654.01V9811.9H1294.32V9489.53H1375.36V9531.64Z" fill="black"/>
<path d="M1978.32 9734.27C1963.39 9760.58 1943.18 9781.85 1917.71 9798.08C1892.68 9814.31 1861.93 9822.42 1825.48 9822.42C1800.88 9822.42 1778.04 9818.26 1756.96 9809.92C1736.32 9801.15 1718.31 9789.09 1702.94 9773.74C1687.56 9758.39 1675.49 9740.41 1666.7 9719.79C1658.36 9698.74 1654.18 9675.72 1654.18 9650.72C1654.18 9627.47 1658.36 9605.54 1666.7 9584.93C1675.05 9563.88 1686.69 9545.67 1701.62 9530.32C1716.55 9514.53 1734.12 9502.03 1754.32 9492.82C1774.97 9483.61 1797.59 9479.01 1822.18 9479.01C1848.1 9479.01 1871.15 9483.39 1891.36 9492.17C1911.56 9500.5 1928.47 9512.34 1942.09 9527.69C1955.7 9542.6 1966.02 9560.37 1973.05 9580.98C1980.08 9601.59 1983.59 9623.96 1983.59 9648.08C1983.59 9651.15 1983.59 9653.79 1983.59 9655.98C1983.15 9658.61 1982.93 9661.02 1982.93 9663.22C1982.49 9665.41 1982.27 9667.82 1982.27 9670.45H1739.17C1740.93 9683.61 1744.44 9695.01 1749.71 9704.66C1755.42 9713.87 1762.23 9721.77 1770.14 9728.35C1778.48 9734.49 1787.48 9739.09 1797.15 9742.16C1806.81 9744.79 1816.69 9746.11 1826.79 9746.11C1846.56 9746.11 1862.81 9741.72 1875.55 9732.95C1888.72 9723.74 1899.04 9712.34 1906.51 9698.74L1978.32 9734.27ZM1899.92 9609.27C1899.48 9603.57 1897.51 9597.21 1893.99 9590.19C1890.92 9583.17 1886.09 9576.59 1879.5 9570.45C1873.35 9564.31 1865.44 9559.27 1855.78 9555.32C1846.56 9551.38 1835.36 9549.4 1822.18 9549.4C1803.73 9549.4 1787.48 9554.67 1773.43 9565.19C1759.37 9575.72 1749.49 9590.41 1743.78 9609.27H1899.92Z" fill="black"/>
<path d="M1998.02 9489.53H2094.87L2148.23 9691.5H2152.84L2216.75 9489.53H2305.69L2370.25 9691.5H2374.86L2427.57 9489.53H2523.1L2419.66 9811.9H2326.77L2262.21 9608.61H2257.59L2193.03 9811.9H2101.45L1998.02 9489.53Z" fill="black"/>
<path d="M2672.92 9489.53H2769.77L2823.13 9691.5H2827.74L2891.65 9489.53H2980.59L3045.15 9691.5H3049.77L3102.47 9489.53H3198L3094.57 9811.9H3001.67L2937.11 9608.61H2932.5L2867.93 9811.9H2776.36L2672.92 9489.53Z" fill="black"/>
<path d="M3429.85 9777.69H3424.58C3414.48 9789.97 3402.18 9800.49 3387.69 9809.27C3373.63 9818.04 3355.41 9822.42 3333.01 9822.42C3316.32 9822.42 3300.5 9819.57 3285.57 9813.87C3271.08 9808.61 3258.34 9801.15 3247.36 9791.5C3236.38 9781.85 3227.81 9770.23 3221.67 9756.64C3215.52 9743.04 3212.44 9728.13 3212.44 9711.9C3212.44 9695.23 3215.74 9680.32 3222.32 9667.16C3228.91 9653.57 3238.14 9641.94 3249.99 9632.3C3261.85 9622.65 3275.69 9615.41 3291.5 9610.58C3307.75 9605.32 3325.32 9602.69 3344.21 9602.69C3365.29 9602.69 3382.64 9604.45 3396.25 9607.95C3409.87 9611.02 3421.07 9614.31 3429.85 9617.82V9607.95C3429.85 9590.85 3423.04 9576.81 3409.43 9565.85C3395.81 9554.45 3378.9 9548.74 3358.7 9548.74C3328.83 9548.74 3303.58 9561.24 3282.94 9586.24L3220.35 9543.48C3254.61 9500.5 3301.38 9479.01 3360.68 9479.01C3410.75 9479.01 3448.96 9490.85 3475.31 9514.53C3501.66 9537.78 3514.84 9572.43 3514.84 9618.48V9811.9H3429.85V9777.69ZM3429.85 9680.98C3419.75 9676.15 3409.21 9672.43 3398.23 9669.79C3387.69 9666.72 3376.05 9665.19 3363.31 9665.19C3342.67 9665.19 3326.64 9669.79 3315.22 9679C3304.24 9687.78 3298.75 9698.74 3298.75 9711.9C3298.75 9725.06 3304.02 9735.58 3314.56 9743.48C3325.54 9751.37 3338.06 9755.32 3352.11 9755.32C3363.53 9755.32 3374.07 9753.35 3383.73 9749.4C3393.4 9745.01 3401.52 9739.53 3408.11 9732.95C3415.14 9725.93 3420.41 9718.04 3423.92 9709.27C3427.88 9700.06 3429.85 9690.63 3429.85 9680.98Z" fill="black"/>
<path d="M3678.48 9796.11L3542.77 9489.53H3640.93L3722.62 9684.93H3727.24L3805.64 9489.53H3901.82L3699.57 9954H3606.67L3678.48 9796.11Z" fill="black"/>
<path d="M4075.69 9563.22H4019.03V9489.53H4075.69V9390.85H4161.99V9489.53H4241.05V9563.22H4161.99V9688.22C4161.99 9695.67 4162.65 9702.69 4163.97 9709.27C4165.73 9715.41 4168.8 9720.67 4173.19 9725.06C4179.34 9732.07 4188.13 9735.58 4199.55 9735.58C4207.01 9735.58 4212.94 9734.93 4217.33 9733.61C4221.73 9731.85 4225.9 9729.66 4229.85 9727.03L4254.23 9802.69C4244.13 9807.51 4233.15 9811.02 4221.29 9813.21C4209.87 9815.84 4197.13 9817.16 4183.08 9817.16C4166.83 9817.16 4152.11 9814.75 4138.94 9809.92C4126.2 9804.66 4115.44 9797.64 4106.65 9788.87C4086.01 9769.14 4075.69 9741.07 4075.69 9704.66V9563.22Z" fill="black"/>
<path d="M4454.17 9479.01C4479.2 9479.01 4502.04 9483.39 4522.69 9492.17C4543.77 9500.5 4561.78 9512.34 4576.71 9527.69C4592.08 9542.6 4603.94 9560.59 4612.29 9581.64C4621.07 9602.69 4625.46 9625.72 4625.46 9650.72C4625.46 9675.72 4621.07 9698.74 4612.29 9719.79C4603.94 9740.85 4592.08 9759.05 4576.71 9774.4C4561.78 9789.31 4543.77 9801.15 4522.69 9809.92C4502.04 9818.26 4479.2 9822.42 4454.17 9822.42C4429.13 9822.42 4406.08 9818.26 4384.99 9809.92C4364.35 9801.15 4346.34 9789.31 4330.97 9774.4C4316.04 9759.05 4304.18 9740.85 4295.39 9719.79C4287.05 9698.74 4282.88 9675.72 4282.88 9650.72C4282.88 9625.72 4287.05 9602.69 4295.39 9581.64C4304.18 9560.59 4316.04 9542.6 4330.97 9527.69C4346.34 9512.34 4364.35 9500.5 4384.99 9492.17C4406.08 9483.39 4429.13 9479.01 4454.17 9479.01ZM4454.17 9742.82C4465.15 9742.82 4475.69 9740.85 4485.79 9736.9C4496.33 9732.51 4505.56 9726.37 4513.46 9718.48C4521.37 9710.58 4527.52 9700.93 4531.91 9689.53C4536.74 9678.13 4539.16 9665.19 4539.16 9650.72C4539.16 9636.24 4536.74 9623.3 4531.91 9611.9C4527.52 9600.5 4521.37 9590.85 4513.46 9582.95C4505.56 9575.06 4496.33 9569.14 4485.79 9565.19C4475.69 9560.81 4465.15 9558.61 4454.17 9558.61C4442.75 9558.61 4431.99 9560.81 4421.89 9565.19C4411.79 9569.14 4402.78 9575.06 4394.88 9582.95C4386.97 9590.85 4380.6 9600.5 4375.77 9611.9C4371.38 9623.3 4369.18 9636.24 4369.18 9650.72C4369.18 9665.19 4371.38 9678.13 4375.77 9689.53C4380.6 9700.93 4386.97 9710.58 4394.88 9718.48C4402.78 9726.37 4411.79 9732.51 4421.89 9736.9C4431.99 9740.85 4442.75 9742.82 4454.17 9742.82Z" fill="black"/>
<path d="M5132.03 9729.66C5117.97 9756.85 5098.21 9779.22 5072.73 9796.77C5047.7 9813.87 5016.29 9822.42 4978.52 9822.42C4953.49 9822.42 4930.43 9818.26 4909.35 9809.92C4888.7 9801.15 4870.69 9789.09 4855.32 9773.74C4840.39 9758.39 4828.53 9740.41 4819.75 9719.79C4811.4 9698.74 4807.23 9675.72 4807.23 9650.72C4807.23 9625.72 4811.4 9602.69 4819.75 9581.64C4828.53 9560.59 4840.39 9542.6 4855.32 9527.69C4870.69 9512.34 4888.7 9500.5 4909.35 9492.17C4930.43 9483.39 4953.49 9479.01 4978.52 9479.01C5015.85 9479.01 5047.26 9487.56 5072.73 9504.67C5098.21 9521.77 5116.87 9543.92 5128.73 9571.11L5049.67 9604.01C5042.21 9589.09 5032.54 9577.91 5020.69 9570.45C5009.27 9562.56 4994.77 9558.61 4977.2 9558.61C4965.78 9558.61 4955.02 9560.81 4944.92 9565.19C4934.82 9569.58 4925.82 9575.72 4917.91 9583.61C4910.44 9591.51 4904.51 9601.16 4900.12 9612.56C4895.73 9623.96 4893.53 9636.68 4893.53 9650.72C4893.53 9664.75 4895.73 9677.47 4900.12 9688.87C4904.51 9700.28 4910.44 9709.93 4917.91 9717.82C4925.82 9725.71 4934.82 9731.85 4944.92 9736.24C4955.02 9740.63 4965.78 9742.82 4977.2 9742.82C4995.21 9742.82 5010.36 9738.87 5022.66 9730.98C5035.4 9722.64 5045.5 9710.8 5052.97 9695.45L5132.03 9729.66Z" fill="#0F9D58"/>
<path d="M5184.68 9811.9V9340.85H5270.98V9811.9H5184.68Z" fill="#0F9D58"/>
<path d="M5494.51 9479.01C5519.54 9479.01 5542.38 9483.39 5563.03 9492.17C5584.11 9500.5 5602.12 9512.34 5617.05 9527.69C5632.42 9542.6 5644.28 9560.59 5652.63 9581.64C5661.41 9602.69 5665.8 9625.72 5665.8 9650.72C5665.8 9675.72 5661.41 9698.74 5652.63 9719.79C5644.28 9740.85 5632.42 9759.05 5617.05 9774.4C5602.12 9789.31 5584.11 9801.15 5563.03 9809.92C5542.38 9818.26 5519.54 9822.42 5494.51 9822.42C5469.47 9822.42 5446.42 9818.26 5425.33 9809.92C5404.69 9801.15 5386.68 9789.31 5371.31 9774.4C5356.38 9759.05 5344.52 9740.85 5335.73 9719.79C5327.39 9698.74 5323.22 9675.72 5323.22 9650.72C5323.22 9625.72 5327.39 9602.69 5335.73 9581.64C5344.52 9560.59 5356.38 9542.6 5371.31 9527.69C5386.68 9512.34 5404.69 9500.5 5425.33 9492.17C5446.42 9483.39 5469.47 9479.01 5494.51 9479.01ZM5494.51 9742.82C5505.49 9742.82 5516.03 9740.85 5526.13 9736.9C5536.67 9732.51 5545.9 9726.37 5553.8 9718.48C5561.71 9710.58 5567.86 9700.93 5572.25 9689.53C5577.08 9678.13 5579.5 9665.19 5579.5 9650.72C5579.5 9636.24 5577.08 9623.3 5572.25 9611.9C5567.86 9600.5 5561.71 9590.85 5553.8 9582.95C5545.9 9575.06 5536.67 9569.14 5526.13 9565.19C5516.03 9560.81 5505.49 9558.61 5494.51 9558.61C5483.09 9558.61 5472.33 9560.81 5462.23 9565.19C5452.13 9569.14 5443.12 9575.06 5435.22 9582.95C5427.31 9590.85 5420.94 9600.5 5416.11 9611.9C5411.72 9623.3 5409.52 9636.24 5409.52 9650.72C5409.52 9665.19 5411.72 9678.13 5416.11 9689.53C5420.94 9700.93 5427.31 9710.58 5435.22 9718.48C5443.12 9726.37 5452.13 9732.51 5462.23 9736.9C5472.33 9740.85 5483.09 9742.82 5494.51 9742.82Z" fill="#0F9D58"/>
<path d="M5941.38 9769.79H5936.11C5926.01 9786.02 5912.39 9798.96 5895.26 9808.61C5878.13 9817.82 5858.59 9822.42 5836.63 9822.42C5795.78 9822.42 5765.25 9809.92 5745.05 9784.92C5725.29 9759.92 5715.4 9726.59 5715.4 9684.93V9489.53H5801.71V9674.4C5801.71 9697.65 5806.76 9714.97 5816.86 9726.37C5827.4 9737.34 5842.56 9742.82 5862.32 9742.82C5874.18 9742.82 5884.5 9740.41 5893.28 9735.58C5902.51 9730.32 5910.19 9723.52 5916.34 9715.19C5922.93 9706.42 5927.76 9696.33 5930.84 9684.93C5934.35 9673.08 5936.11 9660.58 5936.11 9647.43V9489.53H6022.41V9811.9H5941.38V9769.79Z" fill="#0F9D58"/>
<path d="M6333.6 9773.08H6328.33C6320.42 9786.68 6308.12 9798.3 6291.43 9807.95C6274.74 9817.6 6254.1 9822.42 6229.5 9822.42C6208.86 9822.42 6189.1 9818.26 6170.21 9809.92C6151.76 9801.15 6135.29 9789.31 6120.8 9774.4C6106.74 9759.05 6095.54 9740.85 6087.2 9719.79C6078.85 9698.74 6074.68 9675.72 6074.68 9650.72C6074.68 9625.72 6078.85 9602.69 6087.2 9581.64C6095.54 9560.59 6106.74 9542.6 6120.8 9527.69C6135.29 9512.34 6151.76 9500.5 6170.21 9492.17C6189.1 9483.39 6208.86 9479.01 6229.5 9479.01C6254.1 9479.01 6274.74 9483.83 6291.43 9493.48C6308.12 9503.13 6320.42 9514.75 6328.33 9528.35H6333.6L6328.33 9482.3V9340.85H6414.63V9811.9H6333.6V9773.08ZM6247.29 9742.82C6258.71 9742.82 6269.47 9740.85 6279.57 9736.9C6290.11 9732.51 6299.34 9726.37 6307.24 9718.48C6315.15 9710.58 6321.52 9700.93 6326.35 9689.53C6331.18 9678.13 6333.6 9665.19 6333.6 9650.72C6333.6 9636.24 6331.18 9623.3 6326.35 9611.9C6321.52 9600.5 6315.15 9590.85 6307.24 9582.95C6299.34 9575.06 6290.11 9569.14 6279.57 9565.19C6269.47 9560.81 6258.71 9558.61 6247.29 9558.61C6235.87 9558.61 6224.89 9560.81 6214.35 9565.19C6204.25 9569.58 6195.24 9575.72 6187.34 9583.61C6179.43 9591.51 6173.06 9601.16 6168.23 9612.56C6163.4 9623.96 6160.99 9636.68 6160.99 9650.72C6160.99 9664.75 6163.4 9677.47 6168.23 9688.87C6173.06 9700.28 6179.43 9709.93 6187.34 9717.82C6195.24 9725.71 6204.25 9731.85 6214.35 9736.24C6224.89 9740.63 6235.87 9742.82 6247.29 9742.82Z" fill="#0F9D58"/>
<path d="M6540.21 9815.84C6524.4 9815.84 6510.78 9810.36 6499.36 9799.4C6488.38 9787.99 6482.89 9774.4 6482.89 9758.61C6482.89 9742.82 6488.38 9729.44 6499.36 9718.48C6510.78 9707.51 6524.4 9702.03 6540.21 9702.03C6556.02 9702.03 6569.41 9707.51 6580.4 9718.48C6591.38 9729.44 6596.87 9742.82 6596.87 9758.61C6596.87 9774.4 6591.38 9787.99 6580.4 9799.4C6569.41 9810.36 6556.02 9815.84 6540.21 9815.84Z" fill="#0F9D58"/>
<path d="M513.241 8703.19H505.866C489.477 8730.67 464.483 8754.72 430.885 8775.34C397.287 8795.09 357.133 8804.97 310.423 8804.97C271.908 8804.97 235.032 8796.81 199.795 8780.49C165.378 8763.31 135.057 8739.69 108.834 8709.63C82.6115 8679.57 61.715 8644.35 46.1452 8603.98C30.5753 8562.75 22.7904 8517.66 22.7904 8468.7C22.7904 8419.74 30.5753 8375.08 46.1452 8334.71C61.715 8293.48 82.6115 8257.83 108.834 8227.77C135.057 8197.71 165.378 8174.52 199.795 8158.2C235.032 8141.02 271.908 8132.43 310.423 8132.43C357.133 8132.43 397.287 8142.74 430.885 8163.35C464.483 8183.11 489.477 8206.73 505.866 8234.21H513.241L505.866 8146.6V7861.87H642.307V8784.35H513.241V8703.19ZM336.237 8672.26C359.182 8672.26 381.307 8667.54 402.613 8658.09C424.739 8648.64 443.587 8635.33 459.157 8618.15C475.546 8600.97 488.657 8579.93 498.491 8555.02C508.325 8529.25 513.241 8500.48 513.241 8468.7C513.241 8436.92 508.325 8408.58 498.491 8383.67C488.657 8357.9 475.546 8336.43 459.157 8319.25C443.587 8302.07 424.739 8288.76 402.613 8279.31C381.307 8269.86 359.182 8265.13 336.237 8265.13C312.472 8265.13 289.937 8269.86 268.63 8279.31C247.324 8288.76 228.477 8302.5 212.087 8320.54C196.517 8337.71 183.816 8358.76 173.982 8383.67C164.148 8408.58 159.232 8436.92 159.232 8468.7C159.232 8500.48 164.148 8528.82 173.982 8553.73C183.816 8578.64 196.517 8600.12 212.087 8618.15C228.477 8635.33 247.324 8648.64 268.63 8658.09C289.937 8667.54 312.472 8672.26 336.237 8672.26Z" fill="#010B17"/>
<path d="M1130.31 8707.05H1122.93C1104.91 8731.96 1081.55 8754.72 1052.87 8775.34C1024.19 8795.09 987.723 8804.97 943.471 8804.97C911.512 8804.97 881.602 8799.39 853.74 8788.22C825.878 8777.91 801.704 8763.31 781.217 8744.41C760.73 8724.66 744.341 8701.9 732.049 8676.13C720.576 8649.5 714.84 8620.3 714.84 8588.52C714.84 8555.02 720.986 8524.96 733.278 8498.33C746.389 8471.71 764.008 8449.37 786.134 8431.34C809.079 8413.3 836.121 8399.56 867.261 8390.11C898.401 8379.8 931.999 8374.65 968.055 8374.65C1008.21 8374.65 1041.81 8378.94 1068.85 8387.53C1095.89 8395.26 1116.38 8402.56 1130.31 8409.43V8384.95C1130.31 8366.06 1126.21 8348.45 1118.02 8332.13C1110.64 8315.81 1099.99 8302.07 1086.06 8290.9C1072.95 8278.88 1057.79 8269.86 1040.58 8263.85C1023.37 8256.97 1005.34 8253.54 986.493 8253.54C956.173 8253.54 928.721 8259.98 904.137 8272.87C880.372 8284.89 859.066 8304.65 840.218 8332.13L732.049 8257.4C760.73 8216.18 796.377 8185.25 838.989 8164.64C881.602 8143.17 929.95 8132.43 984.035 8132.43C1073.36 8132.43 1142.19 8155.62 1190.54 8202C1239.71 8248.39 1264.29 8314.52 1264.29 8400.42V8784.35H1130.31V8707.05ZM1130.31 8521.52C1112.28 8510.36 1092.2 8501.34 1070.08 8494.47C1047.95 8487.6 1022.55 8484.16 993.868 8484.16C951.256 8484.16 917.248 8494.47 891.845 8515.08C866.441 8535.7 853.74 8560.6 853.74 8589.81C853.74 8605.27 857.018 8619.01 863.573 8631.04C870.129 8642.2 878.324 8652.08 888.157 8660.67C898.81 8669.26 910.693 8675.7 923.804 8680C937.735 8684.29 951.666 8686.44 965.597 8686.44C987.723 8686.44 1008.62 8682.14 1028.29 8673.55C1048.77 8664.11 1066.39 8652.08 1081.14 8637.48C1095.89 8622.02 1107.77 8604.41 1116.79 8584.65C1125.8 8564.9 1130.31 8543.86 1130.31 8521.52Z" fill="#010B17"/>
<path d="M1542.92 8748.28L1292.16 8153.05H1444.58L1610.52 8571.77H1616.67L1777.69 8153.05H1928.89L1551.52 9062.65H1406.48L1542.92 8748.28Z" fill="#010B17"/>
<path d="M2195.13 8804.97C2158.26 8804.97 2125.07 8799.82 2095.57 8789.51C2066.07 8779.2 2040.25 8765.89 2018.13 8749.57C1996 8732.39 1977.16 8713.06 1961.59 8691.59C1946.83 8670.12 1935.36 8647.79 1927.17 8624.59L2050.09 8570.48C2064.02 8607.42 2084.1 8634.9 2110.32 8652.94C2136.54 8670.12 2164.81 8678.71 2195.13 8678.71C2229.55 8678.71 2256.59 8671.41 2276.26 8656.8C2295.93 8642.2 2305.76 8625.88 2305.76 8607.85C2305.76 8589.81 2298.39 8574.35 2283.64 8561.46C2268.89 8547.72 2241.02 8535.7 2200.05 8525.39L2114.01 8503.49C2095.16 8499.19 2075.9 8492.75 2056.23 8484.16C2037.39 8474.71 2019.77 8463.12 2003.38 8449.37C1986.99 8434.77 1973.47 8417.59 1962.81 8397.84C1952.98 8377.22 1948.06 8353.17 1948.06 8325.69C1948.06 8294.77 1954.21 8267.28 1966.5 8243.23C1979.61 8219.18 1997.23 8199 2019.36 8182.68C2041.48 8166.36 2066.89 8153.9 2095.57 8145.31C2125.07 8136.73 2156.21 8132.43 2188.99 8132.43C2216.03 8132.43 2241.84 8135.44 2266.43 8141.45C2291.83 8147.46 2315.19 8156.48 2336.49 8168.51C2357.8 8180.53 2376.65 8195.99 2393.03 8214.89C2410.24 8232.93 2423.76 8254.4 2433.6 8279.31L2313.14 8332.13C2301.66 8304.65 2283.64 8284.89 2259.05 8272.87C2234.47 8259.98 2209.47 8253.54 2184.07 8253.54C2172.6 8253.54 2160.72 8255.26 2148.42 8258.69C2136.95 8261.27 2126.3 8265.56 2116.46 8271.58C2107.45 8276.73 2099.67 8283.6 2093.11 8292.19C2087.37 8300.78 2084.51 8310.23 2084.51 8320.54C2084.51 8337.71 2091.47 8351.46 2105.4 8361.76C2120.15 8371.21 2142.28 8379.8 2171.78 8387.53L2263.97 8412.01C2326.25 8428.33 2371.73 8453.24 2400.41 8486.74C2429.91 8519.38 2444.66 8558.03 2444.66 8602.69C2444.66 8630.18 2438.52 8655.95 2426.22 8680C2414.75 8704.05 2397.95 8725.52 2375.83 8744.41C2353.7 8763.31 2327.07 8777.91 2295.93 8788.22C2265.61 8799.39 2232.01 8804.97 2195.13 8804.97Z" fill="#010B17"/>
<path d="M3513.59 8676.33H3738.04V8793.5H3332.82V8672.67C3367.75 8636.67 3400.06 8603.41 3429.75 8572.89C3442.56 8560.08 3455.37 8546.96 3468.18 8533.53C3480.41 8520.11 3491.76 8507.9 3502.24 8496.92C3513.3 8485.32 3522.91 8475.25 3531.06 8466.71C3539.79 8457.56 3546.2 8450.54 3550.27 8445.66C3567.16 8426.13 3579.09 8409.04 3586.08 8394.4C3593.07 8379.14 3596.56 8362.66 3596.56 8344.97C3596.56 8327.27 3590.16 8312.32 3577.35 8300.11C3565.12 8287.3 3547.95 8280.89 3525.82 8280.89C3503.7 8280.89 3485.94 8287.6 3472.55 8301.03C3459.74 8313.84 3450.13 8330.93 3443.73 8352.29L3324.96 8301.03C3330.2 8282.11 3338.35 8263.8 3349.41 8246.1C3360.47 8228.41 3374.44 8212.85 3391.33 8199.42C3408.21 8185.39 3428.01 8174.1 3450.71 8165.55C3474 8157.01 3499.62 8152.74 3527.57 8152.74C3559.01 8152.74 3587.24 8157.62 3612.28 8167.38C3637.32 8176.54 3658.27 8189.35 3675.16 8205.83C3692.63 8222.31 3706.02 8241.83 3715.33 8264.41C3724.65 8286.99 3729.3 8311.4 3729.3 8337.64C3729.3 8375.48 3720.86 8410.57 3703.98 8442.91C3687.68 8474.64 3664.68 8506.07 3634.99 8537.19L3509.23 8667.18L3513.59 8676.33Z" fill="#010B17"/>
<path d="M4061.73 8808.15C4022.14 8808.15 3986.62 8799.91 3955.18 8783.43C3923.74 8766.95 3896.96 8744.07 3874.84 8714.78C3852.71 8685.49 3835.54 8651.01 3823.31 8611.34C3811.67 8571.06 3805.84 8527.43 3805.84 8480.44C3805.84 8433.45 3811.67 8390.12 3823.31 8350.46C3835.54 8310.18 3852.71 8275.4 3874.84 8246.1C3896.96 8216.81 3923.74 8193.93 3955.18 8177.45C3986.62 8160.98 4022.14 8152.74 4061.73 8152.74C4100.74 8152.74 4135.96 8160.98 4167.4 8177.45C4199.42 8193.93 4226.5 8216.81 4248.62 8246.1C4270.74 8275.4 4287.63 8310.18 4299.27 8350.46C4311.5 8390.12 4317.61 8433.45 4317.61 8480.44C4317.61 8527.43 4311.5 8571.06 4299.27 8611.34C4287.63 8651.01 4270.74 8685.49 4248.62 8714.78C4226.5 8744.07 4199.42 8766.95 4167.4 8783.43C4135.96 8799.91 4100.74 8808.15 4061.73 8808.15ZM4061.73 8679.99C4081.52 8679.99 4098.99 8675.11 4114.13 8665.35C4129.85 8654.97 4142.95 8640.94 4153.43 8623.24C4164.49 8605.54 4172.64 8584.49 4177.88 8560.08C4183.7 8535.67 4186.61 8509.12 4186.61 8480.44C4186.61 8451.76 4183.7 8425.21 4177.88 8400.8C4172.64 8376.39 4164.49 8355.34 4153.43 8337.64C4142.95 8319.95 4129.85 8306.21 4114.13 8296.45C4098.99 8286.08 4081.52 8280.89 4061.73 8280.89C4041.93 8280.89 4024.18 8286.08 4008.46 8296.45C3993.32 8306.21 3980.22 8319.95 3969.16 8337.64C3958.68 8355.34 3950.53 8376.39 3944.7 8400.8C3939.46 8425.21 3936.84 8451.76 3936.84 8480.44C3936.84 8509.12 3939.46 8535.67 3944.7 8560.08C3950.53 8584.49 3958.68 8605.54 3969.16 8623.24C3980.22 8640.94 3993.32 8654.97 4008.46 8665.35C4024.18 8675.11 4041.93 8679.99 4061.73 8679.99Z" fill="#010B17"/>
<path d="M4562.2 8676.33H4786.64V8793.5H4381.42V8672.67C4416.35 8636.67 4448.67 8603.41 4478.36 8572.89C4491.17 8560.08 4503.98 8546.96 4516.79 8533.53C4529.01 8520.11 4540.36 8507.9 4550.84 8496.92C4561.91 8485.32 4571.51 8475.25 4579.66 8466.71C4588.4 8457.56 4594.8 8450.54 4598.88 8445.66C4615.76 8426.13 4627.7 8409.04 4634.68 8394.4C4641.67 8379.14 4645.16 8362.66 4645.16 8344.97C4645.16 8327.27 4638.76 8312.32 4625.95 8300.11C4613.72 8287.3 4596.55 8280.89 4574.42 8280.89C4552.3 8280.89 4534.54 8287.6 4521.15 8301.03C4508.34 8313.84 4498.74 8330.93 4492.33 8352.29L4373.56 8301.03C4378.8 8282.11 4386.95 8263.8 4398.01 8246.1C4409.08 8228.41 4423.05 8212.85 4439.93 8199.42C4456.82 8185.39 4476.61 8174.1 4499.32 8165.55C4522.61 8157.01 4548.23 8152.74 4576.17 8152.74C4607.61 8152.74 4635.85 8157.62 4660.88 8167.38C4685.92 8176.54 4706.88 8189.35 4723.76 8205.83C4741.23 8222.31 4754.62 8241.83 4763.94 8264.41C4773.25 8286.99 4777.91 8311.4 4777.91 8337.64C4777.91 8375.48 4769.47 8410.57 4752.58 8442.91C4736.28 8474.64 4713.28 8506.07 4683.59 8537.19L4557.83 8667.18L4562.2 8676.33Z" fill="#010B17"/>
<path d="M5068.41 8808.15C5044.54 8808.15 5020.96 8804.79 4997.67 8798.08C4974.38 8791.36 4952.84 8780.99 4933.05 8766.95C4913.83 8752.92 4896.95 8735.22 4882.4 8713.86C4867.84 8692.5 4857.36 8667.48 4850.95 8638.8L4970.6 8590.29C4976.42 8618.97 4987.49 8641.55 5003.79 8658.02C5020.09 8673.89 5041.63 8681.82 5068.41 8681.82C5091.7 8681.82 5111.5 8673.28 5127.8 8656.19C5144.1 8639.11 5152.25 8617.75 5152.25 8592.12C5152.25 8566.49 5144.1 8545.13 5127.8 8528.04C5112.08 8510.95 5091.99 8502.41 5067.54 8502.41C5050.66 8502.41 5036.1 8505.77 5023.87 8512.48C5011.65 8519.19 5001.17 8527.74 4992.43 8538.11L4866.68 8477.69L4898.99 8167.38H5247.45V8284.55H5008.15L4985.45 8414.53L4994.18 8417.28C5005.24 8408.13 5018.92 8399.58 5035.23 8391.65C5052.11 8383.72 5072.49 8379.75 5096.36 8379.75C5120.81 8379.75 5144.1 8384.94 5166.23 8395.31C5188.93 8405.08 5208.73 8419.11 5225.61 8437.42C5243.08 8455.73 5257.05 8478 5267.53 8504.24C5278.01 8530.48 5283.25 8559.77 5283.25 8592.12C5283.25 8624.46 5278.01 8654.06 5267.53 8680.91C5257.05 8707.15 5242.21 8729.73 5222.99 8748.65C5203.78 8767.56 5181.07 8782.21 5154.87 8792.58C5128.67 8802.96 5099.85 8808.15 5068.41 8808.15Z" fill="#010B17"/>
<path fill-rule="evenodd" clip-rule="evenodd" d="M2950.85 8171C2918.16 8129.38 2857.36 8129.38 2824.68 8171L2814.12 8184.45C2796.83 8206.47 2770.22 8218.02 2743.14 8215.27L2726.6 8213.58C2675.42 8208.37 2632.42 8253.44 2637.39 8307.09L2639 8324.42C2641.63 8352.81 2630.6 8380.7 2609.59 8398.82L2596.77 8409.89C2557.06 8444.14 2557.06 8507.88 2596.77 8542.13L2609.59 8553.2C2630.6 8571.32 2641.63 8599.21 2639 8627.59L2637.39 8644.93C2632.42 8698.58 2675.42 8743.65 2726.6 8738.44L2743.14 8736.75C2770.22 8734 2796.83 8745.55 2814.12 8767.57L2824.68 8781.01C2857.36 8822.64 2918.16 8822.64 2950.85 8781.01L2961.4 8767.57C2978.69 8745.55 3005.3 8734 3032.38 8736.75L3048.92 8738.44C3100.11 8743.65 3143.1 8698.58 3138.13 8644.93L3136.53 8627.59C3133.9 8599.21 3144.92 8571.32 3165.93 8553.2L3178.75 8542.13C3218.47 8507.88 3218.47 8444.14 3178.75 8409.89L3165.93 8398.82C3144.92 8380.7 3133.9 8352.81 3136.53 8324.42L3138.13 8307.09C3143.1 8253.44 3100.11 8208.37 3048.92 8213.58L3032.38 8215.27C3005.3 8218.02 2978.69 8206.47 2961.4 8184.45L2950.85 8171ZM2906.43 8241.77C2899.24 8224.8 2876.28 8224.8 2869.09 8241.77L2838.74 8313.42C2834.32 8323.84 2822.89 8328.8 2812.73 8324.71L2742.93 8296.54C2726.41 8289.87 2710.17 8306.89 2716.53 8324.21L2743.41 8397.37C2747.32 8408.01 2742.58 8420 2732.64 8424.63L2664.28 8456.44C2648.1 8463.97 2648.1 8488.04 2664.28 8495.58L2732.64 8527.39C2742.58 8532.02 2747.32 8544.01 2743.41 8554.65L2716.53 8627.81C2710.17 8645.13 2726.41 8662.15 2742.93 8655.48L2812.73 8627.31C2822.89 8623.22 2834.32 8628.18 2838.74 8638.6L2869.09 8710.25C2876.28 8727.21 2899.24 8727.21 2906.43 8710.25L2936.78 8638.6C2941.2 8628.18 2952.63 8623.22 2962.79 8627.31L3032.59 8655.48C3049.11 8662.15 3065.35 8645.13 3058.99 8627.81L3032.11 8554.65C3028.2 8544.01 3032.94 8532.02 3042.89 8527.39L3111.24 8495.58C3127.43 8488.04 3127.43 8463.97 3111.24 8456.44L3042.89 8424.63C3032.94 8420 3028.2 8408.01 3032.11 8397.37L3058.99 8324.21C3065.35 8306.89 3049.11 8289.87 3032.59 8296.54L2962.79 8324.71C2952.63 8328.8 2941.2 8323.84 2936.78 8313.42L2906.43 8241.77Z" fill="#FAAB00"/>
<path d="M5782.69 8140.72H5711.51V8386.41L5545.76 8212.68L5495.43 8265.44L5661.18 8439.17H5426.78V8513.78H5661.18L5495.43 8687.5L5545.76 8740.26L5711.51 8566.54V8812.22H5782.69V8566.54L5948.44 8740.26L5998.77 8687.5L5833.03 8513.78H6067.43V8439.17H5833.03L5998.77 8265.44L5948.44 8212.68L5782.69 8386.41V8140.72Z" fill="#EA4336"/>
<path d="M614.036 7380.44C602.563 7405.35 588.223 7428.97 571.014 7451.3C554.625 7472.77 534.957 7492.1 512.012 7509.28C489.887 7525.59 464.073 7538.48 434.573 7547.93C405.072 7557.37 372.703 7562.1 337.466 7562.1C291.576 7562.1 249.373 7553.94 210.858 7537.62C172.343 7520.44 139.155 7496.82 111.293 7466.76C83.4309 7436.7 61.715 7401.05 46.1452 7359.82C30.5753 7318.59 22.7904 7273.93 22.7904 7225.83C22.7904 7177.73 30.5753 7133.07 46.1452 7091.84C61.715 7050.61 83.4309 7014.96 111.293 6984.9C139.155 6954.84 172.343 6931.65 210.858 6915.33C249.373 6898.15 291.576 6889.56 337.466 6889.56C372.703 6889.56 404.662 6894.29 433.343 6903.73C462.844 6913.18 488.657 6926.49 510.783 6943.67C533.728 6959.99 553.395 6979.32 569.785 7001.65C586.174 7023.12 599.286 7045.89 609.119 7069.94L483.741 7125.34C469.81 7092.7 450.552 7067.36 425.968 7049.32C401.384 7031.28 370.244 7022.26 332.549 7022.26C309.604 7022.26 287.478 7027.42 266.172 7037.73C245.685 7047.17 227.247 7060.92 210.858 7078.95C195.288 7096.13 182.586 7117.18 172.753 7142.08C163.739 7166.99 159.232 7194.91 159.232 7225.83C159.232 7256.75 163.739 7284.67 172.753 7309.58C182.586 7334.48 195.288 7355.96 210.858 7373.99C227.247 7391.17 245.685 7404.92 266.172 7415.22C287.478 7424.67 309.604 7429.4 332.549 7429.4C370.244 7429.4 402.204 7420.38 428.427 7402.34C455.469 7383.44 476.365 7357.67 491.116 7325.04L614.036 7380.44Z" fill="#010B17"/>
<path d="M688.038 7541.48V6619H824.479V7541.48H688.038Z" fill="#010B17"/>
<path d="M2025.84 7456.45H2018.46C2000.43 7486.51 1974.62 7511.85 1941.02 7532.47C1908.24 7552.22 1870.96 7562.1 1829.17 7562.1C1752.96 7562.1 1696 7538.48 1658.31 7491.24C1620.61 7443.14 1601.76 7379.58 1601.76 7300.56V6910.18H1738.2V7281.23C1738.2 7336.2 1750.09 7374.85 1773.85 7397.19C1798.44 7418.66 1830.39 7429.4 1869.73 7429.4C1892.67 7429.4 1913.16 7424.24 1931.19 7413.93C1950.04 7403.63 1966.02 7389.88 1979.13 7372.71C1992.24 7354.67 2002.07 7334.48 2008.63 7312.15C2015.18 7288.96 2018.46 7264.91 2018.46 7240V6910.18H2154.9V7541.48H2025.84V7456.45Z" fill="#010B17"/>
<path d="M2717.55 7460.32H2710.18C2693.79 7487.8 2668.79 7511.85 2635.19 7532.47C2601.6 7552.22 2561.44 7562.1 2514.73 7562.1C2476.22 7562.1 2439.34 7553.94 2404.1 7537.62C2369.69 7520.44 2339.37 7496.82 2313.14 7466.76C2286.92 7436.7 2266.02 7401.48 2250.45 7361.11C2234.88 7319.88 2227.1 7274.79 2227.1 7225.83C2227.1 7176.87 2234.88 7132.21 2250.45 7091.84C2266.02 7050.61 2286.92 7014.96 2313.14 6984.9C2339.37 6954.84 2369.69 6931.65 2404.1 6915.33C2439.34 6898.15 2476.22 6889.56 2514.73 6889.56C2561.44 6889.56 2601.6 6899.87 2635.19 6920.48C2668.79 6940.24 2693.79 6963.86 2710.18 6991.34H2717.55L2710.18 6903.73V6619H2846.62V7541.48H2717.55V7460.32ZM2540.55 7429.4C2563.49 7429.4 2585.62 7424.67 2606.92 7415.22C2629.05 7405.77 2647.9 7392.46 2663.47 7375.28C2679.86 7358.1 2692.97 7337.06 2702.8 7312.15C2712.63 7286.38 2717.55 7257.61 2717.55 7225.83C2717.55 7194.05 2712.63 7165.71 2702.8 7140.8C2692.97 7115.03 2679.86 7093.56 2663.47 7076.38C2647.9 7059.2 2629.05 7045.89 2606.92 7036.44C2585.62 7026.99 2563.49 7022.26 2540.55 7022.26C2516.78 7022.26 2494.25 7026.99 2472.94 7036.44C2451.63 7045.89 2432.79 7059.63 2416.4 7077.67C2400.83 7094.84 2388.13 7115.89 2378.29 7140.8C2368.46 7165.71 2363.54 7194.05 2363.54 7225.83C2363.54 7257.61 2368.46 7285.95 2378.29 7310.86C2388.13 7335.77 2400.83 7357.25 2416.4 7375.28C2432.79 7392.46 2451.63 7405.77 2472.94 7415.22C2494.25 7424.67 2516.78 7429.4 2540.55 7429.4Z" fill="#010B17"/>
<path d="M1216.21 6895C1038.53 6895 894.499 7045.97 894.499 7232.21C1072.18 7232.21 1216.21 7081.23 1216.21 6895Z" fill="#4285F4"/>
<path d="M1216.21 7569.41C1038.53 7569.41 894.499 7418.44 894.499 7232.21C1072.18 7232.21 1216.21 7383.18 1216.21 7569.41Z" fill="#4285F4"/>
<path d="M1216.21 6895C1393.89 6895 1537.92 7045.97 1537.92 7232.21C1360.25 7232.21 1216.21 7081.23 1216.21 6895Z" fill="#4285F4"/>
<path d="M1216.21 7569.41C1393.89 7569.41 1537.92 7418.44 1537.92 7232.21C1360.25 7232.21 1216.21 7383.18 1216.21 7569.41Z" fill="#4285F4"/>
<path d="M3777.16 7380.44C3765.69 7405.35 3751.35 7428.97 3734.14 7451.3C3717.75 7472.77 3698.08 7492.1 3675.14 7509.28C3653.01 7525.59 3627.2 7538.48 3597.7 7547.93C3568.2 7557.37 3535.83 7562.1 3500.59 7562.1C3454.7 7562.1 3412.5 7553.94 3373.98 7537.62C3335.47 7520.44 3302.28 7496.82 3274.42 7466.76C3246.56 7436.7 3224.84 7401.05 3209.27 7359.82C3193.7 7318.59 3185.92 7273.93 3185.92 7225.83C3185.92 7177.73 3193.7 7133.07 3209.27 7091.84C3224.84 7050.61 3246.56 7014.96 3274.42 6984.9C3302.28 6954.84 3335.47 6931.65 3373.98 6915.33C3412.5 6898.15 3454.7 6889.56 3500.59 6889.56C3535.83 6889.56 3567.79 6894.29 3596.47 6903.73C3625.97 6913.18 3651.78 6926.49 3673.91 6943.67C3696.85 6959.99 3716.52 6979.32 3732.91 7001.65C3749.3 7023.12 3762.41 7045.89 3772.24 7069.94L3646.87 7125.34C3632.94 7092.7 3613.68 7067.36 3589.09 7049.32C3564.51 7031.28 3533.37 7022.26 3495.67 7022.26C3472.73 7022.26 3450.6 7027.42 3429.3 7037.73C3408.81 7047.17 3390.37 7060.92 3373.98 7078.95C3358.41 7096.13 3345.71 7117.18 3335.88 7142.08C3326.86 7166.99 3322.36 7194.91 3322.36 7225.83C3322.36 7256.75 3326.86 7284.67 3335.88 7309.58C3345.71 7334.48 3358.41 7355.96 3373.98 7373.99C3390.37 7391.17 3408.81 7404.92 3429.3 7415.22C3450.6 7424.67 3472.73 7429.4 3495.67 7429.4C3533.37 7429.4 3565.33 7420.38 3591.55 7402.34C3618.59 7383.44 3639.49 7357.67 3654.24 7325.04L3777.16 7380.44Z" fill="#010B17"/>
<path fill-rule="evenodd" clip-rule="evenodd" d="M4155.48 6897.44C3977.66 6897.44 3833.51 7048.54 3833.51 7234.92C3833.51 7421.3 3977.66 7572.4 4155.48 7572.4C4333.31 7572.4 4477.46 7421.3 4477.46 7234.92C4477.46 7048.54 4333.31 6897.44 4155.48 6897.44ZM4155.48 7459.91C4036.94 7459.91 3940.83 7359.18 3940.83 7234.92H4370.13C4370.13 7359.18 4274.03 7459.91 4155.48 7459.91Z" fill="#34A853"/>
<path d="M4563.71 6920.41H4692.77V7005.45H4700.15C4719 6974.52 4745.22 6949.19 4778.82 6929.43C4812.42 6909.68 4848.06 6899.8 4885.76 6899.8C4930.83 6899.8 4969.35 6910.96 5001.3 6933.3C5034.08 6954.77 5057.85 6983.11 5072.6 7018.33C5093.08 6984.83 5120.54 6956.92 5154.95 6934.58C5189.37 6911.39 5230.76 6899.8 5279.1 6899.8C5315.98 6899.8 5347.94 6906.24 5374.98 6919.12C5402.02 6931.15 5424.15 6948.33 5441.36 6970.66C5459.39 6992.99 5472.91 7020.05 5481.92 7051.83C5490.94 7082.75 5495.44 7117.54 5495.44 7156.19V7551.72H5359V7180.67C5359 7125.69 5348.76 7087.47 5328.27 7066C5308.6 7043.67 5279.51 7032.5 5241 7032.5C5218.87 7032.5 5198.8 7037.66 5180.77 7047.96C5163.56 7058.27 5148.81 7072.44 5136.52 7090.48C5124.22 7107.66 5114.8 7127.84 5108.24 7151.03C5101.69 7174.22 5098.41 7198.7 5098.41 7224.47V7551.72H4961.97V7180.67C4961.97 7125.69 4951.32 7087.47 4930.01 7066C4909.52 7043.67 4879.61 7032.5 4840.28 7032.5C4818.97 7032.5 4799.71 7037.66 4782.51 7047.96C4765.3 7058.27 4750.55 7072.44 4738.26 7090.48C4725.96 7107.66 4716.54 7127.84 4709.98 7151.03C4703.43 7174.22 4700.15 7198.7 4700.15 7224.47V7551.72H4563.71V6920.41Z" fill="#010B17"/>
<path d="M5603.87 6920.41H5732.94V7005.45H5740.31C5759.16 6974.52 5785.38 6949.19 5818.98 6929.43C5852.58 6909.68 5888.23 6899.8 5925.92 6899.8C5970.99 6899.8 6009.51 6910.96 6041.47 6933.3C6074.25 6954.77 6098.01 6983.11 6112.76 7018.33C6133.25 6984.83 6160.7 6956.92 6195.12 6934.58C6229.53 6911.39 6270.92 6899.8 6319.27 6899.8C6356.14 6899.8 6388.1 6906.24 6415.14 6919.12C6442.19 6931.15 6464.31 6948.33 6481.52 6970.66C6499.55 6992.99 6513.07 7020.05 6522.08 7051.83C6531.1 7082.75 6535.61 7117.54 6535.61 7156.19V7551.72H6399.16V7180.67C6399.16 7125.69 6388.92 7087.47 6368.43 7066C6348.77 7043.67 6319.68 7032.5 6281.16 7032.5C6259.03 7032.5 6238.96 7037.66 6220.93 7047.96C6203.72 7058.27 6188.97 7072.44 6176.68 7090.48C6164.39 7107.66 6154.96 7127.84 6148.41 7151.03C6141.85 7174.22 6138.57 7198.7 6138.57 7224.47V7551.72H6002.13V7180.67C6002.13 7125.69 5991.48 7087.47 5970.17 7066C5949.69 7043.67 5919.78 7032.5 5880.44 7032.5C5859.14 7032.5 5839.88 7037.66 5822.67 7047.96C5805.46 7058.27 5790.71 7072.44 5778.42 7090.48C5766.13 7107.66 5756.7 7127.84 5750.15 7151.03C5743.59 7174.22 5740.31 7198.7 5740.31 7224.47V7551.72H5603.87V6920.41Z" fill="#010B17"/>
<path d="M7063.19 7466.69H7055.82C7037.79 7496.75 7011.98 7522.09 6978.38 7542.7C6945.6 7562.46 6908.31 7572.34 6866.52 7572.34C6790.31 7572.34 6733.36 7548.71 6695.66 7501.47C6657.97 7453.37 6639.12 7389.81 6639.12 7310.79V6920.41H6775.56V7291.47C6775.56 7346.44 6787.44 7385.09 6811.21 7407.42C6835.79 7428.9 6867.75 7439.63 6907.08 7439.63C6930.03 7439.63 6950.52 7434.48 6968.54 7424.17C6987.39 7413.86 7003.37 7400.12 7016.48 7382.94C7029.59 7364.91 7039.43 7344.72 7045.98 7322.39C7052.54 7299.2 7055.82 7275.15 7055.82 7250.24V6920.41H7192.26V7551.72H7063.19V7466.69Z" fill="#010B17"/>
<path d="M7433.94 7005.45H7441.32C7459.34 6975.38 7484.75 6950.47 7517.52 6930.72C7551.12 6910.1 7588.82 6899.8 7630.61 6899.8C7706.82 6899.8 7763.78 6923.85 7801.47 6971.95C7839.17 7019.19 7858.01 7082.32 7858.01 7161.34V7551.72H7721.57V7180.67C7721.57 7125.69 7709.28 7087.47 7684.7 7066C7660.93 7043.67 7629.38 7032.5 7590.05 7032.5C7566.28 7032.5 7545.39 7037.66 7527.36 7047.96C7509.33 7058.27 7493.76 7072.44 7480.65 7090.48C7467.54 7107.66 7457.7 7127.84 7451.15 7151.03C7444.59 7173.37 7441.32 7196.99 7441.32 7221.89V7551.72H7304.87V6920.41H7433.94V7005.45Z" fill="#010B17"/>
<path d="M8044.38 7092.83C8018.16 7092.83 7996.03 7083.38 7978 7064.49C7960.8 7045.59 7952.19 7022.83 7952.19 6996.2C7952.19 6969.58 7960.8 6946.81 7978 6927.92C7996.03 6909.02 8018.16 6899.57 8044.38 6899.57C8069.79 6899.57 8091.09 6909.02 8108.3 6927.92C8126.33 6946.81 8135.34 6969.58 8135.34 6996.2C8135.34 7022.83 8126.33 7045.59 8108.3 7064.49C8091.09 7083.38 8069.79 7092.83 8044.38 7092.83ZM7975.55 7551.72V7155.44H8111.99V7551.72H7975.55Z" fill="#010B17"/>
<path d="M8295.6 7046.67H8189.89V6920.41H8295.6V6727.15H8432.04V6920.41H8580.77V7046.67H8432.04V7327.54C8432.04 7343 8433.68 7357.17 8436.96 7370.06C8440.24 7382.94 8445.15 7393.68 8451.71 7402.27C8465.64 7418.59 8483.26 7426.75 8504.56 7426.75C8517.67 7426.75 8527.92 7425.89 8535.29 7424.17C8542.67 7421.59 8550.45 7418.16 8558.65 7413.86L8600.44 7540.13C8583.23 7547 8565.21 7552.15 8546.36 7555.59C8527.51 7559.88 8506.2 7562.03 8482.44 7562.03C8453.76 7562.03 8428.35 7557.3 8406.23 7547.86C8384.1 7538.41 8364.84 7525.52 8348.46 7509.2C8313.22 7472.27 8295.6 7422.02 8295.6 7358.46V7046.67Z" fill="#010B17"/>
<path d="M8862.03 7515.65L8611.27 6920.41H8763.69L8929.64 7339.14H8935.78L9096.81 6920.41H9248L8870.64 7830.01H8725.59L8862.03 7515.65Z" fill="#010B17"/>
<path d="M8137.36 6994.91C8137.36 7049.56 8095.09 7093.87 8042.95 7093.87C7990.8 7093.87 7948.53 7049.56 7948.53 6994.91C7948.53 6940.25 7990.8 6895.95 8042.95 6895.95C8095.09 6895.95 8137.36 6940.25 8137.36 6994.91Z" fill="#010B17"/>
<path d="M0 5681.47H75.7272L134.508 5902.76L142.981 5943.53H147.218L158.339 5902.76L212.884 5732.29H279.608L334.683 5902.76L345.274 5943H349.51L357.454 5902.76L412.528 5681.47H488.255L387.639 6060.53H318.796L259.485 5877.88L248.364 5836.06H244.128L233.007 5877.88L173.696 6060.53H104.853L0 5681.47Z" fill="#4285F4"/>
<path d="M606.401 5749.24V5837.12H758.385V5904.88H606.401V5992.76H775.331V6060.53H534.91V5681.47H775.331V5749.24H606.401Z" fill="#4285F4"/>
<path d="M841.063 5681.47H912.554V5992.76H1073.01V6060.53H841.063V5681.47Z" fill="#4285F4"/>
<path d="M1447.69 5999.65C1428.98 6022.24 1406.92 6039.53 1381.5 6051.53C1356.08 6063.18 1327.66 6069 1296.24 6069C1267.99 6069 1241.69 6063.88 1217.33 6053.65C1193.33 6043.41 1172.5 6029.47 1154.84 6011.82C1137.19 5994.18 1123.25 5973.35 1113.01 5949.35C1102.77 5925 1097.65 5898.88 1097.65 5871C1097.65 5843.12 1102.77 5817.18 1113.01 5793.18C1123.25 5768.82 1137.19 5747.82 1154.84 5730.18C1172.5 5712.53 1193.33 5698.59 1217.33 5688.35C1241.69 5678.12 1267.99 5673 1296.24 5673C1326.6 5673 1353.25 5678.29 1376.2 5688.88C1399.5 5699.47 1420.15 5714.82 1438.16 5734.94L1387.85 5783.65C1376.55 5770.59 1363.49 5760.18 1348.66 5752.41C1334.19 5744.65 1316.89 5740.76 1296.77 5740.76C1279.11 5740.76 1262.52 5743.94 1246.99 5750.29C1231.45 5756.29 1217.86 5764.94 1206.21 5776.24C1194.91 5787.53 1185.91 5801.29 1179.2 5817.53C1172.5 5833.41 1169.14 5851.24 1169.14 5871C1169.14 5890.76 1172.5 5908.76 1179.2 5925C1185.91 5940.88 1194.91 5954.47 1206.21 5965.76C1217.86 5977.06 1231.45 5985.88 1246.99 5992.24C1262.52 5998.24 1279.11 6001.24 1296.77 6001.24C1317.95 6001.24 1336.66 5997 1352.9 5988.53C1369.49 5979.71 1384.14 5967.35 1396.85 5951.47L1447.69 5999.65Z" fill="#4285F4"/>
<path d="M1679.43 6069C1651.19 6069 1624.89 6063.88 1600.53 6053.65C1576.52 6043.41 1555.69 6029.47 1538.04 6011.82C1520.39 5993.82 1506.44 5972.82 1496.2 5948.82C1486.32 5924.47 1481.38 5898.53 1481.38 5871C1481.38 5843.47 1486.32 5817.71 1496.2 5793.71C1506.44 5769.35 1520.39 5748.35 1538.04 5730.71C1555.69 5712.71 1576.52 5698.59 1600.53 5688.35C1624.89 5678.12 1651.19 5673 1679.43 5673C1707.68 5673 1733.8 5678.12 1757.81 5688.35C1782.17 5698.59 1803.17 5712.71 1820.83 5730.71C1838.48 5748.35 1852.25 5769.35 1862.13 5793.71C1872.37 5817.71 1877.49 5843.47 1877.49 5871C1877.49 5898.53 1872.37 5924.47 1862.13 5948.82C1852.25 5972.82 1838.48 5993.82 1820.83 6011.82C1803.17 6029.47 1782.17 6043.41 1757.81 6053.65C1733.8 6063.88 1707.68 6069 1679.43 6069ZM1679.43 6001.24C1697.08 6001.24 1713.5 5998.06 1728.68 5991.71C1744.22 5985.35 1757.63 5976.53 1768.93 5965.24C1780.58 5953.94 1789.58 5940.35 1795.94 5924.47C1802.64 5908.24 1806 5890.41 1806 5871C1806 5851.59 1802.64 5833.94 1795.94 5818.06C1789.58 5801.82 1780.58 5788.06 1768.93 5776.76C1757.63 5765.47 1744.22 5756.65 1728.68 5750.29C1713.5 5743.94 1697.08 5740.76 1679.43 5740.76C1661.78 5740.76 1645.19 5743.94 1629.65 5750.29C1614.47 5756.65 1601.06 5765.47 1589.41 5776.76C1578.11 5788.06 1569.11 5801.82 1562.4 5818.06C1556.04 5833.94 1552.87 5851.59 1552.87 5871C1552.87 5890.41 1556.04 5908.24 1562.4 5924.47C1569.11 5940.35 1578.11 5953.94 1589.41 5965.24C1601.06 5976.53 1614.47 5985.35 1629.65 5991.71C1645.19 5998.06 1661.78 6001.24 1679.43 6001.24Z" fill="#4285F4"/>
<path d="M1935.35 5681.47H2005.78L2121.76 5882.12H2125.99L2241.97 5681.47H2312.93V6060.53H2241.97V5873.65L2246.2 5810.12H2241.97L2145.59 5980.06H2102.69L2005.78 5810.12H2001.55L2005.78 5873.65V6060.53H1935.35V5681.47Z" fill="#4285F4"/>
<path d="M2460.9 5749.24V5837.12H2612.88V5904.88H2460.9V5992.76H2629.83V6060.53H2389.41V5681.47H2629.83V5749.24H2460.9Z" fill="#4285F4"/>
<path d="M2871.21 6060.53V5749.24H2765.3V5681.47H3048.61V5749.24H2942.7V6060.53H2871.21Z" fill="#4285F4"/>
<path d="M3262.94 6069C3234.7 6069 3208.4 6063.88 3184.04 6053.65C3160.03 6043.41 3139.2 6029.47 3121.55 6011.82C3103.9 5993.82 3089.95 5972.82 3079.72 5948.82C3069.83 5924.47 3064.89 5898.53 3064.89 5871C3064.89 5843.47 3069.83 5817.71 3079.72 5793.71C3089.95 5769.35 3103.9 5748.35 3121.55 5730.71C3139.2 5712.71 3160.03 5698.59 3184.04 5688.35C3208.4 5678.12 3234.7 5673 3262.94 5673C3291.19 5673 3317.31 5678.12 3341.32 5688.35C3365.68 5698.59 3386.68 5712.71 3404.34 5730.71C3421.99 5748.35 3435.76 5769.35 3445.64 5793.71C3455.88 5817.71 3461 5843.47 3461 5871C3461 5898.53 3455.88 5924.47 3445.64 5948.82C3435.76 5972.82 3421.99 5993.82 3404.34 6011.82C3386.68 6029.47 3365.68 6043.41 3341.32 6053.65C3317.31 6063.88 3291.19 6069 3262.94 6069ZM3262.94 6001.24C3280.6 6001.24 3297.01 5998.06 3312.19 5991.71C3327.73 5985.35 3341.14 5976.53 3352.44 5965.24C3364.09 5953.94 3373.09 5940.35 3379.45 5924.47C3386.16 5908.24 3389.51 5890.41 3389.51 5871C3389.51 5851.59 3386.16 5833.94 3379.45 5818.06C3373.09 5801.82 3364.09 5788.06 3352.44 5776.76C3341.14 5765.47 3327.73 5756.65 3312.19 5750.29C3297.01 5743.94 3280.6 5740.76 3262.94 5740.76C3245.29 5740.76 3228.7 5743.94 3213.17 5750.29C3197.98 5756.65 3184.57 5765.47 3172.92 5776.76C3161.62 5788.06 3152.62 5801.82 3145.91 5818.06C3139.56 5833.94 3136.38 5851.59 3136.38 5871C3136.38 5890.41 3139.56 5908.24 3145.91 5924.47C3152.62 5940.35 3161.62 5953.94 3172.92 5965.24C3184.57 5976.53 3197.98 5985.35 3213.17 5991.71C3228.7 5998.06 3245.29 6001.24 3262.94 6001.24Z" fill="#4285F4"/>
<path d="M4520.02 5592.36L4236.88 5453.15L4434.29 5236.16L4718.1 5373.62L4867.1 4984.74L5110.63 4946.02L4961.64 5334.9L5064.75 5274.96L5181.35 5207.21L5291.2 5143.37L5394.31 5083.43L5440.25 5261.78L5257.61 5368.46L5006.95 5514.86L5290.58 5652.41L5093.17 5869.4L4809.49 5731.99L4659.88 6122.48L4560.22 6138.35L4416.35 6161.21L4565.96 5770.71L4133.15 6022.13L4087.21 5843.78L4418.32 5651.45L4520.02 5592.36Z" fill="#EA4535" stroke="#010B17" stroke-width="22.8" stroke-linecap="round" stroke-linejoin="round"/>
<path d="M5093.13 5869.42L5290.54 5652.43L5327.47 5692.67L5508.26 5890.26L5310.85 6107.25L5093.13 5869.42Z" stroke="#010B17" stroke-width="22.8" stroke-linecap="round" stroke-linejoin="round"/>
<path d="M5006.91 5514.88L5257.57 5368.48L5440.2 5261.8L5657.92 5499.63L5327.46 5692.67L5290.54 5652.43L5006.91 5514.88Z" stroke="#010B17" stroke-width="22.8" stroke-linecap="round" stroke-linejoin="round"/>
<path d="M4809.5 5732.02L5093.18 5869.43L5310.9 6107.27L5027.22 5969.85L4809.5 5732.02Z" stroke="#010B17" stroke-width="22.8" stroke-linecap="round" stroke-linejoin="round"/>
<path d="M4565.96 5770.72L4416.34 6161.22L4452.57 6200.89L4350.86 6259.98L4133.15 6022.14L4565.96 5770.72Z" stroke="#010B17" stroke-width="22.8" stroke-linecap="round" stroke-linejoin="round"/>
<path d="M4416.44 6161.27L4560.32 6138.41L4659.97 6122.54L4716.5 6184.2L4877.69 6360.38L4634.16 6399.1L4452.67 6200.93L4416.44 6161.27Z" stroke="#010B17" stroke-width="22.8" stroke-linecap="round" stroke-linejoin="round"/>
<path d="M4659.97 6122.53L4809.59 5732.04L5027.3 5969.87L4877.69 6360.37L4716.5 6184.18L4659.97 6122.53Z" stroke="#010B17" stroke-width="22.8" stroke-linecap="round" stroke-linejoin="round"/>
<path d="M5394.28 5083.42L5612 5321.26L5657.94 5499.61L5440.22 5261.77L5394.28 5083.42Z" stroke="#010B17" stroke-width="22.8" stroke-linecap="round" stroke-linejoin="round"/>
<path d="M4961.66 5334.96L5110.66 4946.09L5291.23 5143.44L5181.38 5207.28L5064.78 5275.02L4961.66 5334.96Z" stroke="#010B17" stroke-width="22.8" stroke-linecap="round" stroke-linejoin="round"/>
<path d="M4236.84 5453.16L4519.98 5592.38L4418.28 5651.47L4236.84 5453.16Z" stroke="#010B17" stroke-width="22.8" stroke-linecap="round" stroke-linejoin="round"/>
<path d="M2269.15 420.519C2234.84 400.912 2207.75 373.824 2187.89 339.254C2168.02 304.683 2157.96 266.501 2157.96 224.965C2157.96 183.429 2168.02 144.989 2187.89 110.677C2207.75 76.1065 2234.84 49.0176 2269.15 29.4105C2303.47 9.8035 2340.87 0 2381.38 0C2413.11 0 2442.78 5.67596 2470.9 16.7694C2498.76 28.1208 2521.72 43.858 2539.78 64.239L2503.15 100.873C2489.47 84.1039 2471.93 70.9467 2450.52 61.9172C2429.11 52.8876 2406.15 48.2439 2381.64 48.2439C2351.45 48.2439 2323.33 55.4673 2297.02 70.1726C2270.7 84.8778 2249.55 105.517 2233.81 132.09C2217.81 158.662 2210.07 189.621 2210.07 224.449C2210.07 259.277 2218.07 290.236 2233.81 316.808C2249.55 343.381 2270.7 364.278 2297.02 378.726C2323.33 393.431 2351.45 400.654 2381.64 400.654C2411.82 400.654 2434.78 396.01 2454.13 386.981C2473.48 377.951 2490.51 366.084 2504.95 351.121C2515.27 339.769 2523.79 326.096 2530.24 310.101C2536.69 294.106 2540.56 276.562 2541.59 257.729H2382.67V210.26H2589.83C2591.9 221.611 2592.93 231.931 2592.93 241.476C2592.93 268.049 2588.8 293.848 2580.29 318.872C2571.77 343.897 2558.36 365.826 2540.04 384.659C2499.54 427.743 2446.65 449.156 2381.64 449.156C2341.13 449.156 2303.72 439.352 2269.41 419.745L2269.15 420.519Z" fill="black"/>
<path d="M2705.46 429.193C2682.24 415.262 2663.92 396.171 2651.02 371.92C2637.86 347.669 2631.41 320.581 2631.41 290.912C2631.41 261.244 2637.86 234.155 2651.02 209.904C2663.92 185.653 2682.24 166.562 2705.46 152.631C2728.68 138.7 2754.99 131.992 2784.4 131.992C2813.81 131.992 2840.13 138.958 2863.6 152.631C2887.08 166.304 2905.4 185.653 2918.3 209.904C2931.45 234.155 2937.9 261.244 2937.9 290.912C2937.9 320.581 2931.45 347.669 2918.3 371.92C2905.14 396.171 2887.08 415.262 2863.6 429.193C2840.13 443.125 2813.81 450.09 2784.4 450.09C2754.99 450.09 2728.68 443.125 2705.46 429.193ZM2834.97 389.721C2850.7 380.434 2863.09 367.276 2872.63 350.249C2882.18 333.222 2886.82 313.357 2886.82 290.912C2886.82 268.467 2882.18 248.602 2872.63 231.575C2863.09 214.548 2850.7 201.39 2834.97 192.103C2819.23 182.815 2802.46 178.172 2784.4 178.172C2766.34 178.172 2750.09 182.815 2734.35 192.103C2718.61 201.39 2706.23 214.548 2696.68 231.575C2687.14 248.602 2682.5 268.467 2682.5 290.912C2682.5 313.357 2687.14 333.222 2696.68 350.249C2706.23 367.276 2718.61 380.434 2734.35 389.721C2750.09 399.009 2766.6 403.653 2784.4 403.653C2802.2 403.653 2819.23 399.009 2834.97 389.721Z" fill="black"/>
<path d="M3046.71 429.193C3023.49 415.262 3005.17 396.171 2992.27 371.92C2979.11 347.669 2972.66 320.581 2972.66 290.912C2972.66 261.244 2979.11 234.155 2992.27 209.904C3005.17 185.653 3023.49 166.562 3046.71 152.631C3069.93 138.7 3096.24 131.992 3125.65 131.992C3155.06 131.992 3181.38 138.958 3204.85 152.631C3228.33 166.304 3246.65 185.653 3259.55 209.904C3272.7 234.155 3279.15 261.244 3279.15 290.912C3279.15 320.581 3272.7 347.669 3259.55 371.92C3246.39 396.171 3228.33 415.262 3204.85 429.193C3181.38 443.125 3155.06 450.09 3125.65 450.09C3096.24 450.09 3069.93 443.125 3046.71 429.193ZM3176.22 389.721C3191.95 380.434 3204.34 367.276 3213.88 350.249C3223.43 333.222 3228.07 313.357 3228.07 290.912C3228.07 268.467 3223.43 248.602 3213.88 231.575C3204.34 214.548 3191.95 201.39 3176.22 192.103C3160.48 182.815 3143.71 178.172 3125.65 178.172C3107.59 178.172 3091.34 182.815 3075.6 192.103C3059.86 201.39 3047.48 214.548 3037.93 231.575C3028.39 248.602 3023.75 268.467 3023.75 290.912C3023.75 313.357 3028.39 333.222 3037.93 350.249C3047.48 367.276 3059.86 380.434 3075.6 389.721C3091.34 399.009 3107.85 403.653 3125.65 403.653C3143.45 403.653 3160.48 399.009 3176.22 389.721Z" fill="black"/>
<path d="M3373.71 554.059C3350.75 536.774 3335.27 516.651 3327.27 493.948L3374.74 474.083C3380.68 491.626 3391.51 506.074 3406.99 517.167C3422.47 528.26 3440.79 533.678 3462.2 533.678C3493.93 533.678 3518.18 524.391 3535.21 506.074C3552.24 487.757 3560.75 461.958 3560.75 428.935V396.945H3558.43C3548.89 412.166 3534.95 424.807 3516.9 434.869C3498.84 444.93 3478.46 449.832 3455.49 449.832C3430.21 449.832 3406.73 442.867 3385.06 429.193C3363.39 415.52 3346.11 396.429 3333.21 372.436C3320.31 348.185 3313.86 321.097 3313.86 290.912C3313.86 260.728 3320.31 233.381 3333.21 209.388C3346.11 185.396 3363.39 166.304 3385.06 152.631C3406.73 138.958 3430.21 131.992 3455.49 131.992C3478.46 131.992 3498.84 136.894 3516.9 146.955C3534.95 157.017 3548.89 169.658 3558.43 184.879H3560.75V141.538H3609.51V428.161C3609.51 461.184 3603.06 489.046 3590.16 511.749C3577.26 534.71 3559.72 551.737 3537.53 562.831C3515.35 574.182 3490.06 579.6 3461.94 579.6C3425.83 579.6 3396.42 571.086 3373.45 553.801L3373.71 554.059ZM3512.25 389.979C3526.96 380.95 3539.08 367.792 3548.11 351.023C3557.14 334.254 3561.78 314.131 3561.78 291.17C3561.78 268.209 3557.14 248.086 3548.11 231.059C3539.08 214.032 3527.21 200.874 3512.25 192.103C3497.29 183.331 3481.03 178.688 3463.49 178.688C3445.95 178.688 3429.44 183.332 3414.73 192.361C3399.77 201.391 3387.9 214.548 3378.87 231.317C3369.84 248.344 3365.2 268.209 3365.2 291.17C3365.2 314.131 3369.84 334.254 3378.87 351.023C3387.9 367.792 3399.77 380.95 3414.73 389.979C3429.69 399.009 3445.95 403.653 3463.49 403.653C3481.03 403.653 3497.29 399.009 3512.25 389.979Z" fill="black"/>
<path d="M3671.06 9.27344H3722.14V440.37H3671.06V9.27344Z" fill="black"/>
<path d="M3843.33 429.381C3820.63 415.708 3802.83 396.875 3789.93 372.882C3777.03 348.889 3770.58 321.542 3770.58 291.1C3770.58 262.205 3776.51 235.632 3788.64 211.382C3800.76 187.131 3817.79 167.782 3840.23 153.593C3862.68 139.403 3887.96 132.18 3917.11 132.18C3946.27 132.18 3971.29 138.629 3993.22 151.787C4015.15 164.944 4031.92 183.261 4043.53 206.996C4055.14 230.731 4061.07 258.077 4061.07 288.778C4061.07 294.453 4060.56 298.323 4059.78 300.903H3822.69C3823.47 323.348 3828.88 342.439 3838.94 357.919C3849.01 373.398 3861.65 385.007 3876.61 392.489C3891.57 400.228 3907.31 403.84 3923.31 403.84C3960.97 403.84 3990.12 385.523 4010.51 348.373L4055.65 370.044C4042.75 394.037 4024.95 413.386 4002.25 428.091C3979.55 442.796 3952.46 450.02 3920.73 450.02C3891.83 450.02 3866.03 443.312 3843.33 429.639V429.381ZM4006.89 257.819C4006.12 245.694 4002.77 233.827 3996.58 221.701C3990.64 209.576 3980.84 199.514 3967.42 191.001C3954.01 182.487 3936.72 178.359 3916.08 178.359C3893.64 178.359 3874.03 185.583 3857.78 200.03C3841.52 214.478 3830.95 233.827 3826.56 257.819H4007.15H4006.89Z" fill="black"/>
<path d="M4256.74 9.1016H4387.28C4431.4 9.1016 4470.1 18.1311 4502.86 36.4482C4535.88 54.7653 4561.17 80.0483 4578.71 112.555C4596.25 145.061 4605.28 182.469 4605.28 224.521C4605.28 266.573 4596.51 303.981 4578.71 336.488C4560.91 368.994 4535.63 394.277 4502.86 412.594C4469.84 430.911 4431.4 439.94 4387.28 439.94H4256.74V8.84375V9.1016ZM4387.28 391.439C4438.37 391.439 4478.61 376.734 4508.28 347.581C4537.95 318.429 4552.91 277.408 4552.91 224.779C4552.91 172.15 4537.95 131.388 4508.28 101.977C4478.61 72.5666 4438.37 58.1194 4387.28 58.1194H4307.82V391.697H4387.28V391.439Z" fill="black"/>
<path d="M4721.29 429.381C4698.59 415.708 4680.79 396.875 4667.89 372.882C4654.99 348.889 4648.54 321.542 4648.54 291.1C4648.54 262.205 4654.47 235.632 4666.6 211.382C4678.72 187.131 4695.75 167.782 4718.2 153.593C4740.64 139.403 4765.92 132.18 4795.08 132.18C4824.23 132.18 4849.25 138.629 4871.18 151.787C4893.11 164.944 4909.88 183.261 4921.49 206.996C4933.1 230.731 4939.03 258.077 4939.03 288.778C4939.03 294.453 4938.52 298.323 4937.74 300.903H4700.65C4701.43 323.348 4706.84 342.439 4716.91 357.919C4726.97 373.398 4739.61 385.007 4754.57 392.489C4769.53 400.228 4785.27 403.84 4801.27 403.84C4838.93 403.84 4868.09 385.523 4888.47 348.373L4933.61 370.044C4920.72 394.037 4902.91 413.386 4880.21 428.091C4857.51 442.796 4830.42 450.02 4798.69 450.02C4769.79 450.02 4743.99 443.312 4721.29 429.639V429.381ZM4884.86 257.819C4884.08 245.694 4880.73 233.827 4874.54 221.701C4868.6 209.576 4858.8 199.514 4845.38 191.001C4831.97 182.487 4814.68 178.359 4794.04 178.359C4771.6 178.359 4751.99 185.583 4735.74 200.03C4719.49 214.478 4708.91 233.827 4704.52 257.819H4885.11H4884.86Z" fill="black"/>
<path d="M4950.84 141.484H5006.31L5097.9 379.865H5099.19L5191.8 141.484H5245.98L5123.69 440.234H5071.84L4950.84 141.484Z" fill="black"/>
<path d="M5339.45 429.381C5316.75 415.708 5298.94 396.875 5286.04 372.882C5273.14 348.889 5266.7 321.542 5266.7 291.1C5266.7 262.205 5272.63 235.632 5284.75 211.382C5296.88 187.131 5313.91 167.782 5336.35 153.593C5358.8 139.403 5384.08 132.18 5413.23 132.18C5442.38 132.18 5467.41 138.629 5489.34 151.787C5511.27 164.944 5528.04 183.261 5539.65 206.996C5551.26 230.731 5557.19 258.077 5557.19 288.778C5557.19 294.453 5556.67 298.323 5555.9 300.903H5318.81C5319.58 323.348 5325 342.439 5335.06 357.919C5345.12 373.398 5357.77 385.007 5372.73 392.489C5387.69 400.228 5403.43 403.84 5419.42 403.84C5457.09 403.84 5486.24 385.523 5506.62 348.373L5551.77 370.044C5538.87 394.037 5521.07 413.386 5498.37 428.091C5475.67 442.796 5448.58 450.02 5416.84 450.02C5387.95 450.02 5362.15 443.312 5339.45 429.639V429.381ZM5503.01 257.819C5502.24 245.694 5498.88 233.827 5492.69 221.701C5486.76 209.576 5476.96 199.514 5463.54 191.001C5450.12 182.487 5432.84 178.359 5412.2 178.359C5389.76 178.359 5370.15 185.583 5353.9 200.03C5337.64 214.478 5327.06 233.827 5322.68 257.819H5503.27H5503.01Z" fill="black"/>
<path d="M5609.17 9.27344H5660.25V440.37H5609.17V9.27344Z" fill="black"/>
<path d="M5782.95 429.193C5759.73 415.262 5741.41 396.171 5728.51 371.92C5715.36 347.669 5708.91 320.581 5708.91 290.912C5708.91 261.244 5715.36 234.155 5728.51 209.904C5741.41 185.653 5759.73 166.562 5782.95 152.631C5806.17 138.7 5832.48 131.992 5861.89 131.992C5891.3 131.992 5917.62 138.958 5941.09 152.631C5964.57 166.304 5982.89 185.653 5995.79 209.904C6008.95 234.155 6015.4 261.244 6015.4 290.912C6015.4 320.581 6008.95 347.669 5995.79 371.92C5982.63 396.171 5964.57 415.262 5941.09 429.193C5917.62 443.125 5891.3 450.09 5861.89 450.09C5832.48 450.09 5806.17 443.125 5782.95 429.193ZM5912.46 389.721C5928.2 380.434 5940.58 367.276 5950.13 350.249C5959.67 333.222 5964.31 313.357 5964.31 290.912C5964.31 268.467 5959.67 248.602 5950.13 231.575C5940.58 214.548 5928.2 201.39 5912.46 192.103C5896.72 182.815 5879.95 178.172 5861.89 178.172C5843.83 178.172 5827.58 182.815 5811.84 192.103C5796.11 201.39 5783.72 214.548 5774.18 231.575C5764.63 248.602 5759.99 268.467 5759.99 290.912C5759.99 313.357 5764.63 333.222 5774.18 350.249C5783.72 367.276 5796.11 380.434 5811.84 389.721C5827.58 399.009 5844.09 403.653 5861.89 403.653C5879.69 403.653 5896.72 399.009 5912.46 389.721Z" fill="black"/>
<path d="M6061.82 141.538H6110.58V185.395H6112.9C6122.45 170.174 6136.38 157.275 6154.44 147.213C6172.5 137.152 6193.39 131.992 6217.13 131.992C6242.93 131.992 6266.4 138.958 6288.08 152.631C6309.75 166.304 6327.03 185.396 6339.93 209.388C6352.83 233.381 6359.28 260.47 6359.28 290.654C6359.28 320.839 6352.83 347.927 6339.93 371.92C6327.03 395.913 6309.75 415.004 6288.08 428.678C6266.4 442.351 6242.67 449.574 6217.13 449.574C6193.39 449.574 6172.5 444.415 6154.18 434.095C6135.86 423.776 6122.19 410.876 6112.9 395.139H6110.58L6112.9 436.675V569.796H6061.82V141.022V141.538ZM6258.41 389.463C6273.37 380.176 6285.5 367.019 6294.53 349.991C6303.55 332.964 6308.2 313.099 6308.2 290.654C6308.2 268.209 6303.55 248.344 6294.53 231.317C6285.5 214.29 6273.37 201.133 6258.41 191.845C6243.44 182.557 6226.93 177.914 6209.39 177.914C6191.85 177.914 6175.33 182.558 6160.37 191.587C6145.41 200.617 6133.28 213.774 6124.25 230.801C6115.22 247.828 6110.58 267.951 6110.58 290.654C6110.58 313.357 6115.22 332.964 6124.25 350.249C6133.28 367.534 6145.41 380.692 6160.37 389.721C6175.33 398.751 6191.85 403.395 6209.39 403.395C6226.93 403.395 6243.44 398.751 6258.41 389.463Z" fill="black"/>
<path d="M6478.8 429.381C6456.1 415.708 6438.3 396.875 6425.4 372.882C6412.5 348.889 6406.05 321.542 6406.05 291.1C6406.05 262.205 6411.98 235.632 6424.11 211.382C6436.23 187.131 6453.26 167.782 6475.7 153.593C6498.15 139.403 6523.43 132.18 6552.58 132.18C6581.74 132.18 6606.76 138.629 6628.69 151.787C6650.62 164.944 6667.39 183.261 6679 206.996C6690.61 230.731 6696.54 258.077 6696.54 288.778C6696.54 294.453 6696.03 298.323 6695.25 300.903H6458.16C6458.93 323.348 6464.35 342.439 6474.41 357.919C6484.48 373.398 6497.12 385.007 6512.08 392.489C6527.04 400.228 6542.78 403.84 6558.77 403.84C6596.44 403.84 6625.59 385.523 6645.97 348.373L6691.12 370.044C6678.22 394.037 6660.42 413.386 6637.72 428.091C6615.02 442.796 6587.93 450.02 6556.2 450.02C6527.3 450.02 6501.5 443.312 6478.8 429.639V429.381ZM6642.36 257.819C6641.59 245.694 6638.24 233.827 6632.04 221.701C6626.11 209.576 6616.31 199.514 6602.89 191.001C6589.48 182.487 6572.19 178.359 6551.55 178.359C6529.11 178.359 6509.5 185.583 6493.25 200.03C6476.99 214.478 6466.42 233.827 6462.03 257.819H6642.62H6642.36Z" fill="black"/>
<path d="M6748.15 141.538H6796.91V190.297H6799.23C6804.91 173.786 6816.52 160.113 6833.8 148.761C6851.34 137.41 6868.63 131.992 6885.91 131.992C6898.3 131.992 6909.91 134.056 6920.74 137.926V192.619C6909.91 186.685 6895.98 183.59 6878.69 183.59C6864.76 183.59 6851.6 187.717 6839.22 195.973C6826.83 204.229 6817.29 215.064 6810.06 228.737C6802.84 242.411 6799.23 257.374 6799.23 273.369V440.029H6748.15V141.28V141.538Z" fill="black"/>
<path d="M7184.43 420.519C7150.12 400.912 7123.03 373.824 7103.17 339.254C7083.3 304.683 7073.24 266.501 7073.24 224.965C7073.24 183.429 7083.3 144.989 7103.17 110.677C7123.03 76.1065 7150.12 49.0176 7184.43 29.4105C7218.75 9.8035 7256.16 0 7296.66 0C7328.39 0 7358.06 5.67596 7386.18 16.7694C7414.04 28.1208 7437 43.858 7455.06 64.239L7418.43 100.873C7404.76 84.1039 7387.21 70.9467 7365.8 61.9172C7344.39 52.8876 7321.43 48.2439 7296.92 48.2439C7266.73 48.2439 7238.61 55.4673 7212.3 70.1726C7185.98 84.8778 7164.83 105.517 7149.09 132.09C7133.1 158.662 7125.36 189.621 7125.36 224.449C7125.36 259.277 7133.35 290.236 7149.09 316.808C7164.83 343.381 7185.98 364.278 7212.3 378.726C7238.61 393.431 7266.73 400.654 7296.92 400.654C7327.1 400.654 7350.06 396.01 7369.41 386.981C7388.76 377.951 7405.79 366.084 7420.24 351.121C7430.55 339.769 7439.07 326.096 7445.52 310.101C7451.97 294.106 7455.84 276.562 7456.87 257.729H7297.95V210.26H7505.11C7507.18 221.611 7508.21 231.931 7508.21 241.476C7508.21 268.049 7504.08 293.848 7495.57 318.872C7487.05 343.897 7473.64 365.826 7455.32 384.659C7414.82 427.743 7361.93 449.156 7296.92 449.156C7256.41 449.156 7219.01 439.352 7184.69 419.745L7184.43 420.519Z" fill="black"/>
<path d="M7566.43 141.538H7615.19V190.297H7617.51C7623.19 173.786 7634.8 160.113 7652.08 148.761C7669.62 137.41 7686.91 131.992 7704.2 131.992C7716.58 131.992 7728.19 134.056 7739.02 137.926V192.619C7728.19 186.685 7714.26 183.59 7696.97 183.59C7683.04 183.59 7669.88 187.717 7657.5 195.973C7645.12 204.229 7635.57 215.064 7628.35 228.737C7621.12 242.411 7617.51 257.374 7617.51 273.369V440.029H7566.43V141.28V141.538Z" fill="black"/>
<path d="M7819.82 429.193C7796.6 415.262 7778.29 396.171 7765.39 371.92C7752.23 347.669 7745.78 320.581 7745.78 290.912C7745.78 261.244 7752.23 234.155 7765.39 209.904C7778.29 185.653 7796.6 166.562 7819.82 152.631C7843.04 138.7 7869.36 131.992 7898.77 131.992C7928.18 131.992 7954.49 138.958 7977.97 152.631C8001.45 166.304 8019.76 185.653 8032.66 209.904C8045.82 234.155 8052.27 261.244 8052.27 290.912C8052.27 320.581 8045.82 347.669 8032.66 371.92C8019.51 396.171 8001.45 415.262 7977.97 429.193C7954.49 443.125 7928.18 450.09 7898.77 450.09C7869.36 450.09 7843.04 443.125 7819.82 429.193ZM7949.33 389.721C7965.07 380.434 7977.45 367.276 7987 350.249C7996.55 333.222 8001.19 313.357 8001.19 290.912C8001.19 268.467 7996.55 248.602 7987 231.575C7977.45 214.548 7965.07 201.39 7949.33 192.103C7933.6 182.815 7916.83 178.172 7898.77 178.172C7880.71 178.172 7864.46 182.815 7848.72 192.103C7832.98 201.39 7820.6 214.548 7811.05 231.575C7801.51 248.602 7796.86 268.467 7796.86 290.912C7796.86 313.357 7801.51 333.222 7811.05 350.249C7820.6 367.276 7832.98 380.434 7848.72 389.721C7864.46 399.009 7880.97 403.653 7898.77 403.653C7916.57 403.653 7933.6 399.009 7949.33 389.721Z" fill="black"/>
<path d="M8126.97 417.789C8107.87 396.634 8098.33 366.965 8098.33 329.299V141.484H8149.41V320.785C8149.41 375.737 8174.18 403.341 8223.45 403.341C8239.96 403.341 8254.67 398.698 8267.83 389.41C8280.98 380.123 8290.79 368.255 8298.01 353.292C8304.98 338.586 8308.59 322.849 8308.59 306.338V141.484H8359.15V440.234H8310.91V395.602H8308.59C8299.82 410.823 8286.4 423.722 8268.6 434.042C8250.8 444.361 8231.45 449.779 8211.07 449.779C8174.18 449.779 8146.06 439.201 8126.97 417.789Z" fill="black"/>
<path d="M8426.04 141.538H8474.8V185.395H8477.12C8486.67 170.174 8500.6 157.275 8518.66 147.213C8536.72 137.152 8557.61 131.992 8581.35 131.992C8607.15 131.992 8630.62 138.958 8652.29 152.631C8673.97 166.304 8691.25 185.396 8704.15 209.388C8717.05 233.381 8723.5 260.47 8723.5 290.654C8723.5 320.839 8717.05 347.927 8704.15 371.92C8691.25 395.913 8673.97 415.004 8652.29 428.678C8630.62 442.351 8606.89 449.574 8581.35 449.574C8557.61 449.574 8536.72 444.415 8518.4 434.095C8500.08 423.776 8486.41 410.876 8477.12 395.139H8474.8L8477.12 436.675V569.796H8426.04V141.022V141.538ZM8622.63 389.463C8637.59 380.176 8649.71 367.019 8658.74 349.991C8667.77 332.964 8672.42 313.099 8672.42 290.654C8672.42 268.209 8667.77 248.344 8658.74 231.317C8649.71 214.29 8637.59 201.133 8622.63 191.845C8607.66 182.557 8591.15 177.914 8573.61 177.914C8556.07 177.914 8539.55 182.558 8524.59 191.587C8509.63 200.617 8497.5 213.774 8488.47 230.801C8479.44 247.828 8474.8 267.951 8474.8 290.654C8474.8 313.357 8479.44 332.964 8488.47 350.249C8497.5 367.534 8509.63 380.692 8524.59 389.721C8539.55 398.751 8556.07 403.395 8573.61 403.395C8591.15 403.395 8607.66 398.751 8622.63 389.463Z" fill="black"/>
<path d="M8796.95 425.887C8774.77 409.892 8759.55 390.026 8750.52 366.292L8795.66 346.427C8803.66 365.26 8815.01 379.707 8829.72 389.769C8844.42 399.83 8860.42 404.732 8877.7 404.732C8897.05 404.732 8913.05 400.604 8925.43 392.09C8938.07 383.577 8944.52 373.516 8944.52 361.39C8944.52 349.265 8939.88 340.235 8930.33 332.495C8920.79 324.756 8904.79 318.306 8881.83 312.631L8840.81 302.311C8818.37 297.151 8799.28 287.606 8783.28 273.933C8767.29 260.259 8759.54 242.2 8759.54 219.755C8759.54 201.18 8764.96 185.443 8775.54 172.285C8786.12 159.128 8800.31 149.067 8818.11 142.101C8835.65 135.393 8855 131.781 8875.9 131.781C8901.7 131.781 8924.92 137.715 8946.07 149.582C8967.23 161.45 8982.19 178.219 8990.96 199.89L8945.81 219.239C8939.36 204.792 8929.56 194.214 8916.66 187.249C8903.76 180.283 8889.05 176.929 8873.06 176.929C8857.06 176.929 8843.39 180.799 8830.75 188.281C8818.11 196.02 8811.66 205.824 8811.66 217.691C8811.66 228.011 8815.79 236.266 8824.04 242.458C8832.3 248.392 8845.46 253.809 8863.51 258.711L8908.15 269.546C8937.81 277.286 8960 288.638 8974.71 303.601C8989.41 318.564 8996.63 336.623 8996.63 357.52C8996.63 374.805 8991.73 390.543 8981.67 404.474C8971.61 418.663 8957.68 429.499 8939.62 437.496C8921.56 445.494 8901.18 449.622 8878.22 449.622C8846.49 449.622 8819.66 441.624 8797.47 425.629L8796.95 425.887Z" fill="black"/>
<rect width="710.019" height="304.619" rx="152.31" transform="matrix(0.8287 -0.559693 0.587466 0.809249 220 397.602)" fill="#EA4336" stroke="black" stroke-width="42.7029"/>
<rect width="710.019" height="304.619" rx="152.31" transform="matrix(0.8287 0.559693 0.587466 -0.809248 220 471.125)" fill="#4285F4" stroke="black" stroke-width="42.7029"/>
<rect width="710.019" height="304.619" rx="152.31" transform="matrix(-0.8287 0.559693 -0.587466 -0.809248 1754.63 470.008)" fill="#FAAB00" stroke="black" stroke-width="42.7029"/>
<rect width="710.019" height="304.619" rx="152.31" transform="matrix(-0.8287 -0.559693 -0.587466 0.809248 1754.63 397.602)" fill="#34A853" stroke="black" stroke-width="42.7029"/>
<path d="M2490.51 888.455H2410.95C2409.5 878.144 2406.54 868.986 2402.06 860.98C2397.58 852.852 2391.82 845.938 2384.8 840.237C2377.78 834.536 2369.67 830.169 2360.46 827.136C2351.38 824.103 2341.51 822.587 2330.86 822.587C2311.61 822.587 2294.84 827.379 2280.55 836.962C2266.26 846.423 2255.18 860.252 2247.31 878.448C2239.44 896.522 2235.51 918.478 2235.51 944.315C2235.51 970.881 2239.44 993.201 2247.31 1011.28C2255.3 1029.35 2266.44 1043 2280.73 1052.22C2295.02 1061.43 2311.55 1066.04 2330.31 1066.04C2340.85 1066.04 2350.6 1064.65 2359.56 1061.86C2368.64 1059.07 2376.69 1055.01 2383.71 1049.67C2390.73 1044.21 2396.55 1037.6 2401.15 1029.83C2405.87 1022.07 2409.14 1013.22 2410.95 1003.27L2490.51 1003.63C2488.45 1020.74 2483.3 1037.23 2475.07 1053.12C2466.96 1068.89 2456 1083.03 2442.19 1095.52C2428.51 1107.89 2412.17 1117.72 2393.16 1125C2374.27 1132.15 2352.9 1135.73 2329.04 1135.73C2295.87 1135.73 2266.2 1128.21 2240.05 1113.17C2214.01 1098.13 2193.43 1076.35 2178.29 1047.85C2163.28 1019.34 2155.77 984.831 2155.77 944.315C2155.77 903.679 2163.4 869.107 2178.66 840.601C2193.91 812.094 2214.62 790.381 2240.77 775.461C2266.93 760.419 2296.35 752.898 2329.04 752.898C2350.6 752.898 2370.57 755.931 2388.98 761.996C2407.5 768.061 2423.91 776.916 2438.2 788.561C2452.49 800.085 2464.11 814.217 2473.07 830.957C2482.15 847.697 2487.96 866.863 2490.51 888.455Z" fill="#0F9D58"/>
<path d="M2622.82 757.993V1130.64H2545.45V757.993H2622.82Z" fill="#0F9D58"/>
<path d="M2810.84 1136.1C2782.63 1136.1 2758.23 1130.09 2737.65 1118.08C2717.19 1105.95 2701.39 1089.09 2690.25 1067.5C2679.11 1045.79 2673.54 1020.62 2673.54 991.988C2673.54 963.118 2679.11 937.886 2690.25 916.294C2701.39 894.581 2717.19 877.72 2737.65 865.711C2758.23 853.58 2782.63 847.515 2810.84 847.515C2839.06 847.515 2863.39 853.58 2883.86 865.711C2904.44 877.72 2920.3 894.581 2931.44 916.294C2942.58 937.886 2948.15 963.118 2948.15 991.988C2948.15 1020.62 2942.58 1045.79 2931.44 1067.5C2920.3 1089.09 2904.44 1105.95 2883.86 1118.08C2863.39 1130.09 2839.06 1136.1 2810.84 1136.1ZM2811.21 1076.05C2824.04 1076.05 2834.76 1072.41 2843.36 1065.13C2851.95 1057.73 2858.43 1047.67 2862.79 1034.93C2867.27 1022.19 2869.51 1007.7 2869.51 991.442C2869.51 975.187 2867.27 960.691 2862.79 947.955C2858.43 935.218 2851.95 925.149 2843.36 917.75C2834.76 910.35 2824.04 906.651 2811.21 906.651C2798.25 906.651 2787.35 910.35 2778.52 917.75C2769.8 925.149 2763.2 935.218 2758.72 947.955C2754.36 960.691 2752.18 975.187 2752.18 991.442C2752.18 1007.7 2754.36 1022.19 2758.72 1034.93C2763.2 1047.67 2769.8 1057.73 2778.52 1065.13C2787.35 1072.41 2798.25 1076.05 2811.21 1076.05Z" fill="#0F9D58"/>
<path d="M3177.36 1011.64V851.154H3254.73V1130.64H3180.45V1079.87H3177.54C3171.25 1096.25 3160.77 1109.41 3146.12 1119.36C3131.59 1129.3 3113.85 1134.28 3092.91 1134.28C3074.26 1134.28 3057.85 1130.03 3043.69 1121.54C3029.52 1113.05 3018.44 1100.98 3010.45 1085.33C3002.58 1069.68 2998.58 1050.94 2998.46 1029.11V851.154H3075.83V1015.28C3075.95 1031.78 3080.37 1044.82 3089.09 1054.4C3097.81 1063.98 3109.49 1068.77 3124.15 1068.77C3133.47 1068.77 3142.19 1066.65 3150.3 1062.4C3158.41 1058.04 3164.95 1051.61 3169.91 1043.12C3175 1034.63 3177.48 1024.13 3177.36 1011.64Z" fill="#0F9D58"/>
<path d="M3419.42 1135.19C3398.23 1135.19 3379.04 1129.73 3361.85 1118.81C3344.77 1107.77 3331.21 1091.58 3321.16 1070.23C3311.23 1048.76 3306.27 1022.44 3306.27 991.26C3306.27 959.236 3311.41 932.61 3321.71 911.381C3332 890.032 3345.68 874.081 3362.75 863.527C3379.95 852.852 3398.78 847.515 3419.24 847.515C3434.86 847.515 3447.87 850.184 3458.29 855.521C3468.82 860.737 3477.3 867.288 3483.71 875.172C3490.25 882.936 3495.22 890.578 3498.61 898.099H3500.97V757.993H3578.16V1130.64H3501.88V1085.88H3498.61C3494.98 1093.64 3489.83 1101.34 3483.17 1108.99C3476.63 1116.51 3468.09 1122.75 3457.56 1127.73C3447.15 1132.7 3434.43 1135.19 3419.42 1135.19ZM3443.94 1073.5C3456.41 1073.5 3466.94 1070.11 3475.54 1063.31C3484.26 1056.4 3490.92 1046.76 3495.52 1034.38C3500.24 1022.01 3502.6 1007.51 3502.6 990.896C3502.6 974.277 3500.3 959.842 3495.7 947.591C3491.1 935.339 3484.44 925.877 3475.72 919.206C3467.01 912.534 3456.41 909.198 3443.94 909.198C3431.23 909.198 3420.51 912.655 3411.79 919.569C3403.07 926.484 3396.47 936.067 3391.99 948.318C3387.51 960.57 3385.27 974.763 3385.27 990.896C3385.27 1007.15 3387.51 1021.53 3391.99 1034.02C3396.6 1046.39 3403.19 1056.1 3411.79 1063.13C3420.51 1070.05 3431.23 1073.5 3443.94 1073.5Z" fill="#0F9D58"/>
<path d="M3898.59 1062.22C3883.94 1062.22 3870.56 1058.64 3858.45 1051.49C3846.34 1044.21 3836.65 1034.5 3829.39 1022.37C3822.25 1010.24 3818.67 996.84 3818.67 982.162C3818.67 967.363 3822.25 953.959 3829.39 941.95C3836.65 929.82 3846.34 920.176 3858.45 913.019C3870.56 905.741 3883.94 902.102 3898.59 902.102C3913.36 902.102 3926.74 905.741 3938.73 913.019C3950.84 920.176 3960.46 929.82 3967.61 941.95C3974.87 953.959 3978.5 967.363 3978.5 982.162C3978.5 996.84 3974.87 1010.24 3967.61 1022.37C3960.46 1034.5 3950.84 1044.21 3938.73 1051.49C3926.74 1058.64 3913.36 1062.22 3898.59 1062.22Z" fill="black"/>
<path d="M4302.89 1045.58C4286.18 1045.58 4271.01 1042.85 4257.37 1037.38C4243.73 1031.92 4231.29 1024.06 4220.04 1013.81C4208.78 1003.22 4198.38 990.586 4188.84 975.897L4239.47 946.179C4247.31 958.134 4255.5 967.87 4264.02 975.385C4272.89 982.9 4283.63 986.657 4296.24 986.657C4307.15 986.657 4316.36 983.241 4323.86 976.41C4331.36 969.578 4335.11 956.256 4335.11 936.443C4335.11 915.265 4330.85 900.576 4322.33 892.378C4314.14 883.838 4302.21 879.568 4286.52 879.568C4276.3 879.568 4266.58 880.764 4257.37 883.155C4248.51 885.205 4240.15 888.108 4232.31 891.866L4213.39 839.09C4224.3 834.307 4236.4 830.208 4249.7 826.792C4263 823.377 4278 821.669 4294.71 821.669C4317.89 821.669 4337.5 826.451 4353.53 836.015C4369.89 845.238 4382.34 858.56 4390.86 875.982C4399.39 893.403 4403.65 914.069 4403.65 937.98C4403.65 958.476 4400.75 975.726 4394.95 989.732C4389.5 1003.4 4381.83 1014.33 4371.94 1022.52C4362.39 1030.72 4351.65 1036.7 4339.72 1040.46C4327.78 1043.87 4315.51 1045.58 4302.89 1045.58ZM4530.49 1130.64C4509.69 1130.64 4493.66 1128.42 4482.41 1123.98C4471.16 1119.19 4462.63 1113.05 4456.84 1105.53C4451.38 1098.36 4447.29 1089.65 4444.56 1079.4C4442.18 1069.15 4440.98 1056 4440.98 1039.95V821.669L4509.52 827.305V1034.82C4509.52 1042.34 4510.03 1048.66 4511.05 1053.78C4512.08 1058.56 4513.78 1062.15 4516.17 1064.54C4519.92 1067.96 4524.01 1070.18 4528.44 1071.2C4532.87 1071.88 4539.86 1072.23 4549.41 1072.23L4544.3 1130.64H4530.49Z" fill="black"/>
<path d="M4679.78 1130.64C4658.98 1130.64 4642.78 1128.42 4631.19 1123.98C4619.94 1119.54 4611.41 1113.39 4605.61 1105.53C4600.5 1098.36 4596.58 1089.99 4593.85 1080.42C4591.47 1070.52 4590.27 1057.03 4590.27 1039.95V821.669L4658.81 827.305V1034.82C4658.81 1042.34 4659.32 1048.66 4660.34 1053.78C4661.36 1058.56 4663.07 1062.15 4665.46 1064.54C4669.21 1067.96 4673.3 1070.18 4677.73 1071.2C4682.16 1071.88 4689.15 1072.23 4698.7 1072.23L4693.58 1130.64H4679.78Z" fill="black"/>
<path d="M4624.02 778.116C4613.45 778.116 4604.59 774.358 4597.43 766.843C4590.27 759.328 4586.69 750.105 4586.69 739.174C4586.69 728.585 4590.27 719.703 4597.43 712.53C4604.59 705.015 4613.45 701.258 4624.02 701.258C4634.93 701.258 4643.97 705.015 4651.13 712.53C4657.95 719.703 4661.36 728.585 4661.36 739.174C4661.36 750.105 4657.95 759.328 4651.13 766.843C4643.97 774.358 4634.93 778.116 4624.02 778.116Z" fill="black"/>
<path d="M4835.25 1077.86C4818.55 1077.86 4802.86 1074.79 4788.2 1068.64C4773.54 1062.49 4761.6 1053.44 4752.4 1041.48C4743.53 1029.19 4739.1 1014.33 4739.1 996.905C4739.1 980.85 4743.19 967.016 4751.37 955.402C4759.56 943.446 4770.98 934.223 4785.64 927.733C4800.3 920.901 4817.18 917.485 4836.28 917.485C4844.12 917.485 4851.28 917.997 4857.76 919.022C4864.58 919.705 4870.54 920.559 4875.66 921.584L4866.96 977.434C4863.55 976.751 4859.46 976.068 4854.69 975.385C4850.26 974.702 4844.97 974.36 4838.83 974.36C4827.92 974.36 4819.74 976.41 4814.28 980.509C4808.83 984.266 4806.1 989.561 4806.1 996.393C4806.1 1005.27 4809.68 1011.59 4816.84 1015.35C4824 1018.77 4832.87 1020.47 4843.44 1020.47C4857.42 1020.47 4870.88 1017.4 4883.84 1011.25C4897.14 1004.76 4910.61 995.197 4924.25 982.558V1052.76C4912.99 1060.27 4900.89 1066.42 4887.93 1071.2C4874.98 1075.64 4857.42 1077.86 4835.25 1077.86ZM4772.34 970.773C4759.73 963.258 4749.33 955.402 4741.15 947.203C4733.3 938.664 4727.34 929.782 4723.24 920.559C4719.49 910.995 4717.62 901.089 4717.62 890.841C4717.62 870.345 4725.46 852.07 4741.15 836.015C4756.83 819.961 4781.89 807.151 4816.33 797.586L4840.88 853.437C4826.22 857.194 4814.97 861.122 4807.12 865.221C4799.28 869.321 4793.83 873.761 4790.76 878.544C4787.69 882.984 4786.15 887.937 4786.15 893.403C4786.15 902.626 4789.56 910.653 4796.38 917.485C4803.54 924.317 4814.28 929.953 4828.6 934.394L4772.34 970.773ZM5011.19 1130.64C4990.39 1130.64 4974.2 1128.42 4962.6 1123.98C4951.35 1119.54 4942.83 1113.39 4937.03 1105.53C4931.92 1098.36 4928 1089.99 4925.27 1080.42C4922.88 1070.52 4921.69 1057.03 4921.69 1039.95V821.669L4990.22 827.305V1034.82C4990.22 1042.34 4990.73 1048.66 4991.76 1053.78C4992.78 1058.56 4994.49 1062.15 4996.87 1064.54C5000.62 1067.96 5004.71 1070.18 5009.15 1071.2C5013.58 1071.88 5020.57 1072.23 5030.12 1072.23L5025 1130.64H5011.19Z" fill="black"/>
<path d="M5160.76 1130.64C5139.96 1130.64 5123.94 1128.42 5112.68 1123.98C5101.43 1119.19 5092.91 1113.05 5087.11 1105.53C5080.97 1097.33 5076.71 1088.11 5074.32 1077.86C5072.28 1067.61 5071.26 1054.98 5071.26 1039.95V824.743C5068.87 809.713 5065.8 796.391 5062.05 784.777C5058.3 772.821 5053.87 762.744 5048.75 754.546C5043.98 746.006 5038.52 739.687 5032.39 735.587C5026.25 731.147 5019.77 728.926 5012.95 728.926C5003.4 728.926 4996.07 732.172 4990.96 738.662C4985.5 744.81 4982.78 754.375 4982.78 767.355C4982.78 771.455 4982.95 775.724 4983.29 780.165C4983.63 784.264 4984.14 788.363 4984.82 792.462L4916.8 791.438C4916.12 786.655 4915.6 781.702 4915.26 776.578C4914.58 771.455 4914.24 766.16 4914.24 760.694C4914.24 732.342 4922.25 710.48 4938.28 695.109C4954.3 679.396 4977.66 671.539 5008.35 671.539C5028.12 671.539 5045.51 675.809 5060.52 684.349C5075.86 692.547 5088.82 703.649 5099.39 717.654C5110.3 731.659 5118.99 747.543 5125.47 765.306C5132.29 782.727 5137.06 800.831 5139.79 819.619V1034.82C5139.79 1042.34 5140.3 1048.66 5141.32 1053.78C5142.35 1058.56 5144.05 1062.15 5146.44 1064.54C5149.85 1067.96 5153.77 1070.18 5158.2 1071.2C5162.98 1071.88 5170.14 1072.23 5179.68 1072.23L5174.57 1130.64H5160.76Z" fill="black"/>
<path d="M5472.23 1130.64C5451.43 1130.64 5435.24 1128.42 5423.64 1123.98C5412.39 1119.54 5403.87 1113.39 5398.07 1105.53C5392.96 1098.36 5389.03 1089.99 5386.31 1080.42C5383.92 1070.52 5382.73 1057.03 5382.73 1039.95V821.669L5451.26 827.305V1034.82C5451.26 1042.34 5451.77 1048.66 5452.8 1053.78C5453.82 1058.56 5455.52 1062.15 5457.91 1064.54C5461.66 1067.96 5465.75 1070.18 5470.19 1071.2C5474.62 1071.88 5481.61 1072.23 5491.15 1072.23L5486.04 1130.64H5472.23ZM5267.65 1040.97C5259.81 1040.97 5251.45 1038.58 5242.59 1033.8C5234.06 1029.01 5225.88 1022.7 5218.04 1014.84C5210.54 1006.98 5204.23 997.93 5199.11 987.682C5194.34 977.434 5191.96 967.016 5191.96 956.426C5191.96 946.52 5194.51 937.81 5199.63 930.295C5205.08 922.78 5215.65 919.022 5231.34 919.022H5405.74V977.434H5302.43V1000.49C5302.43 1014.84 5299.36 1025.26 5293.22 1031.75C5287.09 1037.9 5278.56 1040.97 5267.65 1040.97Z" fill="black"/>
<path d="M5609.49 1045.58C5592.78 1045.58 5577.61 1042.85 5563.97 1037.38C5550.33 1031.92 5537.89 1024.06 5526.64 1013.81C5515.38 1003.22 5504.99 990.586 5495.44 975.897L5546.07 946.179C5553.91 958.134 5562.1 967.87 5570.62 975.385C5579.49 982.9 5590.23 986.657 5602.84 986.657C5613.75 986.657 5622.96 983.241 5630.46 976.41C5637.96 969.578 5641.71 956.256 5641.71 936.443C5641.71 915.265 5637.45 900.576 5628.93 892.378C5620.74 883.838 5608.81 879.568 5593.12 879.568C5582.9 879.568 5573.18 880.764 5563.97 883.155C5555.11 885.205 5546.75 888.108 5538.91 891.866L5519.99 839.09C5530.9 834.307 5543 830.208 5556.3 826.792C5569.6 823.377 5584.6 821.669 5601.31 821.669C5624.49 821.669 5644.1 826.451 5660.13 836.015C5676.49 845.238 5688.94 858.56 5697.46 875.982C5705.99 893.403 5710.25 914.069 5710.25 937.98C5710.25 958.476 5707.35 975.726 5701.55 989.732C5696.1 1003.4 5688.43 1014.33 5678.54 1022.52C5668.99 1030.72 5658.25 1036.7 5646.32 1040.46C5634.38 1043.87 5622.11 1045.58 5609.49 1045.58ZM5837.09 1130.64C5816.29 1130.64 5800.26 1128.42 5789.01 1123.98C5777.76 1119.19 5769.24 1113.05 5763.44 1105.53C5757.98 1098.36 5753.89 1089.65 5751.16 1079.4C5748.78 1069.15 5747.58 1056 5747.58 1039.95V821.669L5816.12 827.305V1034.82C5816.12 1042.34 5816.63 1048.66 5817.65 1053.78C5818.68 1058.56 5820.38 1062.15 5822.77 1064.54C5826.52 1067.96 5830.61 1070.18 5835.04 1071.2C5839.47 1071.88 5846.46 1072.23 5856.01 1072.23L5850.9 1130.64H5837.09Z" fill="black"/>
<path d="M6086.62 1130.64C6069.23 1130.64 6053.03 1128.93 6038.03 1125.51C6023.03 1122.1 6008.71 1116.46 5995.07 1108.61C5981.77 1100.75 5968.65 1090.16 5955.69 1076.84C5942.73 1063.17 5929.43 1046.27 5915.8 1026.11L5929.09 985.633C5942.73 984.266 5955.52 981.021 5967.45 975.897C5979.39 970.432 5989.1 963.429 5996.6 954.889C6004.11 946.008 6007.86 935.589 6007.86 923.634C6007.86 907.579 6002.57 896.306 5992 889.816C5981.77 883.326 5968.99 880.081 5953.64 880.081C5941.37 880.081 5930.12 881.276 5919.89 883.667C5909.66 886.059 5900.11 889.304 5891.25 893.403L5871.81 839.09C5884.09 833.966 5897.72 829.867 5912.73 826.792C5927.73 823.377 5944.1 821.669 5961.83 821.669C5984.33 821.669 6004.28 825.597 6021.67 833.453C6039.4 840.968 6053.21 852.241 6063.09 867.271C6073.32 882.301 6078.44 900.918 6078.44 923.121C6078.44 940.542 6074.69 956.597 6067.18 971.286C6060.02 985.633 6049.63 998.271 6035.99 1009.2C6022.69 1020.13 6006.83 1028.67 5988.42 1034.82C5970.01 1040.63 5949.55 1043.53 5927.05 1043.53C5909.32 1043.53 5895.68 1039.77 5886.13 1032.26C5876.93 1024.74 5872.32 1014.67 5872.32 1002.03C5872.32 989.732 5876.41 980.509 5884.6 974.36C5892.78 967.87 5903.18 964.625 5915.8 964.625C5925.68 964.625 5934.89 966.674 5943.41 970.773C5951.94 974.872 5961.66 982.387 5972.57 993.318L5974.1 1005.1C5989.79 1025.26 6004.11 1039.95 6017.06 1049.17C6030.36 1058.39 6042.81 1064.37 6054.4 1067.1C6066.33 1069.49 6078.1 1070.69 6089.69 1070.69H6100.94L6096.34 1130.64H6086.62Z" fill="black"/>
</svg>
