<svg width="543" height="431" viewBox="0 0 543 431" fill="none" xmlns="http://www.w3.org/2000/svg">
<path d="M58.1281 280.476H60.9221L68.8849 272.513L69.2761 269.131C64.7144 265.105 59.2017 262.307 53.2586 261.004C47.3155 259.701 41.1382 259.934 35.3104 261.682C29.4825 263.43 24.1963 266.635 19.9513 270.994C15.7063 275.354 12.6426 280.723 11.0495 286.596C11.9366 286.232 12.9193 286.173 13.8435 286.428L29.7692 283.802C29.7692 283.802 30.5794 282.46 30.9985 282.544C34.4109 278.796 39.1267 276.494 44.1806 276.11C49.2344 275.725 54.2441 277.288 58.184 280.476H58.1281Z" fill="#EA4335"/>
<path d="M80.2277 286.596C78.3974 279.855 74.6394 273.795 69.4149 269.16L58.239 280.337C60.5682 282.24 62.4348 284.648 63.698 287.378C64.9612 290.108 65.5881 293.089 65.5313 296.097V298.081C66.8375 298.081 68.1309 298.338 69.3377 298.838C70.5445 299.338 71.641 300.071 72.5646 300.994C73.4882 301.918 74.2209 303.015 74.7208 304.222C75.2206 305.429 75.4779 306.722 75.4779 308.029C75.4779 309.335 75.2206 310.628 74.7208 311.835C74.2209 313.042 73.4882 314.139 72.5646 315.063C71.641 315.986 70.5445 316.719 69.3377 317.219C68.1309 317.719 66.8375 317.976 65.5313 317.976H45.6381L43.6544 319.988V331.92L45.6381 333.904H65.5313C71.0864 333.947 76.5079 332.201 80.9938 328.924C85.4797 325.647 88.7918 321.012 90.44 315.707C92.0883 310.401 91.9852 304.705 90.146 299.463C88.3068 294.22 84.8292 289.709 80.2277 286.596Z" fill="#4285F4"/>
<path d="M25.7174 333.792H45.6106V317.864H25.7174C24.3001 317.864 22.8994 317.559 21.6103 316.97L18.8163 317.836L10.7976 325.8L10.0991 328.594C14.5958 331.99 20.0827 333.816 25.7174 333.792Z" fill="#34A853"/>
<path d="M25.7177 282.125C20.3276 282.157 15.0822 283.872 10.714 287.031C6.34586 290.189 3.07312 294.633 1.35291 299.742C-0.367307 304.851 -0.449084 310.37 1.119 315.527C2.68708 320.685 5.82671 325.224 10.0994 328.511L21.6385 316.97C20.1721 316.308 18.8884 315.299 17.8974 314.031C16.9064 312.763 16.2377 311.274 15.9488 309.691C15.6599 308.108 15.7594 306.478 16.2386 304.942C16.7179 303.406 17.5627 302.009 18.7005 300.871C19.8383 299.733 21.2352 298.888 22.7712 298.408C24.3073 297.929 25.9367 297.83 27.5197 298.119C29.1026 298.408 30.5918 299.076 31.8596 300.067C33.1273 301.058 34.1357 302.342 34.7982 303.809L46.3373 292.268C43.9154 289.102 40.7938 286.538 37.2167 284.779C33.6397 283.019 29.7041 282.111 25.7177 282.125Z" fill="#FBBC05"/>
<path d="M148.143 315.066C144.718 315.11 141.319 314.462 138.151 313.161C134.982 311.859 132.109 309.932 129.703 307.494C127.221 305.159 125.251 302.334 123.919 299.198C122.587 296.061 121.921 292.682 121.963 289.275C121.923 285.868 122.589 282.489 123.921 279.353C125.254 276.217 127.222 273.392 129.703 271.056C132.097 268.592 134.965 266.639 138.134 265.314C141.303 263.988 144.708 263.318 148.143 263.344C151.416 263.3 154.665 263.907 157.701 265.131C160.737 266.354 163.5 268.168 165.829 270.469L160.856 275.527C157.45 272.235 152.879 270.426 148.143 270.497C145.686 270.467 143.25 270.948 140.99 271.91C138.729 272.872 136.693 274.294 135.011 276.086C133.264 277.82 131.885 279.89 130.958 282.171C130.031 284.452 129.576 286.897 129.619 289.359C129.598 291.792 130.065 294.206 130.991 296.456C131.917 298.707 133.284 300.75 135.011 302.464C138.471 305.912 143.14 307.874 148.025 307.932C152.909 307.989 157.623 306.138 161.163 302.771C163.355 300.371 164.699 297.318 164.991 294.081H148.227V286.928H171.948C172.181 288.368 172.274 289.828 172.227 291.287C172.375 294.306 171.908 297.323 170.857 300.157C169.805 302.991 168.19 305.582 166.108 307.773C163.794 310.183 160.998 312.078 157.903 313.334C154.807 314.591 151.482 315.181 148.143 315.066ZM203.296 310.316C200.113 313.368 195.873 315.072 191.464 315.072C187.054 315.072 182.815 313.368 179.631 310.316C178.047 308.779 176.799 306.93 175.967 304.886C175.135 302.842 174.737 300.647 174.798 298.44C174.738 296.234 175.137 294.039 175.969 291.995C176.801 289.951 178.048 288.102 179.631 286.564C182.818 283.519 187.056 281.819 191.464 281.819C195.871 281.819 200.109 283.519 203.296 286.564C204.879 288.102 206.126 289.951 206.958 291.995C207.79 294.039 208.189 296.234 208.13 298.44C208.187 300.649 207.785 302.845 206.948 304.889C206.111 306.934 204.858 308.782 203.268 310.316H203.296ZM184.856 305.649C185.703 306.554 186.726 307.275 187.863 307.768C188.999 308.261 190.225 308.515 191.464 308.515C192.703 308.515 193.928 308.261 195.065 307.768C196.201 307.275 197.225 306.554 198.071 305.649C198.995 304.695 199.718 303.566 200.197 302.327C200.677 301.089 200.904 299.767 200.865 298.44C200.907 297.108 200.681 295.782 200.201 294.539C199.721 293.296 198.997 292.161 198.071 291.203C197.214 290.308 196.183 289.595 195.043 289.109C193.903 288.622 192.676 288.371 191.436 288.371C190.196 288.371 188.969 288.622 187.829 289.109C186.688 289.595 185.658 290.308 184.8 291.203C183.875 292.161 183.151 293.296 182.671 294.539C182.191 295.782 181.965 297.108 182.006 298.44C181.971 299.769 182.202 301.092 182.687 302.331C183.172 303.569 183.9 304.697 184.828 305.649H184.856ZM239.674 310.316C236.49 313.368 232.251 315.072 227.841 315.072C223.432 315.072 219.192 313.368 216.009 310.316C214.424 308.779 213.176 306.93 212.344 304.886C211.512 302.842 211.114 300.647 211.175 298.44C211.116 296.234 211.515 294.039 212.347 291.995C213.179 289.951 214.426 288.102 216.009 286.564C219.192 283.512 223.432 281.808 227.841 281.808C232.251 281.808 236.49 283.512 239.674 286.564C241.257 288.102 242.504 289.951 243.336 291.995C244.168 294.039 244.567 296.234 244.507 298.44C244.569 300.647 244.17 302.842 243.338 304.886C242.506 306.93 241.258 308.779 239.674 310.316ZM221.234 305.649C222.08 306.554 223.104 307.275 224.24 307.768C225.377 308.261 226.603 308.515 227.841 308.515C229.08 308.515 230.306 308.261 231.442 307.768C232.579 307.275 233.602 306.554 234.449 305.649C235.372 304.695 236.095 303.566 236.575 302.327C237.055 301.089 237.282 299.767 237.243 298.44C237.284 297.108 237.058 295.782 236.578 294.539C236.099 293.296 235.374 292.161 234.449 291.203C233.591 290.308 232.561 289.595 231.421 289.109C230.28 288.622 229.053 288.371 227.813 288.371C226.574 288.371 225.347 288.622 224.206 289.109C223.066 289.595 222.036 290.308 221.178 291.203C220.252 292.161 219.528 293.296 219.048 294.539C218.569 295.782 218.343 297.108 218.384 298.44C218.348 299.769 218.58 301.092 219.065 302.331C219.549 303.569 220.277 304.697 221.206 305.649H221.234ZM263.59 329.988C260.241 330.095 256.957 329.049 254.286 327.026C251.915 325.243 250.047 322.874 248.866 320.152L255.236 317.497C255.93 319.124 257.014 320.554 258.394 321.661C259.87 322.851 261.723 323.475 263.618 323.421C264.82 323.494 266.024 323.308 267.147 322.874C268.271 322.44 269.287 321.769 270.128 320.906C271.812 318.876 272.643 316.272 272.447 313.641V311.238H272.196C271.131 312.503 269.786 313.502 268.269 314.157C266.751 314.812 265.101 315.104 263.451 315.01C261.353 315.017 259.277 314.588 257.353 313.751C255.429 312.914 253.7 311.687 252.275 310.148C250.728 308.621 249.507 306.797 248.686 304.784C247.865 302.772 247.46 300.613 247.497 298.44C247.458 296.254 247.862 294.083 248.683 292.057C249.504 290.03 250.725 288.191 252.275 286.648C253.697 285.103 255.425 283.87 257.349 283.028C259.273 282.186 261.351 281.754 263.451 281.758C265.228 281.755 266.984 282.146 268.592 282.904C269.982 283.511 271.223 284.418 272.224 285.558H272.475V282.904H279.404V312.663C279.587 315.017 279.287 317.384 278.523 319.618C277.759 321.852 276.547 323.907 274.962 325.657C273.452 327.102 271.667 328.229 269.714 328.973C267.761 329.717 265.679 330.062 263.59 329.988ZM264.093 308.528C265.286 308.554 266.471 308.317 267.562 307.834C268.653 307.351 269.625 306.634 270.408 305.733C272.132 303.758 273.04 301.201 272.95 298.58C273.054 295.915 272.145 293.31 270.408 291.287C269.626 290.384 268.655 289.666 267.563 289.183C266.471 288.7 265.287 288.464 264.093 288.492C262.868 288.467 261.651 288.703 260.523 289.185C259.396 289.667 258.384 290.383 257.555 291.287C255.707 293.237 254.703 295.838 254.761 298.524C254.733 299.842 254.965 301.152 255.445 302.38C255.924 303.607 256.641 304.728 257.555 305.677C258.38 306.589 259.39 307.315 260.517 307.807C261.645 308.298 262.864 308.544 264.093 308.528ZM291.726 265.216V314.06H284.433V265.216H291.726ZM311.731 315.066C309.547 315.122 307.375 314.727 305.351 313.905C303.327 313.083 301.494 311.851 299.968 310.288C298.419 308.736 297.202 306.886 296.39 304.849C295.579 302.812 295.189 300.632 295.246 298.44C295.164 296.243 295.524 294.052 296.307 291.997C297.089 289.942 298.277 288.066 299.8 286.48C301.236 284.967 302.971 283.771 304.896 282.967C306.82 282.163 308.891 281.771 310.976 281.814C312.894 281.794 314.795 282.165 316.564 282.904C318.158 283.547 319.61 284.496 320.839 285.698C321.894 286.717 322.831 287.851 323.633 289.079C324.281 290.116 324.833 291.211 325.281 292.349L326.036 294.249L303.684 303.442C304.36 304.995 305.491 306.307 306.927 307.205C308.364 308.103 310.038 308.545 311.731 308.472C313.377 308.476 314.997 308.054 316.432 307.246C317.866 306.438 319.067 305.272 319.917 303.861L325.505 307.633C324.079 309.674 322.254 311.404 320.141 312.719C317.627 314.307 314.703 315.123 311.731 315.066ZM302.399 297.937L317.263 291.762C316.805 290.673 315.986 289.775 314.944 289.219C313.777 288.56 312.456 288.222 311.116 288.241C308.842 288.3 306.683 289.254 305.109 290.895C304.167 291.797 303.435 292.896 302.967 294.113C302.498 295.331 302.304 296.636 302.399 297.937Z" fill="#5F6368"/>
<path d="M364.23 315.067C361.128 315.121 358.048 314.547 355.174 313.381C352.3 312.214 349.691 310.479 347.505 308.278C345.318 306.078 343.598 303.459 342.449 300.578C341.299 297.697 340.744 294.613 340.816 291.511C340.744 288.41 341.299 285.326 342.449 282.445C343.598 279.564 345.318 276.944 347.505 274.744C349.691 272.544 352.3 270.809 355.174 269.642C358.048 268.475 361.128 267.902 364.23 267.955C367.369 267.857 370.489 268.47 373.358 269.747C376.227 271.024 378.77 272.934 380.798 275.332L376.775 279.244C375.286 277.372 373.377 275.877 371.202 274.882C369.027 273.886 366.648 273.418 364.258 273.516C361.957 273.464 359.67 273.878 357.533 274.733C355.396 275.587 353.455 276.865 351.824 278.49C350.129 280.194 348.805 282.231 347.935 284.472C347.065 286.713 346.667 289.109 346.767 291.511C346.667 293.913 347.065 296.31 347.935 298.551C348.805 300.792 350.129 302.828 351.824 304.533C353.455 306.157 355.396 307.435 357.533 308.29C359.67 309.145 361.957 309.559 364.258 309.507C366.928 309.537 369.57 308.964 371.989 307.832C374.407 306.7 376.54 305.038 378.228 302.968L382.251 306.992C380.144 309.511 377.5 311.526 374.512 312.888C371.291 314.375 367.777 315.12 364.23 315.067Z" fill="#5F6368"/>
<path d="M393.064 314.06H387.28V268.932H393.064V314.06Z" fill="#5F6368"/>
<path d="M402.507 286.9C405.538 283.889 409.636 282.2 413.907 282.2C418.178 282.2 422.276 283.889 425.306 286.9C426.788 288.464 427.946 290.307 428.713 292.321C429.481 294.335 429.842 296.481 429.777 298.636C429.842 300.79 429.481 302.936 428.713 304.95C427.946 306.964 426.788 308.807 425.306 310.372C422.276 313.382 418.178 315.071 413.907 315.071C409.636 315.071 405.538 313.382 402.507 310.372C401.025 308.807 399.868 306.964 399.1 304.95C398.333 302.936 397.972 300.79 398.037 298.636C397.972 296.481 398.333 294.335 399.1 292.321C399.868 290.307 401.025 288.464 402.507 286.9ZM406.81 306.739C407.721 307.702 408.82 308.47 410.037 308.994C411.255 309.518 412.567 309.789 413.893 309.789C415.219 309.789 416.531 309.518 417.748 308.994C418.966 308.47 420.064 307.702 420.976 306.739C421.987 305.654 422.771 304.379 423.285 302.988C423.798 301.597 424.029 300.117 423.965 298.636C424.029 297.154 423.798 295.675 423.285 294.283C422.771 292.892 421.987 291.617 420.976 290.532C420.064 289.569 418.966 288.802 417.748 288.278C416.531 287.753 415.219 287.483 413.893 287.483C412.567 287.483 411.255 287.753 410.037 288.278C408.82 288.802 407.721 289.569 406.81 290.532C405.799 291.617 405.014 292.892 404.501 294.283C403.988 295.675 403.757 297.154 403.821 298.636C403.764 300.115 404.002 301.59 404.52 302.976C405.038 304.362 405.826 305.632 406.838 306.711L406.81 306.739Z" fill="#5F6368"/>
<path d="M461.824 314.06H456.236V309.785H456.068C455.074 311.409 453.666 312.739 451.989 313.641C450.249 314.65 448.273 315.18 446.261 315.178C444.628 315.29 442.991 315.031 441.472 314.421C439.953 313.812 438.591 312.867 437.488 311.657C435.372 308.98 434.308 305.62 434.499 302.212V283.211H440.282V301.15C440.282 306.907 442.825 309.785 447.91 309.785C449.04 309.82 450.161 309.585 451.182 309.099C452.203 308.613 453.092 307.89 453.777 306.99C455.276 305.09 456.075 302.732 456.04 300.312V283.211H461.824V314.06Z" fill="#5F6368"/>
<path d="M481.465 315.066C479.503 315.072 477.563 314.653 475.778 313.838C473.994 313.023 472.407 311.831 471.127 310.343C468.231 307.144 466.679 302.95 466.797 298.635C466.679 294.32 468.231 290.127 471.127 286.927C472.407 285.44 473.994 284.247 475.778 283.432C477.563 282.617 479.503 282.198 481.465 282.205C483.663 282.17 485.835 282.689 487.78 283.713C489.489 284.574 490.936 285.876 491.97 287.486H492.222L491.97 283.21V268.932H497.754V314.06H492.166V309.784H491.915C490.88 311.394 489.433 312.697 487.724 313.557C485.795 314.572 483.644 315.091 481.465 315.066ZM482.415 309.784C483.722 309.803 485.019 309.544 486.218 309.024C487.418 308.504 488.493 307.734 489.372 306.767C491.337 304.529 492.341 301.608 492.166 298.635C492.341 295.663 491.337 292.741 489.372 290.504C488.487 289.531 487.408 288.754 486.206 288.222C485.003 287.69 483.702 287.415 482.387 287.415C481.072 287.415 479.771 287.69 478.569 288.222C477.366 288.754 476.287 289.531 475.402 290.504C474.426 291.604 473.677 292.886 473.198 294.277C472.718 295.667 472.518 297.139 472.608 298.607C472.518 300.075 472.718 301.547 473.198 302.937C473.677 304.328 474.426 305.61 475.402 306.711C476.283 307.696 477.365 308.48 478.574 309.01C479.784 309.54 481.094 309.804 482.415 309.784Z" fill="#5F6368"/>
<path d="M36.1969 412.767C34.262 415.107 31.9803 416.899 29.3518 418.143C26.7233 419.349 23.7844 419.953 20.5353 419.953C17.6147 419.953 14.8949 419.422 12.3759 418.362C9.89344 417.301 7.73952 415.857 5.91416 414.029C4.0888 412.2 2.64677 410.043 1.58806 407.556C0.529354 405.033 0 402.327 0 399.438C0 396.549 0.529354 393.861 1.58806 391.375C2.64677 388.851 4.0888 386.676 5.91416 384.847C7.73952 383.019 9.89344 381.574 12.3759 380.514C14.8949 379.453 17.6147 378.923 20.5353 378.923C23.6749 378.923 26.4312 379.472 28.8042 380.569C31.2136 381.666 33.3493 383.256 35.2112 385.341L30.0089 390.387C28.8407 389.034 27.4899 387.955 25.9566 387.151C24.4598 386.346 22.671 385.944 20.59 385.944C18.7647 385.944 17.0488 386.273 15.4425 386.932C13.8362 387.553 12.4307 388.449 11.226 389.619C10.0577 390.789 9.12679 392.216 8.43316 393.898C7.73952 395.543 7.3927 397.39 7.3927 399.438C7.3927 401.486 7.73952 403.351 8.43316 405.033C9.12679 406.678 10.0577 408.086 11.226 409.256C12.4307 410.427 13.8362 411.341 15.4425 411.999C17.0488 412.621 18.7647 412.932 20.59 412.932C22.7805 412.932 24.7154 412.493 26.3947 411.615C28.1105 410.701 29.6256 409.421 30.9398 407.775L36.1969 412.767Z" fill="#4285F4"/>
<path d="M52.8903 391.32C54.9712 391.32 56.8696 391.685 58.5855 392.417C60.3378 393.112 61.8346 394.099 63.0758 395.379C64.3536 396.622 65.3393 398.121 66.0329 399.877C66.7631 401.632 67.1281 403.552 67.1281 405.636C67.1281 407.721 66.7631 409.64 66.0329 411.396C65.3393 413.151 64.3536 414.669 63.0758 415.948C61.8346 417.192 60.3378 418.179 58.5855 418.91C56.8696 419.605 54.9712 419.953 52.8903 419.953C50.8094 419.953 48.8928 419.605 47.1405 418.91C45.4246 418.179 43.9278 417.192 42.6501 415.948C41.4088 414.669 40.4231 413.151 39.693 411.396C38.9994 409.64 38.6525 407.721 38.6525 405.636C38.6525 403.552 38.9994 401.632 39.693 399.877C40.4231 398.121 41.4088 396.622 42.6501 395.379C43.9278 394.099 45.4246 393.112 47.1405 392.417C48.8928 391.685 50.8094 391.32 52.8903 391.32ZM52.8903 413.315C53.803 413.315 54.6792 413.151 55.5189 412.822C56.395 412.456 57.1617 411.944 57.8188 411.286C58.4759 410.628 58.987 409.823 59.3521 408.872C59.7537 407.922 59.9545 406.843 59.9545 405.636C59.9545 404.429 59.7537 403.351 59.3521 402.4C58.987 401.449 58.4759 400.645 57.8188 399.986C57.1617 399.328 56.395 398.834 55.5189 398.505C54.6792 398.14 53.803 397.957 52.8903 397.957C51.9411 397.957 51.0467 398.14 50.2071 398.505C49.3674 398.834 48.619 399.328 47.9619 399.986C47.3047 400.645 46.7754 401.449 46.3738 402.4C46.0087 403.351 45.8262 404.429 45.8262 405.636C45.8262 406.843 46.0087 407.922 46.3738 408.872C46.7754 409.823 47.3047 410.628 47.9619 411.286C48.619 411.944 49.3674 412.456 50.2071 412.822C51.0467 413.151 51.9411 413.315 52.8903 413.315Z" fill="#4285F4"/>
<path d="M71.2027 392.197H77.9382V395.708H78.3763C79.216 394.391 80.3477 393.331 81.7715 392.526C83.2318 391.722 84.8381 391.32 86.5904 391.32C88.6348 391.32 90.3507 391.795 91.738 392.746C93.1252 393.697 94.1109 394.867 94.695 396.256C95.5347 394.903 96.7212 393.752 98.2545 392.801C99.7878 391.813 101.65 391.32 103.84 391.32C105.483 391.32 106.907 391.594 108.111 392.143C109.316 392.654 110.302 393.386 111.069 394.337C111.872 395.287 112.474 396.439 112.876 397.792C113.277 399.109 113.478 400.553 113.478 402.126V419.075H106.304V403.442C106.304 399.785 104.808 397.957 101.814 397.957C100.865 397.957 100.025 398.176 99.2949 398.615C98.5648 399.017 97.9442 399.584 97.4331 400.316C96.9585 401.01 96.5752 401.851 96.2831 402.839C96.0276 403.826 95.8998 404.887 95.8998 406.02V419.075H88.7261V403.442C88.7261 399.785 87.1563 397.957 84.0167 397.957C83.104 397.957 82.3009 398.176 81.6072 398.615C80.9136 399.017 80.3295 399.584 79.8549 400.316C79.3803 401.01 79.0152 401.851 78.7597 402.839C78.5041 403.826 78.3763 404.887 78.3763 406.02V419.075H71.2027V392.197Z" fill="#4285F4"/>
<path d="M119.386 392.197H126.121V395.708H126.559C127.399 394.391 128.531 393.331 129.955 392.526C131.415 391.722 133.021 391.32 134.774 391.32C136.818 391.32 138.534 391.795 139.921 392.746C141.308 393.697 142.294 394.867 142.878 396.256C143.718 394.903 144.904 393.752 146.438 392.801C147.971 391.813 149.833 391.32 152.023 391.32C153.666 391.32 155.09 391.594 156.294 392.143C157.499 392.654 158.485 393.386 159.252 394.337C160.055 395.287 160.657 396.439 161.059 397.792C161.46 399.109 161.661 400.553 161.661 402.126V419.075H154.487V403.442C154.487 399.785 152.991 397.957 149.997 397.957C149.048 397.957 148.208 398.176 147.478 398.615C146.748 399.017 146.127 399.584 145.616 400.316C145.142 401.01 144.758 401.851 144.466 402.839C144.211 403.826 144.083 404.887 144.083 406.02V419.075H136.909V403.442C136.909 399.785 135.339 397.957 132.2 397.957C131.287 397.957 130.484 398.176 129.79 398.615C129.097 399.017 128.513 399.584 128.038 400.316C127.563 401.01 127.198 401.851 126.943 402.839C126.687 403.826 126.559 404.887 126.559 406.02V419.075H119.386V392.197Z" fill="#4285F4"/>
<path d="M186.133 415.564H185.695C184.855 416.917 183.723 417.996 182.299 418.801C180.876 419.569 179.251 419.953 177.426 419.953C174.031 419.953 171.493 418.91 169.814 416.826C168.171 414.742 167.35 411.962 167.35 408.488V392.197H174.523V407.611C174.523 409.549 174.943 410.993 175.783 411.944C176.659 412.858 177.919 413.315 179.561 413.315C180.547 413.315 181.405 413.114 182.135 412.712C182.902 412.273 183.541 411.706 184.052 411.012C184.599 410.28 185.001 409.439 185.256 408.488C185.549 407.501 185.695 406.459 185.695 405.362V392.197H192.868V419.075H186.133V415.564Z" fill="#4285F4"/>
<path d="M205.749 395.708H206.187C207.027 394.355 208.158 393.294 209.582 392.526C211.006 391.722 212.631 391.32 214.456 391.32C216.135 391.32 217.614 391.594 218.892 392.143C220.169 392.691 221.21 393.477 222.013 394.501C222.853 395.488 223.473 396.695 223.875 398.121C224.313 399.511 224.532 401.065 224.532 402.784V419.075H217.358V403.661C217.358 401.723 216.92 400.297 216.044 399.383C215.204 398.432 213.963 397.957 212.32 397.957C211.335 397.957 210.458 398.176 209.692 398.615C208.962 399.017 208.323 399.584 207.775 400.316C207.264 401.01 206.862 401.851 206.57 402.839C206.315 403.789 206.187 404.813 206.187 405.91V419.075H199.013V392.197H205.749V395.708Z" fill="#4285F4"/>
<path d="M234.456 388.303C233.835 388.303 233.233 388.193 232.648 387.974C232.101 387.718 231.608 387.389 231.17 386.986C230.768 386.548 230.44 386.054 230.184 385.505C229.965 384.957 229.856 384.353 229.856 383.695C229.856 383.037 229.965 382.434 230.184 381.885C230.44 381.337 230.768 380.861 231.17 380.459C231.608 380.02 232.101 379.691 232.648 379.472C233.233 379.216 233.835 379.088 234.456 379.088C235.733 379.088 236.829 379.545 237.741 380.459C238.654 381.337 239.11 382.415 239.11 383.695C239.11 384.975 238.654 386.072 237.741 386.986C236.829 387.864 235.733 388.303 234.456 388.303ZM230.896 419.075V392.197H238.07V419.075H230.896Z" fill="#4285F4"/>
<path d="M247.319 398.341H242.61V392.197H247.319V383.97H254.493V392.197H261.064V398.341H254.493V408.763C254.493 409.384 254.548 409.97 254.657 410.518C254.803 411.03 255.059 411.469 255.424 411.834C255.935 412.42 256.665 412.712 257.614 412.712C258.235 412.712 258.728 412.657 259.093 412.548C259.458 412.401 259.805 412.218 260.133 411.999L262.159 418.307C261.32 418.709 260.407 419.002 259.421 419.185C258.472 419.404 257.413 419.514 256.245 419.514C254.895 419.514 253.672 419.313 252.576 418.91C251.518 418.472 250.623 417.887 249.893 417.155C248.177 415.51 247.319 413.169 247.319 410.134V398.341Z" fill="#4285F4"/>
<path d="M275.042 417.759L263.761 392.197H271.921L278.711 408.488H279.094L285.611 392.197H293.606L276.794 430.923H269.073L275.042 417.759Z" fill="#4285F4"/>
<path d="M309.785 379.801H323.038C326.141 379.801 328.933 380.276 331.416 381.227C333.898 382.178 336.016 383.531 337.768 385.286C339.521 387.005 340.853 389.071 341.766 391.484C342.715 393.898 343.19 396.549 343.19 399.438C343.19 402.363 342.715 405.033 341.766 407.446C340.853 409.86 339.521 411.926 337.768 413.645C336.016 415.363 333.898 416.698 331.416 417.649C328.933 418.6 326.141 419.075 323.038 419.075H309.785V379.801ZM322.709 412.054C324.863 412.054 326.761 411.761 328.404 411.176C330.047 410.555 331.416 409.695 332.511 408.598C333.606 407.501 334.428 406.185 334.975 404.649C335.523 403.076 335.797 401.339 335.797 399.438C335.797 397.536 335.523 395.818 334.975 394.282C334.428 392.709 333.606 391.375 332.511 390.278C331.416 389.18 330.047 388.339 328.404 387.754C326.761 387.133 324.863 386.822 322.709 386.822H317.178V412.054H322.709Z" fill="#4285F4"/>
<path d="M364.806 416.223H364.368C363.529 417.247 362.506 418.124 361.302 418.856C360.133 419.587 358.618 419.953 356.756 419.953C355.369 419.953 354.055 419.715 352.814 419.24C351.609 418.801 350.55 418.179 349.638 417.375C348.725 416.57 348.013 415.601 347.502 414.467C346.991 413.334 346.735 412.09 346.735 410.737C346.735 409.348 347.009 408.105 347.557 407.007C348.104 405.874 348.871 404.905 349.857 404.1C350.842 403.296 351.992 402.692 353.307 402.29C354.657 401.851 356.118 401.632 357.687 401.632C359.44 401.632 360.882 401.778 362.014 402.071C363.145 402.327 364.076 402.601 364.806 402.894V402.071C364.806 400.645 364.24 399.474 363.109 398.56C361.977 397.609 360.571 397.134 358.892 397.134C356.41 397.134 354.311 398.176 352.595 400.261L347.392 396.695C350.24 393.112 354.128 391.32 359.056 391.32C363.218 391.32 366.394 392.307 368.585 394.282C370.775 396.22 371.87 399.109 371.87 402.948V419.075H364.806V416.223ZM364.806 408.159C363.967 407.757 363.09 407.446 362.178 407.227C361.302 406.971 360.334 406.843 359.275 406.843C357.56 406.843 356.227 407.227 355.278 407.995C354.365 408.726 353.909 409.64 353.909 410.737C353.909 411.834 354.347 412.712 355.223 413.37C356.136 414.029 357.176 414.358 358.345 414.358C359.294 414.358 360.17 414.193 360.973 413.864C361.776 413.498 362.452 413.041 362.999 412.493C363.583 411.908 364.021 411.249 364.313 410.518C364.642 409.75 364.806 408.964 364.806 408.159Z" fill="#4285F4"/>
<path d="M385.473 417.759L374.192 392.197H382.351L389.141 408.488H389.525L396.041 392.197H404.036L387.225 430.923H379.504L385.473 417.759Z" fill="#4285F4"/>
<path d="M418.792 419.075V412.548C420.946 410.427 422.936 408.452 424.761 406.624C425.528 405.856 426.313 405.069 427.116 404.265C427.919 403.46 428.667 402.711 429.361 402.016C430.055 401.321 430.675 400.699 431.223 400.151C431.771 399.566 432.19 399.109 432.482 398.78C433.067 398.085 433.578 397.463 434.016 396.915C434.49 396.366 434.855 395.836 435.111 395.324C435.403 394.775 435.622 394.245 435.768 393.733C435.914 393.185 435.987 392.6 435.987 391.978C435.987 390.771 435.513 389.729 434.563 388.851C433.614 387.937 432.318 387.48 430.675 387.48C429.033 387.48 427.755 387.955 426.842 388.906C425.929 389.82 425.309 390.863 424.98 392.033L418.464 389.345C418.756 388.358 419.23 387.352 419.888 386.328C420.545 385.268 421.384 384.335 422.407 383.531C423.429 382.69 424.633 382.013 426.021 381.501C427.445 380.953 429.033 380.678 430.785 380.678C432.683 380.678 434.399 380.971 435.932 381.556C437.466 382.105 438.762 382.872 439.82 383.86C440.879 384.847 441.701 386.017 442.285 387.37C442.869 388.687 443.161 390.113 443.161 391.649C443.161 393.989 442.577 396.147 441.409 398.121C440.277 400.06 438.89 401.87 437.247 403.552L432.537 408.269C431.296 409.512 429.89 410.902 428.321 412.438L428.54 412.767H443.708V419.075H418.792Z" fill="#4285F4"/>
<path d="M464.239 419.953C461.83 419.953 459.658 419.459 457.723 418.472C455.788 417.448 454.127 416.058 452.74 414.303C451.389 412.548 450.348 410.481 449.618 408.105C448.888 405.691 448.523 403.095 448.523 400.316C448.523 397.536 448.888 394.958 449.618 392.581C450.348 390.168 451.389 388.083 452.74 386.328C454.127 384.573 455.788 383.202 457.723 382.214C459.658 381.19 461.83 380.678 464.239 380.678C466.649 380.678 468.821 381.19 470.756 382.214C472.691 383.202 474.334 384.573 475.684 386.328C477.072 388.083 478.13 390.168 478.861 392.581C479.591 394.958 479.956 397.536 479.956 400.316C479.956 403.095 479.591 405.691 478.861 408.105C478.13 410.481 477.072 412.548 475.684 414.303C474.334 416.058 472.691 417.448 470.756 418.472C468.821 419.459 466.649 419.953 464.239 419.953ZM464.239 413.151C465.554 413.151 466.74 412.84 467.799 412.218C468.858 411.56 469.752 410.664 470.482 409.531C471.249 408.361 471.815 406.989 472.18 405.417C472.581 403.844 472.782 402.144 472.782 400.316C472.782 398.451 472.581 396.75 472.18 395.214C471.815 393.642 471.249 392.289 470.482 391.155C469.752 389.985 468.858 389.089 467.799 388.467C466.74 387.809 465.554 387.48 464.239 387.48C462.889 387.48 461.684 387.809 460.625 388.467C459.567 389.089 458.672 389.985 457.942 391.155C457.212 392.289 456.646 393.642 456.244 395.214C455.879 396.75 455.697 398.451 455.697 400.316C455.697 402.144 455.879 403.844 456.244 405.417C456.646 406.989 457.212 408.361 457.942 409.531C458.672 410.664 459.567 411.56 460.625 412.218C461.684 412.84 462.889 413.151 464.239 413.151Z" fill="#4285F4"/>
<path d="M484.355 419.075V412.548C486.509 410.427 488.499 408.452 490.324 406.624C491.091 405.856 491.876 405.069 492.679 404.265C493.482 403.46 494.231 402.711 494.924 402.016C495.618 401.321 496.239 400.699 496.786 400.151C497.334 399.566 497.754 399.109 498.046 398.78C498.63 398.085 499.141 397.463 499.579 396.915C500.054 396.366 500.419 395.836 500.674 395.324C500.966 394.775 501.185 394.245 501.331 393.733C501.477 393.185 501.55 392.6 501.55 391.978C501.55 390.771 501.076 389.729 500.127 388.851C499.177 387.937 497.881 387.48 496.239 387.48C494.596 387.48 493.318 387.955 492.405 388.906C491.493 389.82 490.872 390.863 490.543 392.033L484.027 389.345C484.319 388.358 484.794 387.352 485.451 386.328C486.108 385.268 486.947 384.335 487.97 383.531C488.992 382.69 490.197 382.013 491.584 381.501C493.008 380.953 494.596 380.678 496.348 380.678C498.246 380.678 499.962 380.971 501.496 381.556C503.029 382.105 504.325 382.872 505.384 383.86C506.442 384.847 507.264 386.017 507.848 387.37C508.432 388.687 508.724 390.113 508.724 391.649C508.724 393.989 508.14 396.147 506.972 398.121C505.84 400.06 504.453 401.87 502.81 403.552L498.1 408.269C496.859 409.512 495.454 410.902 493.884 412.438L494.103 412.767H509.272V419.075H484.355Z" fill="#4285F4"/>
<path d="M531.172 419.075V412.164H513.867V406.349L530.515 381.556H538.291V405.472H543V412.164H538.291V419.075H531.172ZM531.172 392.252H530.734L521.808 405.472H531.172V392.252Z" fill="#4285F4"/>
<path d="M150.164 22.474C148.551 21.5521 147.277 20.2783 146.343 18.6528C145.409 17.0272 144.936 15.2318 144.936 13.2788C144.936 11.3257 145.409 9.51817 146.343 7.90475C147.277 6.2792 148.551 5.00544 150.164 4.08349C151.778 3.16154 153.537 2.70056 155.441 2.70056C156.933 2.70056 158.328 2.96745 159.651 3.48908C160.961 4.02285 162.041 4.76283 162.89 5.72118L161.167 7.44377C160.524 6.65526 159.699 6.03658 158.692 5.612C157.686 5.18742 156.606 4.96906 155.453 4.96906C154.034 4.96906 152.712 5.30872 151.475 6.00018C150.237 6.69165 149.242 7.66213 148.502 8.91162C147.75 10.1611 147.386 11.6168 147.386 13.2545C147.386 14.8922 147.762 16.3479 148.502 17.5974C149.242 18.8469 150.237 19.8295 151.475 20.5088C152.712 21.2003 154.034 21.5399 155.453 21.5399C156.873 21.5399 157.952 21.3216 158.862 20.897C159.772 20.4724 160.573 19.9144 161.252 19.2108C161.737 18.677 162.138 18.0341 162.441 17.282C162.744 16.5299 162.926 15.7049 162.975 14.8194H155.502V12.5873H165.243C165.34 13.1211 165.389 13.6063 165.389 14.0551C165.389 15.3046 165.195 16.5177 164.794 17.6944C164.394 18.8711 163.763 19.9023 162.902 20.7878C160.997 22.8137 158.51 23.8206 155.453 23.8206C153.549 23.8206 151.79 23.3596 150.176 22.4376L150.164 22.474Z" fill="#636D74"/>
<path d="M170.68 22.8813C169.588 22.2263 168.727 21.3286 168.12 20.1883C167.502 19.048 167.198 17.7742 167.198 16.3791C167.198 14.9841 167.502 13.7103 168.12 12.57C168.727 11.4297 169.588 10.532 170.68 9.87696C171.772 9.22188 173.009 8.90649 174.392 8.90649C175.775 8.90649 177.012 9.23402 178.116 9.87696C179.22 10.5199 180.081 11.4297 180.688 12.57C181.307 13.7103 181.61 14.9841 181.61 16.3791C181.61 17.7742 181.307 19.048 180.688 20.1883C180.069 21.3286 179.22 22.2263 178.116 22.8813C177.012 23.5364 175.775 23.8639 174.392 23.8639C173.009 23.8639 171.772 23.5364 170.68 22.8813ZM176.77 21.0253C177.51 20.5886 178.092 19.9699 178.541 19.1693C178.99 18.3686 179.208 17.4345 179.208 16.3791C179.208 15.3238 178.99 14.3897 178.541 13.589C178.092 12.7884 177.51 12.1697 176.77 11.733C176.03 11.2963 175.241 11.0779 174.392 11.0779C173.543 11.0779 172.779 11.2963 172.039 11.733C171.299 12.1697 170.716 12.7884 170.267 13.589C169.819 14.3897 169.6 15.3238 169.6 16.3791C169.6 17.4345 169.819 18.3686 170.267 19.1693C170.716 19.9699 171.299 20.5886 172.039 21.0253C172.779 21.462 173.555 21.6804 174.392 21.6804C175.229 21.6804 176.03 21.462 176.77 21.0253Z" fill="#636D74"/>
<path d="M186.726 22.8813C185.634 22.2263 184.773 21.3286 184.166 20.1883C183.547 19.048 183.244 17.7742 183.244 16.3791C183.244 14.9841 183.547 13.7103 184.166 12.57C184.773 11.4297 185.634 10.532 186.726 9.87696C187.817 9.22188 189.055 8.90649 190.438 8.90649C191.821 8.90649 193.058 9.23402 194.162 9.87696C195.266 10.5199 196.127 11.4297 196.734 12.57C197.352 13.7103 197.656 14.9841 197.656 16.3791C197.656 17.7742 197.352 19.048 196.734 20.1883C196.115 21.3286 195.266 22.2263 194.162 22.8813C193.058 23.5364 191.821 23.8639 190.438 23.8639C189.055 23.8639 187.817 23.5364 186.726 22.8813ZM192.815 21.0253C193.555 20.5886 194.138 19.9699 194.586 19.1693C195.035 18.3686 195.254 17.4345 195.254 16.3791C195.254 15.3238 195.035 14.3897 194.586 13.589C194.138 12.7884 193.555 12.1697 192.815 11.733C192.075 11.2963 191.287 11.0779 190.438 11.0779C189.589 11.0779 188.824 11.2963 188.084 11.733C187.344 12.1697 186.762 12.7884 186.313 13.589C185.864 14.3897 185.646 15.3238 185.646 16.3791C185.646 17.4345 185.864 18.3686 186.313 19.1693C186.762 19.9699 187.344 20.5886 188.084 21.0253C188.824 21.462 189.601 21.6804 190.438 21.6804C191.275 21.6804 192.075 21.462 192.815 21.0253Z" fill="#636D74"/>
<path d="M202.102 28.7527C201.022 27.94 200.294 26.9937 199.918 25.9262L202.15 24.9921C202.429 25.817 202.939 26.4964 203.666 27.018C204.394 27.5396 205.256 27.7944 206.263 27.7944C207.755 27.7944 208.895 27.3577 209.696 26.4964C210.496 25.6351 210.897 24.422 210.897 22.8692V21.365H210.787C210.339 22.0807 209.683 22.6751 208.834 23.1482C207.985 23.6213 207.027 23.8518 205.947 23.8518C204.758 23.8518 203.654 23.5243 202.635 22.8813C201.616 22.2384 200.804 21.3407 200.197 20.2125C199.591 19.0722 199.287 17.7985 199.287 16.3791C199.287 14.9598 199.591 13.674 200.197 12.5458C200.804 11.4176 201.616 10.5199 202.635 9.87696C203.654 9.23402 204.758 8.90649 205.947 8.90649C207.027 8.90649 207.985 9.13697 208.834 9.61007C209.683 10.0832 210.339 10.6776 210.787 11.3933H210.897V9.35533H213.189V22.8328C213.189 24.3856 212.886 25.6957 212.279 26.7632C211.673 27.8429 210.848 28.6435 209.805 29.1652C208.761 29.6989 207.573 29.9537 206.25 29.9537C204.552 29.9537 203.169 29.5534 202.089 28.7406L202.102 28.7527ZM208.616 21.0374C209.307 20.6129 209.878 19.9942 210.302 19.2057C210.727 18.4171 210.945 17.4709 210.945 16.3913C210.945 15.3116 210.727 14.3654 210.302 13.5648C209.878 12.7641 209.32 12.1454 208.616 11.733C207.912 11.3205 207.148 11.1022 206.323 11.1022C205.498 11.1022 204.722 11.3205 204.03 11.7451C203.327 12.1697 202.769 12.7884 202.344 13.5769C201.92 14.3775 201.701 15.3116 201.701 16.3913C201.701 17.4709 201.92 18.4171 202.344 19.2057C202.769 19.9942 203.327 20.6129 204.03 21.0374C204.734 21.462 205.498 21.6804 206.323 21.6804C207.148 21.6804 207.912 21.462 208.616 21.0374Z" fill="#636D74"/>
<path d="M216.084 3.13818H218.486V23.409H216.084V3.13818Z" fill="#636D74"/>
<path d="M224.184 22.8919C223.116 22.2489 222.279 21.3633 221.673 20.2352C221.066 19.107 220.763 17.8211 220.763 16.3897C220.763 15.031 221.042 13.7815 221.612 12.6412C222.182 11.5009 222.983 10.5911 224.038 9.92386C225.094 9.25666 226.282 8.91699 227.653 8.91699C229.024 8.91699 230.201 9.22026 231.232 9.83894C232.263 10.4576 233.052 11.3189 233.597 12.435C234.143 13.551 234.422 14.8369 234.422 16.2805C234.422 16.5474 234.398 16.7293 234.362 16.8506H223.213C223.25 17.906 223.504 18.8037 223.978 19.5316C224.451 20.2594 225.045 20.8053 225.749 21.1571C226.452 21.521 227.192 21.6909 227.944 21.6909C229.716 21.6909 231.086 20.8296 232.045 19.0827L234.168 20.1017C233.561 21.2299 232.724 22.1397 231.656 22.8312C230.589 23.5227 229.315 23.8623 227.823 23.8623C226.464 23.8623 225.251 23.5469 224.184 22.904V22.8919ZM231.875 14.8248C231.838 14.2546 231.681 13.6966 231.39 13.1264C231.111 12.5563 230.65 12.0832 230.019 11.6828C229.388 11.2825 228.575 11.0884 227.605 11.0884C226.549 11.0884 225.627 11.4281 224.863 12.1074C224.099 12.7868 223.602 13.6966 223.395 14.8248H231.887H231.875Z" fill="#636D74"/>
<path d="M243.623 3.12846H249.761C251.835 3.12846 253.655 3.55304 255.196 4.41434C256.748 5.27563 257.937 6.46448 258.762 7.99298C259.587 9.52148 260.012 11.2805 260.012 13.2578C260.012 15.2352 259.599 16.9941 258.762 18.5226C257.925 20.0511 256.736 21.24 255.196 22.1013C253.643 22.9626 251.835 23.3871 249.761 23.3871H243.623V3.11633V3.12846ZM249.761 21.1065C252.163 21.1065 254.055 20.4151 255.45 19.0443C256.845 17.6735 257.549 15.7446 257.549 13.2699C257.549 10.7952 256.845 8.87854 255.45 7.49561C254.055 6.11268 252.163 5.43335 249.761 5.43335H246.025V21.1187H249.761V21.1065Z" fill="#636D74"/>
<path d="M265.467 22.8919C264.4 22.2489 263.563 21.3633 262.956 20.2352C262.35 19.107 262.046 17.8211 262.046 16.3897C262.046 15.031 262.325 13.7815 262.895 12.6412C263.466 11.5009 264.266 10.5911 265.322 9.92386C266.377 9.25666 267.566 8.91699 268.937 8.91699C270.307 8.91699 271.484 9.22026 272.515 9.83894C273.546 10.4576 274.335 11.3189 274.881 12.435C275.427 13.551 275.706 14.8369 275.706 16.2805C275.706 16.5474 275.681 16.7293 275.645 16.8506H264.497C264.533 17.906 264.788 18.8037 265.261 19.5316C265.734 20.2594 266.328 20.8053 267.032 21.1571C267.736 21.521 268.476 21.6909 269.228 21.6909C270.999 21.6909 272.37 20.8296 273.328 19.0827L275.451 20.1017C274.844 21.2299 274.007 22.1397 272.94 22.8312C271.872 23.5227 270.599 23.8623 269.106 23.8623C267.748 23.8623 266.535 23.5469 265.467 22.904V22.8919ZM273.158 14.8248C273.122 14.2546 272.964 13.6966 272.673 13.1264C272.394 12.5563 271.933 12.0832 271.302 11.6828C270.671 11.2825 269.859 11.0884 268.888 11.0884C267.833 11.0884 266.911 11.4281 266.147 12.1074C265.382 12.7868 264.885 13.6966 264.679 14.8248H273.17H273.158Z" fill="#636D74"/>
<path d="M276.261 9.35474H278.869L283.175 20.5637H283.236L287.591 9.35474H290.139L284.388 23.4024H281.95L276.261 9.35474Z" fill="#636D74"/>
<path d="M294.534 22.8919C293.466 22.2489 292.629 21.3633 292.023 20.2352C291.416 19.107 291.113 17.8211 291.113 16.3897C291.113 15.031 291.392 13.7815 291.962 12.6412C292.532 11.5009 293.333 10.5911 294.388 9.92386C295.444 9.25666 296.633 8.91699 298.003 8.91699C299.374 8.91699 300.551 9.22026 301.582 9.83894C302.613 10.4576 303.402 11.3189 303.948 12.435C304.493 13.551 304.772 14.8369 304.772 16.2805C304.772 16.5474 304.748 16.7293 304.712 16.8506H293.563C293.6 17.906 293.855 18.8037 294.328 19.5316C294.801 20.2594 295.395 20.8053 296.099 21.1571C296.802 21.521 297.542 21.6909 298.295 21.6909C300.066 21.6909 301.436 20.8296 302.395 19.0827L304.518 20.1017C303.911 21.2299 303.074 22.1397 302.007 22.8312C300.939 23.5227 299.665 23.8623 298.173 23.8623C296.815 23.8623 295.601 23.5469 294.534 22.904V22.8919ZM302.225 14.8248C302.189 14.2546 302.031 13.6966 301.74 13.1264C301.461 12.5563 301 12.0832 300.369 11.6828C299.738 11.2825 298.925 11.0884 297.955 11.0884C296.899 11.0884 295.977 11.4281 295.213 12.1074C294.449 12.7868 293.952 13.6966 293.745 14.8248H302.237H302.225Z" fill="#636D74"/>
<path d="M307.217 3.13818H309.619V23.409H307.217V3.13818Z" fill="#636D74"/>
<path d="M315.387 22.8813C314.295 22.2263 313.434 21.3286 312.828 20.1883C312.209 19.048 311.906 17.7742 311.906 16.3791C311.906 14.9841 312.209 13.7103 312.828 12.57C313.434 11.4297 314.295 10.532 315.387 9.87696C316.479 9.22188 317.716 8.90649 319.099 8.90649C320.482 8.90649 321.72 9.23402 322.823 9.87696C323.927 10.5199 324.789 11.4297 325.395 12.57C326.014 13.7103 326.317 14.9841 326.317 16.3791C326.317 17.7742 326.014 19.048 325.395 20.1883C324.777 21.3286 323.927 22.2263 322.823 22.8813C321.72 23.5364 320.482 23.8639 319.099 23.8639C317.716 23.8639 316.479 23.5364 315.387 22.8813ZM321.477 21.0253C322.217 20.5886 322.799 19.9699 323.248 19.1693C323.697 18.3686 323.915 17.4345 323.915 16.3791C323.915 15.3238 323.697 14.3897 323.248 13.589C322.799 12.7884 322.217 12.1697 321.477 11.733C320.737 11.2963 319.948 11.0779 319.099 11.0779C318.25 11.0779 317.486 11.2963 316.746 11.733C316.006 12.1697 315.424 12.7884 314.975 13.589C314.526 14.3897 314.308 15.3238 314.308 16.3791C314.308 17.4345 314.526 18.3686 314.975 19.1693C315.424 19.9699 316.006 20.5886 316.746 21.0253C317.486 21.462 318.262 21.6804 319.099 21.6804C319.936 21.6804 320.737 21.462 321.477 21.0253Z" fill="#636D74"/>
<path d="M328.5 9.35533H330.793V11.4176H330.902C331.351 10.7019 332.006 10.0953 332.856 9.62222C333.705 9.14911 334.687 8.90649 335.803 8.90649C337.016 8.90649 338.12 9.23402 339.139 9.87696C340.158 10.5199 340.971 11.4176 341.578 12.5458C342.184 13.674 342.488 14.9477 342.488 16.367C342.488 17.7863 342.184 19.0601 341.578 20.1883C340.971 21.3164 340.158 22.2141 339.139 22.8571C338.12 23.5 337.004 23.8397 335.803 23.8397C334.687 23.8397 333.705 23.5971 332.843 23.1118C331.982 22.6266 331.339 22.02 330.902 21.2801H330.793L330.902 23.2331V29.4927H328.5V9.33107V9.35533ZM337.744 21.0132C338.448 20.5765 339.018 19.9578 339.443 19.1571C339.867 18.3565 340.086 17.4224 340.086 16.367C340.086 15.3116 339.867 14.3775 339.443 13.5769C339.018 12.7763 338.448 12.1576 337.744 11.7209C337.041 11.2842 336.264 11.0658 335.439 11.0658C334.615 11.0658 333.838 11.2842 333.135 11.7087C332.431 12.1333 331.861 12.752 331.436 13.5526C331.012 14.3533 330.793 15.2995 330.793 16.367C330.793 17.4345 331.012 18.3565 331.436 19.1693C331.861 19.982 332.431 20.6007 333.135 21.0253C333.838 21.4499 334.615 21.6682 335.439 21.6682C336.264 21.6682 337.041 21.4499 337.744 21.0132Z" fill="#636D74"/>
<path d="M348.108 22.8919C347.041 22.2489 346.204 21.3633 345.597 20.2352C344.991 19.107 344.687 17.8211 344.687 16.3897C344.687 15.031 344.966 13.7815 345.537 12.6412C346.107 11.5009 346.907 10.5911 347.963 9.92386C349.018 9.25666 350.207 8.91699 351.578 8.91699C352.949 8.91699 354.125 9.22026 355.156 9.83894C356.188 10.4576 356.976 11.3189 357.522 12.435C358.068 13.551 358.347 14.8369 358.347 16.2805C358.347 16.5474 358.323 16.7293 358.286 16.8506H347.138C347.174 17.906 347.429 18.8037 347.902 19.5316C348.375 20.2594 348.97 20.8053 349.673 21.1571C350.377 21.521 351.117 21.6909 351.869 21.6909C353.64 21.6909 355.011 20.8296 355.969 19.0827L358.092 20.1017C357.486 21.2299 356.649 22.1397 355.581 22.8312C354.513 23.5227 353.24 23.8623 351.748 23.8623C350.389 23.8623 349.176 23.5469 348.108 22.904V22.8919ZM355.799 14.8248C355.763 14.2546 355.605 13.6966 355.314 13.1264C355.035 12.5563 354.574 12.0832 353.943 11.6828C353.313 11.2825 352.5 11.0884 351.529 11.0884C350.474 11.0884 349.552 11.4281 348.788 12.1074C348.023 12.7868 347.526 13.6966 347.32 14.8248H355.812H355.799Z" fill="#636D74"/>
<path d="M360.773 9.35533H363.066V11.6481H363.175C363.442 10.8717 363.988 10.2288 364.801 9.695C365.626 9.16124 366.438 8.90649 367.251 8.90649C367.833 8.90649 368.379 9.00354 368.889 9.1855V11.7573C368.379 11.4782 367.724 11.3327 366.911 11.3327C366.256 11.3327 365.638 11.5268 365.055 11.915C364.473 12.3032 364.024 12.8127 363.685 13.4556C363.345 14.0985 363.175 14.8021 363.175 15.5543V23.3908H360.773V9.34321V9.35533Z" fill="#636D74"/>
<path d="M381.288 22.474C379.675 21.5521 378.401 20.2783 377.467 18.6528C376.533 17.0272 376.06 15.2318 376.06 13.2788C376.06 11.3257 376.533 9.51817 377.467 7.90475C378.401 6.2792 379.675 5.00544 381.288 4.08349C382.902 3.16154 384.661 2.70056 386.565 2.70056C388.057 2.70056 389.452 2.96745 390.775 3.48908C392.085 4.02285 393.165 4.76283 394.014 5.72118L392.291 7.44377C391.648 6.65526 390.823 6.03658 389.816 5.612C388.81 5.18742 387.73 4.96906 386.577 4.96906C385.158 4.96906 383.836 5.30872 382.598 6.00018C381.361 6.69165 380.366 7.66213 379.626 8.91162C378.874 10.1611 378.51 11.6168 378.51 13.2545C378.51 14.8922 378.886 16.3479 379.626 17.5974C380.366 18.8469 381.361 19.8295 382.598 20.5088C383.836 21.2003 385.158 21.5399 386.577 21.5399C387.997 21.5399 389.076 21.3216 389.986 20.897C390.896 20.4724 391.697 19.9144 392.376 19.2108C392.861 18.677 393.262 18.0341 393.565 17.282C393.868 16.5299 394.05 15.7049 394.099 14.8194H386.626V12.5873H396.367C396.464 13.1211 396.513 13.6063 396.513 14.0551C396.513 15.3046 396.319 16.5177 395.918 17.6944C395.518 18.8711 394.887 19.9023 394.026 20.7878C392.121 22.8137 389.634 23.8206 386.577 23.8206C384.673 23.8206 382.914 23.3596 381.3 22.4376L381.288 22.474Z" fill="#636D74"/>
<path d="M399.25 9.35533H401.542V11.6481H401.651C401.918 10.8717 402.464 10.2288 403.277 9.695C404.102 9.16124 404.915 8.90649 405.727 8.90649C406.31 8.90649 406.856 9.00354 407.365 9.1855V11.7573C406.856 11.4782 406.201 11.3327 405.388 11.3327C404.733 11.3327 404.114 11.5268 403.532 11.915C402.949 12.3032 402.501 12.8127 402.161 13.4556C401.821 14.0985 401.651 14.8021 401.651 15.5543V23.3908H399.25V9.34321V9.35533Z" fill="#636D74"/>
<path d="M411.165 22.8813C410.074 22.2263 409.212 21.3286 408.606 20.1883C407.987 19.048 407.684 17.7742 407.684 16.3791C407.684 14.9841 407.987 13.7103 408.606 12.57C409.212 11.4297 410.074 10.532 411.165 9.87696C412.257 9.22188 413.494 8.90649 414.877 8.90649C416.26 8.90649 417.498 9.23402 418.602 9.87696C419.705 10.5199 420.567 11.4297 421.173 12.57C421.792 13.7103 422.095 14.9841 422.095 16.3791C422.095 17.7742 421.792 19.048 421.173 20.1883C420.555 21.3286 419.705 22.2263 418.602 22.8813C417.498 23.5364 416.26 23.8639 414.877 23.8639C413.494 23.8639 412.257 23.5364 411.165 22.8813ZM417.255 21.0253C417.995 20.5886 418.577 19.9699 419.026 19.1693C419.475 18.3686 419.693 17.4345 419.693 16.3791C419.693 15.3238 419.475 14.3897 419.026 13.589C418.577 12.7884 417.995 12.1697 417.255 11.733C416.515 11.2963 415.727 11.0779 414.877 11.0779C414.028 11.0779 413.264 11.2963 412.524 11.733C411.784 12.1697 411.202 12.7884 410.753 13.589C410.304 14.3897 410.086 15.3238 410.086 16.3791C410.086 17.4345 410.304 18.3686 410.753 19.1693C411.202 19.9699 411.784 20.5886 412.524 21.0253C413.264 21.462 414.04 21.6804 414.877 21.6804C415.714 21.6804 416.515 21.462 417.255 21.0253Z" fill="#636D74"/>
<path d="M425.607 22.347C424.71 21.3522 424.261 19.9572 424.261 18.1861V9.35474H426.663V17.7857C426.663 20.3696 427.827 21.6676 430.144 21.6676C430.921 21.6676 431.612 21.4493 432.231 21.0126C432.849 20.5759 433.31 20.0178 433.65 19.3142C433.978 18.6228 434.147 17.8828 434.147 17.1064V9.35474H436.525V23.4024H434.257V21.3037H434.147C433.735 22.0194 433.104 22.626 432.267 23.1112C431.43 23.5965 430.52 23.8512 429.562 23.8512C427.827 23.8512 426.505 23.3538 425.607 22.347Z" fill="#636D74"/>
<path d="M439.67 9.35533H441.963V11.4176H442.072C442.521 10.7019 443.176 10.0953 444.025 9.62222C444.875 9.14911 445.857 8.90649 446.973 8.90649C448.186 8.90649 449.29 9.23402 450.309 9.87696C451.328 10.5199 452.141 11.4176 452.748 12.5458C453.354 13.674 453.657 14.9477 453.657 16.367C453.657 17.7863 453.354 19.0601 452.748 20.1883C452.141 21.3164 451.328 22.2141 450.309 22.8571C449.29 23.5 448.174 23.8397 446.973 23.8397C445.857 23.8397 444.875 23.5971 444.013 23.1118C443.152 22.6266 442.509 22.02 442.072 21.2801H441.963L442.072 23.2331V29.4927H439.67V9.33107V9.35533ZM448.914 21.0132C449.618 20.5765 450.188 19.9578 450.613 19.1571C451.037 18.3565 451.255 17.4224 451.255 16.367C451.255 15.3116 451.037 14.3775 450.613 13.5769C450.188 12.7763 449.618 12.1576 448.914 11.7209C448.211 11.2842 447.434 11.0658 446.609 11.0658C445.784 11.0658 445.008 11.2842 444.304 11.7087C443.601 12.1333 443.031 12.752 442.606 13.5526C442.182 14.3533 441.963 15.2995 441.963 16.367C441.963 17.4345 442.182 18.3565 442.606 19.1693C443.031 19.982 443.601 20.6007 444.304 21.0253C445.008 21.4499 445.784 21.6682 446.609 21.6682C447.434 21.6682 448.211 21.4499 448.914 21.0132Z" fill="#636D74"/>
<path d="M457.111 22.7277C456.067 21.9756 455.352 21.0415 454.927 19.9255L457.05 18.9914C457.426 19.877 457.96 20.5563 458.651 21.0294C459.343 21.5025 460.095 21.733 460.908 21.733C461.817 21.733 462.569 21.5389 463.152 21.1386C463.746 20.7382 464.05 20.2652 464.05 19.695C464.05 19.1248 463.831 18.7002 463.382 18.3363C462.933 17.9724 462.181 17.6691 461.102 17.4022L459.173 16.917C458.117 16.6744 457.22 16.2255 456.468 15.5826C455.716 14.9397 455.352 14.0905 455.352 13.0351C455.352 12.1617 455.606 11.4217 456.104 10.803C456.601 10.1843 457.268 9.71122 458.105 9.38369C458.93 9.06828 459.84 8.89844 460.823 8.89844C462.036 8.89844 463.128 9.17745 464.122 9.73548C465.117 10.2935 465.821 11.082 466.233 12.101L464.11 13.0108C463.807 12.3315 463.346 11.8341 462.739 11.5066C462.133 11.1791 461.441 11.0214 460.689 11.0214C459.937 11.0214 459.294 11.2033 458.7 11.5551C458.105 11.919 457.802 12.38 457.802 12.938C457.802 13.4233 457.996 13.8115 458.384 14.1026C458.772 14.3816 459.391 14.6364 460.24 14.8669L462.339 15.3764C463.734 15.7403 464.777 16.2741 465.469 16.9777C466.16 17.6813 466.5 18.5304 466.5 19.513C466.5 20.3258 466.269 21.0658 465.796 21.7209C465.323 22.3881 464.668 22.8976 463.819 23.2736C462.97 23.6497 462.011 23.8438 460.932 23.8438C459.44 23.8438 458.178 23.4677 457.135 22.7156L457.111 22.7277Z" fill="#636D74"/>
<path d="M89.8317 13.5746L98.9056 8.33408C101.041 7.09672 101.769 4.36726 100.543 2.23221C99.3059 0.0971639 96.5765 -0.630701 94.4414 0.594526L78.7561 9.64422L89.8317 13.5625V13.5746Z" fill="#FD2C25"/>
<path d="M96.6548 27.0446C98.1954 27.0446 99.6996 26.244 100.525 24.8125C101.762 22.6775 101.022 19.948 98.8869 18.7106L83.2015 9.66096C81.0665 8.4236 78.337 9.16358 77.0997 11.2986C75.8623 13.4337 76.6023 16.1632 78.7373 17.4005L94.4227 26.4502C95.1263 26.8505 95.8905 27.0446 96.6548 27.0446Z" fill="#2B82FB"/>
<path d="M112.258 27.0382C113.01 27.0382 113.787 26.8441 114.49 26.4438L130.176 17.3941L119.246 13.3909L110.026 18.7164C107.891 19.9537 107.163 22.6832 108.388 24.8182C109.213 26.2497 110.718 27.0503 112.258 27.0503V27.0382Z" fill="#FFBA00"/>
<path d="M127.931 17.9836C129.472 17.9836 130.976 17.1829 131.801 15.7515C133.038 13.6164 132.298 10.887 130.163 9.64961L114.478 0.599916C112.343 -0.637441 109.613 0.102555 108.376 2.2376C107.139 4.37265 107.878 7.10211 110.014 8.33947L125.699 17.3891C126.402 17.7895 127.167 17.9836 127.931 17.9836Z" fill="#00A150"/>
<path d="M156.038 56.4545C153.173 56.4545 150.777 55.4877 148.849 53.5542C146.939 51.6207 145.984 49.2084 145.984 46.3172C145.984 43.4259 146.939 41.0226 148.849 39.1072C150.759 37.1556 153.155 36.1798 156.038 36.1798C158.957 36.1798 161.327 37.2369 163.147 39.3511L161.363 41.0859C159.976 39.4053 158.201 38.5651 156.038 38.5651C153.894 38.5651 152.101 39.2879 150.66 40.7335C149.236 42.161 148.524 44.0222 148.524 46.3172C148.524 48.6121 149.236 50.4733 150.66 51.9008C152.101 53.3464 153.894 54.0692 156.038 54.0692C158.291 54.0692 160.246 53.1206 161.904 51.2232L163.714 52.985C162.795 54.0873 161.669 54.9456 160.336 55.56C159.002 56.1563 157.57 56.4545 156.038 56.4545Z" fill="#4285F4"/>
<path d="M168.411 36.6135V56.0208H165.924V36.6135H168.411Z" fill="#4285F4"/>
<path d="M170.552 49.38C170.552 47.3381 171.192 45.6486 172.471 44.3114C173.768 42.9742 175.399 42.3056 177.363 42.3056C179.327 42.3056 180.949 42.9742 182.228 44.3114C183.526 45.6486 184.174 47.3381 184.174 49.38C184.174 51.44 183.526 53.1296 182.228 54.4487C180.949 55.7859 179.327 56.4545 177.363 56.4545C175.399 56.4545 173.768 55.7859 172.471 54.4487C171.192 53.1115 170.552 51.422 170.552 49.38ZM173.038 49.38C173.038 50.8076 173.453 51.9641 174.282 52.8495C175.111 53.7349 176.138 54.1777 177.363 54.1777C178.588 54.1777 179.615 53.7349 180.444 52.8495C181.273 51.9641 181.688 50.8076 181.688 49.38C181.688 47.9706 181.273 46.8231 180.444 45.9377C179.597 45.0342 178.57 44.5824 177.363 44.5824C176.156 44.5824 175.129 45.0342 174.282 45.9377C173.453 46.8231 173.038 47.9706 173.038 49.38Z" fill="#4285F4"/>
<path d="M197.923 56.0208H195.545V54.1777H195.437C195.058 54.8282 194.473 55.3703 193.68 55.804C192.905 56.2377 192.094 56.4545 191.247 56.4545C189.625 56.4545 188.373 55.9937 187.49 55.0721C186.625 54.1325 186.193 52.8043 186.193 51.0877V42.7393H188.68V50.925C188.734 53.0935 189.824 54.1777 191.95 54.1777C192.941 54.1777 193.77 53.7801 194.437 52.985C195.103 52.1719 195.437 51.2051 195.437 50.0848V42.7393H197.923V56.0208Z" fill="#4285F4"/>
<path d="M206.765 54.1777C207.99 54.1777 208.99 53.7349 209.765 52.8495C210.576 51.9641 210.981 50.8076 210.981 49.38C210.981 47.9886 210.576 46.8412 209.765 45.9377C208.972 45.0342 207.972 44.5824 206.765 44.5824C205.575 44.5824 204.575 45.0342 203.764 45.9377C202.954 46.8412 202.548 47.9886 202.548 49.38C202.548 50.7895 202.954 51.937 203.764 52.8224C204.575 53.7259 205.575 54.1777 206.765 54.1777ZM206.359 56.4545C204.629 56.4545 203.143 55.7678 201.899 54.3945C200.674 53.0031 200.061 51.3316 200.061 49.38C200.061 47.4285 200.674 45.757 201.899 44.3656C203.143 42.9923 204.629 42.3056 206.359 42.3056C207.332 42.3056 208.215 42.5134 209.008 42.929C209.819 43.3446 210.44 43.8958 210.873 44.5824H210.981L210.873 42.7393V36.6135H213.359V56.0208H210.981V54.1777H210.873C210.44 54.8643 209.819 55.4155 209.008 55.8311C208.215 56.2467 207.332 56.4545 206.359 56.4545Z" fill="#4285F4"/>
<path d="M225.223 48.176C225.223 48.9834 224.935 49.6837 224.358 50.2769C223.782 50.8536 223.081 51.142 222.257 51.142C221.45 51.142 220.75 50.8536 220.157 50.2769C219.58 49.6837 219.291 48.9834 219.291 48.176C219.291 47.3522 219.58 46.6519 220.157 46.0752C220.75 45.4984 221.45 45.2101 222.257 45.2101C223.081 45.2101 223.782 45.4984 224.358 46.0752C224.935 46.6519 225.223 47.3522 225.223 48.176Z" fill="#636D74"/>
<path d="M249.196 46.2102C249.196 48.6991 248.457 50.6819 246.979 52.1587C245.317 53.9175 243.133 54.7969 240.425 54.7969C237.833 54.7969 235.641 53.9009 233.846 52.1089C232.052 50.3169 231.155 48.11 231.155 45.4884C231.155 42.8667 232.052 40.6599 233.846 38.8678C235.641 37.0758 237.833 36.1798 240.425 36.1798C241.737 36.1798 242.975 36.4121 244.138 36.8767C245.301 37.3413 246.256 37.9967 247.003 38.843L245.359 40.4856C244.811 39.8219 244.096 39.3076 243.216 38.9425C242.352 38.5609 241.422 38.3701 240.425 38.3701C238.481 38.3701 236.837 39.0421 235.491 40.3861C234.162 41.7467 233.498 43.4475 233.498 45.4884C233.498 47.5293 234.162 49.23 235.491 50.5907C236.837 51.9347 238.481 52.6067 240.425 52.6067C242.202 52.6067 243.681 52.1089 244.86 51.1133C246.04 50.1178 246.721 48.7489 246.904 47.0066H240.425V44.8661H249.072C249.155 45.3307 249.196 45.7787 249.196 46.2102Z" fill="#636D74"/>
<path d="M252.888 50.6653C252.888 51.2627 253.137 51.7605 253.635 52.1587C254.15 52.5569 254.748 52.756 255.429 52.756C256.393 52.756 257.248 52.3993 257.996 51.6858C258.76 50.9723 259.142 50.1344 259.142 49.172C258.428 48.6078 257.431 48.3257 256.152 48.3257C255.222 48.3257 254.441 48.5497 253.81 48.9978C253.195 49.4458 252.888 50.0016 252.888 50.6653ZM255.853 41.8048C257.547 41.8048 258.885 42.2611 259.865 43.1737C260.845 44.0697 261.335 45.3059 261.335 46.8822V54.3987H259.142V52.7062H259.042C258.096 54.1 256.833 54.7969 255.255 54.7969C253.909 54.7969 252.78 54.3987 251.866 53.6023C250.969 52.8058 250.52 51.8102 250.52 50.6155C250.52 49.3545 250.994 48.3506 251.941 47.604C252.904 46.8573 254.183 46.4839 255.778 46.4839C257.14 46.4839 258.262 46.7328 259.142 47.2306V46.7079C259.142 45.9115 258.826 45.2395 258.195 44.6919C257.564 44.1278 256.825 43.8457 255.977 43.8457C254.698 43.8457 253.685 44.385 252.937 45.4635L250.919 44.1941C252.032 42.6012 253.677 41.8048 255.853 41.8048Z" fill="#636D74"/>
<path d="M263.921 42.203H266.114V43.8955H266.213C266.562 43.2981 267.094 42.8003 267.808 42.4021C268.539 42.0039 269.295 41.8048 270.076 41.8048C271.571 41.8048 272.717 42.2362 273.514 43.099C274.328 43.9452 274.735 45.1565 274.735 46.7328V54.3987H272.443V46.8822C272.393 44.891 271.388 43.8955 269.428 43.8955C268.514 43.8955 267.75 44.2688 267.135 45.0155C266.521 45.7456 266.213 46.625 266.213 47.6537V54.3987H263.921V42.203Z" fill="#636D74"/>
<path d="M282.909 52.7062C284.038 52.7062 284.96 52.2997 285.674 51.4867C286.422 50.6736 286.796 49.6117 286.796 48.3009C286.796 47.0232 286.422 45.9696 285.674 45.1399C284.944 44.3103 284.022 43.8955 282.909 43.8955C281.812 43.8955 280.89 44.3103 280.143 45.1399C279.395 45.9696 279.021 47.0232 279.021 48.3009C279.021 49.5951 279.395 50.6487 280.143 51.4618C280.89 52.2914 281.812 52.7062 282.909 52.7062ZM282.535 54.7969C280.94 54.7969 279.569 54.1664 278.423 52.9054C277.294 51.6277 276.729 50.0929 276.729 48.3009C276.729 46.5088 277.294 44.974 278.423 43.6964C279.569 42.4353 280.94 41.8048 282.535 41.8048C283.432 41.8048 284.246 41.9956 284.977 42.3772C285.724 42.7589 286.297 43.2649 286.696 43.8955H286.796L286.696 42.203V36.578H288.989V54.3987H286.796V52.7062H286.696C286.297 53.3368 285.724 53.8428 284.977 54.2245C284.246 54.6061 283.432 54.7969 282.535 54.7969Z" fill="#636D74"/>
<path d="M291.784 36.578H294.076V42.203L293.977 43.8955H294.076C294.425 43.2981 294.957 42.8003 295.671 42.4021C296.402 42.0039 297.158 41.8048 297.939 41.8048C299.434 41.8048 300.58 42.2362 301.378 43.099C302.192 43.9452 302.599 45.1565 302.599 46.7328V54.3987H300.306V47.1808C300.306 44.9906 299.334 43.8955 297.391 43.8955C296.46 43.8955 295.671 44.2854 295.023 45.0653C294.392 45.8285 294.076 46.7245 294.076 47.7533V54.3987H291.784V36.578Z" fill="#636D74"/>
<path d="M308.255 37.9967C308.255 38.4447 308.097 38.8264 307.781 39.1416C307.466 39.4569 307.084 39.6145 306.635 39.6145C306.187 39.6145 305.805 39.4569 305.489 39.1416C305.173 38.8264 305.015 38.4447 305.015 37.9967C305.015 37.5487 305.173 37.1671 305.489 36.8518C305.805 36.5366 306.187 36.3789 306.635 36.3789C307.084 36.3789 307.466 36.5366 307.781 36.8518C308.097 37.1671 308.255 37.5487 308.255 37.9967ZM307.781 42.203V54.3987H305.489V42.203H307.781Z" fill="#636D74"/>
<path d="M310.765 42.203H312.958V43.8955H313.057C313.406 43.2981 313.938 42.8003 314.652 42.4021C315.383 42.0039 316.139 41.8048 316.92 41.8048C318.415 41.8048 319.561 42.2362 320.359 43.099C321.173 43.9452 321.58 45.1565 321.58 46.7328V54.3987H319.287V46.8822C319.237 44.891 318.232 43.8955 316.272 43.8955C315.358 43.8955 314.594 44.2688 313.979 45.0155C313.365 45.7456 313.057 46.625 313.057 47.6537V54.3987H310.765V42.203Z" fill="#636D74"/>
<path d="M325.818 50.6653C325.818 51.2627 326.068 51.7605 326.566 52.1587C327.081 52.5569 327.679 52.756 328.36 52.756C329.324 52.756 330.179 52.3993 330.927 51.6858C331.691 50.9723 332.073 50.1344 332.073 49.172C331.359 48.6078 330.362 48.3257 329.083 48.3257C328.153 48.3257 327.372 48.5497 326.74 48.9978C326.126 49.4458 325.818 50.0016 325.818 50.6653ZM328.784 41.8048C330.478 41.8048 331.816 42.2611 332.796 43.1737C333.776 44.0697 334.266 45.3059 334.266 46.8822V54.3987H332.073V52.7062H331.973C331.026 54.1 329.764 54.7969 328.186 54.7969C326.84 54.7969 325.71 54.3987 324.797 53.6023C323.9 52.8058 323.451 51.8102 323.451 50.6155C323.451 49.3545 323.925 48.3506 324.872 47.604C325.835 46.8573 327.114 46.4839 328.709 46.4839C330.071 46.4839 331.193 46.7328 332.073 47.2306V46.7079C332.073 45.9115 331.757 45.2395 331.126 44.6919C330.495 44.1278 329.756 43.8457 328.908 43.8457C327.629 43.8457 326.616 44.385 325.868 45.4635L323.85 44.1941C324.963 42.6012 326.608 41.8048 328.784 41.8048Z" fill="#636D74"/>
<path d="M342.212 52.7062C343.342 52.7062 344.264 52.2997 344.978 51.4867C345.726 50.6736 346.099 49.6117 346.099 48.3009C346.099 47.0232 345.726 45.9696 344.978 45.1399C344.247 44.3103 343.325 43.8955 342.212 43.8955C341.116 43.8955 340.194 44.3103 339.446 45.1399C338.698 45.9696 338.325 47.0232 338.325 48.3009C338.325 49.5951 338.698 50.6487 339.446 51.4618C340.194 52.2914 341.116 52.7062 342.212 52.7062ZM342.137 60.173C341.456 60.173 340.817 60.0817 340.219 59.8992C339.62 59.7333 339.072 59.4927 338.574 59.1774C338.092 58.8622 337.677 58.4888 337.328 58.0574C336.979 57.626 336.713 57.1448 336.531 56.6138L338.698 55.7178C338.948 56.4313 339.38 57.0038 339.994 57.4352C340.609 57.8666 341.323 58.0823 342.137 58.0823C343.383 58.0823 344.355 57.709 345.053 56.9623C345.75 56.2156 346.099 55.1869 346.099 53.876V52.7062H346C345.568 53.3534 344.978 53.8677 344.23 54.2494C343.499 54.6144 342.702 54.7969 341.838 54.7969C340.243 54.7969 338.873 54.1747 337.727 52.9302C336.597 51.6526 336.032 50.1095 336.032 48.3009C336.032 46.4922 336.597 44.9574 337.727 43.6964C338.873 42.4353 340.243 41.8048 341.838 41.8048C342.702 41.8048 343.499 41.9956 344.23 42.3772C344.978 42.7423 345.568 43.2483 346 43.8955H346.099V42.203H348.292V53.876C348.292 55.834 347.736 57.3688 346.623 58.4805C345.493 59.6088 343.998 60.173 342.137 60.173Z" fill="#636D74"/>
<path d="M352.635 50.6653C352.635 51.2627 352.884 51.7605 353.383 52.1587C353.898 52.5569 354.496 52.756 355.177 52.756C356.14 52.756 356.996 52.3993 357.744 51.6858C358.508 50.9723 358.89 50.1344 358.89 49.172C358.175 48.6078 357.179 48.3257 355.9 48.3257C354.969 48.3257 354.188 48.5497 353.557 48.9978C352.943 49.4458 352.635 50.0016 352.635 50.6653ZM355.601 41.8048C357.295 41.8048 358.632 42.2611 359.612 43.1737C360.593 44.0697 361.083 45.3059 361.083 46.8822V54.3987H358.89V52.7062H358.79C357.843 54.1 356.581 54.7969 355.003 54.7969C353.657 54.7969 352.527 54.3987 351.614 53.6023C350.717 52.8058 350.268 51.8102 350.268 50.6155C350.268 49.3545 350.741 48.3506 351.688 47.604C352.652 46.8573 353.931 46.4839 355.526 46.4839C356.888 46.4839 358.009 46.7328 358.89 47.2306V46.7079C358.89 45.9115 358.574 45.2395 357.943 44.6919C357.312 44.1278 356.572 43.8457 355.725 43.8457C354.446 43.8457 353.433 44.385 352.685 45.4635L350.667 44.1941C351.78 42.6012 353.424 41.8048 355.601 41.8048Z" fill="#636D74"/>
<path d="M365.961 54.3987H363.668V42.203H365.861V44.1941H365.961C366.193 43.547 366.667 42.9995 367.381 42.5514C368.112 42.0868 368.827 41.8545 369.524 41.8545C370.189 41.8545 370.754 41.9541 371.219 42.1532L370.521 44.3684C370.239 44.2522 369.79 44.1941 369.175 44.1941C368.312 44.1941 367.556 44.5426 366.908 45.2395C366.277 45.9364 365.961 46.7494 365.961 47.6786V54.3987Z" fill="#636D74"/>
</svg>
