<svg width="7742" height="6411" viewBox="0 0 7742 6411" fill="none" xmlns="http://www.w3.org/2000/svg">
<path d="M2000.68 340.376C1976.24 326.412 1956.95 307.121 1942.81 282.501C1928.66 257.882 1921.49 230.69 1921.49 201.109C1921.49 171.529 1928.66 144.154 1942.81 119.718C1956.95 95.0984 1976.24 75.8068 2000.68 61.8434C2025.12 47.8801 2051.76 40.8984 2080.6 40.8984C2103.2 40.8984 2124.33 44.9406 2144.36 52.8409C2164.2 60.925 2180.55 72.1323 2193.41 86.6469L2167.32 112.736C2157.58 100.794 2145.09 91.4239 2129.84 84.9934C2114.59 78.5629 2098.24 75.2558 2080.79 75.2558C2059.29 75.2558 2039.26 80.4 2020.52 90.8725C2001.78 101.345 1986.72 116.043 1975.51 134.967C1964.12 153.892 1958.61 175.939 1958.61 200.742C1958.61 225.545 1964.3 247.593 1975.51 266.517C1986.72 285.441 2001.78 300.323 2020.52 310.612C2039.26 321.084 2059.29 326.228 2080.79 326.228C2102.28 326.228 2118.63 322.921 2132.41 316.491C2146.19 310.06 2158.32 301.609 2168.61 290.953C2175.96 282.869 2182.02 273.131 2186.61 261.74C2191.21 250.349 2193.96 237.855 2194.7 224.443H2081.52V190.637H2229.05C2230.52 198.721 2231.26 206.07 2231.26 212.868C2231.26 231.792 2228.32 250.165 2222.26 267.987C2216.19 285.808 2206.64 301.425 2193.59 314.837C2164.75 345.52 2127.09 360.769 2080.79 360.769C2051.94 360.769 2025.3 353.788 2000.86 339.824L2000.68 340.376Z" fill="#636D74"/>
<path d="M2311.39 346.561C2294.86 336.64 2281.81 323.044 2272.63 305.773C2263.26 288.503 2258.67 269.211 2258.67 248.083C2258.67 226.954 2263.26 207.662 2272.63 190.392C2281.81 173.122 2294.86 159.526 2311.39 149.604C2327.93 139.683 2346.67 134.906 2367.62 134.906C2388.56 134.906 2407.3 139.867 2424.02 149.604C2440.74 159.342 2453.78 173.122 2462.97 190.392C2472.34 207.662 2476.93 226.954 2476.93 248.083C2476.93 269.211 2472.34 288.503 2462.97 305.773C2453.6 323.044 2440.74 336.64 2424.02 346.561C2407.3 356.482 2388.56 361.443 2367.62 361.443C2346.67 361.443 2327.93 356.482 2311.39 346.561ZM2403.63 318.451C2414.83 311.836 2423.65 302.466 2430.45 290.34C2437.25 278.214 2440.56 264.067 2440.56 248.083C2440.56 232.098 2437.25 217.951 2430.45 205.825C2423.65 193.699 2414.83 184.329 2403.63 177.715C2392.42 171.1 2380.48 167.793 2367.62 167.793C2354.75 167.793 2343.18 171.1 2331.97 177.715C2320.77 184.329 2311.95 193.699 2305.15 205.825C2298.35 217.951 2295.04 232.098 2295.04 248.083C2295.04 264.067 2298.35 278.214 2305.15 290.34C2311.95 302.466 2320.77 311.836 2331.97 318.451C2343.18 325.065 2354.94 328.372 2367.62 328.372C2380.29 328.372 2392.42 325.065 2403.63 318.451Z" fill="#636D74"/>
<path d="M2554.42 346.561C2537.88 336.64 2524.84 323.044 2515.65 305.773C2506.28 288.503 2501.69 269.211 2501.69 248.083C2501.69 226.954 2506.28 207.662 2515.65 190.392C2524.84 173.122 2537.88 159.526 2554.42 149.604C2570.95 139.683 2589.69 134.906 2610.64 134.906C2631.58 134.906 2650.32 139.867 2667.04 149.604C2683.76 159.342 2696.81 173.122 2705.99 190.392C2715.36 207.662 2719.95 226.954 2719.95 248.083C2719.95 269.211 2715.36 288.503 2705.99 305.773C2696.62 323.044 2683.76 336.64 2667.04 346.561C2650.32 356.482 2631.58 361.443 2610.64 361.443C2589.69 361.443 2570.95 356.482 2554.42 346.561ZM2646.65 318.451C2657.85 311.836 2666.67 302.466 2673.47 290.34C2680.27 278.214 2683.58 264.067 2683.58 248.083C2683.58 232.098 2680.27 217.951 2673.47 205.825C2666.67 193.699 2657.85 184.329 2646.65 177.715C2635.44 171.1 2623.5 167.793 2610.64 167.793C2597.78 167.793 2586.2 171.1 2574.99 177.715C2563.79 184.329 2554.97 193.699 2548.17 205.825C2541.37 217.951 2538.06 232.098 2538.06 248.083C2538.06 264.067 2541.37 278.214 2548.17 290.34C2554.97 302.466 2563.79 311.836 2574.99 318.451C2586.2 325.065 2597.96 328.372 2610.64 328.372C2623.31 328.372 2635.44 325.065 2646.65 318.451Z" fill="#636D74"/>
<path d="M2787.29 435.486C2770.94 423.176 2759.91 408.845 2754.22 392.677L2788.02 378.53C2792.25 391.023 2799.97 401.312 2810.99 409.212C2822.01 417.113 2835.06 420.971 2850.31 420.971C2872.91 420.971 2890.18 414.357 2902.3 401.312C2914.43 388.268 2920.49 369.895 2920.49 346.377V323.595H2918.84C2912.04 334.435 2902.12 343.438 2889.26 350.603C2876.4 357.768 2861.88 361.259 2845.53 361.259C2827.52 361.259 2810.81 356.299 2795.37 346.561C2779.94 336.823 2767.63 323.228 2758.44 306.141C2749.26 288.87 2744.66 269.579 2744.66 248.083C2744.66 226.586 2749.26 207.111 2758.44 190.025C2767.63 172.938 2779.94 159.342 2795.37 149.604C2810.81 139.867 2827.52 134.906 2845.53 134.906C2861.88 134.906 2876.4 138.397 2889.26 145.562C2902.12 152.728 2912.04 161.73 2918.84 172.57H2920.49V141.704H2955.22V345.826C2955.22 369.343 2950.62 389.186 2941.44 405.354C2932.25 421.706 2919.76 433.832 2903.96 441.732C2888.16 449.816 2870.15 453.675 2850.12 453.675C2824.4 453.675 2803.46 447.612 2787.1 435.302L2787.29 435.486ZM2885.95 318.635C2896.42 312.204 2905.06 302.834 2911.49 290.891C2917.92 278.949 2921.23 264.618 2921.23 248.267C2921.23 231.915 2917.92 217.584 2911.49 205.458C2905.06 193.332 2896.61 183.961 2885.95 177.715C2875.29 171.468 2863.72 168.161 2851.23 168.161C2838.73 168.161 2826.97 171.468 2816.5 177.899C2805.84 184.329 2797.39 193.699 2790.96 205.641C2784.53 217.768 2781.23 231.915 2781.23 248.267C2781.23 264.618 2784.53 278.949 2790.96 290.891C2797.39 302.834 2805.84 312.204 2816.5 318.635C2827.16 325.065 2838.73 328.372 2851.23 328.372C2863.72 328.372 2875.29 325.065 2885.95 318.635Z" fill="#636D74"/>
<path d="M2999.05 47.5234H3035.43V354.533H2999.05V47.5234Z" fill="#636D74"/>
<path d="M3121.74 346.702C3105.57 336.964 3092.89 323.552 3083.7 306.465C3074.52 289.379 3069.92 269.903 3069.92 248.224C3069.92 227.646 3074.15 208.722 3082.78 191.451C3091.42 174.181 3103.55 160.401 3119.53 150.296C3135.51 140.191 3153.52 135.047 3174.28 135.047C3195.04 135.047 3212.86 139.64 3228.48 149.01C3244.1 158.38 3256.04 171.425 3264.31 188.328C3272.58 205.231 3276.8 224.706 3276.8 246.57C3276.8 250.612 3276.43 253.368 3275.88 255.205H3107.04C3107.59 271.189 3111.45 284.785 3118.61 295.809C3125.78 306.833 3134.78 315.1 3145.44 320.429C3156.09 325.94 3167.3 328.513 3178.69 328.513C3205.52 328.513 3226.28 315.468 3240.79 289.011L3272.94 304.444C3263.76 321.531 3251.08 335.311 3234.91 345.783C3218.74 356.256 3199.45 361.4 3176.85 361.4C3156.28 361.4 3137.9 356.623 3121.74 346.886V346.702ZM3238.22 224.522C3237.67 215.887 3235.28 207.436 3230.87 198.801C3226.64 190.165 3219.66 183 3210.11 176.937C3200.56 170.874 3188.25 167.934 3173.55 167.934C3157.56 167.934 3143.6 173.079 3132.02 183.367C3120.45 193.656 3112.92 207.436 3109.79 224.522H3238.4H3238.22Z" fill="#636D74"/>
<path d="M3416.15 47.3946H3509.11C3540.53 47.3946 3568.09 53.825 3591.42 66.8697C3614.94 79.9144 3632.95 97.92 3645.44 121.07C3657.93 144.22 3664.36 170.86 3664.36 200.808C3664.36 230.755 3658.12 257.396 3645.44 280.546C3632.76 303.696 3614.76 321.701 3591.42 334.746C3567.91 347.79 3540.53 354.221 3509.11 354.221H3416.15V47.2109V47.3946ZM3509.11 319.68C3545.49 319.68 3574.15 309.208 3595.28 288.446C3616.41 267.685 3627.07 238.472 3627.07 200.991C3627.07 163.511 3616.41 134.482 3595.28 113.537C3574.15 92.5918 3545.49 82.3031 3509.11 82.3031H3452.53V319.864H3509.11V319.68Z" fill="#636D74"/>
<path d="M3746.99 346.702C3730.82 336.964 3718.14 323.552 3708.96 306.465C3699.77 289.379 3695.18 269.903 3695.18 248.224C3695.18 227.646 3699.4 208.722 3708.04 191.451C3716.67 174.181 3728.8 160.401 3744.78 150.296C3760.77 140.191 3778.77 135.047 3799.53 135.047C3820.3 135.047 3838.12 139.64 3853.73 149.01C3869.35 158.38 3881.29 171.425 3889.56 188.328C3897.83 205.231 3902.05 224.706 3902.05 246.57C3902.05 250.612 3901.69 253.368 3901.14 255.205H3732.29C3732.84 271.189 3736.7 284.785 3743.86 295.809C3751.03 306.833 3760.03 315.1 3770.69 320.429C3781.35 325.94 3792.55 328.513 3803.94 328.513C3830.77 328.513 3851.53 315.468 3866.04 289.011L3898.2 304.444C3889.01 321.531 3876.33 335.311 3860.16 345.783C3844 356.256 3824.71 361.4 3802.11 361.4C3781.53 361.4 3763.16 356.623 3746.99 346.886V346.702ZM3863.47 224.522C3862.92 215.887 3860.53 207.436 3856.12 198.801C3851.9 190.165 3844.92 183 3835.36 176.937C3825.81 170.874 3813.5 167.934 3798.8 167.934C3782.81 167.934 3768.85 173.079 3757.28 183.367C3745.7 193.656 3738.17 207.436 3735.05 224.522H3863.66H3863.47Z" fill="#636D74"/>
<path d="M3910.46 141.68H3949.97L4015.19 311.445H4016.11L4082.07 141.68H4120.65L4033.56 354.437H3996.63L3910.46 141.68Z" fill="#636D74"/>
<path d="M4187.22 346.702C4171.05 336.964 4158.37 323.552 4149.18 306.465C4140 289.379 4135.4 269.903 4135.4 248.224C4135.4 227.646 4139.63 208.722 4148.27 191.451C4156.9 174.181 4169.03 160.401 4185.01 150.296C4201 140.191 4219 135.047 4239.76 135.047C4260.52 135.047 4278.34 139.64 4293.96 149.01C4309.58 158.38 4321.52 171.425 4329.79 188.328C4338.06 205.231 4342.28 224.706 4342.28 246.57C4342.28 250.612 4341.91 253.368 4341.36 255.205H4172.52C4173.07 271.189 4176.93 284.785 4184.09 295.809C4191.26 306.833 4200.26 315.1 4210.92 320.429C4221.57 325.94 4232.78 328.513 4244.17 328.513C4271 328.513 4291.76 315.468 4306.27 289.011L4338.42 304.444C4329.24 321.531 4316.56 335.311 4300.39 345.783C4284.22 356.256 4264.93 361.4 4242.33 361.4C4221.76 361.4 4203.38 356.623 4187.22 346.886V346.702ZM4303.7 224.522C4303.15 215.887 4300.76 207.436 4296.35 198.801C4292.12 190.165 4285.14 183 4275.59 176.937C4266.04 170.874 4253.73 167.934 4239.03 167.934C4223.04 167.934 4209.08 173.079 4197.5 183.367C4185.93 193.656 4178.4 207.436 4175.27 224.522H4303.88H4303.7Z" fill="#636D74"/>
<path d="M4379.3 47.5234H4415.68V354.533H4379.3V47.5234Z" fill="#636D74"/>
<path d="M4503.05 346.561C4486.51 336.64 4473.47 323.044 4464.28 305.773C4454.91 288.503 4450.32 269.211 4450.32 248.083C4450.32 226.954 4454.91 207.662 4464.28 190.392C4473.47 173.122 4486.51 159.526 4503.05 149.604C4519.59 139.683 4538.33 134.906 4559.27 134.906C4580.22 134.906 4598.96 139.867 4615.68 149.604C4632.4 159.342 4645.44 173.122 4654.63 190.392C4664 207.662 4668.59 226.954 4668.59 248.083C4668.59 269.211 4664 288.503 4654.63 305.773C4645.26 323.044 4632.4 336.64 4615.68 346.561C4598.96 356.482 4580.22 361.443 4559.27 361.443C4538.33 361.443 4519.59 356.482 4503.05 346.561ZM4595.28 318.451C4606.49 311.836 4615.31 302.466 4622.11 290.34C4628.9 278.214 4632.21 264.067 4632.21 248.083C4632.21 232.098 4628.9 217.951 4622.11 205.825C4615.31 193.699 4606.49 184.329 4595.28 177.715C4584.07 171.1 4572.13 167.793 4559.27 167.793C4546.41 167.793 4534.84 171.1 4523.63 177.715C4512.42 184.329 4503.6 193.699 4496.8 205.825C4490.01 217.951 4486.7 232.098 4486.7 248.083C4486.7 264.067 4490.01 278.214 4496.8 290.34C4503.6 302.466 4512.42 311.836 4523.63 318.451C4534.84 325.065 4546.59 328.372 4559.27 328.372C4571.95 328.372 4584.07 325.065 4595.28 318.451Z" fill="#636D74"/>
<path d="M4701.66 141.704H4736.38V172.938H4738.04C4744.83 162.098 4754.76 152.912 4767.62 145.746C4780.48 138.581 4795.36 134.906 4812.26 134.906C4830.63 134.906 4847.35 139.867 4862.79 149.604C4878.22 159.342 4890.53 172.938 4899.72 190.025C4908.9 207.111 4913.5 226.403 4913.5 247.899C4913.5 269.395 4908.9 288.687 4899.72 305.773C4890.53 322.86 4878.22 336.456 4862.79 346.194C4847.35 355.931 4830.45 361.076 4812.26 361.076C4795.36 361.076 4780.48 357.401 4767.43 350.052C4754.39 342.703 4744.65 333.516 4738.04 322.309H4736.38L4738.04 351.889V446.693H4701.66V141.337V141.704ZM4841.66 318.267C4852.32 311.653 4860.95 302.283 4867.38 290.157C4873.81 278.031 4877.12 263.883 4877.12 247.899C4877.12 231.915 4873.81 217.768 4867.38 205.641C4860.95 193.515 4852.32 184.145 4841.66 177.531C4831 170.917 4819.24 167.61 4806.75 167.61C4794.26 167.61 4782.5 170.917 4771.84 177.347C4761.19 183.778 4752.55 193.148 4746.12 205.274C4739.69 217.4 4736.38 231.731 4736.38 247.899C4736.38 264.067 4739.69 278.03 4746.12 290.34C4752.55 302.65 4761.19 312.02 4771.84 318.451C4782.5 324.881 4794.26 328.188 4806.75 328.188C4819.24 328.188 4831 324.881 4841.66 318.267Z" fill="#636D74"/>
<path d="M4998.62 346.702C4982.45 336.964 4969.78 323.552 4960.59 306.465C4951.4 289.379 4946.81 269.903 4946.81 248.224C4946.81 227.646 4951.04 208.722 4959.67 191.451C4968.31 174.181 4980.43 160.401 4996.42 150.296C5012.4 140.191 5030.41 135.047 5051.17 135.047C5071.93 135.047 5089.75 139.64 5105.37 149.01C5120.98 158.38 5132.93 171.425 5141.19 188.328C5149.46 205.231 5153.69 224.706 5153.69 246.57C5153.69 250.612 5153.32 253.368 5152.77 255.205H4983.92C4984.47 271.189 4988.33 284.785 4995.5 295.809C5002.66 306.833 5011.67 315.1 5022.32 320.429C5032.98 325.94 5044.19 328.513 5055.58 328.513C5082.4 328.513 5103.16 315.468 5117.68 289.011L5149.83 304.444C5140.64 321.531 5127.97 335.311 5111.8 345.783C5095.63 356.256 5076.34 361.4 5053.74 361.4C5033.16 361.4 5014.79 356.623 4998.62 346.886V346.702ZM5115.1 224.522C5114.55 215.887 5112.17 207.436 5107.76 198.801C5103.53 190.165 5096.55 183 5086.99 176.937C5077.44 170.874 5065.13 167.934 5050.43 167.934C5034.45 167.934 5020.48 173.079 5008.91 183.367C4997.33 193.656 4989.8 207.436 4986.68 224.522H5115.29H5115.1Z" fill="#636D74"/>
<path d="M5190.44 141.704H5225.16V176.429H5226.81C5230.86 164.67 5239.12 154.933 5251.43 146.848C5263.93 138.764 5276.24 134.906 5288.55 134.906C5297.37 134.906 5305.63 136.376 5313.35 139.132V178.082C5305.63 173.856 5295.71 171.652 5283.4 171.652C5273.48 171.652 5264.11 174.591 5255.29 180.471C5246.47 186.35 5239.67 194.067 5234.53 203.804C5229.39 213.542 5226.81 224.198 5226.81 235.589V354.278H5190.44V141.52V141.704Z" fill="#636D74"/>
<path d="M5501.15 340.376C5476.71 326.412 5457.42 307.121 5443.28 282.501C5429.13 257.882 5421.96 230.69 5421.96 201.109C5421.96 171.529 5429.13 144.154 5443.28 119.718C5457.42 95.0984 5476.71 75.8068 5501.15 61.8434C5525.59 47.8801 5552.23 40.8984 5581.07 40.8984C5603.67 40.8984 5624.8 44.9406 5644.82 52.8409C5664.67 60.925 5681.02 72.1323 5693.88 86.6469L5667.79 112.736C5658.05 100.794 5645.56 91.4239 5630.31 84.9934C5615.06 78.5629 5598.71 75.2558 5581.26 75.2558C5559.76 75.2558 5539.73 80.4 5520.99 90.8725C5502.25 101.345 5487.19 116.043 5475.98 134.967C5464.59 153.892 5459.08 175.939 5459.08 200.742C5459.08 225.545 5464.77 247.593 5475.98 266.517C5487.19 285.441 5502.25 300.323 5520.99 310.612C5539.73 321.084 5559.76 326.228 5581.26 326.228C5602.75 326.228 5619.1 322.921 5632.88 316.491C5646.66 310.06 5658.79 301.609 5669.08 290.953C5676.43 282.869 5682.49 273.131 5687.08 261.74C5691.68 250.349 5694.43 237.855 5695.17 224.443H5581.99V190.637H5729.52C5730.99 198.721 5731.73 206.07 5731.73 212.868C5731.73 231.792 5728.79 250.165 5722.73 267.987C5716.66 285.808 5707.11 301.425 5694.06 314.837C5665.22 345.52 5627.56 360.769 5581.26 360.769C5552.41 360.769 5525.77 353.788 5501.33 339.824L5501.15 340.376Z" fill="#636D74"/>
<path d="M5773.18 141.704H5807.9V176.429H5809.56C5813.6 164.67 5821.87 154.933 5834.18 146.848C5846.67 138.764 5858.98 134.906 5871.29 134.906C5880.11 134.906 5888.38 136.376 5896.09 139.132V178.082C5888.38 173.856 5878.45 171.652 5866.14 171.652C5856.22 171.652 5846.85 174.591 5838.03 180.471C5829.22 186.35 5822.42 194.067 5817.27 203.804C5812.13 213.542 5809.56 224.198 5809.56 235.589V354.278H5773.18V141.52V141.704Z" fill="#636D74"/>
<path d="M5953.65 346.561C5937.11 336.64 5924.07 323.044 5914.88 305.773C5905.51 288.503 5900.92 269.211 5900.92 248.083C5900.92 226.954 5905.51 207.662 5914.88 190.392C5924.07 173.122 5937.11 159.526 5953.65 149.604C5970.18 139.683 5988.92 134.906 6009.87 134.906C6030.81 134.906 6049.55 139.867 6066.27 149.604C6082.99 159.342 6096.04 173.122 6105.22 190.392C6114.59 207.662 6119.19 226.954 6119.19 248.083C6119.19 269.211 6114.59 288.503 6105.22 305.773C6095.85 323.044 6082.99 336.64 6066.27 346.561C6049.55 356.482 6030.81 361.443 6009.87 361.443C5988.92 361.443 5970.18 356.482 5953.65 346.561ZM6045.88 318.451C6057.09 311.836 6065.91 302.466 6072.7 290.34C6079.5 278.214 6082.81 264.067 6082.81 248.083C6082.81 232.098 6079.5 217.951 6072.7 205.825C6065.91 193.699 6057.09 184.329 6045.88 177.715C6034.67 171.1 6022.73 167.793 6009.87 167.793C5997.01 167.793 5985.43 171.1 5974.23 177.715C5963.02 184.329 5954.2 193.699 5947.4 205.825C5940.6 217.951 5937.3 232.098 5937.3 248.083C5937.3 264.067 5940.6 278.214 5947.4 290.34C5954.2 302.466 5963.02 311.836 5974.23 318.451C5985.43 325.065 5997.19 328.372 6009.87 328.372C6022.55 328.372 6034.67 325.065 6045.88 318.451Z" fill="#636D74"/>
<path d="M6172.38 338.452C6158.78 323.387 6151.98 302.258 6151.98 275.434V141.68H6188.36V269.371C6188.36 308.505 6206 328.164 6241.09 328.164C6252.85 328.164 6263.32 324.857 6272.69 318.243C6282.06 311.628 6289.05 303.177 6294.19 292.52C6299.15 282.048 6301.72 270.841 6301.72 259.082V141.68H6337.73V354.437H6303.38V322.652H6301.72C6295.48 333.492 6285.92 342.678 6273.25 350.027C6260.57 357.377 6246.79 361.235 6232.27 361.235C6206 361.235 6185.97 353.702 6172.38 338.452Z" fill="#636D74"/>
<path d="M6385.37 141.704H6420.09V172.938H6421.75C6428.55 162.098 6438.47 152.912 6451.33 145.746C6464.19 138.581 6479.07 134.906 6495.97 134.906C6514.35 134.906 6531.07 139.867 6546.5 149.604C6561.93 159.342 6574.24 172.938 6583.43 190.025C6592.61 207.111 6597.21 226.403 6597.21 247.899C6597.21 269.395 6592.61 288.687 6583.43 305.773C6574.24 322.86 6561.93 336.456 6546.5 346.194C6531.07 355.931 6514.16 361.076 6495.97 361.076C6479.07 361.076 6464.19 357.401 6451.14 350.052C6438.1 342.703 6428.36 333.516 6421.75 322.309H6420.09L6421.75 351.889V446.693H6385.37V141.337V141.704ZM6525.37 318.267C6536.03 311.653 6544.66 302.283 6551.09 290.157C6557.52 278.031 6560.83 263.883 6560.83 247.899C6560.83 231.915 6557.52 217.768 6551.09 205.641C6544.66 193.515 6536.03 184.145 6525.37 177.531C6514.71 170.917 6502.96 167.61 6490.46 167.61C6477.97 167.61 6466.21 170.917 6455.55 177.347C6444.9 183.778 6436.26 193.148 6429.83 205.274C6423.4 217.4 6420.09 231.731 6420.09 247.899C6420.09 264.067 6423.4 278.03 6429.83 290.34C6436.26 302.65 6444.9 312.02 6455.55 318.451C6466.21 324.881 6477.97 328.188 6490.46 328.188C6502.96 328.188 6514.71 324.881 6525.37 318.267Z" fill="#636D74"/>
<path d="M6649.5 344.232C6633.7 332.84 6622.86 318.693 6616.43 301.79L6648.59 287.643C6654.28 301.055 6662.37 311.344 6672.84 318.51C6683.31 325.675 6694.7 329.166 6707.01 329.166C6720.79 329.166 6732.18 326.226 6741 320.163C6750 314.1 6754.6 306.935 6754.6 298.3C6754.6 289.664 6751.29 283.234 6744.49 277.722C6737.69 272.21 6726.3 267.617 6709.95 263.575L6680.74 256.226C6664.75 252.551 6651.16 245.753 6639.77 236.016C6628.38 226.278 6622.86 213.417 6622.86 197.433C6622.86 184.204 6626.72 172.997 6634.25 163.627C6641.79 154.257 6651.89 147.091 6664.57 142.131C6677.06 137.354 6690.84 134.781 6705.73 134.781C6724.1 134.781 6740.63 139.007 6755.7 147.459C6770.77 155.91 6781.42 167.852 6787.67 183.286L6755.52 197.065C6750.92 186.776 6743.94 179.244 6734.75 174.283C6725.57 169.322 6715.1 166.934 6703.7 166.934C6692.31 166.934 6682.58 169.69 6673.57 175.018C6664.57 180.53 6659.98 187.511 6659.98 195.963C6659.98 203.312 6662.92 209.191 6668.8 213.601C6674.67 217.827 6684.05 221.685 6696.91 225.176L6728.69 232.892C6749.82 238.404 6765.62 246.488 6776.09 257.144C6786.57 267.801 6791.71 280.662 6791.71 295.543C6791.71 307.853 6788.22 319.061 6781.05 328.982C6773.89 339.087 6763.97 346.804 6751.11 352.499C6738.25 358.195 6723.73 361.135 6707.38 361.135C6684.78 361.135 6665.67 355.439 6649.87 344.048L6649.5 344.232Z" fill="#636D74"/>
<path d="M1086.92 205.594L1224.34 126.223C1256.68 107.483 1267.7 66.1439 1249.15 33.8078C1230.41 1.47159 1189.07 -9.55222 1156.73 9.00433L919.172 146.066L1086.92 205.41V205.594Z" fill="#FD2C25"/>
<path d="M1190.26 409.595C1213.59 409.595 1236.37 397.469 1248.87 375.789C1267.61 343.453 1256.4 302.114 1224.06 283.374L986.501 146.313C954.165 127.572 912.826 138.78 894.086 171.116C875.346 203.452 886.553 244.791 918.889 263.531L1156.45 400.592C1167.11 406.655 1178.68 409.595 1190.26 409.595Z" fill="#2B82FB"/>
<path d="M1426.57 409.499C1437.96 409.499 1449.72 406.559 1460.38 400.496L1697.94 263.435L1532.4 202.805L1392.77 283.461C1360.43 302.202 1349.41 343.54 1367.96 375.877C1380.46 397.557 1403.24 409.683 1426.57 409.683V409.499Z" fill="#FFBA00"/>
<path d="M1663.94 272.369C1687.28 272.369 1710.06 260.243 1722.55 238.563C1741.29 206.226 1730.09 164.888 1697.75 146.147L1460.19 9.08598C1427.85 -9.6543 1386.51 1.55323 1367.77 33.8894C1349.03 66.2256 1360.24 107.564 1392.58 126.305L1630.14 263.366C1640.79 269.429 1652.37 272.369 1663.94 272.369Z" fill="#00A150"/>
<path d="M2314.38 608.479H2257.73C2256.7 601.136 2254.58 594.614 2251.39 588.912C2248.2 583.124 2244.11 578.2 2239.1 574.14C2234.1 570.08 2228.33 566.97 2221.77 564.81C2215.3 562.65 2208.28 561.57 2200.69 561.57C2186.98 561.57 2175.04 564.983 2164.86 571.807C2154.68 578.546 2146.79 588.394 2141.19 601.352C2135.58 614.224 2132.78 629.86 2132.78 648.26C2132.78 667.179 2135.58 683.075 2141.19 695.947C2146.88 708.818 2154.81 718.537 2164.99 725.102C2175.16 731.668 2186.93 734.951 2200.3 734.951C2207.8 734.951 2214.74 733.957 2221.13 731.97C2227.59 729.983 2233.33 727.089 2238.33 723.288C2243.33 719.401 2247.47 714.693 2250.75 709.164C2254.11 703.635 2256.44 697.329 2257.73 690.245L2314.38 690.504C2312.92 702.685 2309.25 714.434 2303.39 725.75C2297.61 736.981 2289.81 747.045 2279.98 755.943C2270.23 764.754 2258.59 771.752 2245.05 776.935C2231.6 782.032 2216.38 784.58 2199.4 784.58C2175.77 784.58 2154.64 779.224 2136.02 768.512C2117.48 757.8 2102.82 742.294 2092.04 721.992C2081.35 701.691 2076 677.114 2076 648.26C2076 619.321 2081.43 594.7 2092.3 574.399C2103.16 554.098 2117.91 538.634 2136.53 528.009C2155.16 517.297 2176.11 511.941 2199.4 511.941C2214.74 511.941 2228.97 514.1 2242.08 518.42C2255.27 522.739 2266.96 529.045 2277.13 537.339C2287.31 545.545 2295.58 555.61 2301.97 567.531C2308.43 579.453 2312.57 593.102 2314.38 608.479Z" fill="#0F9D58"/>
<path d="M2408.61 515.569V780.952H2353.51V515.569H2408.61Z" fill="#0F9D58"/>
<path d="M2542.52 784.84C2522.42 784.84 2505.05 780.563 2490.39 772.011C2475.82 763.372 2464.56 751.364 2456.63 735.987C2448.7 720.524 2444.73 702.598 2444.73 682.211C2444.73 661.651 2448.7 643.682 2456.63 628.305C2464.56 612.841 2475.82 600.834 2490.39 592.281C2505.05 583.642 2522.42 579.323 2542.52 579.323C2562.61 579.323 2579.94 583.642 2594.51 592.281C2609.17 600.834 2620.47 612.841 2628.4 628.305C2636.33 643.682 2640.3 661.651 2640.3 682.211C2640.3 702.598 2636.33 720.524 2628.4 735.987C2620.47 751.364 2609.17 763.372 2594.51 772.011C2579.94 780.563 2562.61 784.84 2542.52 784.84ZM2542.77 742.078C2551.91 742.078 2559.55 739.486 2565.67 734.303C2571.79 729.033 2576.4 721.863 2579.51 712.792C2582.7 703.721 2584.29 693.398 2584.29 681.822C2584.29 670.246 2582.7 659.923 2579.51 650.852C2576.4 641.781 2571.79 634.611 2565.67 629.342C2559.55 624.072 2551.91 621.437 2542.77 621.437C2533.55 621.437 2525.79 624.072 2519.49 629.342C2513.28 634.611 2508.58 641.781 2505.39 650.852C2502.29 659.923 2500.74 670.246 2500.74 681.822C2500.74 693.398 2502.29 703.721 2505.39 712.792C2508.58 721.863 2513.28 729.033 2519.49 734.303C2525.79 739.486 2533.55 742.078 2542.77 742.078Z" fill="#0F9D58"/>
<path d="M2803.53 696.206V581.915H2858.63V780.952H2805.73V744.799H2803.66C2799.18 756.461 2791.72 765.834 2781.29 772.918C2770.94 780.002 2758.31 783.544 2743.39 783.544C2730.11 783.544 2718.42 780.52 2708.34 774.473C2698.25 768.426 2690.36 759.83 2684.67 748.686C2679.06 737.542 2676.22 724.195 2676.13 708.646V581.915H2731.23V698.797C2731.32 710.546 2734.46 719.833 2740.67 726.657C2746.88 733.482 2755.2 736.894 2765.64 736.894C2772.28 736.894 2778.48 735.383 2784.26 732.359C2790.04 729.249 2794.7 724.67 2798.23 718.623C2801.85 712.576 2803.62 705.104 2803.53 696.206Z" fill="#0F9D58"/>
<path d="M2975.92 784.192C2960.83 784.192 2947.16 780.304 2934.92 772.529C2922.76 764.668 2913.1 753.135 2905.94 737.931C2898.87 722.64 2895.34 703.894 2895.34 681.693C2895.34 658.886 2899 639.924 2906.33 624.806C2913.66 609.602 2923.4 598.242 2935.56 590.726C2947.81 583.124 2961.22 579.323 2975.79 579.323C2986.91 579.323 2996.18 581.224 3003.6 585.025C3011.1 588.739 3017.14 593.404 3021.71 599.019C3026.36 604.548 3029.9 609.991 3032.31 615.347H3033.99V515.569H3088.97V780.952H3034.64V749.075H3032.31C3029.73 754.604 3026.06 760.089 3021.32 765.532C3016.66 770.888 3010.58 775.337 3003.08 778.879C2995.67 782.421 2986.61 784.192 2975.92 784.192ZM2993.38 740.263C3002.26 740.263 3009.76 737.845 3015.89 733.007C3022.09 728.083 3026.84 721.215 3030.11 712.403C3033.48 703.592 3035.16 693.268 3035.16 681.433C3035.16 669.598 3033.52 659.318 3030.24 650.593C3026.97 641.868 3022.22 635.13 3016.02 630.378C3009.81 625.627 3002.26 623.251 2993.38 623.251C2984.33 623.251 2976.69 625.713 2970.49 630.637C2964.28 635.561 2959.58 642.386 2956.39 651.111C2953.2 659.836 2951.6 669.944 2951.6 681.433C2951.6 693.009 2953.2 703.246 2956.39 712.144C2959.66 720.956 2964.36 727.867 2970.49 732.877C2976.69 737.801 2984.33 740.263 2993.38 740.263Z" fill="#0F9D58"/>
<path d="M3317.16 732.229C3306.73 732.229 3297.2 729.681 3288.58 724.584C3279.95 719.401 3273.06 712.49 3267.88 703.851C3262.8 695.212 3260.25 685.666 3260.25 675.213C3260.25 664.674 3262.8 655.128 3267.88 646.576C3273.06 637.937 3279.95 631.069 3288.58 625.972C3297.2 620.789 3306.73 618.198 3317.16 618.198C3327.68 618.198 3337.21 620.789 3345.75 625.972C3354.37 631.069 3361.23 637.937 3366.31 646.576C3371.49 655.128 3374.08 664.674 3374.08 675.213C3374.08 685.666 3371.49 695.212 3366.31 703.851C3361.23 712.49 3354.37 719.401 3345.75 724.584C3337.21 729.681 3327.68 732.229 3317.16 732.229Z" fill="#636D74"/>
<path d="M3605.09 720.378C3593.19 720.378 3582.39 718.432 3572.67 714.54C3562.96 710.648 3554.1 705.052 3546.09 697.754C3538.07 690.213 3530.67 681.212 3523.87 670.752L3559.93 649.587C3565.51 658.102 3571.34 665.035 3577.41 670.387C3583.72 675.739 3591.37 678.415 3600.36 678.415C3608.13 678.415 3614.68 675.982 3620.03 671.117C3625.37 666.251 3628.04 656.764 3628.04 642.654C3628.04 627.572 3625 617.111 3618.93 611.273C3613.1 605.191 3604.61 602.15 3593.44 602.15C3586.15 602.15 3579.23 603.002 3572.67 604.704C3566.36 606.164 3560.41 608.232 3554.83 610.908L3541.35 573.323C3549.12 569.917 3557.74 566.998 3567.21 564.565C3576.68 562.133 3587.37 560.916 3599.26 560.916C3615.78 560.916 3629.74 564.322 3641.15 571.133C3652.81 577.702 3661.67 587.189 3667.74 599.596C3673.81 612.003 3676.85 626.72 3676.85 643.749C3676.85 658.345 3674.78 670.63 3670.65 680.604C3666.77 690.335 3661.31 698.119 3654.26 703.958C3647.46 709.796 3639.82 714.053 3631.32 716.729C3622.82 719.162 3614.08 720.378 3605.09 720.378ZM3767.18 780.952C3752.36 780.952 3740.95 779.371 3732.94 776.208C3724.93 772.803 3718.85 768.424 3714.73 763.072C3710.84 757.963 3707.93 751.76 3705.99 744.462C3704.29 737.164 3703.44 727.798 3703.44 716.364V560.916L3752.24 564.93V712.715C3752.24 718.067 3752.61 722.568 3753.34 726.217C3754.06 729.623 3755.28 732.177 3756.98 733.88C3759.65 736.312 3762.56 737.894 3765.72 738.623C3768.88 739.11 3773.85 739.353 3780.65 739.353L3777.01 780.952H3767.18Z" fill="#727171"/>
<path d="M3873.49 780.952C3858.68 780.952 3847.15 779.371 3838.89 776.208C3830.88 773.046 3824.81 768.667 3820.68 763.072C3817.04 757.963 3814.24 752.003 3812.3 745.192C3810.6 738.137 3809.75 728.528 3809.75 716.364V560.916L3858.56 564.93V712.715C3858.56 718.067 3858.92 722.568 3859.65 726.217C3860.38 729.623 3861.6 732.177 3863.3 733.88C3865.97 736.312 3868.88 737.894 3872.04 738.623C3875.19 739.11 3880.17 739.353 3886.97 739.353L3883.33 780.952H3873.49Z" fill="#727171"/>
<path d="M3833.79 529.9C3826.26 529.9 3819.95 527.224 3814.85 521.872C3809.75 516.52 3807.2 509.952 3807.2 502.167C3807.2 494.626 3809.75 488.301 3814.85 483.192C3819.95 477.84 3826.26 475.164 3833.79 475.164C3841.56 475.164 3847.99 477.84 3853.09 483.192C3857.95 488.301 3860.38 494.626 3860.38 502.167C3860.38 509.952 3857.95 516.52 3853.09 521.872C3847.99 527.224 3841.56 529.9 3833.79 529.9Z" fill="#727171"/>
<path d="M3984.22 743.367C3972.32 743.367 3961.15 741.178 3950.71 736.799C3940.27 732.42 3931.77 725.974 3925.21 717.459C3918.9 708.702 3915.74 698.119 3915.74 685.713C3915.74 674.279 3918.66 664.427 3924.48 656.156C3930.31 647.641 3938.45 641.073 3948.89 636.451C3959.33 631.586 3971.35 629.153 3984.95 629.153C3990.53 629.153 3995.63 629.518 4000.24 630.248C4005.1 630.734 4009.35 631.342 4012.99 632.072L4006.8 671.846C4004.37 671.36 4001.46 670.873 3998.06 670.387C3994.9 669.9 3991.14 669.657 3986.77 669.657C3979 669.657 3973.17 671.117 3969.28 674.036C3965.4 676.712 3963.46 680.482 3963.46 685.348C3963.46 691.673 3966.01 696.173 3971.11 698.849C3976.21 701.282 3982.52 702.498 3990.05 702.498C4000 702.498 4009.59 700.309 4018.82 695.93C4028.29 691.308 4037.88 684.496 4047.6 675.495V725.487C4039.58 730.839 4030.96 735.218 4021.73 738.623C4012.51 741.786 4000 743.367 3984.22 743.367ZM3939.42 667.103C3930.43 661.751 3923.03 656.156 3917.2 650.317C3911.61 644.235 3907.36 637.911 3904.45 631.342C3901.78 624.531 3900.44 617.476 3900.44 610.178C3900.44 595.582 3906.03 582.567 3917.2 571.133C3928.37 559.7 3946.22 550.577 3970.74 543.766L3988.23 583.54C3977.78 586.216 3969.77 589.014 3964.19 591.933C3958.6 594.852 3954.72 598.015 3952.53 601.42C3950.34 604.583 3949.25 608.11 3949.25 612.002C3949.25 618.571 3951.68 624.288 3956.54 629.153C3961.64 634.018 3969.28 638.032 3979.48 641.195L3939.42 667.103ZM4109.52 780.952C4094.7 780.952 4083.17 779.371 4074.91 776.208C4066.9 773.046 4060.83 768.667 4056.7 763.072C4053.06 757.963 4050.27 752.003 4048.32 745.192C4046.62 738.137 4045.77 728.528 4045.77 716.364V560.916L4094.58 564.93V712.715C4094.58 718.067 4094.95 722.568 4095.67 726.217C4096.4 729.623 4097.62 732.177 4099.32 733.88C4101.99 736.312 4104.9 737.894 4108.06 738.623C4111.22 739.11 4116.19 739.353 4122.99 739.353L4119.35 780.952H4109.52Z" fill="#727171"/>
<path d="M4216.03 780.952C4201.22 780.952 4189.81 779.371 4181.79 776.208C4173.78 772.803 4167.71 768.424 4163.58 763.072C4159.21 757.233 4156.18 750.665 4154.48 743.367C4153.02 736.069 4152.29 727.068 4152.29 716.364V563.106C4150.59 552.402 4148.41 542.914 4145.73 534.643C4143.06 526.129 4139.91 518.953 4136.26 513.114C4132.86 507.032 4128.98 502.532 4124.61 499.613C4120.24 496.45 4115.62 494.869 4110.77 494.869C4103.97 494.869 4098.75 497.18 4095.11 501.802C4091.22 506.181 4089.28 512.992 4089.28 522.237C4089.28 525.156 4089.4 528.197 4089.64 531.359C4089.88 534.278 4090.25 537.198 4090.73 540.117L4042.29 539.387C4041.81 535.981 4041.44 532.454 4041.2 528.805C4040.71 525.156 4040.47 521.385 4040.47 517.493C4040.47 497.302 4046.18 481.733 4057.59 470.785C4069 459.595 4085.64 454 4107.49 454C4121.57 454 4133.96 457.041 4144.64 463.123C4155.57 468.961 4164.8 476.867 4172.32 486.841C4180.09 496.815 4186.29 508.127 4190.9 520.777C4195.76 533.184 4199.16 546.077 4201.1 559.457V712.715C4201.1 718.067 4201.46 722.568 4202.19 726.217C4202.92 729.623 4204.13 732.177 4205.83 733.88C4208.26 736.312 4211.05 737.894 4214.21 738.623C4217.61 739.11 4222.71 739.353 4229.51 739.353L4225.87 780.952H4216.03Z" fill="#727171"/>
<path d="M4437.85 780.952C4423.04 780.952 4411.5 779.371 4403.25 776.208C4395.23 773.046 4389.16 768.667 4385.03 763.072C4381.39 757.963 4378.6 752.003 4376.66 745.192C4374.96 738.137 4374.11 728.528 4374.11 716.364V560.916L4422.92 564.93V712.715C4422.92 718.067 4423.28 722.568 4424.01 726.217C4424.74 729.623 4425.95 732.177 4427.65 733.88C4430.32 736.312 4433.23 737.894 4436.39 738.623C4439.55 739.11 4444.53 739.353 4451.33 739.353L4447.68 780.952H4437.85ZM4292.15 717.094C4286.57 717.094 4280.62 715.391 4274.31 711.986C4268.24 708.58 4262.41 704.079 4256.82 698.484C4251.48 692.889 4246.99 686.442 4243.35 679.144C4239.95 671.846 4238.25 664.427 4238.25 656.885C4238.25 649.831 4240.07 643.627 4243.71 638.275C4247.6 632.924 4255.12 630.248 4266.29 630.248H4390.5V671.846H4316.92V688.267C4316.92 698.484 4314.74 705.904 4310.37 710.526C4306 714.905 4299.92 717.094 4292.15 717.094Z" fill="#727171"/>
<path d="M4535.6 720.378C4523.7 720.378 4512.9 718.432 4503.18 714.54C4493.47 710.648 4484.61 705.052 4476.59 697.754C4468.58 690.213 4461.17 681.212 4454.38 670.752L4490.44 649.587C4496.02 658.102 4501.85 665.035 4507.92 670.387C4514.23 675.739 4521.88 678.415 4530.87 678.415C4538.64 678.415 4545.19 675.982 4550.53 671.117C4555.88 666.251 4558.55 656.764 4558.55 642.654C4558.55 627.572 4555.51 617.111 4549.44 611.273C4543.61 605.191 4535.11 602.15 4523.94 602.15C4516.66 602.15 4509.74 603.002 4503.18 604.704C4496.87 606.164 4490.92 608.232 4485.34 610.908L4471.86 573.323C4479.63 569.917 4488.25 566.998 4497.72 564.565C4507.19 562.133 4517.87 560.916 4529.77 560.916C4546.28 560.916 4560.25 564.322 4571.66 571.133C4583.32 577.702 4592.18 587.189 4598.25 599.596C4604.32 612.003 4607.35 626.72 4607.35 643.749C4607.35 658.345 4605.29 670.63 4601.16 680.604C4597.28 690.335 4591.81 698.119 4584.77 703.958C4577.97 709.796 4570.32 714.053 4561.83 716.729C4553.33 719.162 4544.58 720.378 4535.6 720.378ZM4697.69 780.952C4682.87 780.952 4671.46 779.371 4663.45 776.208C4655.43 772.803 4649.36 768.424 4645.24 763.072C4641.35 757.963 4638.44 751.76 4636.49 744.462C4634.79 737.164 4633.94 727.798 4633.94 716.364V560.916L4682.75 564.93V712.715C4682.75 718.067 4683.12 722.568 4683.84 726.217C4684.57 729.623 4685.79 732.177 4687.49 733.88C4690.16 736.312 4693.07 737.894 4696.23 738.623C4699.38 739.11 4704.36 739.353 4711.16 739.353L4707.52 780.952H4697.69Z" fill="#727171"/>
<path d="M4875.39 780.952C4863.01 780.952 4851.47 779.736 4840.79 777.303C4830.11 774.87 4819.91 770.856 4810.19 765.261C4800.72 759.666 4791.38 752.125 4782.15 742.637C4772.92 732.907 4763.45 720.865 4753.74 706.512L4763.21 677.685C4772.92 676.712 4782.03 674.401 4790.53 670.752C4799.02 666.859 4805.94 661.872 4811.29 655.791C4816.63 649.466 4819.3 642.046 4819.3 633.532C4819.3 622.098 4815.54 614.07 4808.01 609.448C4800.72 604.826 4791.62 602.515 4780.69 602.515C4771.95 602.515 4763.94 603.367 4756.65 605.069C4749.37 606.772 4742.57 609.083 4736.25 612.002L4722.41 573.323C4731.16 569.674 4740.87 566.755 4751.55 564.565C4762.24 562.133 4773.89 560.916 4786.52 560.916C4802.55 560.916 4816.75 563.714 4829.13 569.309C4841.76 574.661 4851.6 582.689 4858.64 593.393C4865.92 604.096 4869.56 617.354 4869.56 633.167C4869.56 645.573 4866.89 657.007 4861.55 667.468C4856.45 677.685 4849.05 686.686 4839.33 694.47C4829.86 702.255 4818.57 708.337 4805.46 712.715C4792.35 716.851 4777.78 718.919 4761.75 718.919C4749.12 718.919 4739.41 716.243 4732.61 710.891C4726.06 705.539 4722.78 698.363 4722.78 689.362C4722.78 680.604 4725.69 674.036 4731.52 669.657C4737.35 665.035 4744.75 662.724 4753.74 662.724C4760.78 662.724 4767.34 664.183 4773.41 667.103C4779.48 670.022 4786.4 675.374 4794.17 683.158L4795.26 691.551C4806.43 705.904 4816.63 716.364 4825.86 722.933C4835.33 729.501 4844.19 733.758 4852.45 735.704C4860.94 737.407 4869.32 738.259 4877.58 738.259H4885.59L4882.31 780.952H4875.39Z" fill="#727171"/>
<path d="M5953.39 3270.75C6138.4 3216.97 6334.5 3209.8 6523.17 3249.9C6711.75 3289.98 6886.68 3375.97 7031.46 3499.75L7019.09 3603.37L6766.46 3848.21H6679.88C6554.67 3750.06 6395.5 3701.98 6234.92 3713.82C6074.38 3725.65 5924.57 3796.48 5816.12 3911.81C5814.4 3911.55 5812.53 3911.95 5810.6 3912.81C5808.57 3913.72 5806.43 3915.15 5804.27 3916.92C5799.95 3920.46 5795.46 3925.4 5791.4 3930.41C5787.34 3935.43 5783.7 3940.52 5781.08 3944.35C5779.76 3946.27 5778.7 3947.88 5777.97 3949C5777.61 3949.57 5777.32 3950.01 5777.13 3950.31C5777.06 3950.42 5777 3950.52 5776.96 3950.59L5271.49 4031.38C5242.39 4023.62 5211.48 4025.32 5183.48 4036.21C5234.13 3855.93 5331.28 3691.09 5465.8 3557.23C5600.56 3423.12 5768.37 3324.52 5953.39 3270.75Z" fill="#EA4335" stroke="#272424"/>
<path d="M7036.37 3501.07C7202.05 3643.64 7321.22 3829.94 7379.28 4037.17L7379.33 4037.35L7379.49 4037.45C7525.54 4133.19 7635.92 4271.95 7694.3 4433.19C7752.67 4594.44 7755.94 4769.61 7703.63 4932.8C7651.31 5095.99 7546.19 5238.53 7403.81 5339.33C7261.42 5440.13 7089.34 5493.84 6913.02 5492.51H6281.42L6218.71 5431.74V5064.94L6281.42 5003.31H6913.01C6954.56 5003.31 6995.7 4995.38 7034.09 4979.97C7072.48 4964.56 7107.35 4941.97 7136.74 4913.5C7166.12 4885.02 7189.42 4851.22 7205.33 4814.01C7221.23 4776.8 7229.41 4736.92 7229.41 4696.65C7229.41 4656.38 7221.23 4616.5 7205.33 4579.29C7189.42 4542.09 7166.12 4508.28 7136.74 4479.8C7107.35 4451.33 7072.47 4428.74 7034.09 4413.33C6995.86 4397.98 6954.89 4390.05 6913.51 4389.99V4329.44C6915.32 4236.8 6895.39 4144.96 6855.24 4060.87C6815.17 3976.95 6755.99 3902.92 6682.17 3844.35L7036.37 3501.07Z" fill="#4285F4" stroke="#272424"/>
<path d="M5518.09 4972.3C5559.05 4990.4 5603.55 4999.78 5648.57 4999.79H6279.87V5488.99H5648.57C5469.83 5489.74 5295.78 5433.65 5153.1 5329.32L5175.17 5243.79L5429.65 4998.87L5518.09 4972.3Z" fill="#34A853" stroke="#272424"/>
<path d="M5648.56 3900C5775.09 3899.56 5900.01 3927.5 6013.55 3981.62C6126.95 4035.68 6225.92 4114.4 6302.76 4211.63L5937.1 4566.01C5916.02 4521.06 5884.06 4481.71 5843.92 4451.3C5803.59 4420.75 5756.22 4400.14 5705.87 4391.23C5655.52 4382.33 5603.69 4385.39 5554.83 4400.17C5505.97 4414.94 5461.54 4440.99 5425.34 4476.06C5389.15 4511.14 5362.28 4554.21 5347.03 4601.57C5331.78 4648.93 5328.62 4699.17 5337.81 4747.97C5347 4796.78 5368.27 4842.69 5399.8 4881.78C5431.17 4920.67 5471.76 4951.65 5518.12 4972.07L5152.48 5326.44C5017.04 5225.37 4917.51 5085.87 4867.79 4927.37C4818.02 4768.73 4820.61 4598.99 4875.21 4441.86C4929.81 4284.72 5033.68 4148.04 5172.33 4050.89C5310.98 3953.74 5477.47 3900.99 5648.56 3900L5648.56 3900Z" fill="#FBBC05" stroke="#272424"/>
<path d="M80.9417 6323.36V6085.59H0V6033.83H216.519V6085.59H135.577V6323.36H80.9417Z" fill="black"/>
<path d="M248.899 6033.83H301.916V6115.11L298.678 6151.1H301.916C307.582 6141.66 315.676 6133.98 326.198 6128.05C336.99 6121.85 348.997 6118.75 362.217 6118.75C387.849 6118.75 406.735 6126.29 418.876 6141.39C431.287 6156.49 437.493 6177.11 437.493 6203.26V6323.36H384.476V6209.73C384.476 6195.98 381.239 6185.6 374.763 6178.59C368.288 6171.31 359.249 6167.68 347.648 6167.68C340.363 6167.68 333.888 6169.29 328.222 6172.53C322.556 6175.49 317.699 6179.67 313.652 6185.06C309.875 6190.45 306.907 6196.79 304.749 6204.07C302.86 6211.08 301.916 6218.63 301.916 6226.71V6323.36H248.899V6033.83Z" fill="black"/>
<path d="M669.075 6275.64C659.901 6291.82 647.49 6304.89 631.842 6314.87C616.463 6324.84 597.576 6329.83 575.182 6329.83C560.073 6329.83 546.043 6327.27 533.093 6322.14C520.412 6316.75 509.35 6309.34 499.907 6299.9C490.463 6290.47 483.044 6279.42 477.648 6266.75C472.521 6253.81 469.958 6239.65 469.958 6224.29C469.958 6210 472.521 6196.52 477.648 6183.85C482.774 6170.91 489.924 6159.72 499.097 6150.29C508.271 6140.58 519.063 6132.9 531.474 6127.24C544.155 6121.58 558.05 6118.75 573.159 6118.75C589.077 6118.75 603.242 6121.44 615.653 6126.83C628.064 6131.96 638.452 6139.23 646.816 6148.67C655.18 6157.84 661.52 6168.75 665.837 6181.42C670.154 6194.09 672.312 6207.84 672.312 6222.67C672.312 6224.56 672.312 6226.17 672.312 6227.52C672.043 6229.14 671.908 6230.62 671.908 6231.97C671.638 6233.32 671.503 6234.8 671.503 6236.42H522.166C523.245 6244.51 525.403 6251.51 528.641 6257.45C532.148 6263.11 536.33 6267.96 541.187 6272C546.313 6275.78 551.844 6278.61 557.78 6280.49C563.716 6282.11 569.786 6282.92 575.992 6282.92C588.133 6282.92 598.116 6280.22 605.94 6274.83C614.034 6269.17 620.375 6262.16 624.962 6253.81L669.075 6275.64ZM620.914 6198.81C620.645 6195.31 619.431 6191.4 617.272 6187.08C615.383 6182.77 612.416 6178.73 608.369 6174.95C604.591 6171.18 599.735 6168.08 593.799 6165.65C588.133 6163.23 581.253 6162.01 573.159 6162.01C561.827 6162.01 551.844 6165.25 543.211 6171.72C534.577 6178.19 528.506 6187.22 524.999 6198.81H620.914Z" fill="black"/>
<path d="M844.876 6151.1H848.114C854.319 6141.12 862.684 6133.3 873.206 6127.64C883.728 6121.71 895.735 6118.75 909.225 6118.75C921.636 6118.75 932.563 6120.77 942.006 6124.81C951.45 6128.86 959.139 6134.65 965.075 6142.2C971.28 6149.48 975.867 6158.37 978.835 6168.89C982.072 6179.13 983.691 6190.59 983.691 6203.26V6323.36H930.674V6209.73C930.674 6195.44 927.437 6184.93 920.962 6178.19C914.756 6171.18 905.583 6167.68 893.441 6167.68C886.157 6167.68 879.681 6169.29 874.015 6172.53C868.619 6175.49 863.898 6179.67 859.851 6185.06C856.073 6190.19 853.105 6196.39 850.947 6203.66C849.058 6210.67 848.114 6218.22 848.114 6226.31V6323.36H795.097V6125.22H844.876V6151.1Z" fill="black"/>
<path d="M1215.27 6275.64C1206.1 6291.82 1193.69 6304.89 1178.04 6314.87C1162.66 6324.84 1143.77 6329.83 1121.38 6329.83C1106.27 6329.83 1092.24 6327.27 1079.29 6322.14C1066.61 6316.75 1055.55 6309.34 1046.1 6299.9C1036.66 6290.47 1029.24 6279.42 1023.85 6266.75C1018.72 6253.81 1016.16 6239.65 1016.16 6224.29C1016.16 6210 1018.72 6196.52 1023.85 6183.85C1028.97 6170.91 1036.12 6159.72 1045.3 6150.29C1054.47 6140.58 1065.26 6132.9 1077.67 6127.24C1090.35 6121.58 1104.25 6118.75 1119.36 6118.75C1135.28 6118.75 1149.44 6121.44 1161.85 6126.83C1174.26 6131.96 1184.65 6139.23 1193.01 6148.67C1201.38 6157.84 1207.72 6168.75 1212.04 6181.42C1216.35 6194.09 1218.51 6207.84 1218.51 6222.67C1218.51 6224.56 1218.51 6226.17 1218.51 6227.52C1218.24 6229.14 1218.11 6230.62 1218.11 6231.97C1217.84 6233.32 1217.7 6234.8 1217.7 6236.42H1068.36C1069.44 6244.51 1071.6 6251.51 1074.84 6257.45C1078.35 6263.11 1082.53 6267.96 1087.39 6272C1092.51 6275.78 1098.04 6278.61 1103.98 6280.49C1109.91 6282.11 1115.98 6282.92 1122.19 6282.92C1134.33 6282.92 1144.31 6280.22 1152.14 6274.83C1160.23 6269.17 1166.57 6262.16 1171.16 6253.81L1215.27 6275.64ZM1167.11 6198.81C1166.84 6195.31 1165.63 6191.4 1163.47 6187.08C1161.58 6182.77 1158.61 6178.73 1154.57 6174.95C1150.79 6171.18 1145.93 6168.08 1140 6165.65C1134.33 6163.23 1127.45 6162.01 1119.36 6162.01C1108.03 6162.01 1098.04 6165.25 1089.41 6171.72C1080.78 6178.19 1074.7 6187.22 1071.2 6198.81H1167.11Z" fill="black"/>
<path d="M1227.37 6125.22H1286.87L1319.65 6249.36H1322.48L1361.74 6125.22H1416.37L1456.03 6249.36H1458.87L1491.24 6125.22H1549.93L1486.39 6323.36H1429.32L1389.66 6198.41H1386.83L1347.17 6323.36H1290.91L1227.37 6125.22Z" fill="black"/>
<path d="M1641.96 6125.22H1701.45L1734.24 6249.36H1737.07L1776.33 6125.22H1830.96L1870.62 6249.36H1873.46L1905.83 6125.22H1964.52L1900.98 6323.36H1843.91L1804.25 6198.41H1801.42L1761.76 6323.36H1705.5L1641.96 6125.22Z" fill="black"/>
<path d="M2106.94 6302.33H2103.7C2097.5 6309.88 2089.94 6316.35 2081.04 6321.74C2072.41 6327.13 2061.21 6329.83 2047.45 6329.83C2037.2 6329.83 2027.48 6328.08 2018.31 6324.57C2009.41 6321.34 2001.58 6316.75 1994.84 6310.82C1988.09 6304.89 1982.83 6297.75 1979.05 6289.39C1975.28 6281.03 1973.39 6271.87 1973.39 6261.89C1973.39 6251.65 1975.41 6242.48 1979.46 6234.4C1983.5 6226.04 1989.17 6218.9 1996.46 6212.96C2003.74 6207.03 2012.24 6202.59 2021.95 6199.62C2031.93 6196.39 2042.73 6194.77 2054.33 6194.77C2067.28 6194.77 2077.94 6195.85 2086.3 6198C2094.66 6199.89 2101.54 6201.91 2106.94 6204.07V6198C2106.94 6187.49 2102.76 6178.86 2094.39 6172.12C2086.03 6165.11 2075.64 6161.61 2063.23 6161.61C2044.89 6161.61 2029.37 6169.29 2016.69 6184.66L1978.24 6158.37C1999.29 6131.96 2028.02 6118.75 2064.45 6118.75C2095.2 6118.75 2118.68 6126.02 2134.87 6140.58C2151.05 6154.87 2159.15 6176.17 2159.15 6204.47V6323.36H2106.94V6302.33ZM2106.94 6242.89C2100.74 6239.92 2094.26 6237.63 2087.51 6236.01C2081.04 6234.13 2073.89 6233.18 2066.07 6233.18C2053.38 6233.18 2043.54 6236.01 2036.52 6241.67C2029.78 6247.07 2026.4 6253.81 2026.4 6261.89C2026.4 6269.98 2029.64 6276.45 2036.12 6281.3C2042.86 6286.16 2050.55 6288.58 2059.19 6288.58C2066.2 6288.58 2072.68 6287.37 2078.61 6284.94C2084.55 6282.25 2089.54 6278.88 2093.59 6274.83C2097.9 6270.52 2101.14 6265.67 2103.3 6260.28C2105.73 6254.61 2106.94 6248.82 2106.94 6242.89Z" fill="black"/>
<path d="M2259.67 6313.65L2176.3 6125.22H2236.61L2286.79 6245.31H2289.62L2337.78 6125.22H2396.87L2272.62 6410.7H2215.56L2259.67 6313.65Z" fill="black"/>
<path d="M2503.68 6170.51H2468.87V6125.22H2503.68V6064.56H2556.69V6125.22H2605.26V6170.51H2556.69V6247.34C2556.69 6251.92 2557.1 6256.23 2557.91 6260.28C2558.99 6264.05 2560.87 6267.29 2563.57 6269.98C2567.35 6274.29 2572.75 6276.45 2579.76 6276.45C2584.35 6276.45 2587.99 6276.05 2590.69 6275.24C2593.39 6274.16 2595.95 6272.81 2598.38 6271.19L2613.35 6317.7C2607.15 6320.66 2600.4 6322.82 2593.12 6324.17C2586.1 6325.78 2578.28 6326.59 2569.64 6326.59C2559.66 6326.59 2550.62 6325.11 2542.53 6322.14C2534.7 6318.91 2528.09 6314.6 2522.7 6309.2C2510.02 6297.07 2503.68 6279.82 2503.68 6257.45V6170.51Z" fill="black"/>
<path d="M2736.17 6118.75C2751.55 6118.75 2765.58 6121.44 2778.26 6126.83C2791.21 6131.96 2802.28 6139.23 2811.45 6148.67C2820.89 6157.84 2828.18 6168.89 2833.3 6181.83C2838.7 6194.77 2841.4 6208.92 2841.4 6224.29C2841.4 6239.65 2838.7 6253.81 2833.3 6266.75C2828.18 6279.69 2820.89 6290.87 2811.45 6300.31C2802.28 6309.47 2791.21 6316.75 2778.26 6322.14C2765.58 6327.27 2751.55 6329.83 2736.17 6329.83C2720.79 6329.83 2706.63 6327.27 2693.68 6322.14C2681 6316.75 2669.94 6309.47 2660.49 6300.31C2651.32 6290.87 2644.04 6279.69 2638.64 6266.75C2633.51 6253.81 2630.95 6239.65 2630.95 6224.29C2630.95 6208.92 2633.51 6194.77 2638.64 6181.83C2644.04 6168.89 2651.32 6157.84 2660.49 6148.67C2669.94 6139.23 2681 6131.96 2693.68 6126.83C2706.63 6121.44 2720.79 6118.75 2736.17 6118.75ZM2736.17 6280.9C2742.92 6280.9 2749.39 6279.69 2755.6 6277.26C2762.08 6274.56 2767.74 6270.79 2772.6 6265.94C2777.45 6261.08 2781.23 6255.15 2783.93 6248.14C2786.9 6241.14 2788.38 6233.18 2788.38 6224.29C2788.38 6215.39 2786.9 6207.44 2783.93 6200.43C2781.23 6193.42 2777.45 6187.49 2772.6 6182.64C2767.74 6177.78 2762.08 6174.14 2755.6 6171.72C2749.39 6169.02 2742.92 6167.67 2736.17 6167.67C2729.16 6167.67 2722.55 6169.02 2716.34 6171.72C2710.14 6174.14 2704.61 6177.78 2699.75 6182.64C2694.89 6187.49 2690.98 6193.42 2688.01 6200.43C2685.32 6207.44 2683.97 6215.39 2683.97 6224.29C2683.97 6233.18 2685.32 6241.14 2688.01 6248.14C2690.98 6255.15 2694.89 6261.08 2699.75 6265.94C2704.61 6270.79 2710.14 6274.56 2716.34 6277.26C2722.55 6279.69 2729.16 6280.9 2736.17 6280.9Z" fill="black"/>
<path d="M3152.58 6272.81C3143.94 6289.53 3131.8 6303.27 3116.15 6314.06C3100.77 6324.57 3081.48 6329.83 3058.28 6329.83C3042.9 6329.83 3028.74 6327.27 3015.79 6322.14C3003.11 6316.75 2992.04 6309.34 2982.6 6299.9C2973.43 6290.47 2966.14 6279.42 2960.75 6266.75C2955.62 6253.81 2953.06 6239.65 2953.06 6224.29C2953.06 6208.92 2955.62 6194.77 2960.75 6181.83C2966.14 6168.89 2973.43 6157.84 2982.6 6148.67C2992.04 6139.23 3003.11 6131.96 3015.79 6126.83C3028.74 6121.44 3042.9 6118.75 3058.28 6118.75C3081.21 6118.75 3100.51 6124 3116.15 6134.52C3131.8 6145.03 3143.27 6158.64 3150.55 6175.36L3101.99 6195.58C3097.4 6186.41 3091.47 6179.54 3084.18 6174.95C3077.17 6170.1 3068.26 6167.67 3057.47 6167.67C3050.46 6167.67 3043.85 6169.02 3037.64 6171.72C3031.43 6174.41 3025.9 6178.19 3021.05 6183.04C3016.46 6187.89 3012.82 6193.82 3010.12 6200.83C3007.42 6207.84 3006.07 6215.66 3006.07 6224.29C3006.07 6232.91 3007.42 6240.73 3010.12 6247.74C3012.82 6254.75 3016.46 6260.68 3021.05 6265.53C3025.9 6270.39 3031.43 6274.16 3037.64 6276.86C3043.85 6279.55 3050.46 6280.9 3057.47 6280.9C3068.53 6280.9 3077.84 6278.47 3085.4 6273.62C3093.22 6268.5 3099.43 6261.22 3104.01 6251.78L3152.58 6272.81Z" fill="#0F9D58"/>
<path d="M3184.92 6323.36V6033.83H3237.94V6323.36H3184.92Z" fill="#0F9D58"/>
<path d="M3375.25 6118.75C3390.63 6118.75 3404.66 6121.44 3417.34 6126.83C3430.29 6131.96 3441.35 6139.23 3450.53 6148.67C3459.97 6157.84 3467.25 6168.89 3472.38 6181.83C3477.78 6194.77 3480.47 6208.92 3480.47 6224.29C3480.47 6239.65 3477.78 6253.81 3472.38 6266.75C3467.25 6279.69 3459.97 6290.87 3450.53 6300.31C3441.35 6309.47 3430.29 6316.75 3417.34 6322.14C3404.66 6327.27 3390.63 6329.83 3375.25 6329.83C3359.87 6329.83 3345.71 6327.27 3332.76 6322.14C3320.07 6316.75 3309.01 6309.47 3299.57 6300.31C3290.4 6290.87 3283.11 6279.69 3277.71 6266.75C3272.59 6253.81 3270.03 6239.65 3270.03 6224.29C3270.03 6208.92 3272.59 6194.77 3277.71 6181.83C3283.11 6168.89 3290.4 6157.84 3299.57 6148.67C3309.01 6139.23 3320.07 6131.96 3332.76 6126.83C3345.71 6121.44 3359.87 6118.75 3375.25 6118.75ZM3375.25 6280.9C3381.99 6280.9 3388.47 6279.69 3394.68 6277.26C3401.15 6274.56 3406.82 6270.79 3411.67 6265.94C3416.53 6261.08 3420.31 6255.15 3423.01 6248.14C3425.97 6241.14 3427.46 6233.18 3427.46 6224.29C3427.46 6215.39 3425.97 6207.44 3423.01 6200.43C3420.31 6193.42 3416.53 6187.49 3411.67 6182.64C3406.82 6177.78 3401.15 6174.14 3394.68 6171.72C3388.47 6169.02 3381.99 6167.67 3375.25 6167.67C3368.23 6167.67 3361.62 6169.02 3355.42 6171.72C3349.21 6174.14 3343.68 6177.78 3338.83 6182.64C3333.97 6187.49 3330.06 6193.42 3327.09 6200.43C3324.39 6207.44 3323.04 6215.39 3323.04 6224.29C3323.04 6233.18 3324.39 6241.14 3327.09 6248.14C3330.06 6255.15 3333.97 6261.08 3338.83 6265.94C3343.68 6270.79 3349.21 6274.56 3355.42 6277.26C3361.62 6279.69 3368.23 6280.9 3375.25 6280.9Z" fill="#0F9D58"/>
<path d="M3649.76 6297.48H3646.52C3640.32 6307.45 3631.95 6315.41 3621.43 6321.34C3610.91 6327 3598.9 6329.83 3585.41 6329.83C3560.32 6329.83 3541.57 6322.14 3529.16 6306.78C3517.01 6291.41 3510.94 6270.92 3510.94 6245.31V6125.22H3563.96V6238.84C3563.96 6253.13 3567.06 6263.78 3573.27 6270.79C3579.74 6277.53 3589.05 6280.9 3601.19 6280.9C3608.48 6280.9 3614.82 6279.42 3620.22 6276.45C3625.88 6273.22 3630.6 6269.04 3634.38 6263.92C3638.43 6258.52 3641.39 6252.32 3643.28 6245.31C3645.44 6238.04 3646.52 6230.35 3646.52 6222.27V6125.22H3699.54V6323.36H3649.76V6297.48Z" fill="#0F9D58"/>
<path d="M3890.7 6299.5H3887.46C3882.6 6307.86 3875.05 6315 3864.8 6320.93C3854.54 6326.86 3841.86 6329.83 3826.75 6329.83C3814.07 6329.83 3801.93 6327.27 3790.33 6322.14C3779 6316.75 3768.88 6309.47 3759.98 6300.31C3751.34 6290.87 3744.46 6279.69 3739.34 6266.75C3734.21 6253.81 3731.65 6239.65 3731.65 6224.29C3731.65 6208.92 3734.21 6194.77 3739.34 6181.83C3744.46 6168.89 3751.34 6157.84 3759.98 6148.67C3768.88 6139.23 3779 6131.96 3790.33 6126.83C3801.93 6121.44 3814.07 6118.75 3826.75 6118.75C3841.86 6118.75 3854.54 6121.71 3864.8 6127.64C3875.05 6133.57 3882.6 6140.72 3887.46 6149.07H3890.7L3887.46 6120.77V6033.83H3940.48V6323.36H3890.7V6299.5ZM3837.68 6280.9C3844.69 6280.9 3851.3 6279.69 3857.51 6277.26C3863.99 6274.56 3869.65 6270.79 3874.51 6265.94C3879.36 6261.08 3883.28 6255.15 3886.24 6248.14C3889.21 6241.14 3890.7 6233.18 3890.7 6224.29C3890.7 6215.39 3889.21 6207.44 3886.24 6200.43C3883.28 6193.42 3879.36 6187.49 3874.51 6182.64C3869.65 6177.78 3863.99 6174.14 3857.51 6171.72C3851.3 6169.02 3844.69 6167.67 3837.68 6167.67C3830.66 6167.67 3823.92 6169.02 3817.44 6171.72C3811.24 6174.41 3805.71 6178.19 3800.85 6183.04C3795.99 6187.89 3792.08 6193.82 3789.11 6200.83C3786.15 6207.84 3784.66 6215.66 3784.66 6224.29C3784.66 6232.91 3786.15 6240.73 3789.11 6247.74C3792.08 6254.75 3795.99 6260.68 3800.85 6265.53C3805.71 6270.39 3811.24 6274.16 3817.44 6276.86C3823.92 6279.55 3830.66 6280.9 3837.68 6280.9Z" fill="#0F9D58"/>
<path d="M4017.62 6325.78C4007.9 6325.78 3999.54 6322.41 3992.52 6315.67C3985.78 6308.67 3982.41 6300.31 3982.41 6290.6C3982.41 6280.9 3985.78 6272.68 3992.52 6265.94C3999.54 6259.2 4007.9 6255.83 4017.62 6255.83C4027.33 6255.83 4035.56 6259.2 4042.3 6265.94C4049.05 6272.68 4052.42 6280.9 4052.42 6290.6C4052.42 6300.31 4049.05 6308.67 4042.3 6315.67C4035.56 6322.41 4027.33 6325.78 4017.62 6325.78Z" fill="#0F9D58"/>
<path d="M371.463 5504.88H366.125C354.263 5524.78 336.174 5542.2 311.857 5557.13C287.54 5571.43 258.478 5578.59 224.672 5578.59C196.796 5578.59 170.107 5572.68 144.604 5560.86C119.694 5548.42 97.7493 5531.31 78.7702 5509.54C59.7911 5487.77 44.6672 5462.27 33.3984 5433.04C22.1295 5403.18 16.4951 5370.52 16.4951 5335.07C16.4951 5299.61 22.1295 5267.27 33.3984 5238.03C44.6672 5208.18 59.7911 5182.36 78.7702 5160.59C97.7493 5138.82 119.694 5122.03 144.604 5110.21C170.107 5097.77 196.796 5091.55 224.672 5091.55C258.478 5091.55 287.54 5099.01 311.857 5113.94C336.174 5128.25 354.263 5145.35 366.125 5165.26H371.463L366.125 5101.81V4895.61H464.876V5563.66H371.463V5504.88ZM243.354 5482.49C259.961 5482.49 275.975 5479.06 291.395 5472.22C307.409 5465.38 321.05 5455.74 332.319 5443.3C344.181 5430.86 353.67 5415.62 360.787 5397.58C367.905 5378.92 371.463 5358.08 371.463 5335.07C371.463 5312.05 367.905 5291.53 360.787 5273.49C353.67 5254.83 344.181 5239.28 332.319 5226.84C321.05 5214.4 307.409 5204.76 291.395 5197.91C275.975 5191.07 259.961 5187.65 243.354 5187.65C226.155 5187.65 209.844 5191.07 194.424 5197.91C179.003 5204.76 165.362 5214.71 153.5 5227.77C142.231 5240.21 133.039 5255.45 125.921 5273.49C118.804 5291.53 115.246 5312.05 115.246 5335.07C115.246 5358.08 118.804 5378.61 125.921 5396.65C133.039 5414.69 142.231 5430.24 153.5 5443.3C165.362 5455.74 179.003 5465.38 194.424 5472.22C209.844 5479.06 226.155 5482.49 243.354 5482.49Z" fill="#010B17"/>
<path d="M818.071 5507.68H812.734C799.685 5525.72 782.782 5542.2 762.024 5557.13C741.266 5571.43 714.873 5578.59 682.846 5578.59C659.715 5578.59 638.067 5574.54 617.902 5566.46C597.736 5558.99 580.24 5548.42 565.413 5534.74C550.585 5520.43 538.723 5503.95 529.827 5485.29C521.523 5466 517.372 5444.85 517.372 5421.84C517.372 5397.58 521.82 5375.81 530.716 5356.53C540.206 5337.24 552.958 5321.07 568.971 5308.01C585.578 5294.95 605.15 5285 627.688 5278.15C650.225 5270.69 674.542 5266.96 700.638 5266.96C729.7 5266.96 754.017 5270.07 773.589 5276.29C793.161 5281.89 807.989 5287.17 818.071 5292.15V5274.42C818.071 5260.74 815.106 5247.99 809.175 5236.17C803.837 5224.35 796.127 5214.4 786.044 5206.31C776.555 5197.6 765.582 5191.07 753.127 5186.72C740.672 5181.74 727.624 5179.25 713.983 5179.25C692.039 5179.25 672.17 5183.92 654.377 5193.25C637.177 5201.96 621.757 5216.26 608.115 5236.17L529.827 5182.05C550.585 5152.19 576.385 5129.8 607.226 5114.87C638.067 5099.32 673.059 5091.55 712.204 5091.55C776.851 5091.55 826.671 5108.34 861.664 5141.93C897.25 5175.52 915.043 5223.42 915.043 5285.62V5563.66H818.071V5507.68ZM818.071 5373.32C805.023 5365.24 790.492 5358.7 774.479 5353.73C758.465 5348.75 740.079 5346.26 719.321 5346.26C688.48 5346.26 663.866 5353.73 645.48 5368.66C627.095 5383.59 617.902 5401.62 617.902 5422.77C617.902 5433.97 620.274 5443.92 625.019 5452.63C629.763 5460.72 635.694 5467.87 642.812 5474.09C650.522 5480.31 659.122 5484.97 668.611 5488.08C678.694 5491.19 688.776 5492.75 698.859 5492.75C714.873 5492.75 729.997 5489.64 744.231 5483.42C759.058 5476.58 771.81 5467.87 782.486 5457.29C793.161 5446.1 801.761 5433.35 808.285 5419.04C814.809 5404.73 818.071 5389.49 818.071 5373.32Z" fill="#010B17"/>
<path d="M1116.7 5537.53L935.213 5106.48H1045.53L1165.63 5409.71H1170.08L1286.62 5106.48H1396.05L1122.93 5765.19H1017.95L1116.7 5537.53Z" fill="#010B17"/>
<path d="M1588.75 5578.59C1562.06 5578.59 1538.04 5574.86 1516.69 5567.39C1495.33 5559.93 1476.65 5550.29 1460.64 5538.47C1444.62 5526.03 1430.98 5512.03 1419.71 5496.48C1409.04 5480.93 1400.74 5464.76 1394.8 5447.96L1483.77 5408.78C1493.85 5435.52 1508.38 5455.43 1527.36 5468.49C1546.34 5480.93 1566.8 5487.15 1588.75 5487.15C1613.66 5487.15 1633.23 5481.86 1647.46 5471.29C1661.7 5460.72 1668.81 5448.9 1668.81 5435.83C1668.81 5422.77 1663.48 5411.58 1652.8 5402.25C1642.13 5392.29 1621.96 5383.59 1592.31 5376.12L1530.03 5360.26C1516.39 5357.15 1502.45 5352.48 1488.22 5346.26C1474.58 5339.42 1461.82 5331.02 1449.96 5321.07C1438.1 5310.5 1428.31 5298.06 1420.6 5283.75C1413.49 5268.82 1409.93 5251.41 1409.93 5231.5C1409.93 5209.11 1414.38 5189.2 1423.27 5171.79C1432.76 5154.37 1445.51 5139.75 1461.53 5127.94C1477.54 5116.12 1495.93 5107.1 1516.69 5100.88C1538.04 5094.66 1560.57 5091.55 1584.3 5091.55C1603.87 5091.55 1622.55 5093.72 1640.35 5098.08C1658.73 5102.43 1675.63 5108.96 1691.06 5117.67C1706.48 5126.38 1720.12 5137.58 1731.98 5151.26C1744.43 5164.32 1754.22 5179.87 1761.34 5197.91L1674.15 5236.17C1665.85 5216.26 1652.8 5201.96 1635.01 5193.25C1617.22 5183.92 1599.13 5179.25 1580.74 5179.25C1572.44 5179.25 1563.84 5180.5 1554.94 5182.98C1546.64 5184.85 1538.93 5187.96 1531.81 5192.31C1525.29 5196.05 1519.65 5201.02 1514.91 5207.24C1510.75 5213.46 1508.68 5220.31 1508.68 5227.77C1508.68 5240.21 1513.72 5250.16 1523.8 5257.63C1534.48 5264.47 1550.49 5270.69 1571.84 5276.29L1638.57 5294.01C1683.64 5305.83 1716.56 5323.87 1737.32 5348.13C1758.67 5371.77 1769.34 5399.76 1769.34 5432.1C1769.34 5452.01 1764.9 5470.67 1756 5488.08C1747.7 5505.5 1735.54 5521.05 1719.52 5534.74C1703.51 5548.42 1684.23 5558.99 1661.7 5566.46C1639.75 5574.54 1615.44 5578.59 1588.75 5578.59Z" fill="#010B17"/>
<path d="M2542.99 5485.43H2705.44V5570.28H2412.15V5482.78C2437.44 5456.71 2460.82 5432.62 2482.31 5410.52C2491.58 5401.24 2500.85 5391.74 2510.13 5382.02C2518.97 5372.3 2527.19 5363.46 2534.78 5355.5C2542.78 5347.11 2549.74 5339.81 2555.63 5333.63C2561.96 5327 2566.59 5321.92 2569.54 5318.38C2581.76 5304.24 2590.4 5291.86 2595.46 5281.26C2600.51 5270.21 2603.04 5258.28 2603.04 5245.46C2603.04 5232.65 2598.41 5221.82 2589.13 5212.98C2580.29 5203.7 2567.85 5199.06 2551.84 5199.06C2535.83 5199.06 2522.98 5203.92 2513.29 5213.64C2504.02 5222.92 2497.06 5235.3 2492.43 5250.76L2406.46 5213.64C2410.26 5199.94 2416.16 5186.68 2424.16 5173.87C2432.17 5161.05 2442.28 5149.78 2454.5 5140.06C2466.72 5129.9 2481.05 5121.72 2497.48 5115.53C2514.34 5109.35 2532.88 5106.25 2553.11 5106.25C2575.86 5106.25 2596.3 5109.79 2614.42 5116.86C2632.54 5123.49 2647.71 5132.77 2659.93 5144.7C2672.57 5156.63 2682.26 5170.77 2689 5187.13C2695.74 5203.48 2699.12 5221.16 2699.12 5240.16C2699.12 5267.56 2693.01 5292.97 2680.79 5316.39C2668.99 5339.37 2652.34 5362.13 2630.85 5384.67L2539.83 5478.8L2542.99 5485.43Z" fill="#010B17"/>
<path d="M2939.71 5580.89C2911.06 5580.89 2885.35 5574.92 2862.6 5562.99C2839.84 5551.06 2820.46 5534.49 2804.45 5513.27C2788.43 5492.06 2776 5467.09 2767.15 5438.37C2758.73 5409.2 2754.51 5377.6 2754.51 5343.57C2754.51 5309.54 2758.73 5278.16 2767.15 5249.44C2776 5220.27 2788.43 5195.08 2804.45 5173.87C2820.46 5152.66 2839.84 5136.08 2862.6 5124.15C2885.35 5112.22 2911.06 5106.25 2939.71 5106.25C2967.94 5106.25 2993.44 5112.22 3016.19 5124.15C3039.37 5136.08 3058.96 5152.66 3074.97 5173.87C3090.99 5195.08 3103.21 5220.27 3111.63 5249.44C3120.48 5278.16 3124.91 5309.54 3124.91 5343.57C3124.91 5377.6 3120.48 5409.2 3111.63 5438.37C3103.21 5467.09 3090.99 5492.06 3074.97 5513.27C3058.96 5534.49 3039.37 5551.06 3016.19 5562.99C2993.44 5574.92 2967.94 5580.89 2939.71 5580.89ZM2939.71 5488.08C2954.04 5488.08 2966.68 5484.55 2977.63 5477.48C2989.01 5469.96 2998.49 5459.8 3006.08 5446.98C3014.08 5434.17 3019.98 5418.92 3023.78 5401.24C3027.99 5383.57 3030.1 5364.34 3030.1 5343.57C3030.1 5322.8 3027.99 5303.58 3023.78 5285.9C3019.98 5268.22 3014.08 5252.97 3006.08 5240.16C2998.49 5227.34 2989.01 5217.4 2977.63 5210.33C2966.68 5202.81 2954.04 5199.06 2939.71 5199.06C2925.38 5199.06 2912.53 5202.81 2901.15 5210.33C2890.2 5217.4 2880.72 5227.34 2872.71 5240.16C2865.12 5252.97 2859.23 5268.22 2855.01 5285.9C2851.22 5303.58 2849.32 5322.8 2849.32 5343.57C2849.32 5364.34 2851.22 5383.57 2855.01 5401.24C2859.23 5418.92 2865.12 5434.17 2872.71 5446.98C2880.72 5459.8 2890.2 5469.96 2901.15 5477.48C2912.53 5484.55 2925.38 5488.08 2939.71 5488.08Z" fill="#010B17"/>
<path d="M3301.93 5485.43H3464.37V5570.28H3171.09V5482.78C3196.37 5456.71 3219.76 5432.62 3241.25 5410.52C3250.52 5401.24 3259.79 5391.74 3269.06 5382.02C3277.91 5372.3 3286.13 5363.46 3293.71 5355.5C3301.72 5347.11 3308.67 5339.81 3314.57 5333.63C3320.89 5327 3325.53 5321.92 3328.48 5318.38C3340.7 5304.24 3349.34 5291.86 3354.39 5281.26C3359.45 5270.21 3361.98 5258.28 3361.98 5245.46C3361.98 5232.65 3357.34 5221.82 3348.07 5212.98C3339.22 5203.7 3326.79 5199.06 3310.78 5199.06C3294.77 5199.06 3281.91 5203.92 3272.22 5213.64C3262.95 5222.92 3256 5235.3 3251.36 5250.76L3165.4 5213.64C3169.19 5199.94 3175.09 5186.68 3183.1 5173.87C3191.1 5161.05 3201.22 5149.78 3213.44 5140.06C3225.66 5129.9 3239.99 5121.72 3256.42 5115.53C3273.28 5109.35 3291.82 5106.25 3312.04 5106.25C3334.8 5106.25 3355.23 5109.79 3373.35 5116.86C3391.47 5123.49 3406.64 5132.77 3418.86 5144.7C3431.5 5156.63 3441.2 5170.77 3447.94 5187.13C3454.68 5203.48 3458.05 5221.16 3458.05 5240.16C3458.05 5267.56 3451.94 5292.97 3439.72 5316.39C3427.92 5339.37 3411.28 5362.13 3389.79 5384.67L3298.77 5478.8L3301.93 5485.43Z" fill="#010B17"/>
<path d="M3668.31 5580.89C3651.03 5580.89 3633.96 5578.46 3617.11 5573.6C3600.25 5568.74 3584.66 5561.22 3570.33 5551.06C3556.43 5540.89 3544.21 5528.08 3533.67 5512.61C3523.14 5497.14 3515.55 5479.02 3510.92 5458.25L3597.51 5423.12C3601.73 5443.89 3609.73 5460.24 3621.53 5472.17C3633.33 5483.66 3648.92 5489.41 3668.31 5489.41C3685.16 5489.41 3699.49 5483.22 3711.29 5470.85C3723.09 5458.47 3728.99 5443.01 3728.99 5424.44C3728.99 5405.88 3723.09 5390.42 3711.29 5378.04C3699.91 5365.67 3685.37 5359.48 3667.67 5359.48C3655.45 5359.48 3644.92 5361.91 3636.07 5366.77C3627.22 5371.63 3619.64 5377.82 3613.32 5385.33L3522.3 5341.58L3545.68 5116.86H3797.88V5201.71H3624.69L3608.26 5295.84L3614.58 5297.83C3622.59 5291.2 3632.49 5285.01 3644.29 5279.27C3656.51 5273.52 3671.26 5270.65 3688.53 5270.65C3706.23 5270.65 3723.09 5274.41 3739.1 5281.92C3755.53 5288.99 3769.86 5299.16 3782.08 5312.41C3794.72 5325.67 3804.83 5341.8 3812.42 5360.81C3820 5379.81 3823.8 5401.02 3823.8 5424.44C3823.8 5447.87 3820 5469.3 3812.42 5488.75C3804.83 5507.75 3794.09 5524.1 3780.18 5537.8C3766.28 5551.5 3749.84 5562.11 3730.88 5569.62C3711.92 5577.13 3691.06 5580.89 3668.31 5580.89Z" fill="#010B17"/>
<path fill-rule="evenodd" clip-rule="evenodd" d="M2135.7 5119.48C2112.05 5089.34 2068.04 5089.34 2044.38 5119.48L2036.74 5129.22C2024.23 5145.16 2004.97 5153.53 1985.37 5151.54L1973.4 5150.32C1936.35 5146.54 1905.24 5179.18 1908.83 5218.04L1910 5230.59C1911.9 5251.14 1903.92 5271.34 1888.72 5284.46L1879.43 5292.48C1850.69 5317.28 1850.69 5363.44 1879.43 5388.25L1888.72 5396.26C1903.92 5409.38 1911.9 5429.58 1910 5450.14L1908.83 5462.69C1905.24 5501.54 1936.35 5534.18 1973.4 5530.41L1985.37 5529.19C2004.97 5527.19 2024.23 5535.56 2036.74 5551.5L2044.38 5561.24C2068.04 5591.38 2112.05 5591.38 2135.7 5561.24L2143.34 5551.5C2155.85 5535.56 2175.11 5527.19 2194.71 5529.19L2206.68 5530.41C2243.73 5534.18 2274.85 5501.54 2271.25 5462.69L2270.09 5450.14C2268.18 5429.58 2276.16 5409.38 2291.37 5396.26L2300.65 5388.25C2329.39 5363.44 2329.39 5317.28 2300.65 5292.48L2291.37 5284.46C2276.16 5271.34 2268.18 5251.14 2270.09 5230.59L2271.25 5218.04C2274.85 5179.18 2243.73 5146.54 2206.68 5150.32L2194.71 5151.54C2175.11 5153.53 2155.85 5145.16 2143.34 5129.22L2135.7 5119.48ZM2103.55 5170.73C2098.35 5158.44 2081.73 5158.44 2076.53 5170.73L2054.56 5222.61C2051.37 5230.16 2043.09 5233.76 2035.74 5230.79L1985.22 5210.39C1973.26 5205.56 1961.51 5217.89 1966.11 5230.43L1985.56 5283.41C1988.39 5291.12 1984.97 5299.8 1977.77 5303.15L1928.29 5326.19C1916.58 5331.65 1916.58 5349.08 1928.29 5354.53L1977.77 5377.57C1984.97 5380.92 1988.39 5389.6 1985.56 5397.31L1966.11 5450.29C1961.51 5462.83 1973.26 5475.16 1985.22 5470.33L2035.74 5449.93C2043.09 5446.97 2051.37 5450.56 2054.56 5458.11L2076.53 5510C2081.73 5522.28 2098.35 5522.28 2103.55 5510L2125.52 5458.11C2128.72 5450.56 2136.99 5446.97 2144.34 5449.93L2194.86 5470.33C2206.82 5475.16 2218.57 5462.83 2213.97 5450.29L2194.52 5397.31C2191.69 5389.6 2195.12 5380.92 2202.31 5377.57L2251.79 5354.53C2263.5 5349.08 2263.5 5331.65 2251.79 5326.19L2202.31 5303.15C2195.12 5299.8 2191.69 5291.12 2194.52 5283.41L2213.97 5230.43C2218.57 5217.89 2206.82 5205.56 2194.86 5210.39L2144.34 5230.79C2136.99 5233.76 2128.72 5230.16 2125.52 5222.61L2103.55 5170.73Z" fill="#FAAB00"/>
<path d="M4185.27 5097.55H4133.75V5275.48L4013.79 5149.67L3977.36 5187.87L4097.32 5313.68H3927.67V5367.71H4097.32L3977.36 5493.52L4013.79 5531.73L4133.75 5405.92V5583.84H4185.27V5405.92L4305.23 5531.73L4341.66 5493.52L4221.7 5367.71H4391.35V5313.68H4221.7L4341.66 5187.87L4305.23 5149.67L4185.27 5275.48V5097.55Z" fill="#EA4336"/>
<path d="M444.414 4546.97C436.111 4565 425.731 4582.11 413.276 4598.28C401.414 4613.83 387.18 4627.83 370.573 4640.27C354.56 4652.09 335.877 4661.42 314.526 4668.26C293.174 4675.1 269.747 4678.52 244.244 4678.52C211.031 4678.52 180.486 4672.61 152.611 4660.8C124.735 4648.35 100.715 4631.25 80.5495 4609.48C60.3842 4587.71 44.6672 4561.89 33.3984 4532.04C22.1295 4502.18 16.4951 4469.84 16.4951 4435C16.4951 4400.17 22.1295 4367.82 33.3984 4337.97C44.6672 4308.11 60.3842 4282.3 80.5495 4260.53C100.715 4238.76 124.735 4221.96 152.611 4210.14C180.486 4197.7 211.031 4191.48 244.244 4191.48C269.747 4191.48 292.878 4194.9 313.636 4201.75C334.988 4208.59 353.67 4218.23 369.684 4230.67C386.291 4242.49 400.525 4256.48 412.387 4272.66C424.249 4288.21 433.738 4304.69 440.855 4322.11L350.112 4362.23C340.029 4338.59 326.091 4320.24 308.298 4307.18C290.505 4294.12 267.968 4287.58 240.685 4287.58C224.079 4287.58 208.065 4291.32 192.645 4298.78C177.817 4305.62 164.473 4315.58 152.611 4328.64C141.342 4341.08 132.149 4356.32 125.032 4374.36C118.508 4392.39 115.246 4412.61 115.246 4435C115.246 4457.4 118.508 4477.61 125.032 4495.65C132.149 4513.69 141.342 4529.24 152.611 4542.3C164.473 4554.74 177.817 4564.69 192.645 4572.16C208.065 4579 224.079 4582.42 240.685 4582.42C267.968 4582.42 291.099 4575.89 310.078 4562.83C329.65 4549.14 344.774 4530.48 355.45 4506.85L444.414 4546.97Z" fill="#010B17"/>
<path d="M497.973 4663.59V3995.55H596.724V4663.59H497.973Z" fill="#010B17"/>
<path d="M1466.22 4602.01H1460.88C1447.83 4623.79 1429.15 4642.13 1404.83 4657.06C1381.11 4671.37 1354.12 4678.52 1323.87 4678.52C1268.72 4678.52 1227.5 4661.42 1200.21 4627.21C1172.93 4592.37 1159.29 4546.34 1159.29 4489.12V4206.41H1258.04V4475.12C1258.04 4514.93 1266.64 4542.92 1283.84 4559.1C1301.63 4574.65 1324.76 4582.42 1353.23 4582.42C1369.84 4582.42 1384.67 4578.69 1397.71 4571.22C1411.36 4563.76 1422.92 4553.81 1432.41 4541.37C1441.9 4528.31 1449.02 4513.69 1453.76 4497.52C1458.51 4480.72 1460.88 4463.3 1460.88 4445.27V4206.41H1559.63V4663.59H1466.22V4602.01Z" fill="#010B17"/>
<path d="M1966.85 4604.81H1961.51C1949.65 4624.72 1931.56 4642.13 1907.24 4657.06C1882.93 4671.37 1853.87 4678.52 1820.06 4678.52C1792.18 4678.52 1765.49 4672.61 1739.99 4660.8C1715.08 4648.35 1693.14 4631.25 1674.16 4609.48C1655.18 4587.71 1640.05 4562.21 1628.79 4532.97C1617.52 4503.11 1611.88 4470.46 1611.88 4435C1611.88 4399.55 1617.52 4367.2 1628.79 4337.97C1640.05 4308.11 1655.18 4282.3 1674.16 4260.53C1693.14 4238.76 1715.08 4221.96 1739.99 4210.14C1765.49 4197.7 1792.18 4191.48 1820.06 4191.48C1853.87 4191.48 1882.93 4198.95 1907.24 4213.88C1931.56 4228.18 1949.65 4245.29 1961.51 4265.19H1966.85L1961.51 4201.75V3995.55H2060.26V4663.59H1966.85V4604.81ZM1838.74 4582.42C1855.35 4582.42 1871.36 4579 1886.78 4572.16C1902.8 4565.32 1916.44 4555.67 1927.71 4543.23C1939.57 4530.79 1949.06 4515.55 1956.17 4497.52C1963.29 4478.86 1966.85 4458.02 1966.85 4435C1966.85 4411.99 1963.29 4391.46 1956.17 4373.42C1949.06 4354.76 1939.57 4339.21 1927.71 4326.77C1916.44 4314.33 1902.8 4304.69 1886.78 4297.85C1871.36 4291.01 1855.35 4287.58 1838.74 4287.58C1821.54 4287.58 1805.23 4291.01 1789.81 4297.85C1774.39 4304.69 1760.75 4314.64 1748.89 4327.7C1737.62 4340.14 1728.43 4355.38 1721.31 4373.42C1714.19 4391.46 1710.63 4411.99 1710.63 4435C1710.63 4458.02 1714.19 4478.54 1721.31 4496.58C1728.43 4514.62 1737.62 4530.17 1748.89 4543.23C1760.75 4555.67 1774.39 4565.32 1789.81 4572.16C1805.23 4579 1821.54 4582.42 1838.74 4582.42Z" fill="#010B17"/>
<path d="M880.243 4195.42C751.648 4195.42 647.401 4304.75 647.401 4439.62C775.996 4439.62 880.243 4330.29 880.243 4195.42Z" fill="#4285F4"/>
<path d="M880.243 4683.82C751.648 4683.82 647.401 4574.49 647.401 4439.62C775.996 4439.62 880.243 4548.95 880.243 4683.82Z" fill="#4285F4"/>
<path d="M880.243 4195.42C1008.84 4195.42 1113.09 4304.75 1113.09 4439.62C984.49 4439.62 880.243 4330.29 880.243 4195.42Z" fill="#4285F4"/>
<path d="M880.243 4683.82C1008.84 4683.82 1113.09 4574.49 1113.09 4439.62C984.49 4439.62 880.243 4548.95 880.243 4683.82Z" fill="#4285F4"/>
<path d="M2733.75 4546.97C2725.45 4565 2715.07 4582.11 2702.61 4598.28C2690.75 4613.83 2676.52 4627.83 2659.91 4640.27C2643.9 4652.09 2625.22 4661.42 2603.86 4668.26C2582.51 4675.1 2559.09 4678.52 2533.58 4678.52C2500.37 4678.52 2469.82 4672.61 2441.95 4660.8C2414.07 4648.35 2390.05 4631.25 2369.89 4609.48C2349.72 4587.71 2334.01 4561.89 2322.74 4532.04C2311.47 4502.18 2305.83 4469.84 2305.83 4435C2305.83 4400.17 2311.47 4367.82 2322.74 4337.97C2334.01 4308.11 2349.72 4282.3 2369.89 4260.53C2390.05 4238.76 2414.07 4221.96 2441.95 4210.14C2469.82 4197.7 2500.37 4191.48 2533.58 4191.48C2559.09 4191.48 2582.22 4194.9 2602.97 4201.75C2624.33 4208.59 2643.01 4218.23 2659.02 4230.67C2675.63 4242.49 2689.86 4256.48 2701.72 4272.66C2713.59 4288.21 2723.08 4304.69 2730.19 4322.11L2639.45 4362.23C2629.37 4338.59 2615.43 4320.24 2597.64 4307.18C2579.84 4294.12 2557.31 4287.58 2530.02 4287.58C2513.42 4287.58 2497.4 4291.32 2481.98 4298.78C2467.16 4305.62 2453.81 4315.58 2441.95 4328.64C2430.68 4341.08 2421.49 4356.32 2414.37 4374.36C2407.85 4392.39 2404.58 4412.61 2404.58 4435C2404.58 4457.4 2407.85 4477.61 2414.37 4495.65C2421.49 4513.69 2430.68 4529.24 2441.95 4542.3C2453.81 4554.74 2467.16 4564.69 2481.98 4572.16C2497.4 4579 2513.42 4582.42 2530.02 4582.42C2557.31 4582.42 2580.44 4575.89 2599.42 4562.83C2618.99 4549.14 2634.11 4530.48 2644.79 4506.85L2733.75 4546.97Z" fill="#010B17"/>
<path fill-rule="evenodd" clip-rule="evenodd" d="M3007.57 4197.19C2878.87 4197.19 2774.53 4306.61 2774.53 4441.59C2774.53 4576.56 2878.87 4685.98 3007.57 4685.98C3136.27 4685.98 3240.6 4576.56 3240.6 4441.59C3240.6 4306.61 3136.27 4197.19 3007.57 4197.19ZM3007.57 4604.52C2921.77 4604.52 2852.21 4531.57 2852.21 4441.59H3162.92C3162.92 4531.57 3093.37 4604.52 3007.57 4604.52Z" fill="#34A853"/>
<path d="M3303.02 4213.82H3396.43V4275.4H3401.77C3415.41 4253.01 3434.39 4234.66 3458.71 4220.36C3483.03 4206.05 3508.83 4198.9 3536.11 4198.9C3568.73 4198.9 3596.61 4206.98 3619.74 4223.15C3643.46 4238.7 3660.66 4259.23 3671.34 4284.73C3686.16 4260.48 3706.03 4240.26 3730.94 4224.09C3755.85 4207.29 3785.8 4198.9 3820.8 4198.9C3847.48 4198.9 3870.62 4203.56 3890.19 4212.89C3909.76 4221.6 3925.77 4234.04 3938.23 4250.21C3951.28 4266.38 3961.06 4285.98 3967.59 4308.99C3974.11 4331.39 3977.37 4356.58 3977.37 4384.57V4671.01H3878.62V4402.3C3878.62 4362.49 3871.21 4334.81 3856.38 4319.26C3842.15 4303.08 3821.09 4295 3793.22 4295C3777.2 4295 3762.67 4298.73 3749.62 4306.19C3737.17 4313.66 3726.49 4323.92 3717.6 4336.98C3708.7 4349.42 3701.88 4364.04 3697.13 4380.84C3692.39 4397.63 3690.02 4415.36 3690.02 4434.02V4671.01H3591.27V4402.3C3591.27 4362.49 3583.56 4334.81 3568.14 4319.26C3553.31 4303.08 3531.66 4295 3503.19 4295C3487.77 4295 3473.83 4298.73 3461.38 4306.19C3448.92 4313.66 3438.25 4323.92 3429.35 4336.98C3420.46 4349.42 3413.63 4364.04 3408.89 4380.84C3404.15 4397.63 3401.77 4415.36 3401.77 4434.02V4671.01H3303.02V4213.82Z" fill="#010B17"/>
<path d="M4055.85 4213.82H4149.26V4275.4H4154.6C4168.24 4253.01 4187.22 4234.66 4211.54 4220.36C4235.85 4206.05 4261.65 4198.9 4288.94 4198.9C4321.56 4198.9 4349.43 4206.98 4372.56 4223.15C4396.29 4238.7 4413.49 4259.23 4424.16 4284.73C4438.99 4260.48 4458.86 4240.26 4483.77 4224.09C4508.68 4207.29 4538.63 4198.9 4573.62 4198.9C4600.31 4198.9 4623.44 4203.56 4643.01 4212.89C4662.59 4221.6 4678.6 4234.04 4691.06 4250.21C4704.1 4266.38 4713.89 4285.98 4720.41 4308.99C4726.94 4331.39 4730.2 4356.58 4730.2 4384.57V4671.01H4631.45V4402.3C4631.45 4362.49 4624.03 4334.81 4609.21 4319.26C4594.97 4303.08 4573.92 4295 4546.04 4295C4530.03 4295 4515.5 4298.73 4502.45 4306.19C4490 4313.66 4479.32 4323.92 4470.42 4336.98C4461.53 4349.42 4454.71 4364.04 4449.96 4380.84C4445.22 4397.63 4442.84 4415.36 4442.84 4434.02V4671.01H4344.09V4402.3C4344.09 4362.49 4336.38 4334.81 4320.96 4319.26C4306.14 4303.08 4284.49 4295 4256.02 4295C4240.6 4295 4226.66 4298.73 4214.21 4306.19C4201.75 4313.66 4191.08 4323.92 4182.18 4336.98C4173.28 4349.42 4166.46 4364.04 4161.72 4380.84C4156.97 4397.63 4154.6 4415.36 4154.6 4434.02V4671.01H4055.85V4213.82Z" fill="#010B17"/>
<path d="M5112.04 4609.43H5106.71C5093.66 4631.2 5074.98 4649.55 5050.66 4664.48C5026.93 4678.78 4999.95 4685.94 4969.7 4685.94C4914.54 4685.94 4873.32 4668.83 4846.04 4634.62C4818.76 4599.79 4805.12 4553.76 4805.12 4496.53V4213.82H4903.87V4482.54C4903.87 4522.35 4912.47 4550.34 4929.67 4566.51C4947.46 4582.06 4970.59 4589.83 4999.06 4589.83C5015.67 4589.83 5030.49 4586.1 5043.54 4578.64C5057.18 4571.17 5068.75 4561.22 5078.24 4548.78C5087.73 4535.72 5094.84 4521.1 5099.59 4504.93C5104.33 4488.13 5106.71 4470.72 5106.71 4452.68V4213.82H5205.46V4671.01H5112.04V4609.43Z" fill="#010B17"/>
<path d="M5380.38 4275.4H5385.71C5398.76 4253.63 5417.15 4235.59 5440.87 4221.29C5465.19 4206.36 5492.47 4198.9 5522.72 4198.9C5577.88 4198.9 5619.1 4216.31 5646.38 4251.15C5673.66 4285.36 5687.3 4331.07 5687.3 4388.3V4671.01H5588.55V4402.3C5588.55 4362.49 5579.66 4334.81 5561.86 4319.26C5544.66 4303.08 5521.83 4295 5493.36 4295C5476.16 4295 5461.04 4298.73 5447.99 4306.19C5434.94 4313.66 5423.67 4323.92 5414.18 4336.98C5404.69 4349.42 5397.58 4364.04 5392.83 4380.84C5388.09 4397.01 5385.71 4414.11 5385.71 4432.15V4671.01H5286.96V4213.82H5380.38V4275.4Z" fill="#010B17"/>
<path d="M5822.19 4338.69C5803.21 4338.69 5787.2 4331.84 5774.15 4318.16C5761.69 4304.48 5755.47 4287.99 5755.47 4268.71C5755.47 4249.43 5761.69 4232.94 5774.15 4219.26C5787.2 4205.58 5803.21 4198.73 5822.19 4198.73C5840.57 4198.73 5855.99 4205.58 5868.45 4219.26C5881.5 4232.94 5888.02 4249.43 5888.02 4268.71C5888.02 4287.99 5881.5 4304.48 5868.45 4318.16C5855.99 4331.84 5840.57 4338.69 5822.19 4338.69ZM5772.37 4671.01V4384.03H5871.12V4671.01H5772.37Z" fill="#010B17"/>
<path d="M6004.01 4305.26H5927.5V4213.82H6004.01V4073.87H6102.76V4213.82H6210.41V4305.26H6102.76V4508.66C6102.76 4519.86 6103.95 4530.12 6106.32 4539.45C6108.69 4548.78 6112.25 4556.56 6116.99 4562.78C6127.08 4574.59 6139.83 4580.5 6155.25 4580.5C6164.74 4580.5 6172.15 4579.88 6177.49 4578.64C6182.83 4576.77 6188.46 4574.28 6194.39 4571.17L6224.64 4662.61C6212.19 4667.59 6199.14 4671.32 6185.5 4673.81C6171.86 4676.92 6156.44 4678.47 6139.24 4678.47C6118.48 4678.47 6100.09 4675.05 6084.08 4668.21C6068.06 4661.37 6054.13 4652.04 6042.26 4640.22C6016.76 4613.47 6004.01 4577.08 6004.01 4531.05V4305.26Z" fill="#010B17"/>
<path d="M6413.97 4644.88L6232.48 4213.82H6342.8L6462.9 4517.06H6467.35L6583.89 4213.82H6693.32L6420.2 4872.54H6315.22L6413.97 4644.88Z" fill="#010B17"/>
<path d="M5889.48 4267.77C5889.48 4307.35 5858.89 4339.44 5821.15 4339.44C5783.41 4339.44 5752.82 4307.35 5752.82 4267.77C5752.82 4228.19 5783.41 4196.11 5821.15 4196.11C5858.89 4196.11 5889.48 4228.19 5889.48 4267.77Z" fill="#010B17"/>
</svg>
