<svg width="4624" height="1908" viewBox="0 0 4624 1908" fill="none" xmlns="http://www.w3.org/2000/svg">
<path d="M41.6932 387V96.0909H153.057C174.08 96.0909 191.551 99.4053 205.472 106.034C219.487 112.568 229.951 121.517 236.864 132.881C243.871 144.244 247.375 157.123 247.375 171.517C247.375 183.354 245.102 193.487 240.557 201.915C236.011 210.248 229.903 217.019 222.233 222.227C214.562 227.436 205.992 231.176 196.523 233.449V236.29C206.845 236.858 216.741 240.03 226.21 245.807C235.775 251.489 243.587 259.538 249.648 269.955C255.708 280.371 258.739 292.966 258.739 307.739C258.739 322.795 255.093 336.337 247.801 348.364C240.509 360.295 229.525 369.718 214.847 376.631C200.169 383.544 181.703 387 159.449 387H41.6932ZM94.392 342.966H151.068C170.197 342.966 183.975 339.32 192.403 332.028C200.926 324.642 205.188 315.172 205.188 303.619C205.188 295.002 203.057 287.237 198.795 280.324C194.534 273.316 188.473 267.824 180.614 263.847C172.754 259.775 163.379 257.739 152.489 257.739H94.392V342.966ZM94.392 219.812H146.523C155.614 219.812 163.805 218.155 171.097 214.841C178.388 211.432 184.117 206.65 188.284 200.494C192.545 194.244 194.676 186.858 194.676 178.335C194.676 167.066 190.699 157.786 182.744 150.494C174.884 143.203 163.189 139.557 147.659 139.557H94.392V219.812ZM398.902 391.261C377.027 391.261 358.135 386.716 342.226 377.625C326.411 368.439 314.243 355.466 305.72 338.705C297.197 321.848 292.936 302.009 292.936 279.188C292.936 256.744 297.197 237.047 305.72 220.097C314.338 203.051 326.364 189.794 341.8 180.324C357.235 170.759 375.37 165.977 396.203 165.977C409.65 165.977 422.339 168.155 434.271 172.511C446.298 176.773 456.904 183.402 466.089 192.398C475.37 201.394 482.661 212.852 487.964 226.773C493.268 240.598 495.919 257.076 495.919 276.205V291.972H317.084V257.312H446.629C446.535 247.464 444.404 238.705 440.237 231.034C436.071 223.269 430.247 217.161 422.766 212.71C415.379 208.259 406.762 206.034 396.913 206.034C386.402 206.034 377.169 208.591 369.214 213.705C361.26 218.723 355.057 225.352 350.607 233.591C346.25 241.735 344.025 250.684 343.93 260.438V290.693C343.93 303.383 346.25 314.273 350.891 323.364C355.531 332.36 362.018 339.273 370.351 344.102C378.684 348.837 388.438 351.205 399.612 351.205C407.093 351.205 413.864 350.163 419.925 348.08C425.985 345.902 431.241 342.729 435.692 338.562C440.143 334.396 443.504 329.235 445.777 323.08L493.788 328.477C490.758 341.167 484.982 352.246 476.459 361.716C468.031 371.091 457.235 378.383 444.072 383.591C430.91 388.705 415.853 391.261 398.902 391.261ZM701.423 391.403C687.598 391.403 675.145 388.941 664.065 384.017C653.08 378.998 644.368 371.612 637.929 361.858C631.584 352.104 628.412 340.078 628.412 325.778C628.412 313.468 630.685 303.288 635.23 295.239C639.776 287.189 645.978 280.75 653.838 275.92C661.698 271.091 670.552 267.445 680.401 264.983C690.344 262.426 700.618 260.58 711.224 259.443C724.009 258.117 734.378 256.934 742.332 255.892C750.287 254.756 756.063 253.051 759.662 250.778C763.355 248.411 765.202 244.765 765.202 239.841V238.989C765.202 228.288 762.029 220.002 755.685 214.131C749.34 208.259 740.202 205.324 728.27 205.324C715.675 205.324 705.685 208.07 698.298 213.562C691.007 219.055 686.082 225.542 683.526 233.023L635.514 226.205C639.302 212.947 645.552 201.867 654.264 192.966C662.976 183.97 673.63 177.246 686.224 172.795C698.819 168.25 712.74 165.977 727.986 165.977C738.497 165.977 748.961 167.208 759.378 169.67C769.795 172.133 779.312 176.205 787.929 181.886C796.546 187.473 803.459 195.097 808.668 204.756C813.971 214.415 816.622 226.489 816.622 240.977V387H767.19V357.028H765.486C762.361 363.089 757.957 368.771 752.276 374.074C746.688 379.282 739.634 383.496 731.111 386.716C722.683 389.841 712.787 391.403 701.423 391.403ZM714.776 353.619C725.098 353.619 734.046 351.583 741.622 347.511C749.198 343.345 755.022 337.852 759.094 331.034C763.26 324.216 765.344 316.782 765.344 308.733V283.023C763.734 284.348 760.988 285.58 757.105 286.716C753.317 287.852 749.056 288.847 744.321 289.699C739.586 290.551 734.899 291.309 730.259 291.972C725.618 292.634 721.594 293.203 718.185 293.676C710.514 294.718 703.649 296.422 697.588 298.79C691.527 301.157 686.745 304.472 683.241 308.733C679.738 312.9 677.986 318.297 677.986 324.926C677.986 334.396 681.442 341.545 688.355 346.375C695.268 351.205 704.075 353.619 714.776 353.619ZM967.545 468.818V168.818H1018.11V204.898H1021.1C1023.75 199.595 1027.49 193.96 1032.32 187.994C1037.15 181.934 1043.68 176.773 1051.92 172.511C1060.16 168.155 1070.67 165.977 1083.45 165.977C1100.31 165.977 1115.51 170.286 1129.05 178.903C1142.69 187.426 1153.48 200.068 1161.44 216.83C1169.49 233.496 1173.51 253.951 1173.51 278.193C1173.51 302.152 1169.58 322.511 1161.72 339.273C1153.86 356.034 1143.16 368.818 1129.62 377.625C1116.08 386.432 1100.74 390.835 1083.6 390.835C1071.1 390.835 1060.73 388.752 1052.49 384.585C1044.25 380.419 1037.62 375.4 1032.6 369.528C1027.68 363.562 1023.84 357.928 1021.1 352.625H1018.97V468.818H967.545ZM1017.97 277.909C1017.97 292.019 1019.96 304.377 1023.94 314.983C1028.01 325.589 1033.83 333.875 1041.41 339.841C1049.08 345.712 1058.36 348.648 1069.25 348.648C1080.61 348.648 1090.13 345.617 1097.8 339.557C1105.47 333.402 1111.25 325.021 1115.13 314.415C1119.11 303.714 1121.1 291.545 1121.1 277.909C1121.1 264.367 1119.16 252.341 1115.27 241.83C1111.39 231.318 1105.61 223.08 1097.94 217.114C1090.27 211.148 1080.71 208.165 1069.25 208.165C1058.27 208.165 1048.94 211.053 1041.27 216.83C1033.6 222.606 1027.77 230.703 1023.8 241.119C1019.91 251.536 1017.97 263.799 1017.97 277.909ZM1280.33 391.403C1266.5 391.403 1254.05 388.941 1242.97 384.017C1231.99 378.998 1223.27 371.612 1216.84 361.858C1210.49 352.104 1207.32 340.078 1207.32 325.778C1207.32 313.468 1209.59 303.288 1214.14 295.239C1218.68 287.189 1224.88 280.75 1232.74 275.92C1240.6 271.091 1249.46 267.445 1259.31 264.983C1269.25 262.426 1279.52 260.58 1290.13 259.443C1302.91 258.117 1313.28 256.934 1321.24 255.892C1329.19 254.756 1334.97 253.051 1338.57 250.778C1342.26 248.411 1344.11 244.765 1344.11 239.841V238.989C1344.11 228.288 1340.94 220.002 1334.59 214.131C1328.25 208.259 1319.11 205.324 1307.18 205.324C1294.58 205.324 1284.59 208.07 1277.2 213.562C1269.91 219.055 1264.99 225.542 1262.43 233.023L1214.42 226.205C1218.21 212.947 1224.46 201.867 1233.17 192.966C1241.88 183.97 1252.54 177.246 1265.13 172.795C1277.73 168.25 1291.65 165.977 1306.89 165.977C1317.4 165.977 1327.87 167.208 1338.28 169.67C1348.7 172.133 1358.22 176.205 1366.84 181.886C1375.45 187.473 1382.37 195.097 1387.57 204.756C1392.88 214.415 1395.53 226.489 1395.53 240.977V387H1346.1V357.028H1344.39C1341.27 363.089 1336.86 368.771 1331.18 374.074C1325.59 379.282 1318.54 383.496 1310.02 386.716C1301.59 389.841 1291.69 391.403 1280.33 391.403ZM1293.68 353.619C1304 353.619 1312.95 351.583 1320.53 347.511C1328.1 343.345 1333.93 337.852 1338 331.034C1342.17 324.216 1344.25 316.782 1344.25 308.733V283.023C1342.64 284.348 1339.89 285.58 1336.01 286.716C1332.22 287.852 1327.96 288.847 1323.23 289.699C1318.49 290.551 1313.8 291.309 1309.16 291.972C1304.52 292.634 1300.5 293.203 1297.09 293.676C1289.42 294.718 1282.55 296.422 1276.49 298.79C1270.43 301.157 1265.65 304.472 1262.15 308.733C1258.64 312.9 1256.89 318.297 1256.89 324.926C1256.89 334.396 1260.35 341.545 1267.26 346.375C1274.17 351.205 1282.98 353.619 1293.68 353.619ZM1447.23 387V168.818H1497.09V205.182H1499.36C1503.34 192.587 1510.16 182.881 1519.82 176.062C1529.57 169.15 1540.7 165.693 1553.2 165.693C1556.04 165.693 1559.21 165.835 1562.72 166.119C1566.31 166.309 1569.3 166.64 1571.66 167.114V214.415C1569.49 213.657 1566.03 212.994 1561.3 212.426C1556.66 211.763 1552.16 211.432 1547.8 211.432C1538.43 211.432 1530 213.468 1522.52 217.54C1515.13 221.517 1509.31 227.057 1505.05 234.159C1500.78 241.261 1498.65 249.453 1498.65 258.733V387H1447.23ZM1726.49 168.818V208.591H1601.07V168.818H1726.49ZM1632.03 116.545H1683.45V321.375C1683.45 328.288 1684.5 333.591 1686.58 337.284C1688.76 340.883 1691.6 343.345 1695.1 344.67C1698.61 345.996 1702.49 346.659 1706.75 346.659C1709.97 346.659 1712.91 346.422 1715.56 345.949C1718.3 345.475 1720.39 345.049 1721.81 344.67L1730.47 384.869C1727.73 385.816 1723.8 386.858 1718.68 387.994C1713.66 389.131 1707.51 389.794 1700.22 389.983C1687.34 390.362 1675.74 388.42 1665.41 384.159C1655.09 379.803 1646.9 373.08 1640.84 363.989C1634.88 354.898 1631.94 343.534 1632.03 329.898V116.545ZM1963.89 391.261C1942.58 391.261 1924.12 386.574 1908.49 377.199C1892.87 367.824 1880.74 354.708 1872.13 337.852C1863.6 320.996 1859.34 301.299 1859.34 278.761C1859.34 256.223 1863.6 236.479 1872.13 219.528C1880.74 202.578 1892.87 189.415 1908.49 180.04C1924.12 170.665 1942.58 165.977 1963.89 165.977C1985.19 165.977 2003.66 170.665 2019.29 180.04C2034.91 189.415 2046.98 202.578 2055.51 219.528C2064.12 236.479 2068.43 256.223 2068.43 278.761C2068.43 301.299 2064.12 320.996 2055.51 337.852C2046.98 354.708 2034.91 367.824 2019.29 377.199C2003.66 386.574 1985.19 391.261 1963.89 391.261ZM1964.17 350.068C1975.72 350.068 1985.38 346.896 1993.15 340.551C2000.91 334.112 2006.69 325.494 2010.48 314.699C2014.36 303.903 2016.3 291.877 2016.3 278.619C2016.3 265.267 2014.36 253.193 2010.48 242.398C2006.69 231.508 2000.91 222.843 1993.15 216.403C1985.38 209.964 1975.72 206.744 1964.17 206.744C1952.33 206.744 1942.49 209.964 1934.63 216.403C1926.86 222.843 1921.04 231.508 1917.15 242.398C1913.37 253.193 1911.47 265.267 1911.47 278.619C1911.47 291.877 1913.37 303.903 1917.15 314.699C1921.04 325.494 1926.86 334.112 1934.63 340.551C1942.49 346.896 1952.33 350.068 1964.17 350.068ZM2222.59 168.818V208.591H2093.61V168.818H2222.59ZM2125.86 387V148.222C2125.86 133.544 2128.89 121.328 2134.95 111.574C2141.1 101.82 2149.34 94.5284 2159.66 89.6989C2169.98 84.8693 2181.44 82.4545 2194.04 82.4545C2202.94 82.4545 2210.85 83.1648 2217.76 84.5852C2224.67 86.0057 2229.79 87.2841 2233.1 88.4205L2222.87 128.193C2220.69 127.53 2217.95 126.867 2214.63 126.205C2211.32 125.447 2207.63 125.068 2203.55 125.068C2193.99 125.068 2187.22 127.388 2183.24 132.028C2179.36 136.574 2177.42 143.108 2177.42 151.631V387H2125.86ZM2471.03 168.818V208.591H2345.6V168.818H2471.03ZM2376.57 116.545H2427.99V321.375C2427.99 328.288 2429.03 333.591 2431.11 337.284C2433.29 340.883 2436.13 343.345 2439.63 344.67C2443.14 345.996 2447.02 346.659 2451.28 346.659C2454.5 346.659 2457.44 346.422 2460.09 345.949C2462.83 345.475 2464.92 345.049 2466.34 344.67L2475 384.869C2472.26 385.816 2468.33 386.858 2463.21 387.994C2458.19 389.131 2452.04 389.794 2444.75 389.983C2431.87 390.362 2420.27 388.42 2409.95 384.159C2399.62 379.803 2391.43 373.08 2385.37 363.989C2379.41 354.898 2376.47 343.534 2376.57 329.898V116.545ZM2570.14 259.159V387H2518.72V96.0909H2569V205.892H2571.56C2576.67 193.581 2584.58 183.875 2595.28 176.773C2606.08 169.576 2619.81 165.977 2636.47 165.977C2651.62 165.977 2664.83 169.15 2676.1 175.494C2687.37 181.839 2696.08 191.119 2702.24 203.335C2708.49 215.551 2711.62 230.466 2711.62 248.08V387H2660.19V256.034C2660.19 241.356 2656.41 229.945 2648.83 221.801C2641.35 213.562 2630.84 209.443 2617.3 209.443C2608.21 209.443 2600.06 211.432 2592.87 215.409C2585.76 219.292 2580.18 224.926 2576.1 232.312C2572.13 239.699 2570.14 248.648 2570.14 259.159ZM2860.62 391.261C2838.75 391.261 2819.85 386.716 2803.94 377.625C2788.13 368.439 2775.96 355.466 2767.44 338.705C2758.92 321.848 2754.65 302.009 2754.65 279.188C2754.65 256.744 2758.92 237.047 2767.44 220.097C2776.06 203.051 2788.08 189.794 2803.52 180.324C2818.95 170.759 2837.09 165.977 2857.92 165.977C2871.37 165.977 2884.06 168.155 2895.99 172.511C2908.02 176.773 2918.62 183.402 2927.81 192.398C2937.09 201.394 2944.38 212.852 2949.68 226.773C2954.99 240.598 2957.64 257.076 2957.64 276.205V291.972H2778.8V257.312H2908.35C2908.25 247.464 2906.12 238.705 2901.96 231.034C2897.79 223.269 2891.97 217.161 2884.48 212.71C2877.1 208.259 2868.48 206.034 2858.63 206.034C2848.12 206.034 2838.89 208.591 2830.93 213.705C2822.98 218.723 2816.78 225.352 2812.33 233.591C2807.97 241.735 2805.74 250.684 2805.65 260.438V290.693C2805.65 303.383 2807.97 314.273 2812.61 323.364C2817.25 332.36 2823.74 339.273 2832.07 344.102C2840.4 348.837 2850.16 351.205 2861.33 351.205C2868.81 351.205 2875.58 350.163 2881.64 348.08C2887.7 345.902 2892.96 342.729 2897.41 338.562C2901.86 334.396 2905.22 329.235 2907.5 323.08L2955.51 328.477C2952.48 341.167 2946.7 352.246 2938.18 361.716C2929.75 371.091 2918.95 378.383 2905.79 383.591C2892.63 388.705 2877.57 391.261 2860.62 391.261ZM3196.95 391.261C3175.07 391.261 3156.18 386.716 3140.27 377.625C3124.46 368.439 3112.29 355.466 3103.77 338.705C3095.24 321.848 3090.98 302.009 3090.98 279.188C3090.98 256.744 3095.24 237.047 3103.77 220.097C3112.38 203.051 3124.41 189.794 3139.85 180.324C3155.28 170.759 3173.42 165.977 3194.25 165.977C3207.7 165.977 3220.39 168.155 3232.32 172.511C3244.34 176.773 3254.95 183.402 3264.14 192.398C3273.42 201.394 3280.71 212.852 3286.01 226.773C3291.31 240.598 3293.97 257.076 3293.97 276.205V291.972H3115.13V257.312H3244.68C3244.58 247.464 3242.45 238.705 3238.28 231.034C3234.12 223.269 3228.29 217.161 3220.81 212.71C3213.43 208.259 3204.81 206.034 3194.96 206.034C3184.45 206.034 3175.22 208.591 3167.26 213.705C3159.31 218.723 3153.1 225.352 3148.65 233.591C3144.3 241.735 3142.07 250.684 3141.98 260.438V290.693C3141.98 303.383 3144.3 314.273 3148.94 323.364C3153.58 332.36 3160.06 339.273 3168.4 344.102C3176.73 348.837 3186.48 351.205 3197.66 351.205C3205.14 351.205 3211.91 350.163 3217.97 348.08C3224.03 345.902 3229.29 342.729 3233.74 338.562C3238.19 334.396 3241.55 329.235 3243.82 323.08L3291.84 328.477C3288.8 341.167 3283.03 352.246 3274.51 361.716C3266.08 371.091 3255.28 378.383 3242.12 383.591C3228.96 388.705 3213.9 391.261 3196.95 391.261ZM3526.1 168.818L3448.4 387H3391.59L3313.89 168.818H3368.72L3418.86 330.892H3421.13L3471.42 168.818H3526.1ZM3650.86 391.261C3628.98 391.261 3610.09 386.716 3594.18 377.625C3578.36 368.439 3566.2 355.466 3557.67 338.705C3549.15 321.848 3544.89 302.009 3544.89 279.188C3544.89 256.744 3549.15 237.047 3557.67 220.097C3566.29 203.051 3578.32 189.794 3593.75 180.324C3609.19 170.759 3627.32 165.977 3648.16 165.977C3661.6 165.977 3674.29 168.155 3686.22 172.511C3698.25 176.773 3708.86 183.402 3718.04 192.398C3727.32 201.394 3734.61 212.852 3739.92 226.773C3745.22 240.598 3747.87 257.076 3747.87 276.205V291.972H3569.04V257.312H3698.58C3698.49 247.464 3696.36 238.705 3692.19 231.034C3688.02 223.269 3682.2 217.161 3674.72 212.71C3667.33 208.259 3658.71 206.034 3648.87 206.034C3638.36 206.034 3629.12 208.591 3621.17 213.705C3613.21 218.723 3607.01 225.352 3602.56 233.591C3598.2 241.735 3595.98 250.684 3595.88 260.438V290.693C3595.88 303.383 3598.2 314.273 3602.84 323.364C3607.48 332.36 3613.97 339.273 3622.3 344.102C3630.64 348.837 3640.39 351.205 3651.57 351.205C3659.05 351.205 3665.82 350.163 3671.88 348.08C3677.94 345.902 3683.19 342.729 3687.64 338.562C3692.1 334.396 3695.46 329.235 3697.73 323.08L3745.74 328.477C3742.71 341.167 3736.93 352.246 3728.41 361.716C3719.98 371.091 3709.19 378.383 3696.03 383.591C3682.86 388.705 3667.81 391.261 3650.86 391.261ZM3842.79 259.159V387H3791.37V168.818H3840.52V205.892H3843.08C3848.1 193.676 3856.1 183.97 3867.08 176.773C3878.16 169.576 3891.85 165.977 3908.13 165.977C3923.19 165.977 3936.31 169.197 3947.48 175.636C3958.75 182.076 3967.46 191.403 3973.62 203.619C3979.87 215.835 3982.95 230.655 3982.85 248.08V387H3931.43V256.034C3931.43 241.451 3927.64 230.04 3920.07 221.801C3912.59 213.562 3902.22 209.443 3888.96 209.443C3879.96 209.443 3871.96 211.432 3864.95 215.409C3858.04 219.292 3852.6 224.926 3848.62 232.312C3844.74 239.699 3842.79 248.648 3842.79 259.159ZM4144.07 168.818V208.591H4018.65V168.818H4144.07ZM4049.61 116.545H4101.03V321.375C4101.03 328.288 4102.07 333.591 4104.16 337.284C4106.34 340.883 4109.18 343.345 4112.68 344.67C4116.18 345.996 4120.07 346.659 4124.33 346.659C4127.55 346.659 4130.48 346.422 4133.13 345.949C4135.88 345.475 4137.96 345.049 4139.38 344.67L4148.05 384.869C4145.3 385.816 4141.37 386.858 4136.26 387.994C4131.24 389.131 4125.09 389.794 4117.79 389.983C4104.92 390.362 4093.31 388.42 4082.99 384.159C4072.67 379.803 4064.48 373.08 4058.42 363.989C4052.45 354.898 4049.52 343.534 4049.61 329.898V116.545Z" fill="black"/>
<path d="M39.4205 652.818H90.8409V883.5C90.8409 899.22 87.858 912.193 81.892 922.42C75.9261 932.648 67.3087 940.271 56.0398 945.29C44.7708 950.309 31.0871 952.818 14.9886 952.818C13.0947 952.818 11.3428 952.771 9.73295 952.676C8.12311 952.676 6.37121 952.629 4.47727 952.534V910.631C5.89773 910.725 7.17614 910.773 8.3125 910.773C9.44886 910.867 10.6326 910.915 11.8636 910.915C21.7121 910.915 28.767 908.5 33.0284 903.67C37.2898 898.936 39.4205 891.975 39.4205 882.79V652.818ZM64.9886 621.852C56.75 621.852 49.6951 619.153 43.8239 613.756C38.0473 608.263 35.1591 601.682 35.1591 594.011C35.1591 586.246 38.0473 579.665 43.8239 574.267C49.6951 568.775 56.75 566.028 64.9886 566.028C73.1326 566.028 80.0928 568.775 85.8693 574.267C91.7405 579.665 94.6761 586.246 94.6761 594.011C94.6761 601.682 91.7405 608.263 85.8693 613.756C80.0928 619.153 73.1326 621.852 64.9886 621.852ZM238.888 875.261C217.581 875.261 199.115 870.574 183.49 861.199C167.865 851.824 155.744 838.708 147.126 821.852C138.604 804.996 134.342 785.299 134.342 762.761C134.342 740.223 138.604 720.479 147.126 703.528C155.744 686.578 167.865 673.415 183.49 664.04C199.115 654.665 217.581 649.977 238.888 649.977C260.195 649.977 278.661 654.665 294.286 664.04C309.911 673.415 321.984 686.578 330.507 703.528C339.125 720.479 343.433 740.223 343.433 762.761C343.433 785.299 339.125 804.996 330.507 821.852C321.984 838.708 309.911 851.824 294.286 861.199C278.661 870.574 260.195 875.261 238.888 875.261ZM239.172 834.068C250.725 834.068 260.384 830.896 268.149 824.551C275.914 818.112 281.691 809.494 285.479 798.699C289.361 787.903 291.303 775.877 291.303 762.619C291.303 749.267 289.361 737.193 285.479 726.398C281.691 715.508 275.914 706.843 268.149 700.403C260.384 693.964 250.725 690.744 239.172 690.744C227.335 690.744 217.486 693.964 209.626 700.403C201.861 706.843 196.037 715.508 192.155 726.398C188.367 737.193 186.473 749.267 186.473 762.619C186.473 775.877 188.367 787.903 192.155 798.699C196.037 809.494 201.861 818.112 209.626 824.551C217.486 830.896 227.335 834.068 239.172 834.068ZM387.077 871V652.818H438.497V871H387.077ZM412.929 621.852C404.785 621.852 397.777 619.153 391.906 613.756C386.035 608.263 383.099 601.682 383.099 594.011C383.099 586.246 386.035 579.665 391.906 574.267C397.777 568.775 404.785 566.028 412.929 566.028C421.168 566.028 428.175 568.775 433.952 574.267C439.823 579.665 442.759 586.246 442.759 594.011C442.759 601.682 439.823 608.263 433.952 613.756C428.175 619.153 421.168 621.852 412.929 621.852ZM542.794 743.159V871H491.374V652.818H540.521V689.892H543.078C548.097 677.676 556.099 667.97 567.084 660.773C578.163 653.576 591.847 649.977 608.135 649.977C623.192 649.977 636.307 653.197 647.482 659.636C658.75 666.076 667.463 675.403 673.618 687.619C679.868 699.835 682.946 714.655 682.851 732.08V871H631.43V740.034C631.43 725.451 627.643 714.04 620.067 705.801C612.586 697.562 602.216 693.443 588.959 693.443C579.963 693.443 571.961 695.432 564.953 699.409C558.04 703.292 552.595 708.926 548.618 716.312C544.735 723.699 542.794 732.648 542.794 743.159ZM973.405 779.239V652.818H1024.83V871H974.967V832.222H972.695C967.77 844.437 959.674 854.428 948.405 862.193C937.231 869.958 923.452 873.841 907.07 873.841C892.77 873.841 880.128 870.669 869.143 864.324C858.253 857.884 849.731 848.557 843.575 836.341C837.42 824.03 834.342 809.163 834.342 791.739V652.818H885.763V783.784C885.763 797.61 889.551 808.595 897.126 816.739C904.702 824.883 914.645 828.955 926.956 828.955C934.532 828.955 941.871 827.108 948.973 823.415C956.075 819.722 961.899 814.229 966.445 806.938C971.085 799.551 973.405 790.318 973.405 779.239ZM1250.14 710.489L1203.27 715.602C1201.94 710.867 1199.62 706.417 1196.31 702.25C1193.09 698.083 1188.73 694.722 1183.24 692.165C1177.75 689.608 1171.03 688.33 1163.07 688.33C1152.37 688.33 1143.37 690.65 1136.08 695.29C1128.89 699.93 1125.33 705.943 1125.43 713.33C1125.33 719.674 1127.65 724.835 1132.39 728.812C1137.22 732.79 1145.17 736.057 1156.25 738.614L1193.47 746.568C1214.11 751.019 1229.45 758.074 1239.49 767.733C1249.62 777.392 1254.74 790.034 1254.83 805.659C1254.74 819.39 1250.71 831.511 1242.76 842.023C1234.9 852.439 1223.96 860.583 1209.95 866.455C1195.93 872.326 1179.83 875.261 1161.65 875.261C1134.95 875.261 1113.45 869.674 1097.16 858.5C1080.87 847.231 1071.17 831.559 1068.04 811.483L1118.18 806.653C1120.46 816.502 1125.29 823.936 1132.67 828.955C1140.06 833.973 1149.67 836.483 1161.51 836.483C1173.72 836.483 1183.53 833.973 1190.91 828.955C1198.39 823.936 1202.13 817.733 1202.13 810.347C1202.13 804.097 1199.72 798.936 1194.89 794.864C1190.15 790.792 1182.77 787.667 1172.73 785.489L1135.51 777.676C1114.59 773.32 1099.1 765.981 1089.07 755.659C1079.03 745.242 1074.06 732.08 1074.15 716.17C1074.06 702.723 1077.7 691.076 1085.09 681.227C1092.57 671.284 1102.94 663.614 1116.2 658.216C1129.55 652.723 1144.94 649.977 1162.36 649.977C1187.93 649.977 1208.05 655.422 1222.73 666.312C1237.5 677.203 1246.64 691.928 1250.14 710.489ZM1447.87 580.091V871H1396.45V580.091H1447.87ZM1500.75 871V652.818H1552.17V871H1500.75ZM1526.6 621.852C1518.46 621.852 1511.45 619.153 1505.58 613.756C1499.71 608.263 1496.77 601.682 1496.77 594.011C1496.77 586.246 1499.71 579.665 1505.58 574.267C1511.45 568.775 1518.46 566.028 1526.6 566.028C1534.84 566.028 1541.85 568.775 1547.62 574.267C1553.49 579.665 1556.43 586.246 1556.43 594.011C1556.43 601.682 1553.49 608.263 1547.62 613.756C1541.85 619.153 1534.84 621.852 1526.6 621.852ZM1799.93 652.818L1722.23 871H1665.41L1587.72 652.818H1642.55L1692.69 814.892H1694.96L1745.24 652.818H1799.93ZM1924.68 875.261C1902.81 875.261 1883.92 870.716 1868.01 861.625C1852.19 852.439 1840.02 839.466 1831.5 822.705C1822.98 805.848 1818.72 786.009 1818.72 763.188C1818.72 740.744 1822.98 721.047 1831.5 704.097C1840.12 687.051 1852.15 673.794 1867.58 664.324C1883.02 654.759 1901.15 649.977 1921.98 649.977C1935.43 649.977 1948.12 652.155 1960.05 656.511C1972.08 660.773 1982.69 667.402 1991.87 676.398C2001.15 685.394 2008.44 696.852 2013.75 710.773C2019.05 724.598 2021.7 741.076 2021.7 760.205V775.972H1842.87V741.312H1972.41C1972.32 731.464 1970.19 722.705 1966.02 715.034C1961.85 707.269 1956.03 701.161 1948.55 696.71C1941.16 692.259 1932.54 690.034 1922.69 690.034C1912.18 690.034 1902.95 692.591 1895 697.705C1887.04 702.723 1880.84 709.352 1876.39 717.591C1872.03 725.735 1869.81 734.684 1869.71 744.438V774.693C1869.71 787.383 1872.03 798.273 1876.67 807.364C1881.31 816.36 1887.8 823.273 1896.13 828.102C1904.47 832.837 1914.22 835.205 1925.39 835.205C1932.87 835.205 1939.65 834.163 1945.71 832.08C1951.77 829.902 1957.02 826.729 1961.47 822.562C1965.92 818.396 1969.29 813.235 1971.56 807.08L2019.57 812.477C2016.54 825.167 2010.76 836.246 2002.24 845.716C1993.81 855.091 1983.02 862.383 1969.85 867.591C1956.69 872.705 1941.63 875.261 1924.68 875.261ZM2128.13 580.091L2123.44 785.489H2077.7L2073.16 580.091H2128.13ZM2100.57 874.125C2091.95 874.125 2084.57 871.095 2078.41 865.034C2072.35 858.973 2069.32 851.587 2069.32 842.875C2069.32 834.352 2072.35 827.061 2078.41 821C2084.57 814.939 2091.95 811.909 2100.57 811.909C2109 811.909 2116.29 814.939 2122.45 821C2128.7 827.061 2131.82 834.352 2131.82 842.875C2131.82 848.652 2130.35 853.907 2127.42 858.642C2124.58 863.377 2120.79 867.165 2116.05 870.006C2111.41 872.752 2106.25 874.125 2100.57 874.125Z" fill="#4285F4"/>
<path d="M61.2365 1896.73L81.6487 1761.45H0L11.9657 1689.59H92.2067L102.765 1615.61H21.116L32.3779 1543.75H113.323L133.031 1414.82H211.16L191.452 1543.75H270.285L289.993 1414.82H367.419L348.414 1543.75H429.359L418.097 1615.61H337.856L326.595 1689.59H408.947L397.685 1761.45H316.037L295.624 1896.73H218.199L237.907 1761.45H159.074L139.366 1896.73H61.2365ZM168.224 1691H249.873L261.839 1614.2H180.19L168.224 1691Z" fill="#EA4535"/>
<path d="M937.711 1815.7C912.841 1845.77 883.513 1868.78 849.728 1884.75C815.942 1900.25 778.168 1908 736.405 1908C698.865 1908 663.907 1901.19 631.529 1887.57C599.62 1873.95 571.935 1855.39 548.472 1831.91C525.01 1808.42 506.475 1780.71 492.867 1748.77C479.259 1716.36 472.455 1681.61 472.455 1644.5C472.455 1607.39 479.259 1572.87 492.867 1540.93C506.475 1508.52 525.01 1480.58 548.472 1457.09C571.935 1433.61 599.62 1415.05 631.529 1401.43C663.907 1387.81 698.865 1381 736.405 1381C776.76 1381 812.188 1388.05 842.689 1402.14C873.659 1416.23 901.11 1436.66 925.042 1463.43L858.174 1528.25C843.158 1510.87 825.796 1497.02 806.088 1486.68C786.849 1476.35 763.856 1471.18 737.109 1471.18C713.647 1471.18 691.592 1475.41 670.945 1483.86C650.298 1491.85 632.233 1503.36 616.747 1518.39C601.732 1533.42 589.766 1551.73 580.85 1573.34C571.935 1594.48 567.477 1618.2 567.477 1644.5C567.477 1670.8 571.935 1694.76 580.85 1716.36C589.766 1737.5 601.732 1755.58 616.747 1770.61C632.233 1785.64 650.298 1797.39 670.945 1805.84C691.592 1813.83 713.647 1817.82 737.109 1817.82C765.264 1817.82 790.134 1812.18 811.719 1800.91C833.773 1789.17 853.247 1772.73 870.14 1751.59L937.711 1815.7Z" fill="#EA4535"/>
<path d="M1447.74 1815.7C1422.87 1845.77 1393.54 1868.78 1359.76 1884.75C1325.97 1900.25 1288.2 1908 1246.43 1908C1208.89 1908 1173.94 1901.19 1141.56 1887.57C1109.65 1873.95 1081.96 1855.39 1058.5 1831.91C1035.04 1808.42 1016.5 1780.71 1002.9 1748.77C989.288 1716.36 982.484 1681.61 982.484 1644.5C982.484 1607.39 989.288 1572.87 1002.9 1540.93C1016.5 1508.52 1035.04 1480.58 1058.5 1457.09C1081.96 1433.61 1109.65 1415.05 1141.56 1401.43C1173.94 1387.81 1208.89 1381 1246.43 1381C1286.79 1381 1322.22 1388.05 1352.72 1402.14C1383.69 1416.23 1411.14 1436.66 1435.07 1463.43L1368.2 1528.25C1353.19 1510.87 1335.83 1497.02 1316.12 1486.68C1296.88 1476.35 1273.88 1471.18 1247.14 1471.18C1223.68 1471.18 1201.62 1475.41 1180.97 1483.86C1160.33 1491.85 1142.26 1503.36 1126.78 1518.39C1111.76 1533.42 1099.79 1551.73 1090.88 1573.34C1081.96 1594.48 1077.51 1618.2 1077.51 1644.5C1077.51 1670.8 1081.96 1694.76 1090.88 1716.36C1099.79 1737.5 1111.76 1755.58 1126.78 1770.61C1142.26 1785.64 1160.33 1797.39 1180.97 1805.84C1201.62 1813.83 1223.68 1817.82 1247.14 1817.82C1275.29 1817.82 1300.16 1812.18 1321.75 1800.91C1343.8 1789.17 1363.28 1772.73 1380.17 1751.59L1447.74 1815.7Z" fill="#EA4535"/>
<path d="M1524.02 1392.27H1694.36C1734.24 1392.27 1770.14 1398.38 1802.05 1410.59C1833.96 1422.8 1861.17 1440.18 1883.7 1462.73C1906.22 1484.8 1923.35 1511.34 1935.08 1542.34C1947.28 1573.34 1953.38 1607.39 1953.38 1644.5C1953.38 1682.08 1947.28 1716.36 1935.08 1747.36C1923.35 1778.36 1906.22 1804.9 1883.7 1826.98C1861.17 1849.05 1833.96 1866.2 1802.05 1878.41C1770.14 1890.62 1734.24 1896.73 1694.36 1896.73H1524.02V1392.27ZM1690.13 1806.55C1717.82 1806.55 1742.22 1802.79 1763.34 1795.27C1784.45 1787.29 1802.05 1776.25 1816.13 1762.16C1830.2 1748.07 1840.76 1731.16 1847.8 1711.43C1854.84 1691.23 1858.36 1668.92 1858.36 1644.5C1858.36 1620.08 1854.84 1598 1847.8 1578.27C1840.76 1558.08 1830.2 1540.93 1816.13 1526.84C1802.05 1512.75 1784.45 1501.95 1763.34 1494.43C1742.22 1486.45 1717.82 1482.45 1690.13 1482.45H1619.04V1806.55H1690.13Z" fill="#EA4535"/>
<path d="M2269.24 1619.84H2516.3C2517.71 1625.48 2518.88 1632.29 2519.82 1640.27C2520.76 1648.26 2521.23 1656.24 2521.23 1664.23C2521.23 1696.64 2516.3 1727.17 2506.45 1755.82C2496.59 1784.47 2481.11 1810.07 2459.99 1832.61C2437.47 1856.57 2410.48 1875.12 2379.04 1888.27C2347.61 1901.42 2311.71 1908 2271.35 1908C2234.75 1908 2200.26 1901.42 2167.88 1888.27C2135.51 1875.12 2107.35 1856.8 2083.42 1833.32C2059.49 1809.83 2040.48 1782.12 2026.41 1750.18C2012.33 1717.77 2005.29 1682.55 2005.29 1644.5C2005.29 1606.45 2012.33 1571.46 2026.41 1539.52C2040.48 1507.11 2059.49 1479.17 2083.42 1455.68C2107.35 1432.2 2135.51 1413.88 2167.88 1400.73C2200.26 1387.58 2234.75 1381 2271.35 1381C2312.18 1381 2348.54 1388.05 2380.45 1402.14C2412.83 1416.23 2440.52 1435.72 2463.51 1460.61L2398.05 1524.73C2381.63 1507.35 2363.33 1494.2 2343.15 1485.27C2322.97 1475.88 2298.8 1471.18 2270.65 1471.18C2247.66 1471.18 2225.84 1475.41 2205.19 1483.86C2184.54 1491.85 2166.48 1503.36 2150.99 1518.39C2135.51 1533.42 2123.07 1551.73 2113.69 1573.34C2104.77 1594.48 2100.31 1618.2 2100.31 1644.5C2100.31 1670.8 2104.77 1694.76 2113.69 1716.36C2123.07 1737.5 2135.51 1755.58 2150.99 1770.61C2166.95 1785.64 2185.25 1797.39 2205.89 1805.84C2226.54 1813.83 2248.59 1817.82 2272.06 1817.82C2298.8 1817.82 2321.33 1814.06 2339.63 1806.55C2358.4 1798.56 2374.35 1788.46 2387.49 1776.25C2396.88 1767.8 2404.85 1757.23 2411.42 1744.55C2418.46 1731.39 2423.86 1716.83 2427.61 1700.86H2269.24V1619.84Z" fill="#EA4535"/>
<path d="M2599.76 1392.27H2710.26L2912.98 1730.45H2918.61L2912.98 1633.23V1392.27H3007.3V1896.73H2907.35L2693.37 1539.52H2687.74L2693.37 1636.75V1896.73H2599.76V1392.27Z" fill="#EA4535"/>
<path d="M3108.41 1392.27H3292.12C3317.46 1392.27 3340.45 1396.27 3361.1 1404.25C3381.75 1412.23 3399.34 1423.27 3413.89 1437.36C3428.91 1451.45 3440.4 1468.36 3448.38 1488.09C3456.36 1507.35 3460.35 1528.48 3460.35 1551.5C3460.35 1568.41 3457.53 1584.38 3451.9 1599.41C3446.27 1613.97 3438.53 1627.36 3428.67 1639.57C3418.82 1651.31 3407.32 1661.88 3394.18 1671.27C3381.04 1680.2 3367.2 1687.24 3352.65 1692.41L3351.95 1697.34L3487.09 1891.09V1896.73H3377.99L3247.78 1707.2H3203.43V1896.73H3108.41V1392.27ZM3291.42 1619.84C3313 1619.84 3330.6 1613.27 3344.21 1600.11C3358.28 1586.96 3365.32 1570.29 3365.32 1550.09C3365.32 1541.17 3363.68 1532.48 3360.4 1524.02C3357.58 1515.57 3353.12 1508.05 3347.02 1501.48C3340.92 1494.9 3333.18 1489.73 3323.79 1485.98C3314.88 1481.75 3304.56 1479.64 3292.82 1479.64H3203.43V1619.84H3291.42Z" fill="#EA4535"/>
<path d="M3526.59 1896.73V1812.89C3554.28 1785.64 3579.85 1760.28 3603.31 1736.8C3613.17 1726.93 3623.26 1716.83 3633.58 1706.5C3643.9 1696.17 3653.52 1686.54 3662.44 1677.61C3671.35 1668.69 3679.33 1660.7 3686.37 1653.66C3693.41 1646.14 3698.8 1640.27 3702.56 1636.05C3710.07 1627.12 3716.64 1619.14 3722.27 1612.09C3728.37 1605.05 3733.06 1598.23 3736.34 1591.66C3740.1 1584.61 3742.91 1577.8 3744.79 1571.23C3746.67 1564.18 3747.61 1556.67 3747.61 1548.68C3747.61 1533.18 3741.51 1519.8 3729.3 1508.52C3717.1 1496.78 3700.45 1490.91 3679.33 1490.91C3658.21 1490.91 3641.79 1497.02 3630.06 1509.23C3618.33 1520.97 3610.35 1534.36 3606.13 1549.39L3522.37 1514.86C3526.12 1502.18 3532.22 1489.27 3540.67 1476.11C3549.11 1462.49 3559.91 1450.52 3573.05 1440.18C3586.19 1429.38 3601.67 1420.69 3619.5 1414.11C3637.8 1407.07 3658.21 1403.55 3680.74 1403.55C3705.14 1403.55 3727.19 1407.3 3746.9 1414.82C3766.61 1421.86 3783.27 1431.73 3796.88 1444.41C3810.48 1457.09 3821.04 1472.12 3828.55 1489.5C3836.06 1506.41 3839.81 1524.73 3839.81 1544.45C3839.81 1574.52 3832.3 1602.23 3817.29 1627.59C3802.74 1652.48 3784.91 1675.73 3763.79 1697.34L3703.26 1757.93C3687.31 1773.9 3669.24 1791.75 3649.06 1811.48L3651.88 1815.7H3846.85V1896.73H3526.59Z" fill="#EA4535"/>
<path d="M4076.96 1908C4058.66 1908 4040.36 1905.42 4022.06 1900.25C4004.23 1895.08 3987.57 1887.1 3972.08 1876.3C3956.6 1865.49 3942.99 1852.11 3931.26 1836.14C3920 1819.7 3911.55 1800.2 3905.92 1777.66L3989.68 1745.25C3994.84 1768.73 4004.7 1787.52 4019.24 1801.61C4034.26 1815.7 4053.26 1822.75 4076.26 1822.75C4087.52 1822.75 4097.84 1820.87 4107.23 1817.11C4117.08 1812.89 4125.53 1807.25 4132.57 1800.2C4140.07 1793.16 4145.71 1784.94 4149.46 1775.55C4153.68 1765.68 4155.79 1754.88 4155.79 1743.14C4155.79 1731.86 4153.68 1721.53 4149.46 1712.14C4145.71 1702.27 4140.31 1693.82 4133.27 1686.77C4126.23 1679.26 4117.78 1673.62 4107.93 1669.86C4098.55 1665.64 4087.99 1663.52 4076.26 1663.52C4061.71 1663.52 4048.81 1666.81 4037.54 1673.39C4026.28 1679.49 4016.66 1687.24 4008.69 1696.64L3919.29 1655.77L3947.45 1414.82H4218.44V1495.84H4024.17L4005.87 1608.57L4011.5 1609.98C4020.89 1601.99 4032.38 1595.18 4045.99 1589.55C4059.6 1583.91 4076.02 1581.09 4095.26 1581.09C4115.44 1581.09 4134.68 1585.08 4152.98 1593.07C4171.28 1600.58 4187.47 1611.39 4201.54 1625.48C4215.62 1639.57 4226.88 1656.71 4235.33 1676.91C4243.78 1696.64 4248 1718.71 4248 1743.14C4248 1767.09 4243.78 1789.17 4235.33 1809.36C4226.88 1829.56 4214.92 1846.94 4199.43 1861.5C4184.42 1876.06 4166.35 1887.57 4145.24 1896.02C4124.59 1904.01 4101.83 1908 4076.96 1908Z" fill="#EA4535"/>
</svg>
