<svg width="4997" height="4667" viewBox="0 0 4997 4667" fill="none" xmlns="http://www.w3.org/2000/svg">
<path d="M733.726 223.854C717.655 214.671 704.968 201.984 695.665 185.793C686.361 169.602 681.648 151.719 681.648 132.265C681.648 112.812 686.361 94.8084 695.665 78.7381C704.968 62.547 717.655 49.8598 733.726 40.6768C749.796 31.4938 767.316 26.9023 786.286 26.9023C801.148 26.9023 815.044 29.5607 828.214 34.7563C841.264 40.0728 852.018 47.4433 860.476 56.9888L843.318 74.1465C836.914 66.2926 828.697 60.1304 818.669 55.9014C808.64 51.6724 797.886 49.4975 786.407 49.4975C772.27 49.4975 759.1 52.8806 746.775 59.7678C734.451 66.6551 724.543 76.3215 717.172 88.7669C709.681 101.212 706.056 115.712 706.056 132.024C706.056 148.335 709.802 162.835 717.172 175.28C724.543 187.726 734.451 197.513 746.775 204.279C759.1 211.167 772.27 214.55 786.407 214.55C800.544 214.55 811.298 212.375 820.36 208.146C829.422 203.917 837.397 198.359 844.164 191.351C848.997 186.034 852.984 179.63 856.005 172.139C859.025 164.647 860.838 156.431 861.321 147.611H786.89V125.378H883.916C884.883 130.695 885.366 135.528 885.366 139.998C885.366 152.444 883.433 164.527 879.445 176.247C875.458 187.967 869.175 198.238 860.596 207.058C841.626 227.237 816.856 237.266 786.407 237.266C767.437 237.266 749.917 232.674 733.847 223.491L733.726 223.854Z" fill="black"/>
<path d="M938.068 227.921C927.194 221.397 918.615 212.455 912.574 201.097C906.411 189.739 903.391 177.052 903.391 163.157C903.391 149.262 906.411 136.575 912.574 125.217C918.615 113.859 927.194 104.918 938.068 98.3927C948.943 91.868 961.268 88.7266 975.042 88.7266C988.817 88.7266 1001.14 91.9888 1012.14 98.3927C1023.13 104.797 1031.71 113.859 1037.75 125.217C1043.91 136.575 1046.94 149.262 1046.94 163.157C1046.94 177.052 1043.91 189.739 1037.75 201.097C1031.59 212.455 1023.13 221.397 1012.14 227.921C1001.14 234.446 988.817 237.709 975.042 237.709C961.268 237.709 948.943 234.446 938.068 227.921ZM998.725 209.435C1006.1 205.085 1011.9 198.923 1016.37 190.948C1020.84 182.973 1023.01 173.669 1023.01 163.157C1023.01 152.645 1020.84 143.341 1016.37 135.367C1011.9 127.392 1006.1 121.229 998.725 116.88C991.354 112.53 983.5 110.355 975.042 110.355C966.584 110.355 958.972 112.53 951.601 116.88C944.231 121.229 938.431 127.392 933.96 135.367C929.49 143.341 927.315 152.645 927.315 163.157C927.315 173.669 929.49 182.973 933.96 190.948C938.431 198.923 944.231 205.085 951.601 209.435C958.972 213.784 966.705 215.959 975.042 215.959C983.379 215.959 991.354 213.784 998.725 209.435Z" fill="black"/>
<path d="M1097.9 227.921C1087.02 221.397 1078.44 212.455 1072.4 201.097C1066.24 189.739 1063.22 177.052 1063.22 163.157C1063.22 149.262 1066.24 136.575 1072.4 125.217C1078.44 113.859 1087.02 104.918 1097.9 98.3927C1108.77 91.868 1121.1 88.7266 1134.87 88.7266C1148.64 88.7266 1160.97 91.9888 1171.96 98.3927C1182.96 104.797 1191.54 113.859 1197.58 125.217C1203.74 136.575 1206.76 149.262 1206.76 163.157C1206.76 177.052 1203.74 189.739 1197.58 201.097C1191.42 212.455 1182.96 221.397 1171.96 227.921C1160.97 234.446 1148.64 237.709 1134.87 237.709C1121.1 237.709 1108.77 234.446 1097.9 227.921ZM1158.55 209.435C1165.92 205.085 1171.72 198.923 1176.19 190.948C1180.66 182.973 1182.84 173.669 1182.84 163.157C1182.84 152.645 1180.66 143.341 1176.19 135.367C1171.72 127.392 1165.92 121.229 1158.55 116.88C1151.18 112.53 1143.33 110.355 1134.87 110.355C1126.41 110.355 1118.8 112.53 1111.43 116.88C1104.06 121.229 1098.26 127.392 1093.79 135.367C1089.32 143.341 1087.14 152.645 1087.14 163.157C1087.14 173.669 1089.32 182.973 1093.79 190.948C1098.26 198.923 1104.06 205.085 1111.43 209.435C1118.8 213.784 1126.53 215.959 1134.87 215.959C1143.21 215.959 1151.18 213.784 1158.55 209.435Z" fill="black"/>
<path d="M1251.05 286.403C1240.29 278.307 1233.04 268.883 1229.3 258.25L1251.53 248.946C1254.31 257.162 1259.38 263.929 1266.63 269.124C1273.88 274.32 1282.46 276.857 1292.49 276.857C1307.35 276.857 1318.71 272.507 1326.69 263.929C1334.66 255.35 1338.65 243.267 1338.65 227.801V212.818H1337.56C1333.09 219.947 1326.57 225.867 1318.11 230.58C1309.65 235.292 1300.1 237.588 1289.35 237.588C1277.51 237.588 1266.51 234.325 1256.36 227.921C1246.21 221.518 1238.12 212.576 1232.08 201.339C1226.04 189.981 1223.02 177.294 1223.02 163.157C1223.02 149.02 1226.04 136.212 1232.08 124.975C1238.12 113.738 1246.21 104.797 1256.36 98.3927C1266.51 91.9888 1277.51 88.7266 1289.35 88.7266C1300.1 88.7266 1309.65 91.0222 1318.11 95.7345C1326.57 100.447 1333.09 106.367 1337.56 113.496H1338.65V93.1972H1361.49V227.438C1361.49 242.904 1358.46 255.954 1352.42 266.587C1346.38 277.34 1338.17 285.315 1327.77 290.511C1317.38 295.827 1305.54 298.365 1292.37 298.365C1275.46 298.365 1261.68 294.377 1250.93 286.282L1251.05 286.403ZM1315.93 209.556C1322.82 205.327 1328.5 199.164 1332.73 191.31C1336.96 183.456 1339.13 174.032 1339.13 163.278C1339.13 152.524 1336.96 143.1 1332.73 135.125C1328.5 127.15 1322.94 120.988 1315.93 116.88C1308.93 112.771 1301.31 110.597 1293.1 110.597C1284.88 110.597 1277.15 112.771 1270.26 117.001C1263.25 121.23 1257.69 127.392 1253.46 135.246C1249.24 143.22 1247.06 152.524 1247.06 163.278C1247.06 174.032 1249.24 183.456 1253.46 191.31C1257.69 199.164 1263.25 205.327 1270.26 209.556C1277.27 213.785 1284.88 215.959 1293.1 215.959C1301.31 215.959 1308.93 213.785 1315.93 209.556Z" fill="black"/>
<path d="M1390.31 31.25H1414.24V233.155H1390.31V31.25Z" fill="black"/>
<path d="M1471 228.011C1460.36 221.608 1452.03 212.787 1445.98 201.55C1439.94 190.313 1436.92 177.505 1436.92 163.247C1436.92 149.714 1439.7 137.269 1445.38 125.911C1451.06 114.553 1459.03 105.491 1469.55 98.8452C1480.06 92.1996 1491.9 88.8164 1505.55 88.8164C1519.21 88.8164 1530.93 91.8371 1541.2 97.9993C1551.47 104.162 1559.32 112.74 1564.76 123.857C1570.2 134.973 1572.98 147.781 1572.98 162.16C1572.98 164.818 1572.73 166.63 1572.37 167.838H1461.33C1461.69 178.351 1464.23 187.292 1468.94 194.542C1473.65 201.792 1479.57 207.229 1486.58 210.733C1493.59 214.358 1500.96 216.049 1508.45 216.049C1526.09 216.049 1539.75 207.471 1549.29 190.071L1570.44 200.221C1564.4 211.458 1556.06 220.52 1545.43 227.407C1534.79 234.295 1522.11 237.678 1507.24 237.678C1493.71 237.678 1481.63 234.536 1471 228.132V228.011ZM1547.6 147.66C1547.24 141.981 1545.67 136.423 1542.77 130.744C1539.99 125.065 1535.4 120.353 1529.11 116.365C1522.83 112.378 1514.74 110.445 1505.07 110.445C1494.56 110.445 1485.37 113.828 1477.76 120.594C1470.15 127.361 1465.2 136.423 1463.14 147.66H1547.72H1547.6Z" fill="black"/>
<path d="M1664.62 31.1676H1725.76C1746.42 31.1676 1764.54 35.3966 1779.89 43.9755C1795.35 52.5543 1807.2 64.3957 1815.41 79.6202C1823.63 94.8446 1827.86 112.365 1827.86 132.06C1827.86 151.755 1823.75 169.275 1815.41 184.5C1807.07 199.724 1795.23 211.565 1779.89 220.144C1764.42 228.723 1746.42 232.952 1725.76 232.952H1664.62V31.0469V31.1676ZM1725.76 210.236C1749.68 210.236 1768.53 203.349 1782.43 189.695C1796.32 176.042 1803.33 156.83 1803.33 132.181C1803.33 107.532 1796.32 88.4407 1782.43 74.6662C1768.53 60.8916 1749.68 54.1253 1725.76 54.1253H1688.54V210.357H1725.76V210.236Z" fill="black"/>
<path d="M1882.19 228.011C1871.56 221.608 1863.22 212.787 1857.18 201.55C1851.14 190.313 1848.12 177.505 1848.12 163.247C1848.12 149.714 1850.9 137.269 1856.58 125.911C1862.25 114.553 1870.23 105.491 1880.74 98.8452C1891.25 92.1996 1903.09 88.8164 1916.75 88.8164C1930.4 88.8164 1942.12 91.8371 1952.39 97.9993C1962.66 104.162 1970.52 112.74 1975.95 123.857C1981.39 134.973 1984.17 147.781 1984.17 162.16C1984.17 164.818 1983.93 166.63 1983.57 167.838H1872.52C1872.89 178.351 1875.42 187.292 1880.14 194.542C1884.85 201.792 1890.77 207.229 1897.78 210.733C1904.79 214.358 1912.16 216.049 1919.65 216.049C1937.29 216.049 1950.94 207.471 1960.49 190.071L1981.63 200.221C1975.59 211.458 1967.25 220.52 1956.62 227.407C1945.99 234.295 1933.3 237.678 1918.44 237.678C1904.91 237.678 1892.82 234.536 1882.19 228.132V228.011ZM1958.8 147.66C1958.43 141.981 1956.86 136.423 1953.96 130.744C1951.18 125.065 1946.59 120.353 1940.31 116.365C1934.03 112.378 1925.93 110.445 1916.26 110.445C1905.75 110.445 1896.57 113.828 1888.96 120.594C1881.35 127.361 1876.39 136.423 1874.34 147.66H1958.92H1958.8Z" fill="black"/>
<path d="M1989.7 93.1719H2015.68L2058.58 204.818H2059.18L2102.56 93.1719H2127.93L2070.66 233.092H2046.37L1989.7 93.1719Z" fill="black"/>
<path d="M2171.71 228.011C2161.07 221.608 2152.74 212.787 2146.69 201.55C2140.65 190.313 2137.63 177.505 2137.63 163.247C2137.63 149.714 2140.41 137.269 2146.09 125.911C2151.77 114.553 2159.74 105.491 2170.26 98.8452C2180.77 92.1996 2192.61 88.8164 2206.26 88.8164C2219.92 88.8164 2231.64 91.8371 2241.91 97.9993C2252.18 104.162 2260.03 112.74 2265.47 123.857C2270.91 134.973 2273.69 147.781 2273.69 162.16C2273.69 164.818 2273.44 166.63 2273.08 167.838H2162.04C2162.4 178.351 2164.94 187.292 2169.65 194.542C2174.36 201.792 2180.29 207.229 2187.29 210.733C2194.3 214.358 2201.67 216.049 2209.16 216.049C2226.8 216.049 2240.46 207.471 2250 190.071L2271.15 200.221C2265.11 211.458 2256.77 220.52 2246.14 227.407C2235.5 234.295 2222.82 237.678 2207.96 237.678C2194.42 237.678 2182.34 234.536 2171.71 228.132V228.011ZM2248.31 147.66C2247.95 141.981 2246.38 136.423 2243.48 130.744C2240.7 125.065 2236.11 120.353 2229.83 116.365C2223.54 112.378 2215.45 110.445 2205.78 110.445C2195.27 110.445 2186.09 113.828 2178.47 120.594C2170.86 127.361 2165.91 136.423 2163.85 147.66H2248.43H2248.31Z" fill="black"/>
<path d="M2298.03 31.25H2321.96V233.155H2298.03V31.25Z" fill="black"/>
<path d="M2379.42 227.921C2368.55 221.397 2359.97 212.455 2353.93 201.097C2347.76 189.739 2344.74 177.052 2344.74 163.157C2344.74 149.262 2347.76 136.575 2353.93 125.217C2359.97 113.859 2368.55 104.918 2379.42 98.3927C2390.29 91.868 2402.62 88.7266 2416.39 88.7266C2430.17 88.7266 2442.49 91.9888 2453.49 98.3927C2464.48 104.797 2473.06 113.859 2479.1 125.217C2485.27 136.575 2488.29 149.262 2488.29 163.157C2488.29 177.052 2485.27 189.739 2479.1 201.097C2472.94 212.455 2464.48 221.397 2453.49 227.921C2442.49 234.446 2430.17 237.709 2416.39 237.709C2402.62 237.709 2390.29 234.446 2379.42 227.921ZM2440.08 209.435C2447.45 205.085 2453.25 198.923 2457.72 190.948C2462.19 182.973 2464.36 173.669 2464.36 163.157C2464.36 152.645 2462.19 143.341 2457.72 135.367C2453.25 127.392 2447.45 121.229 2440.08 116.88C2432.71 112.53 2424.85 110.355 2416.39 110.355C2407.94 110.355 2400.32 112.53 2392.95 116.88C2385.58 121.229 2379.78 127.392 2375.31 135.367C2370.84 143.341 2368.67 152.645 2368.67 163.157C2368.67 173.669 2370.84 182.973 2375.31 190.948C2379.78 198.923 2385.58 205.085 2392.95 209.435C2400.32 213.784 2408.06 215.959 2416.39 215.959C2424.73 215.959 2432.71 213.784 2440.08 209.435Z" fill="black"/>
<path d="M2510.03 93.1972H2532.87V113.738H2533.96C2538.43 106.609 2544.95 100.568 2553.41 95.8554C2561.87 91.1431 2571.65 88.7266 2582.77 88.7266C2594.85 88.7266 2605.85 91.9888 2616 98.3927C2626.15 104.797 2634.24 113.738 2640.29 124.975C2646.33 136.212 2649.35 148.899 2649.35 163.036C2649.35 177.173 2646.33 189.86 2640.29 201.097C2634.24 212.334 2626.15 221.276 2616 227.68C2605.85 234.084 2594.73 237.467 2582.77 237.467C2571.65 237.467 2561.87 235.05 2553.29 230.217C2544.71 225.384 2538.31 219.343 2533.96 211.972H2532.87L2533.96 231.426V293.773H2510.03V92.9555V93.1972ZM2602.1 209.314C2609.11 204.964 2614.79 198.802 2619.02 190.827C2623.25 182.852 2625.42 173.548 2625.42 163.036C2625.42 152.524 2623.25 143.22 2619.02 135.246C2614.79 127.271 2609.11 121.109 2602.1 116.759C2595.1 112.409 2587.36 110.234 2579.15 110.234C2570.93 110.234 2563.2 112.409 2556.19 116.638C2549.18 120.867 2543.5 127.029 2539.27 135.004C2535.04 142.979 2532.87 152.403 2532.87 163.036C2532.87 173.669 2535.04 182.852 2539.27 190.948C2543.5 199.043 2549.18 205.206 2556.19 209.435C2563.2 213.664 2570.93 215.839 2579.15 215.839C2587.36 215.839 2595.1 213.664 2602.1 209.314Z" fill="black"/>
<path d="M2705.32 228.011C2694.69 221.608 2686.35 212.787 2680.31 201.55C2674.27 190.313 2671.25 177.505 2671.25 163.247C2671.25 149.714 2674.03 137.269 2679.71 125.911C2685.39 114.553 2693.36 105.491 2703.87 98.8452C2714.39 92.1996 2726.23 88.8164 2739.88 88.8164C2753.53 88.8164 2765.26 91.8371 2775.53 97.9993C2785.8 104.162 2793.65 112.74 2799.09 123.857C2804.52 134.973 2807.3 147.781 2807.3 162.16C2807.3 164.818 2807.06 166.63 2806.7 167.838H2695.66C2696.02 178.351 2698.56 187.292 2703.27 194.542C2707.98 201.792 2713.9 207.229 2720.91 210.733C2727.92 214.358 2735.29 216.049 2742.78 216.049C2760.42 216.049 2774.08 207.471 2783.62 190.071L2804.77 200.221C2798.72 211.458 2790.39 220.52 2779.75 227.407C2769.12 234.295 2756.43 237.678 2741.57 237.678C2728.04 237.678 2715.96 234.536 2705.32 228.132V228.011ZM2781.93 147.66C2781.57 141.981 2780 136.423 2777.1 130.744C2774.32 125.065 2769.73 120.353 2763.44 116.365C2757.16 112.378 2749.06 110.445 2739.4 110.445C2728.89 110.445 2719.7 113.828 2712.09 120.594C2704.48 127.361 2699.52 136.423 2697.47 147.66H2782.05H2781.93Z" fill="black"/>
<path d="M2831.48 93.1972H2854.31V116.034H2855.4C2858.06 108.301 2863.5 101.897 2871.59 96.5804C2879.81 91.2639 2887.9 88.7266 2896 88.7266C2901.8 88.7266 2907.24 89.6931 2912.31 91.5056V117.121C2907.24 114.342 2900.71 112.892 2892.62 112.892C2886.09 112.892 2879.93 114.826 2874.13 118.692C2868.33 122.559 2863.86 127.634 2860.48 134.037C2857.09 140.441 2855.4 147.449 2855.4 154.941V232.996H2831.48V93.0764V93.1972Z" fill="black"/>
<path d="M3035.81 223.854C3019.74 214.671 3007.05 201.984 2997.75 185.793C2988.45 169.602 2983.73 151.719 2983.73 132.265C2983.73 112.812 2988.45 94.8084 2997.75 78.7381C3007.05 62.547 3019.74 49.8598 3035.81 40.6768C3051.88 31.4938 3069.4 26.9023 3088.37 26.9023C3103.23 26.9023 3117.13 29.5607 3130.3 34.7563C3143.35 40.0728 3154.1 47.4433 3162.56 56.9888L3145.4 74.1465C3139 66.2926 3130.78 60.1304 3120.75 55.9014C3110.73 51.6724 3099.97 49.4975 3088.49 49.4975C3074.36 49.4975 3061.19 52.8806 3048.86 59.7678C3036.54 66.6551 3026.63 76.3215 3019.26 88.7669C3011.77 101.212 3008.14 115.712 3008.14 132.024C3008.14 148.335 3011.89 162.835 3019.26 175.28C3026.63 187.726 3036.54 197.513 3048.86 204.279C3061.19 211.167 3074.36 214.55 3088.49 214.55C3102.63 214.55 3113.38 212.375 3122.45 208.146C3131.51 203.917 3139.48 198.359 3146.25 191.351C3151.08 186.034 3155.07 179.63 3158.09 172.139C3161.11 164.647 3162.92 156.431 3163.41 147.611H3088.98V125.378H3186C3186.97 130.695 3187.45 135.528 3187.45 139.998C3187.45 152.444 3185.52 164.527 3181.53 176.247C3177.54 187.967 3171.26 198.238 3162.68 207.058C3143.71 227.237 3118.94 237.266 3088.49 237.266C3069.52 237.266 3052 232.674 3035.93 223.491L3035.81 223.854Z" fill="black"/>
<path d="M3214.72 93.1972H3237.56V116.034H3238.64C3241.3 108.301 3246.74 101.897 3254.83 96.5804C3263.05 91.2639 3271.15 88.7266 3279.24 88.7266C3285.04 88.7266 3290.48 89.6931 3295.55 91.5056V117.121C3290.48 114.342 3283.95 112.892 3275.86 112.892C3269.33 112.892 3263.17 114.826 3257.37 118.692C3251.57 122.559 3247.1 127.634 3243.72 134.037C3240.33 140.441 3238.64 147.449 3238.64 154.941V232.996H3214.72V93.0764V93.1972Z" fill="black"/>
<path d="M3333.4 227.921C3322.52 221.397 3313.94 212.455 3307.9 201.097C3301.74 189.739 3298.72 177.052 3298.72 163.157C3298.72 149.262 3301.74 136.575 3307.9 125.217C3313.94 113.859 3322.52 104.918 3333.4 98.3927C3344.27 91.868 3356.6 88.7266 3370.37 88.7266C3384.14 88.7266 3396.47 91.9888 3407.46 98.3927C3418.46 104.797 3427.04 113.859 3433.08 125.217C3439.24 136.575 3442.26 149.262 3442.26 163.157C3442.26 177.052 3439.24 189.739 3433.08 201.097C3426.92 212.455 3418.46 221.397 3407.46 227.921C3396.47 234.446 3384.14 237.709 3370.37 237.709C3356.6 237.709 3344.27 234.446 3333.4 227.921ZM3394.05 209.435C3401.42 205.085 3407.22 198.923 3411.69 190.948C3416.16 182.973 3418.34 173.669 3418.34 163.157C3418.34 152.645 3416.16 143.341 3411.69 135.367C3407.22 127.392 3401.42 121.229 3394.05 116.88C3386.68 112.53 3378.83 110.355 3370.37 110.355C3361.91 110.355 3354.3 112.53 3346.93 116.88C3339.56 121.229 3333.76 127.392 3329.29 135.367C3324.82 143.341 3322.64 152.645 3322.64 163.157C3322.64 173.669 3324.82 182.973 3329.29 190.948C3333.76 198.923 3339.56 205.085 3346.93 209.435C3354.3 213.784 3362.03 215.959 3370.37 215.959C3378.71 215.959 3386.68 213.784 3394.05 209.435Z" fill="black"/>
<path d="M3477.25 222.58C3468.31 212.672 3463.84 198.776 3463.84 181.135V93.1719H3487.76V177.148C3487.76 202.885 3499.36 215.813 3522.44 215.813C3530.17 215.813 3537.06 213.638 3543.22 209.289C3549.38 204.939 3553.97 199.38 3557.36 192.372C3560.62 185.485 3562.31 178.115 3562.31 170.382V93.1719H3585.99V233.092H3563.4V212.188H3562.31C3558.2 219.317 3551.92 225.359 3543.58 230.192C3535.25 235.025 3526.18 237.563 3516.64 237.563C3499.36 237.563 3486.19 232.608 3477.25 222.58Z" fill="black"/>
<path d="M3617.32 93.1972H3640.16V113.738H3641.24C3645.72 106.609 3652.24 100.568 3660.7 95.8554C3669.16 91.1431 3678.94 88.7266 3690.06 88.7266C3702.14 88.7266 3713.14 91.9888 3723.29 98.3927C3733.44 104.797 3741.53 113.738 3747.57 124.975C3753.62 136.212 3756.64 148.899 3756.64 163.036C3756.64 177.173 3753.62 189.86 3747.57 201.097C3741.53 212.334 3733.44 221.276 3723.29 227.68C3713.14 234.084 3702.02 237.467 3690.06 237.467C3678.94 237.467 3669.16 235.05 3660.58 230.217C3652 225.384 3645.59 219.343 3641.24 211.972H3640.16L3641.24 231.426V293.773H3617.32V92.9555V93.1972ZM3709.39 209.314C3716.4 204.964 3722.08 198.802 3726.31 190.827C3730.54 182.852 3732.71 173.548 3732.71 163.036C3732.71 152.524 3730.54 143.22 3726.31 135.246C3722.08 127.271 3716.4 121.109 3709.39 116.759C3702.38 112.409 3694.65 110.234 3686.43 110.234C3678.22 110.234 3670.49 112.409 3663.48 116.638C3656.47 120.867 3650.79 127.029 3646.56 135.004C3642.33 142.979 3640.16 152.403 3640.16 163.036C3640.16 173.669 3642.33 182.852 3646.56 190.948C3650.79 199.043 3656.47 205.206 3663.48 209.435C3670.49 213.664 3678.22 215.839 3686.43 215.839C3694.65 215.839 3702.38 213.664 3709.39 209.314Z" fill="black"/>
<path d="M3791.04 226.366C3780.65 218.875 3773.52 209.571 3769.29 198.455L3790.43 189.151C3794.18 197.971 3799.5 204.738 3806.38 209.45C3813.27 214.162 3820.76 216.458 3828.86 216.458C3837.92 216.458 3845.41 214.525 3851.21 210.538C3857.13 206.55 3860.15 201.838 3860.15 196.159C3860.15 190.48 3857.98 186.251 3853.51 182.626C3849.04 179.001 3841.55 175.981 3830.79 173.322L3811.58 168.489C3801.07 166.073 3792.13 161.602 3784.63 155.198C3777.14 148.794 3773.52 140.336 3773.52 129.824C3773.52 121.124 3776.06 113.754 3781.01 107.591C3785.96 101.429 3792.61 96.7167 3800.95 93.4544C3809.16 90.3128 3818.22 88.6211 3828.01 88.6211C3840.09 88.6211 3850.97 91.4002 3860.88 96.9583C3870.79 102.516 3877.79 110.37 3881.9 120.52L3860.76 129.582C3857.74 122.816 3853.14 117.862 3847.1 114.599C3841.06 111.337 3834.17 109.766 3826.68 109.766C3819.19 109.766 3812.79 111.579 3806.87 115.083C3800.95 118.708 3797.93 123.299 3797.93 128.857C3797.93 133.69 3799.86 137.557 3803.73 140.457C3807.59 143.236 3813.75 145.773 3822.21 148.069L3843.12 153.144C3857.01 156.769 3867.4 162.085 3874.29 169.093C3881.18 176.101 3884.56 184.559 3884.56 194.346C3884.56 202.442 3882.26 209.813 3877.55 216.337C3872.84 222.983 3866.31 228.058 3857.86 231.804C3849.4 235.549 3839.85 237.483 3829.1 237.483C3814.24 237.483 3801.67 233.737 3791.28 226.245L3791.04 226.366Z" fill="black"/>
<path d="M132.793 135.209L223.174 83.0107C244.44 70.6861 251.689 43.4996 239.485 22.2337C227.161 0.967791 199.974 -6.28202 178.708 5.92171L22.4766 96.0602L132.793 135.088V135.209Z" fill="#FD2C25"/>
<path d="M200.752 269.373C216.097 269.373 231.08 261.399 239.296 247.141C251.621 225.875 244.25 198.688 222.984 186.364L66.7525 96.2254C45.4866 83.9009 18.3001 91.2713 5.97549 112.537C-6.34907 133.803 1.02121 160.99 22.2871 173.314L178.519 263.453C185.527 267.44 193.14 269.373 200.752 269.373Z" fill="#2B82FB"/>
<path d="M356.162 269.312C363.653 269.312 371.386 267.378 378.394 263.391L534.626 173.253L425.759 133.379L333.929 186.423C312.663 198.747 305.413 225.934 317.617 247.2C325.833 261.458 340.816 269.432 356.162 269.432V269.312Z" fill="#FFBA00"/>
<path d="M512.275 179.123C527.621 179.123 542.603 171.149 550.82 156.891C563.144 135.625 555.774 108.438 534.508 96.1139L378.276 5.9754C357.01 -6.34916 329.823 1.02148 317.499 22.2874C305.174 43.5533 312.545 70.7398 333.811 83.0644L490.043 173.203C497.051 177.19 504.663 179.123 512.275 179.123Z" fill="#00A150"/>
<path d="M837.398 443.015H800.14C799.459 438.186 798.07 433.897 795.972 430.147C793.873 426.34 791.18 423.102 787.891 420.432C784.601 417.762 780.802 415.716 776.492 414.296C772.239 412.876 767.617 412.166 762.627 412.166C753.61 412.166 745.756 414.41 739.064 418.898C732.372 423.329 727.183 429.806 723.497 438.328C719.811 446.793 717.968 457.076 717.968 469.177C717.968 481.619 719.811 492.073 723.497 500.538C727.24 509.003 732.457 515.395 739.149 519.713C745.841 524.03 753.581 526.189 762.371 526.189C767.305 526.189 771.87 525.536 776.067 524.229C780.32 522.922 784.091 521.019 787.38 518.519C790.669 515.963 793.391 512.867 795.546 509.231C797.758 505.595 799.289 501.447 800.14 496.789L837.398 496.959C836.434 504.97 834.024 512.696 830.167 520.139C826.368 527.524 821.236 534.143 814.771 539.995C808.363 545.79 800.707 550.392 791.804 553.8C782.957 557.152 772.948 558.828 761.776 558.828C746.238 558.828 732.344 555.306 720.095 548.261C707.902 541.216 698.262 531.018 691.173 517.667C684.141 504.316 680.625 488.153 680.625 469.177C680.625 450.145 684.198 433.953 691.343 420.602C698.488 407.251 708.186 397.082 720.435 390.094C732.684 383.049 746.464 379.527 761.776 379.527C771.87 379.527 781.227 380.947 789.847 383.788C798.524 386.628 806.208 390.776 812.899 396.23C819.591 401.627 825.035 408.246 829.232 416.086C833.485 423.926 836.207 432.902 837.398 443.015Z" fill="#0F9D58"/>
<path d="M899.367 381.913V556.442H863.13V381.913H899.367Z" fill="#0F9D58"/>
<path d="M987.429 558.999C974.216 558.999 962.789 556.186 953.148 550.562C943.565 544.881 936.164 536.984 930.947 526.871C925.73 516.701 923.121 504.913 923.121 491.505C923.121 477.983 925.73 466.166 930.947 456.054C936.164 445.884 943.565 437.987 953.148 432.363C962.789 426.681 974.216 423.841 987.429 423.841C1000.64 423.841 1012.04 426.681 1021.62 432.363C1031.27 437.987 1038.69 445.884 1043.91 456.054C1049.13 466.166 1051.74 477.983 1051.74 491.505C1051.74 504.913 1049.13 516.701 1043.91 526.871C1038.69 536.984 1031.27 544.881 1021.62 550.562C1012.04 556.186 1000.64 558.999 987.429 558.999ZM987.599 530.876C993.611 530.876 998.629 529.172 1002.66 525.763C1006.68 522.298 1009.72 517.582 1011.76 511.617C1013.86 505.651 1014.9 498.862 1014.9 491.249C1014.9 483.636 1013.86 476.847 1011.76 470.882C1009.72 464.916 1006.68 460.201 1002.66 456.735C998.629 453.27 993.611 451.537 987.599 451.537C981.531 451.537 976.428 453.27 972.288 456.735C968.205 460.201 965.114 464.916 963.016 470.882C960.974 476.847 959.954 483.636 959.954 491.249C959.954 498.862 960.974 505.651 963.016 511.617C965.114 517.582 968.205 522.298 972.288 525.763C976.428 529.172 981.531 530.876 987.599 530.876Z" fill="#0F9D58"/>
<path d="M1159.09 500.709V425.545H1195.33V556.442H1160.53V532.666H1159.17C1156.22 540.336 1151.32 546.5 1144.46 551.159C1137.65 555.817 1129.34 558.147 1119.53 558.147C1110.8 558.147 1103.12 556.158 1096.48 552.181C1089.85 548.204 1084.66 542.551 1080.91 535.222C1077.23 527.894 1075.36 519.116 1075.3 508.89V425.545H1111.54V502.413C1111.59 510.14 1113.66 516.247 1117.75 520.735C1121.83 525.223 1127.3 527.468 1134.16 527.468C1138.53 527.468 1142.61 526.473 1146.41 524.485C1150.21 522.44 1153.28 519.428 1155.6 515.452C1157.98 511.475 1159.14 506.56 1159.09 500.709Z" fill="#0F9D58"/>
<path d="M1272.46 558.573C1262.53 558.573 1253.54 556.016 1245.49 550.903C1237.5 545.733 1231.14 538.148 1226.44 528.149C1221.79 518.093 1219.46 505.765 1219.46 491.164C1219.46 476.165 1221.87 463.695 1226.69 453.753C1231.51 443.754 1237.92 436.283 1245.92 431.34C1253.97 426.34 1262.79 423.841 1272.37 423.841C1279.69 423.841 1285.78 425.091 1290.66 427.59C1295.59 430.033 1299.56 433.101 1302.57 436.794C1305.63 440.43 1307.96 444.009 1309.54 447.532H1310.65V381.913H1346.8V556.442H1311.08V535.478H1309.54C1307.84 539.114 1305.43 542.722 1302.31 546.301C1299.25 549.823 1295.25 552.749 1290.32 555.079C1285.44 557.408 1279.49 558.573 1272.46 558.573ZM1283.94 529.683C1289.78 529.683 1294.72 528.092 1298.74 524.911C1302.82 521.673 1305.94 517.156 1308.1 511.361C1310.31 505.566 1311.42 498.777 1311.42 490.994C1311.42 483.21 1310.34 476.449 1308.18 470.711C1306.03 464.973 1302.91 460.542 1298.83 457.417C1294.74 454.292 1289.78 452.73 1283.94 452.73C1277.99 452.73 1272.97 454.349 1268.88 457.588C1264.8 460.826 1261.71 465.314 1259.61 471.052C1257.51 476.79 1256.47 483.437 1256.47 490.994C1256.47 498.607 1257.51 505.339 1259.61 511.191C1261.77 516.986 1264.86 521.531 1268.88 524.826C1272.97 528.064 1277.99 529.683 1283.94 529.683Z" fill="#0F9D58"/>
<path d="M1496.88 524.4C1490.02 524.4 1483.75 522.724 1478.08 519.372C1472.41 515.963 1467.87 511.418 1464.47 505.737C1461.12 500.055 1459.45 493.777 1459.45 486.903C1459.45 479.972 1461.12 473.694 1464.47 468.07C1467.87 462.388 1472.41 457.872 1478.08 454.52C1483.75 451.111 1490.02 449.406 1496.88 449.406C1503.8 449.406 1510.06 451.111 1515.68 454.52C1521.35 457.872 1525.86 462.388 1529.2 468.07C1532.6 473.694 1534.31 479.972 1534.31 486.903C1534.31 493.777 1532.6 500.055 1529.2 505.737C1525.86 511.418 1521.35 515.963 1515.68 519.372C1510.06 522.724 1503.8 524.4 1496.88 524.4Z" fill="black"/>
<path d="M1686.23 516.606C1678.41 516.606 1671.3 515.326 1664.91 512.766C1658.53 510.206 1652.7 506.527 1647.43 501.727C1642.16 496.768 1637.29 490.848 1632.82 483.969L1656.53 470.05C1660.2 475.65 1664.04 480.209 1668.03 483.729C1672.18 487.248 1677.21 489.008 1683.12 489.008C1688.23 489.008 1692.54 487.408 1696.05 484.209C1699.57 481.009 1701.32 474.77 1701.32 465.49C1701.32 455.571 1699.33 448.692 1695.34 444.852C1691.5 440.853 1685.91 438.853 1678.57 438.853C1673.78 438.853 1669.23 439.413 1664.91 440.533C1660.76 441.493 1656.85 442.853 1653.18 444.612L1644.31 419.895C1649.42 417.655 1655.09 415.735 1661.32 414.135C1667.55 412.535 1674.58 411.735 1682.4 411.735C1693.26 411.735 1702.44 413.975 1709.95 418.455C1717.61 422.774 1723.44 429.014 1727.43 437.173C1731.43 445.332 1733.42 455.011 1733.42 466.21C1733.42 475.81 1732.07 483.889 1729.35 490.448C1726.8 496.848 1723.2 501.967 1718.57 505.807C1714.1 509.646 1709.07 512.446 1703.48 514.206C1697.89 515.806 1692.14 516.606 1686.23 516.606ZM1792.83 556.442C1783.09 556.442 1775.58 555.402 1770.31 553.322C1765.04 551.083 1761.05 548.203 1758.33 544.683C1755.78 541.323 1753.86 537.244 1752.59 532.444C1751.47 527.645 1750.91 521.485 1750.91 513.966V411.735L1783.01 414.375V511.566C1783.01 515.086 1783.25 518.046 1783.73 520.445C1784.21 522.685 1785 524.365 1786.12 525.485C1787.88 527.085 1789.79 528.125 1791.87 528.605C1793.95 528.925 1797.22 529.085 1801.69 529.085L1799.3 556.442H1792.83Z" fill="black"/>
<path d="M1862.75 556.442C1853.01 556.442 1845.42 555.402 1839.99 553.322C1834.72 551.243 1830.73 548.363 1828.01 544.683C1825.62 541.323 1823.78 537.404 1822.51 532.924C1821.39 528.285 1820.83 521.965 1820.83 513.966V411.735L1852.93 414.375V511.566C1852.93 515.086 1853.17 518.046 1853.65 520.445C1854.12 522.685 1854.92 524.365 1856.04 525.485C1857.8 527.085 1859.71 528.125 1861.79 528.605C1863.87 528.925 1867.14 529.085 1871.61 529.085L1869.22 556.442H1862.75Z" fill="black"/>
<path d="M1836.64 391.337C1831.69 391.337 1827.53 389.577 1824.18 386.058C1820.83 382.538 1819.15 378.218 1819.15 373.099C1819.15 368.139 1820.83 363.98 1824.18 360.62C1827.53 357.1 1831.69 355.341 1836.64 355.341C1841.75 355.341 1845.98 357.1 1849.33 360.62C1852.53 363.98 1854.12 368.139 1854.12 373.099C1854.12 378.218 1852.53 382.538 1849.33 386.058C1845.98 389.577 1841.75 391.337 1836.64 391.337Z" fill="black"/>
<path d="M1935.57 531.724C1927.74 531.724 1920.4 530.285 1913.53 527.405C1906.66 524.525 1901.07 520.285 1896.76 514.686C1892.61 508.926 1890.53 501.967 1890.53 493.808C1890.53 486.289 1892.45 479.809 1896.28 474.37C1900.11 468.77 1905.46 464.451 1912.33 461.411C1919.2 458.211 1927.1 456.611 1936.05 456.611C1939.72 456.611 1943.07 456.851 1946.11 457.331C1949.3 457.651 1952.09 458.051 1954.49 458.531L1950.42 484.689C1948.82 484.369 1946.9 484.049 1944.67 483.729C1942.59 483.409 1940.12 483.249 1937.24 483.249C1932.13 483.249 1928.3 484.209 1925.74 486.129C1923.19 487.888 1921.91 490.368 1921.91 493.568C1921.91 497.728 1923.59 500.687 1926.94 502.447C1930.3 504.047 1934.45 504.847 1939.4 504.847C1945.95 504.847 1952.25 503.407 1958.32 500.527C1964.55 497.488 1970.86 493.008 1977.25 487.088V519.965C1971.98 523.485 1966.31 526.365 1960.24 528.605C1954.17 530.684 1945.95 531.724 1935.57 531.724ZM1906.1 481.569C1900.19 478.049 1895.32 474.37 1891.49 470.53C1887.82 466.53 1885.02 462.371 1883.11 458.051C1881.35 453.572 1880.47 448.932 1880.47 444.132C1880.47 434.533 1884.14 425.974 1891.49 418.455C1898.84 410.935 1910.57 404.936 1926.7 400.456L1938.2 426.614C1931.33 428.374 1926.06 430.214 1922.39 432.134C1918.72 434.053 1916.16 436.133 1914.73 438.373C1913.29 440.453 1912.57 442.773 1912.57 445.332C1912.57 449.652 1914.17 453.412 1917.36 456.611C1920.71 459.811 1925.75 462.451 1932.45 464.531L1906.1 481.569ZM2017.97 556.442C2008.23 556.442 2000.64 555.402 1995.21 553.322C1989.94 551.243 1985.95 548.363 1983.23 544.683C1980.84 541.323 1979 537.404 1977.73 532.924C1976.61 528.285 1976.05 521.965 1976.05 513.966V411.735L2008.15 414.375V511.566C2008.15 515.086 2008.39 518.046 2008.87 520.445C2009.34 522.685 2010.14 524.365 2011.26 525.485C2013.02 527.085 2014.93 528.125 2017.01 528.605C2019.09 528.925 2022.36 529.085 2026.83 529.085L2024.44 556.442H2017.97Z" fill="black"/>
<path d="M2088.02 556.442C2078.28 556.442 2070.77 555.402 2065.5 553.322C2060.23 551.083 2056.24 548.203 2053.52 544.683C2050.65 540.844 2048.65 536.524 2047.54 531.724C2046.58 526.925 2046.1 521.005 2046.1 513.966V413.175C2044.98 406.136 2043.54 399.897 2041.79 394.457C2040.03 388.858 2037.95 384.138 2035.56 380.298C2033.32 376.299 2030.77 373.339 2027.89 371.419C2025.02 369.339 2021.99 368.299 2018.79 368.299C2014.32 368.299 2010.89 369.819 2008.49 372.859C2005.94 375.739 2004.66 380.218 2004.66 386.298C2004.66 388.218 2004.74 390.217 2004.9 392.297C2005.06 394.217 2005.3 396.137 2005.62 398.057L1973.76 397.577C1973.44 395.337 1973.2 393.017 1973.04 390.617C1972.72 388.218 1972.56 385.738 1972.56 383.178C1972.56 369.899 1976.31 359.66 1983.82 352.461C1991.32 345.102 2002.26 341.422 2016.64 341.422C2025.9 341.422 2034.04 343.422 2041.07 347.421C2048.25 351.261 2054.32 356.46 2059.27 363.02C2064.38 369.579 2068.46 377.019 2071.49 385.338C2074.68 393.497 2076.92 401.976 2078.2 410.775V511.566C2078.2 515.086 2078.44 518.046 2078.92 520.445C2079.39 522.685 2080.19 524.365 2081.31 525.485C2082.91 527.085 2084.74 528.125 2086.82 528.605C2089.06 528.925 2092.41 529.085 2096.88 529.085L2094.49 556.442H2088.02Z" fill="black"/>
<path d="M2233.9 556.442C2224.15 556.442 2216.57 555.402 2211.14 553.322C2205.87 551.243 2201.88 548.363 2199.16 544.683C2196.77 541.323 2194.93 537.404 2193.65 532.924C2192.54 528.285 2191.98 521.965 2191.98 513.966V411.735L2224.08 414.375V511.566C2224.08 515.086 2224.31 518.046 2224.79 520.445C2225.27 522.685 2226.07 524.365 2227.19 525.485C2228.95 527.085 2230.86 528.125 2232.94 528.605C2235.01 528.925 2238.29 529.085 2242.76 529.085L2240.36 556.442H2233.9ZM2138.08 514.446C2134.41 514.446 2130.49 513.326 2126.34 511.086C2122.35 508.846 2118.52 505.887 2114.84 502.207C2111.33 498.527 2108.38 494.288 2105.98 489.488C2103.75 484.689 2102.63 479.809 2102.63 474.85C2102.63 470.21 2103.83 466.13 2106.22 462.611C2108.78 459.091 2113.73 457.331 2121.07 457.331H2202.76V484.689H2154.37V495.488C2154.37 502.207 2152.93 507.087 2150.06 510.126C2147.18 513.006 2143.19 514.446 2138.08 514.446Z" fill="black"/>
<path d="M2298.18 516.606C2290.36 516.606 2283.25 515.326 2276.86 512.766C2270.48 510.206 2264.65 506.527 2259.38 501.727C2254.11 496.768 2249.24 490.848 2244.77 483.969L2268.48 470.05C2272.15 475.65 2275.99 480.209 2279.98 483.729C2284.13 487.248 2289.16 489.008 2295.07 489.008C2300.18 489.008 2304.49 487.408 2308 484.209C2311.52 481.009 2313.27 474.77 2313.27 465.49C2313.27 455.571 2311.28 448.692 2307.29 444.852C2303.45 440.853 2297.86 438.853 2290.52 438.853C2285.73 438.853 2281.18 439.413 2276.86 440.533C2272.71 441.493 2268.8 442.853 2265.13 444.612L2256.26 419.895C2261.37 417.655 2267.04 415.735 2273.27 414.135C2279.5 412.535 2286.53 411.735 2294.35 411.735C2305.21 411.735 2314.39 413.975 2321.9 418.455C2329.56 422.774 2335.39 429.014 2339.38 437.173C2343.38 445.332 2345.37 455.011 2345.37 466.21C2345.37 475.81 2344.01 483.889 2341.3 490.448C2338.75 496.848 2335.15 501.967 2330.52 505.807C2326.05 509.646 2321.02 512.446 2315.43 514.206C2309.84 515.806 2304.09 516.606 2298.18 516.606ZM2404.78 556.442C2395.04 556.442 2387.53 555.402 2382.26 553.322C2376.99 551.083 2373 548.203 2370.28 544.683C2367.73 541.323 2365.81 537.244 2364.54 532.444C2363.42 527.645 2362.86 521.485 2362.86 513.966V411.735L2394.96 414.375V511.566C2394.96 515.086 2395.2 518.046 2395.68 520.445C2396.15 522.685 2396.95 524.365 2398.07 525.485C2399.83 527.085 2401.74 528.125 2403.82 528.605C2405.9 528.925 2409.17 529.085 2413.64 529.085L2411.25 556.442H2404.78Z" fill="black"/>
<path d="M2521.65 556.442C2513.5 556.442 2505.92 555.642 2498.89 554.042C2491.86 552.442 2485.16 549.803 2478.77 546.123C2472.54 542.443 2466.39 537.484 2460.33 531.244C2454.26 524.845 2448.03 516.926 2441.64 507.487L2447.87 488.528C2454.26 487.888 2460.25 486.369 2465.83 483.969C2471.42 481.409 2475.98 478.129 2479.49 474.13C2483 469.97 2484.76 465.091 2484.76 459.491C2484.76 451.972 2482.28 446.692 2477.33 443.652C2472.54 440.613 2466.55 439.093 2459.37 439.093C2453.62 439.093 2448.35 439.653 2443.56 440.773C2438.77 441.893 2434.3 443.412 2430.14 445.332L2421.04 419.895C2426.79 417.495 2433.18 415.575 2440.2 414.135C2447.23 412.535 2454.9 411.735 2463.2 411.735C2473.74 411.735 2483.08 413.575 2491.23 417.255C2499.53 420.775 2506 426.054 2510.63 433.093C2515.42 440.133 2517.81 448.852 2517.81 459.251C2517.81 467.41 2516.06 474.93 2512.54 481.809C2509.19 488.528 2504.32 494.448 2497.93 499.567C2491.7 504.687 2484.28 508.687 2475.66 511.566C2467.03 514.286 2457.45 515.646 2446.91 515.646C2438.61 515.646 2432.22 513.886 2427.75 510.366C2423.44 506.847 2421.28 502.127 2421.28 496.208C2421.28 490.448 2423.2 486.129 2427.03 483.249C2430.86 480.209 2435.73 478.689 2441.64 478.689C2446.27 478.689 2450.58 479.649 2454.58 481.569C2458.57 483.489 2463.12 487.008 2468.23 492.128L2468.95 497.648C2476.29 507.087 2483 513.966 2489.07 518.286C2495.3 522.605 2501.13 525.405 2506.56 526.685C2512.15 527.805 2517.66 528.365 2523.08 528.365H2528.35L2526.2 556.442H2521.65Z" fill="black"/>
<path d="M47.0232 4616.2V4478.07H0V4448H125.787V4478.07H78.7639V4616.2H47.0232Z" fill="black"/>
<path d="M144.598 4448H175.398V4495.22L173.517 4516.13H175.398C178.69 4510.65 183.392 4506.18 189.505 4502.74C195.775 4499.13 202.75 4497.33 210.431 4497.33C225.321 4497.33 236.293 4501.72 243.347 4510.49C250.557 4519.26 254.162 4531.24 254.162 4546.43V4616.2H223.362V4550.19C223.362 4542.2 221.481 4536.17 217.719 4532.1C213.957 4527.87 208.707 4525.76 201.967 4525.76C197.734 4525.76 193.973 4526.7 190.681 4528.58C187.389 4530.3 184.568 4532.73 182.217 4535.86C180.022 4538.99 178.298 4542.67 177.044 4546.9C175.947 4550.97 175.398 4555.36 175.398 4560.06V4616.2H144.598V4448Z" fill="black"/>
<path d="M388.7 4588.48C383.371 4597.88 376.161 4605.47 367.069 4611.27C358.135 4617.06 347.163 4619.96 334.153 4619.96C325.376 4619.96 317.225 4618.47 309.701 4615.5C302.334 4612.37 295.908 4608.06 290.422 4602.58C284.936 4597.1 280.625 4590.67 277.49 4583.31C274.512 4575.8 273.023 4567.57 273.023 4558.65C273.023 4550.35 274.512 4542.52 277.49 4535.16C280.468 4527.64 284.622 4521.14 289.951 4515.66C295.281 4510.02 301.55 4505.56 308.761 4502.27C316.128 4498.98 324.2 4497.33 332.978 4497.33C342.225 4497.33 350.455 4498.9 357.665 4502.03C364.875 4505.01 370.91 4509.24 375.769 4514.72C380.628 4520.04 384.311 4526.39 386.819 4533.75C389.327 4541.11 390.581 4549.09 390.581 4557.71C390.581 4558.8 390.581 4559.74 390.581 4560.53C390.424 4561.47 390.346 4562.33 390.346 4563.11C390.189 4563.89 390.111 4564.76 390.111 4565.7H303.353C303.98 4570.39 305.234 4574.47 307.115 4577.91C309.153 4581.2 311.582 4584.02 314.403 4586.37C317.382 4588.56 320.595 4590.21 324.043 4591.3C327.492 4592.24 331.018 4592.71 334.623 4592.71C341.677 4592.71 347.476 4591.14 352.022 4588.01C356.724 4584.72 360.408 4580.65 363.072 4575.8L388.7 4588.48ZM360.721 4543.85C360.565 4541.81 359.859 4539.54 358.605 4537.03C357.508 4534.53 355.784 4532.18 353.433 4529.99C351.238 4527.79 348.417 4525.99 344.968 4524.58C341.677 4523.17 337.68 4522.47 332.978 4522.47C326.394 4522.47 320.595 4524.35 315.579 4528.11C310.563 4531.87 307.036 4537.11 304.999 4543.85H360.721Z" fill="black"/>
<path d="M490.832 4516.13H492.713C496.318 4510.33 501.177 4505.79 507.29 4502.5C513.403 4499.06 520.379 4497.33 528.216 4497.33C535.426 4497.33 541.774 4498.51 547.26 4500.86C552.746 4503.21 557.213 4506.57 560.662 4510.96C564.267 4515.19 566.931 4520.36 568.656 4526.46C570.537 4532.41 571.477 4539.07 571.477 4546.43V4616.2H540.677V4550.19C540.677 4541.89 538.796 4535.78 535.034 4531.87C531.429 4527.79 526.1 4525.76 519.046 4525.76C514.814 4525.76 511.052 4526.7 507.761 4528.58C504.626 4530.3 501.883 4532.73 499.532 4535.86C497.337 4538.84 495.613 4542.44 494.359 4546.67C493.262 4550.74 492.713 4555.12 492.713 4559.82V4616.2H461.913V4501.09H490.832V4516.13Z" fill="black"/>
<path d="M706.015 4588.48C700.686 4597.88 693.475 4605.47 684.384 4611.27C675.45 4617.06 664.478 4619.96 651.468 4619.96C642.69 4619.96 634.54 4618.47 627.016 4615.5C619.649 4612.37 613.222 4608.06 607.736 4602.58C602.25 4597.1 597.94 4590.67 594.805 4583.31C591.827 4575.8 590.338 4567.57 590.338 4558.65C590.338 4550.35 591.827 4542.52 594.805 4535.16C597.783 4527.64 601.937 4521.14 607.266 4515.66C612.595 4510.02 618.865 4505.56 626.075 4502.27C633.442 4498.98 641.515 4497.33 650.292 4497.33C659.54 4497.33 667.769 4498.9 674.98 4502.03C682.19 4505.01 688.225 4509.24 693.084 4514.72C697.943 4520.04 701.626 4526.39 704.134 4533.75C706.642 4541.11 707.896 4549.09 707.896 4557.71C707.896 4558.8 707.896 4559.74 707.896 4560.53C707.739 4561.47 707.661 4562.33 707.661 4563.11C707.504 4563.89 707.426 4564.76 707.426 4565.7H620.668C621.295 4570.39 622.549 4574.47 624.43 4577.91C626.467 4581.2 628.897 4584.02 631.718 4586.37C634.696 4588.56 637.91 4590.21 641.358 4591.3C644.806 4592.24 648.333 4592.71 651.938 4592.71C658.992 4592.71 664.791 4591.14 669.337 4588.01C674.039 4584.72 677.723 4580.65 680.387 4575.8L706.015 4588.48ZM678.036 4543.85C677.879 4541.81 677.174 4539.54 675.92 4537.03C674.823 4534.53 673.099 4532.18 670.748 4529.99C668.553 4527.79 665.732 4525.99 662.283 4524.58C658.992 4523.17 654.995 4522.47 650.292 4522.47C643.709 4522.47 637.91 4524.35 632.894 4528.11C627.878 4531.87 624.351 4537.11 622.314 4543.85H678.036Z" fill="black"/>
<path d="M713.044 4501.09H747.607L766.651 4573.21H768.297L791.103 4501.09H822.844L845.885 4573.21H847.531L866.34 4501.09H900.432L863.519 4616.2H830.367L807.326 4543.61H805.68L782.639 4616.2H749.958L713.044 4501.09Z" fill="black"/>
<path d="M953.901 4501.09H988.463L1007.51 4573.21H1009.15L1031.96 4501.09H1063.7L1086.74 4573.21H1088.39L1107.2 4501.09H1141.29L1104.38 4616.2H1071.22L1048.18 4543.61H1046.54L1023.5 4616.2H990.814L953.901 4501.09Z" fill="black"/>
<path d="M1224.03 4603.99H1222.15C1218.54 4608.37 1214.16 4612.13 1208.98 4615.26C1203.97 4618.4 1197.46 4619.96 1189.47 4619.96C1183.51 4619.96 1177.87 4618.94 1172.54 4616.91C1167.37 4615.03 1162.82 4612.37 1158.9 4608.92C1154.98 4605.47 1151.93 4601.32 1149.73 4596.47C1147.54 4591.61 1146.44 4586.29 1146.44 4580.49C1146.44 4574.54 1147.62 4569.22 1149.97 4564.52C1152.32 4559.67 1155.61 4555.52 1159.84 4552.07C1164.08 4548.62 1169.01 4546.04 1174.66 4544.32C1180.46 4542.44 1186.73 4541.5 1193.47 4541.5C1200.99 4541.5 1207.18 4542.12 1212.04 4543.38C1216.9 4544.47 1220.9 4545.65 1224.03 4546.9V4543.38C1224.03 4537.27 1221.6 4532.26 1216.74 4528.34C1211.88 4524.27 1205.85 4522.23 1198.64 4522.23C1187.98 4522.23 1178.97 4526.7 1171.6 4535.63L1149.26 4520.36C1161.49 4505.01 1178.18 4497.33 1199.34 4497.33C1217.21 4497.33 1230.85 4501.56 1240.25 4510.02C1249.66 4518.32 1254.36 4530.69 1254.36 4547.14V4616.2H1224.03V4603.99ZM1224.03 4569.45C1220.43 4567.73 1216.66 4566.4 1212.75 4565.46C1208.98 4564.36 1204.83 4563.82 1200.28 4563.82C1192.92 4563.82 1187.2 4565.46 1183.12 4568.75C1179.2 4571.88 1177.24 4575.8 1177.24 4580.49C1177.24 4585.19 1179.12 4588.95 1182.89 4591.77C1186.8 4594.59 1191.27 4596 1196.29 4596C1200.36 4596 1204.12 4595.29 1207.57 4593.89C1211.02 4592.32 1213.92 4590.36 1216.27 4588.01C1218.78 4585.51 1220.66 4582.69 1221.91 4579.56C1223.33 4576.27 1224.03 4572.9 1224.03 4569.45Z" fill="black"/>
<path d="M1312.76 4610.56L1264.33 4501.09H1299.36L1328.51 4570.86H1330.16L1358.14 4501.09H1392.47L1320.28 4666.95H1287.13L1312.76 4610.56Z" fill="black"/>
<path d="M1454.51 4527.4H1434.29V4501.09H1454.51V4465.85H1485.31V4501.09H1513.53V4527.4H1485.31V4572.04C1485.31 4574.7 1485.55 4577.21 1486.02 4579.56C1486.65 4581.75 1487.74 4583.63 1489.31 4585.19C1491.51 4587.7 1494.64 4588.95 1498.72 4588.95C1501.38 4588.95 1503.5 4588.72 1505.06 4588.25C1506.63 4587.62 1508.12 4586.84 1509.53 4585.9L1518.23 4612.91C1514.63 4614.64 1510.71 4615.89 1506.47 4616.67C1502.4 4617.61 1497.85 4618.08 1492.84 4618.08C1487.04 4618.08 1481.79 4617.22 1477.09 4615.5C1472.54 4613.62 1468.7 4611.11 1465.56 4607.98C1458.2 4600.93 1454.51 4590.91 1454.51 4577.91V4527.4Z" fill="black"/>
<path d="M1589.58 4497.33C1598.52 4497.33 1606.67 4498.9 1614.04 4502.03C1621.56 4505.01 1627.99 4509.24 1633.32 4514.72C1638.8 4520.04 1643.03 4526.46 1646.01 4533.98C1649.15 4541.5 1650.71 4549.72 1650.71 4558.65C1650.71 4567.57 1649.15 4575.8 1646.01 4583.31C1643.03 4590.83 1638.8 4597.33 1633.32 4602.81C1627.99 4608.14 1621.56 4612.37 1614.04 4615.5C1606.67 4618.47 1598.52 4619.96 1589.58 4619.96C1580.65 4619.96 1572.42 4618.47 1564.9 4615.5C1557.53 4612.37 1551.1 4608.14 1545.62 4602.81C1540.29 4597.33 1536.06 4590.83 1532.92 4583.31C1529.94 4575.8 1528.45 4567.57 1528.45 4558.65C1528.45 4549.72 1529.94 4541.5 1532.92 4533.98C1536.06 4526.46 1540.29 4520.04 1545.62 4514.72C1551.1 4509.24 1557.53 4505.01 1564.9 4502.03C1572.42 4498.9 1580.65 4497.33 1589.58 4497.33ZM1589.58 4591.54C1593.5 4591.54 1597.27 4590.83 1600.87 4589.42C1604.63 4587.86 1607.92 4585.66 1610.74 4582.84C1613.57 4580.03 1615.76 4576.58 1617.33 4572.51C1619.05 4568.44 1619.91 4563.82 1619.91 4558.65C1619.91 4553.48 1619.05 4548.86 1617.33 4544.79C1615.76 4540.72 1613.57 4537.27 1610.74 4534.45C1607.92 4531.63 1604.63 4529.52 1600.87 4528.11C1597.27 4526.54 1593.5 4525.76 1589.58 4525.76C1585.51 4525.76 1581.67 4526.54 1578.06 4528.11C1574.46 4529.52 1571.25 4531.63 1568.42 4534.45C1565.6 4537.27 1563.33 4540.72 1561.61 4544.79C1560.04 4548.86 1559.25 4553.48 1559.25 4558.65C1559.25 4563.82 1560.04 4568.44 1561.61 4572.51C1563.33 4576.58 1565.6 4580.03 1568.42 4582.84C1571.25 4585.66 1574.46 4587.86 1578.06 4589.42C1581.67 4590.83 1585.51 4591.54 1589.58 4591.54Z" fill="black"/>
<path d="M1831.5 4586.84C1826.48 4596.55 1819.43 4604.54 1810.33 4610.8C1801.4 4616.91 1790.19 4619.96 1776.71 4619.96C1767.78 4619.96 1759.55 4618.47 1752.03 4615.5C1744.66 4612.37 1738.23 4608.06 1732.75 4602.58C1727.42 4597.1 1723.18 4590.67 1720.05 4583.31C1717.07 4575.8 1715.58 4567.57 1715.58 4558.65C1715.58 4549.72 1717.07 4541.5 1720.05 4533.98C1723.18 4526.46 1727.42 4520.04 1732.75 4514.72C1738.23 4509.24 1744.66 4505.01 1752.03 4502.03C1759.55 4498.9 1767.78 4497.33 1776.71 4497.33C1790.04 4497.33 1801.24 4500.39 1810.33 4506.5C1819.43 4512.6 1826.09 4520.51 1830.32 4530.22L1802.11 4541.97C1799.44 4536.64 1795.99 4532.65 1791.76 4529.99C1787.69 4527.17 1782.51 4525.76 1776.24 4525.76C1772.17 4525.76 1768.33 4526.54 1764.72 4528.11C1761.12 4529.67 1757.9 4531.87 1755.08 4534.69C1752.42 4537.5 1750.3 4540.95 1748.73 4545.02C1747.17 4549.09 1746.38 4553.64 1746.38 4558.65C1746.38 4563.66 1747.17 4568.2 1748.73 4572.27C1750.3 4576.34 1752.42 4579.79 1755.08 4582.61C1757.9 4585.43 1761.12 4587.62 1764.72 4589.19C1768.33 4590.75 1772.17 4591.54 1776.24 4591.54C1782.67 4591.54 1788.08 4590.13 1792.47 4587.31C1797.01 4584.33 1800.62 4580.1 1803.28 4574.62L1831.5 4586.84Z" fill="#0F9D58"/>
<path d="M1850.29 4616.2V4448H1881.09V4616.2H1850.29Z" fill="#0F9D58"/>
<path d="M1960.86 4497.33C1969.79 4497.33 1977.94 4498.9 1985.31 4502.03C1992.83 4505.01 1999.26 4509.24 2004.59 4514.72C2010.07 4520.04 2014.31 4526.46 2017.28 4533.98C2020.42 4541.5 2021.99 4549.72 2021.99 4558.65C2021.99 4567.57 2020.42 4575.8 2017.28 4583.31C2014.31 4590.83 2010.07 4597.33 2004.59 4602.81C1999.26 4608.14 1992.83 4612.37 1985.31 4615.5C1977.94 4618.47 1969.79 4619.96 1960.86 4619.96C1951.92 4619.96 1943.69 4618.47 1936.17 4615.5C1928.8 4612.37 1922.38 4608.14 1916.89 4602.81C1911.56 4597.33 1907.33 4590.83 1904.19 4583.31C1901.22 4575.8 1899.73 4567.57 1899.73 4558.65C1899.73 4549.72 1901.22 4541.5 1904.19 4533.98C1907.33 4526.46 1911.56 4520.04 1916.89 4514.72C1922.38 4509.24 1928.8 4505.01 1936.17 4502.03C1943.69 4498.9 1951.92 4497.33 1960.86 4497.33ZM1960.86 4591.54C1964.78 4591.54 1968.54 4590.83 1972.14 4589.42C1975.9 4587.86 1979.2 4585.66 1982.02 4582.84C1984.84 4580.03 1987.03 4576.58 1988.6 4572.51C1990.32 4568.44 1991.19 4563.82 1991.19 4558.65C1991.19 4553.48 1990.32 4548.86 1988.6 4544.79C1987.03 4540.72 1984.84 4537.27 1982.02 4534.45C1979.2 4531.63 1975.9 4529.52 1972.14 4528.11C1968.54 4526.54 1964.78 4525.76 1960.86 4525.76C1956.78 4525.76 1952.94 4526.54 1949.34 4528.11C1945.73 4529.52 1942.52 4531.63 1939.7 4534.45C1936.87 4537.27 1934.6 4540.72 1932.88 4544.79C1931.31 4548.86 1930.53 4553.48 1930.53 4558.65C1930.53 4563.82 1931.31 4568.44 1932.88 4572.51C1934.6 4576.58 1936.87 4580.03 1939.7 4582.84C1942.52 4585.66 1945.73 4587.86 1949.34 4589.42C1952.94 4590.83 1956.78 4591.54 1960.86 4591.54Z" fill="#0F9D58"/>
<path d="M2120.33 4601.17H2118.45C2114.85 4606.96 2109.99 4611.58 2103.88 4615.03C2097.76 4618.32 2090.79 4619.96 2082.95 4619.96C2068.37 4619.96 2057.48 4615.5 2050.27 4606.57C2043.22 4597.64 2039.69 4585.74 2039.69 4570.86V4501.09H2070.49V4567.1C2070.49 4575.41 2072.29 4581.59 2075.9 4585.66C2079.66 4589.58 2085.07 4591.54 2092.12 4591.54C2096.35 4591.54 2100.03 4590.67 2103.17 4588.95C2106.46 4587.07 2109.2 4584.65 2111.4 4581.67C2113.75 4578.54 2115.47 4574.94 2116.57 4570.86C2117.83 4566.63 2118.45 4562.17 2118.45 4557.47V4501.09H2149.25V4616.2H2120.33V4601.17Z" fill="#0F9D58"/>
<path d="M2260.31 4602.34H2258.43C2255.6 4607.2 2251.22 4611.35 2245.26 4614.79C2239.3 4618.24 2231.94 4619.96 2223.16 4619.96C2215.79 4619.96 2208.74 4618.47 2202 4615.5C2195.41 4612.37 2189.54 4608.14 2184.36 4602.81C2179.35 4597.33 2175.35 4590.83 2172.37 4583.31C2169.39 4575.8 2167.91 4567.57 2167.91 4558.65C2167.91 4549.72 2169.39 4541.5 2172.37 4533.98C2175.35 4526.46 2179.35 4520.04 2184.36 4514.72C2189.54 4509.24 2195.41 4505.01 2202 4502.03C2208.74 4498.9 2215.79 4497.33 2223.16 4497.33C2231.94 4497.33 2239.3 4499.06 2245.26 4502.5C2251.22 4505.95 2255.6 4510.1 2258.43 4514.95H2260.31L2258.43 4498.51V4448H2289.23V4616.2H2260.31V4602.34ZM2229.51 4591.54C2233.58 4591.54 2237.42 4590.83 2241.03 4589.42C2244.79 4587.86 2248.08 4585.66 2250.9 4582.84C2253.72 4580.03 2256 4576.58 2257.72 4572.51C2259.44 4568.44 2260.31 4563.82 2260.31 4558.65C2260.31 4553.48 2259.44 4548.86 2257.72 4544.79C2256 4540.72 2253.72 4537.27 2250.9 4534.45C2248.08 4531.63 2244.79 4529.52 2241.03 4528.11C2237.42 4526.54 2233.58 4525.76 2229.51 4525.76C2225.43 4525.76 2221.51 4526.54 2217.75 4528.11C2214.15 4529.67 2210.93 4531.87 2208.11 4534.69C2205.29 4537.5 2203.02 4540.95 2201.29 4545.02C2199.57 4549.09 2198.71 4553.64 2198.71 4558.65C2198.71 4563.66 2199.57 4568.2 2201.29 4572.27C2203.02 4576.34 2205.29 4579.79 2208.11 4582.61C2210.93 4585.43 2214.15 4587.62 2217.75 4589.19C2221.51 4590.75 2225.43 4591.54 2229.51 4591.54Z" fill="#0F9D58"/>
<path d="M2334.04 4617.61C2328.4 4617.61 2323.54 4615.65 2319.46 4611.74C2315.55 4607.67 2313.59 4602.81 2313.59 4597.17C2313.59 4591.54 2315.55 4586.76 2319.46 4582.84C2323.54 4578.93 2328.4 4576.97 2334.04 4576.97C2339.68 4576.97 2344.46 4578.93 2348.38 4582.84C2352.3 4586.76 2354.26 4591.54 2354.26 4597.17C2354.26 4602.81 2352.3 4607.67 2348.38 4611.74C2344.46 4615.65 2339.68 4617.61 2334.04 4617.61Z" fill="#0F9D58"/>
<path d="M265.659 4072.46H261.665C252.787 4087.36 239.249 4100.39 221.05 4111.56C202.851 4122.27 181.101 4127.62 155.8 4127.62C134.938 4127.62 114.964 4123.2 95.8771 4114.35C77.2343 4105.04 60.8109 4092.24 46.6069 4075.95C32.4029 4059.66 21.0841 4040.58 12.6504 4018.7C4.21681 3996.36 0 3971.92 0 3945.39C0 3918.86 4.21681 3894.65 12.6504 3872.78C21.0841 3850.43 32.4029 3831.12 46.6069 3814.82C60.8109 3798.53 77.2343 3785.97 95.8771 3777.12C114.964 3767.81 134.938 3763.16 155.8 3763.16C181.101 3763.16 202.851 3768.74 221.05 3779.91C239.249 3790.62 252.787 3803.42 261.665 3818.32H265.659L261.665 3770.84V3616.54H335.57V4116.45H265.659V4072.46ZM169.782 4055.7C182.211 4055.7 194.195 4053.14 205.736 4048.02C217.721 4042.9 227.93 4035.69 236.364 4026.38C245.241 4017.07 252.343 4005.67 257.67 3992.17C262.996 3978.2 265.659 3962.61 265.659 3945.39C265.659 3928.17 262.996 3912.81 257.67 3899.31C252.343 3885.34 245.241 3873.71 236.364 3864.4C227.93 3855.09 217.721 3847.87 205.736 3842.75C194.195 3837.63 182.211 3835.07 169.782 3835.07C156.91 3835.07 144.703 3837.63 133.163 3842.75C121.622 3847.87 111.413 3855.32 102.535 3865.09C94.1016 3874.4 87.2215 3885.81 81.895 3899.31C76.5685 3912.81 73.9053 3928.17 73.9053 3945.39C73.9053 3962.61 76.5685 3977.97 81.895 3991.47C87.2215 4004.97 94.1016 4016.6 102.535 4026.38C111.413 4035.69 121.622 4042.9 133.163 4048.02C144.703 4053.14 156.91 4055.7 169.782 4055.7Z" fill="#010B17"/>
<path d="M599.903 4074.56H595.908C586.143 4088.05 573.492 4100.39 557.957 4111.56C542.421 4122.27 522.669 4127.62 498.699 4127.62C481.388 4127.62 465.187 4124.59 450.095 4118.54C435.003 4112.96 421.909 4105.04 410.812 4094.8C399.715 4084.1 390.837 4071.76 384.179 4057.8C377.965 4043.37 374.858 4027.54 374.858 4010.32C374.858 3992.17 378.187 3975.88 384.845 3961.45C391.947 3947.02 401.49 3934.92 413.475 3925.14C425.904 3915.37 440.552 3907.92 457.419 3902.8C474.286 3897.21 492.485 3894.42 512.015 3894.42C533.765 3894.42 551.964 3896.75 566.612 3901.4C581.26 3905.59 592.357 3909.55 599.903 3913.27V3900.01C599.903 3889.76 597.683 3880.22 593.245 3871.38C589.25 3862.53 583.479 3855.09 575.933 3849.04C568.831 3842.52 560.62 3837.63 551.298 3834.37C541.977 3830.65 532.212 3828.79 522.003 3828.79C505.579 3828.79 490.709 3832.28 477.393 3839.26C464.521 3845.78 452.98 3856.48 442.771 3871.38L384.179 3830.88C399.715 3808.54 419.024 3791.78 442.105 3780.61C465.187 3768.98 491.375 3763.16 520.671 3763.16C569.053 3763.16 606.339 3775.73 632.528 3800.86C659.16 3826 672.476 3861.84 672.476 3908.38V4116.45H599.903V4074.56ZM599.903 3974.01C590.138 3967.96 579.263 3963.08 567.278 3959.35C555.293 3955.63 541.533 3953.77 525.997 3953.77C502.916 3953.77 484.495 3959.35 470.735 3970.52C456.975 3981.69 450.095 3995.19 450.095 4011.02C450.095 4019.4 451.87 4026.85 455.421 4033.36C458.972 4039.41 463.411 4044.77 468.738 4049.42C474.508 4054.07 480.944 4057.57 488.046 4059.89C495.592 4062.22 503.138 4063.38 510.684 4063.38C522.668 4063.38 533.987 4061.06 544.64 4056.4C555.737 4051.28 565.28 4044.77 573.27 4036.85C581.26 4028.47 587.696 4018.93 592.579 4008.23C597.461 3997.52 599.903 3986.12 599.903 3974.01Z" fill="#010B17"/>
<path d="M823.397 4096.9L687.572 3774.33H770.132L860.017 4001.24H863.346L950.568 3774.33H1032.46L828.058 4267.26H749.492L823.397 4096.9Z" fill="#010B17"/>
<path d="M1176.68 4127.62C1156.7 4127.62 1138.73 4124.83 1122.75 4119.24C1106.77 4113.65 1092.79 4106.44 1080.8 4097.6C1068.82 4088.29 1058.61 4077.81 1050.17 4066.18C1042.18 4054.54 1035.97 4042.44 1031.53 4029.87L1098.11 4000.55C1105.66 4020.56 1116.53 4035.46 1130.74 4045.23C1144.94 4054.54 1160.26 4059.2 1176.68 4059.2C1195.32 4059.2 1209.97 4055.24 1220.62 4047.33C1231.28 4039.41 1236.6 4030.57 1236.6 4020.79C1236.6 4011.02 1232.61 4002.64 1224.62 3995.66C1216.63 3988.21 1201.54 3981.69 1179.34 3976.11L1132.74 3964.24C1122.53 3961.91 1112.09 3958.42 1101.44 3953.77C1091.23 3948.65 1081.69 3942.36 1072.81 3934.92C1063.93 3927 1056.61 3917.69 1050.84 3906.99C1045.51 3895.82 1042.85 3882.78 1042.85 3867.89C1042.85 3851.13 1046.18 3836.24 1052.84 3823.2C1059.94 3810.17 1069.48 3799.23 1081.47 3790.39C1093.45 3781.54 1107.21 3774.79 1122.75 3770.14C1138.73 3765.48 1155.59 3763.16 1173.35 3763.16C1188 3763.16 1201.98 3764.79 1215.3 3768.04C1229.06 3771.3 1241.71 3776.19 1253.25 3782.71C1264.79 3789.22 1275 3797.6 1283.87 3807.84C1293.2 3817.62 1300.52 3829.25 1305.85 3842.75L1240.6 3871.38C1234.38 3856.48 1224.62 3845.78 1211.3 3839.26C1197.98 3832.28 1184.45 3828.79 1170.69 3828.79C1164.47 3828.79 1158.04 3829.72 1151.38 3831.58C1145.16 3832.98 1139.39 3835.31 1134.07 3838.56C1129.18 3841.36 1124.97 3845.08 1121.42 3849.73C1118.31 3854.39 1116.76 3859.51 1116.76 3865.09C1116.76 3874.4 1120.53 3881.85 1128.07 3887.44C1136.06 3892.56 1148.05 3897.21 1164.03 3901.4L1213.96 3914.67C1247.7 3923.51 1272.33 3937.01 1287.87 3955.16C1303.85 3972.85 1311.84 3993.8 1311.84 4018C1311.84 4032.9 1308.51 4046.86 1301.85 4059.89C1295.64 4072.93 1286.54 4084.56 1274.55 4094.8C1262.57 4105.04 1248.14 4112.96 1231.28 4118.54C1214.85 4124.59 1196.65 4127.62 1176.68 4127.62Z" fill="#010B17"/>
<path d="M1890.84 4057.91H2012.41V4121.4H1792.92V4055.92C1811.84 4036.41 1829.34 4018.39 1845.43 4001.85C1852.37 3994.91 1859.3 3987.8 1866.24 3980.52C1872.86 3973.25 1879.01 3966.63 1884.69 3960.68C1890.68 3954.4 1895.89 3948.94 1900.3 3944.31C1905.03 3939.35 1908.5 3935.55 1910.71 3932.9C1919.85 3922.32 1926.32 3913.06 1930.1 3905.12C1933.89 3896.85 1935.78 3887.92 1935.78 3878.33C1935.78 3868.74 1932.31 3860.64 1925.37 3854.03C1918.75 3847.08 1909.45 3843.61 1897.46 3843.61C1885.48 3843.61 1875.86 3847.25 1868.61 3854.52C1861.67 3861.47 1856.47 3870.73 1853 3882.3L1788.66 3854.52C1791.5 3844.27 1795.92 3834.35 1801.91 3824.76C1807.9 3815.17 1815.47 3806.74 1824.61 3799.46C1833.76 3791.85 1844.48 3785.74 1856.78 3781.11C1869.4 3776.48 1883.27 3774.16 1898.41 3774.16C1915.44 3774.16 1930.73 3776.81 1944.3 3782.1C1957.86 3787.06 1969.21 3794 1978.35 3802.93C1987.82 3811.86 1995.07 3822.44 2000.11 3834.68C2005.16 3846.92 2007.68 3860.15 2007.68 3874.37C2007.68 3894.87 2003.11 3913.89 1993.96 3931.41C1985.13 3948.61 1972.68 3965.64 1956.59 3982.51L1888.48 4052.95L1890.84 4057.91Z" fill="#010B17"/>
<path d="M2187.74 4129.34C2166.3 4129.34 2147.06 4124.88 2130.03 4115.95C2113 4107.02 2098.5 4094.62 2086.51 4078.74C2074.53 4062.87 2065.23 4044.18 2058.6 4022.69C2052.3 4000.86 2049.14 3977.22 2049.14 3951.75C2049.14 3926.29 2052.3 3902.81 2058.6 3881.31C2065.23 3859.48 2074.53 3840.63 2086.51 3824.76C2098.5 3808.89 2113 3796.48 2130.03 3787.56C2147.06 3778.63 2166.3 3774.16 2187.74 3774.16C2208.87 3774.16 2227.95 3778.63 2244.98 3787.56C2262.33 3796.48 2276.99 3808.89 2288.98 3824.76C2300.96 3840.63 2310.11 3859.48 2316.41 3881.31C2323.04 3902.81 2326.35 3926.29 2326.35 3951.75C2326.35 3977.22 2323.04 4000.86 2316.41 4022.69C2310.11 4044.18 2300.96 4062.87 2288.98 4078.74C2276.99 4094.62 2262.33 4107.02 2244.98 4115.95C2227.95 4124.88 2208.87 4129.34 2187.74 4129.34ZM2187.74 4059.89C2198.47 4059.89 2207.93 4057.25 2216.13 4051.96C2224.64 4046.33 2231.74 4038.73 2237.42 4029.14C2243.41 4019.55 2247.82 4008.14 2250.66 3994.91C2253.81 3981.68 2255.39 3967.29 2255.39 3951.75C2255.39 3936.21 2253.81 3921.82 2250.66 3908.59C2247.82 3895.37 2243.41 3883.96 2237.42 3874.37C2231.74 3864.78 2224.64 3857.33 2216.13 3852.04C2207.93 3846.42 2198.47 3843.61 2187.74 3843.61C2177.02 3843.61 2167.4 3846.42 2158.89 3852.04C2150.69 3857.33 2143.59 3864.78 2137.6 3874.37C2131.93 3883.96 2127.51 3895.37 2124.36 3908.59C2121.52 3921.82 2120.1 3936.21 2120.1 3951.75C2120.1 3967.29 2121.52 3981.68 2124.36 3994.91C2127.51 4008.14 2131.93 4019.55 2137.6 4029.14C2143.59 4038.73 2150.69 4046.33 2158.89 4051.96C2167.4 4057.25 2177.02 4059.89 2187.74 4059.89Z" fill="#010B17"/>
<path d="M2458.83 4057.91H2580.4V4121.4H2360.91V4055.92C2379.83 4036.41 2397.34 4018.39 2413.42 4001.85C2420.36 3994.91 2427.29 3987.8 2434.23 3980.52C2440.86 3973.25 2447 3966.63 2452.68 3960.68C2458.67 3954.4 2463.88 3948.94 2468.29 3944.31C2473.02 3939.35 2476.49 3935.55 2478.7 3932.9C2487.84 3922.32 2494.31 3913.06 2498.09 3905.12C2501.88 3896.85 2503.77 3887.92 2503.77 3878.33C2503.77 3868.74 2500.3 3860.64 2493.36 3854.03C2486.74 3847.08 2477.44 3843.61 2465.45 3843.61C2453.47 3843.61 2443.85 3847.25 2436.6 3854.52C2429.66 3861.47 2424.46 3870.73 2420.99 3882.3L2356.65 3854.52C2359.49 3844.27 2363.91 3834.35 2369.9 3824.76C2375.89 3815.17 2383.46 3806.74 2392.6 3799.46C2401.75 3791.85 2412.47 3785.74 2424.77 3781.11C2437.39 3776.48 2451.26 3774.16 2466.4 3774.16C2483.43 3774.16 2498.72 3776.81 2512.29 3782.1C2525.85 3787.06 2537.2 3794 2546.34 3802.93C2555.81 3811.86 2563.06 3822.44 2568.11 3834.68C2573.15 3846.92 2575.67 3860.15 2575.67 3874.37C2575.67 3894.87 2571.1 3913.89 2561.96 3931.41C2553.13 3948.61 2540.67 3965.64 2524.58 3982.51L2456.47 4052.95L2458.83 4057.91Z" fill="#010B17"/>
<path d="M2733.03 4129.34C2720.1 4129.34 2707.33 4127.52 2694.71 4123.88C2682.1 4120.25 2670.43 4114.62 2659.71 4107.02C2649.3 4099.41 2640.15 4089.82 2632.27 4078.25C2624.39 4066.67 2618.71 4053.11 2615.24 4037.57L2680.05 4011.28C2683.2 4026.82 2689.19 4039.06 2698.02 4047.99C2706.85 4056.58 2718.52 4060.88 2733.03 4060.88C2745.64 4060.88 2756.37 4056.25 2765.2 4046.99C2774.03 4037.73 2778.44 4026.16 2778.44 4012.27C2778.44 3998.38 2774.03 3986.81 2765.2 3977.55C2756.68 3968.29 2745.8 3963.66 2732.56 3963.66C2723.41 3963.66 2715.53 3965.48 2708.9 3969.11C2702.28 3972.75 2696.6 3977.38 2691.87 3983L2623.76 3950.26L2641.26 3782.1H2830V3845.59H2700.39L2688.09 3916.03L2692.82 3917.52C2698.81 3912.56 2706.22 3907.93 2715.05 3903.63C2724.2 3899.33 2735.24 3897.18 2748.17 3897.18C2761.41 3897.18 2774.03 3900 2786.01 3905.62C2798.31 3910.91 2809.03 3918.51 2818.18 3928.44C2827.64 3938.36 2835.21 3950.43 2840.88 3964.65C2846.56 3978.87 2849.4 3994.74 2849.4 4012.27C2849.4 4029.8 2846.56 4045.84 2840.88 4060.39C2835.21 4074.61 2827.17 4086.84 2816.76 4097.1C2806.35 4107.35 2794.05 4115.29 2779.86 4120.91C2765.67 4126.53 2750.06 4129.34 2733.03 4129.34Z" fill="#010B17"/>
<path fill-rule="evenodd" clip-rule="evenodd" d="M1586.02 3784.06C1568.32 3761.5 1535.38 3761.5 1517.68 3784.06L1511.96 3791.35C1502.6 3803.28 1488.18 3809.54 1473.51 3808.05L1464.56 3807.14C1436.83 3804.31 1413.54 3828.73 1416.23 3857.81L1417.1 3867.2C1418.53 3882.58 1412.56 3897.7 1401.18 3907.52L1394.23 3913.52C1372.72 3932.08 1372.72 3966.62 1394.23 3985.18L1401.18 3991.18C1412.56 4001 1418.53 4016.11 1417.1 4031.5L1416.23 4040.89C1413.54 4069.96 1436.83 4094.39 1464.56 4091.56L1473.51 4090.65C1488.18 4089.16 1502.6 4095.42 1511.96 4107.35L1517.68 4114.64C1535.38 4137.19 1568.32 4137.19 1586.02 4114.64L1591.74 4107.35C1601.1 4095.42 1615.52 4089.16 1630.19 4090.65L1639.14 4091.56C1666.87 4094.39 1690.16 4069.96 1687.47 4040.89L1686.6 4031.5C1685.17 4016.11 1691.14 4001 1702.52 3991.18L1709.47 3985.18C1730.98 3966.62 1730.98 3932.08 1709.47 3913.52L1702.52 3907.52C1691.14 3897.7 1685.17 3882.58 1686.6 3867.2L1687.47 3857.81C1690.16 3828.73 1666.87 3804.31 1639.14 3807.14L1630.19 3808.05C1615.52 3809.54 1601.1 3803.28 1591.74 3791.35L1586.02 3784.06ZM1561.96 3822.41C1558.07 3813.22 1545.63 3813.22 1541.74 3822.41L1525.3 3861.24C1522.91 3866.88 1516.71 3869.58 1511.21 3867.36L1473.4 3852.09C1464.45 3848.48 1455.66 3857.7 1459.1 3867.09L1473.66 3906.73C1475.78 3912.5 1473.21 3919 1467.82 3921.5L1430.8 3938.75C1422.03 3942.83 1422.03 3955.87 1430.8 3959.95L1467.82 3977.19C1473.21 3979.7 1475.78 3986.2 1473.66 3991.97L1459.1 4031.61C1455.66 4041 1464.45 4050.22 1473.4 4046.61L1511.21 4031.34C1516.71 4029.12 1522.91 4031.81 1525.3 4037.46L1541.74 4076.29C1545.63 4085.48 1558.07 4085.48 1561.96 4076.29L1578.4 4037.46C1580.79 4031.81 1586.99 4029.12 1592.49 4031.34L1630.3 4046.61C1639.25 4050.22 1648.04 4041 1644.6 4031.61L1630.04 3991.97C1627.92 3986.2 1630.49 3979.7 1635.88 3977.19L1672.9 3959.95C1681.67 3955.87 1681.67 3942.83 1672.9 3938.75L1635.88 3921.5C1630.49 3919 1627.92 3912.5 1630.04 3906.73L1644.6 3867.09C1648.04 3857.7 1639.25 3848.48 1630.3 3852.09L1592.49 3867.36C1586.99 3869.58 1580.79 3866.88 1578.4 3861.24L1561.96 3822.41Z" fill="#FAAB00"/>
<path d="M3119.93 3767.65H3081.37V3900.79L2991.59 3806.65L2964.33 3835.24L3054.11 3929.38H2927.14V3969.82H3054.11L2964.33 4063.96L2991.59 4092.55L3081.37 3998.41V4131.55H3119.93V3998.41L3209.71 4092.55L3236.97 4063.96L3147.19 3969.82H3274.16V3929.38H3147.19L3236.97 3835.24L3209.71 3806.65L3119.93 3900.79V3767.65Z" fill="#EA4336"/>
<path d="M320.256 3355.64C314.042 3369.14 306.274 3381.94 296.953 3394.04C288.075 3405.67 277.422 3416.15 264.994 3425.46C253.009 3434.3 239.027 3441.28 223.047 3446.4C207.068 3451.52 189.535 3454.08 170.448 3454.08C145.591 3454.08 122.732 3449.66 101.869 3440.82C81.0072 3431.51 63.0303 3418.71 47.9385 3402.42C32.8468 3386.13 21.0841 3366.81 12.6504 3344.47C4.21681 3322.12 0 3297.92 0 3271.85C0 3245.79 4.21681 3221.58 12.6504 3199.24C21.0841 3176.9 32.8468 3157.58 47.9385 3141.29C63.0303 3125 81.0072 3112.43 101.869 3103.59C122.732 3094.28 145.591 3089.62 170.448 3089.62C189.535 3089.62 206.846 3092.18 222.382 3097.3C238.361 3102.42 252.343 3109.64 264.328 3118.95C276.756 3127.79 287.409 3138.26 296.287 3150.37C305.164 3162 312.266 3174.34 317.593 3187.37L249.68 3217.39C242.134 3199.71 231.703 3185.97 218.387 3176.2C205.07 3166.42 188.203 3161.54 167.785 3161.54C155.356 3161.54 143.372 3164.33 131.831 3169.92C120.734 3175.04 110.747 3182.48 101.869 3192.26C93.4357 3201.57 86.5557 3212.97 81.2292 3226.47C76.3466 3239.97 73.9053 3255.1 73.9053 3271.85C73.9053 3288.61 76.3466 3303.74 81.2292 3317.24C86.5557 3330.73 93.4357 3342.37 101.869 3352.15C110.747 3361.46 120.734 3368.9 131.831 3374.49C143.372 3379.61 155.356 3382.17 167.785 3382.17C188.203 3382.17 205.514 3377.28 219.718 3367.51C234.366 3357.27 245.685 3343.3 253.675 3325.61L320.256 3355.64Z" fill="#010B17"/>
<path d="M360.34 3442.91V2943H434.245V3442.91H360.34Z" fill="#010B17"/>
<path d="M1084.98 3396.83H1080.98C1071.22 3413.12 1057.24 3426.85 1039.04 3438.02C1021.28 3448.73 1001.09 3454.08 978.447 3454.08C937.167 3454.08 906.318 3441.28 885.899 3415.68C865.481 3389.62 855.272 3355.17 855.272 3312.35V3100.79H929.177V3301.88C929.177 3331.67 935.613 3352.61 948.486 3364.71C961.802 3376.35 979.113 3382.17 1000.42 3382.17C1012.85 3382.17 1023.94 3379.38 1033.71 3373.79C1043.92 3368.2 1052.57 3360.76 1059.68 3351.45C1066.78 3341.67 1072.11 3330.73 1075.66 3318.63C1079.21 3306.06 1080.98 3293.03 1080.98 3279.53V3100.79H1154.89V3442.91H1084.98V3396.83Z" fill="#010B17"/>
<path d="M1459.65 3398.93H1455.66C1446.78 3413.82 1433.24 3426.85 1415.04 3438.02C1396.84 3448.73 1375.09 3454.08 1349.79 3454.08C1328.93 3454.08 1308.96 3449.66 1289.87 3440.82C1271.23 3431.51 1254.8 3418.71 1240.6 3402.42C1226.4 3386.13 1215.08 3367.04 1206.64 3345.16C1198.21 3322.82 1193.99 3298.38 1193.99 3271.85C1193.99 3245.32 1198.21 3221.12 1206.64 3199.24C1215.08 3176.9 1226.4 3157.58 1240.6 3141.29C1254.8 3125 1271.23 3112.43 1289.87 3103.59C1308.96 3094.28 1328.93 3089.62 1349.79 3089.62C1375.09 3089.62 1396.84 3095.21 1415.04 3106.38C1433.24 3117.08 1446.78 3129.89 1455.66 3144.78H1459.65L1455.66 3097.3V2943H1529.56V3442.91H1459.65V3398.93ZM1363.78 3382.17C1376.2 3382.17 1388.19 3379.61 1399.73 3374.49C1411.71 3369.37 1421.92 3362.15 1430.36 3352.84C1439.23 3343.53 1446.34 3332.13 1451.66 3318.63C1456.99 3304.67 1459.65 3289.08 1459.65 3271.85C1459.65 3254.63 1456.99 3239.27 1451.66 3225.77C1446.34 3211.81 1439.23 3200.17 1430.36 3190.86C1421.92 3181.55 1411.71 3174.34 1399.73 3169.22C1388.19 3164.1 1376.2 3161.54 1363.78 3161.54C1350.9 3161.54 1338.7 3164.1 1327.16 3169.22C1315.62 3174.34 1305.41 3181.78 1296.53 3191.56C1288.1 3200.87 1281.22 3212.27 1275.89 3225.77C1270.56 3239.27 1267.9 3254.63 1267.9 3271.85C1267.9 3289.08 1270.56 3304.44 1275.89 3317.93C1281.22 3331.43 1288.1 3343.07 1296.53 3352.84C1305.41 3362.15 1315.62 3369.37 1327.16 3374.49C1338.7 3379.61 1350.9 3382.17 1363.78 3382.17Z" fill="#010B17"/>
<path d="M646.432 3092.57C550.191 3092.57 472.173 3174.39 472.173 3275.31C568.414 3275.31 646.432 3193.49 646.432 3092.57Z" fill="#4285F4"/>
<path d="M646.432 3458.04C550.191 3458.04 472.173 3376.23 472.173 3275.31C568.414 3275.31 646.432 3357.12 646.432 3458.04Z" fill="#4285F4"/>
<path d="M646.432 3092.57C742.673 3092.57 820.692 3174.39 820.692 3275.31C724.451 3275.31 646.432 3193.49 646.432 3092.57Z" fill="#4285F4"/>
<path d="M646.432 3458.04C742.673 3458.04 820.692 3376.23 820.692 3275.31C724.451 3275.31 646.432 3357.12 646.432 3458.04Z" fill="#4285F4"/>
<path d="M2033.61 3355.64C2027.39 3369.14 2019.62 3381.94 2010.3 3394.04C2001.42 3405.67 1990.77 3416.15 1978.34 3425.46C1966.36 3434.3 1952.38 3441.28 1936.4 3446.4C1920.42 3451.52 1902.88 3454.08 1883.8 3454.08C1858.94 3454.08 1836.08 3449.66 1815.22 3440.82C1794.36 3431.51 1776.38 3418.71 1761.29 3402.42C1746.2 3386.13 1734.43 3366.81 1726 3344.47C1717.57 3322.12 1713.35 3297.92 1713.35 3271.85C1713.35 3245.79 1717.57 3221.58 1726 3199.24C1734.43 3176.9 1746.2 3157.58 1761.29 3141.29C1776.38 3125 1794.36 3112.43 1815.22 3103.59C1836.08 3094.28 1858.94 3089.62 1883.8 3089.62C1902.88 3089.62 1920.2 3092.18 1935.73 3097.3C1951.71 3102.42 1965.69 3109.64 1977.68 3118.95C1990.11 3127.79 2000.76 3138.26 2009.64 3150.37C2018.51 3162 2025.62 3174.34 2030.94 3187.37L1963.03 3217.39C1955.48 3199.71 1945.05 3185.97 1931.74 3176.2C1918.42 3166.42 1901.55 3161.54 1881.13 3161.54C1868.71 3161.54 1856.72 3164.33 1845.18 3169.92C1834.08 3175.04 1824.1 3182.48 1815.22 3192.26C1806.78 3201.57 1799.91 3212.97 1794.58 3226.47C1789.7 3239.97 1787.25 3255.1 1787.25 3271.85C1787.25 3288.61 1789.7 3303.74 1794.58 3317.24C1799.91 3330.73 1806.78 3342.37 1815.22 3352.15C1824.1 3361.46 1834.08 3368.9 1845.18 3374.49C1856.72 3379.61 1868.71 3382.17 1881.13 3382.17C1901.55 3382.17 1918.86 3377.28 1933.07 3367.51C1947.72 3357.27 1959.03 3343.3 1967.02 3325.61L2033.61 3355.64Z" fill="#010B17"/>
<path fill-rule="evenodd" clip-rule="evenodd" d="M2238.53 3093.89C2142.21 3093.89 2064.13 3175.77 2064.13 3276.78C2064.13 3377.78 2142.21 3459.67 2238.53 3459.67C2334.85 3459.67 2412.93 3377.78 2412.93 3276.78C2412.93 3175.77 2334.85 3093.89 2238.53 3093.89ZM2238.53 3398.7C2174.32 3398.7 2122.26 3344.12 2122.26 3276.78H2354.8C2354.8 3344.12 2302.74 3398.7 2238.53 3398.7Z" fill="#34A853"/>
<path d="M2459.65 3106.34H2529.56V3152.42H2533.55C2543.76 3135.67 2557.97 3121.93 2576.17 3111.23C2594.37 3100.52 2613.67 3095.17 2634.09 3095.17C2658.51 3095.17 2679.37 3101.22 2696.68 3113.32C2714.43 3124.96 2727.31 3140.32 2735.3 3159.4C2746.39 3141.25 2761.26 3126.12 2779.91 3114.02C2798.55 3101.45 2820.96 3095.17 2847.15 3095.17C2867.13 3095.17 2884.44 3098.66 2899.09 3105.64C2913.73 3112.16 2925.72 3121.47 2935.04 3133.57C2944.8 3145.67 2952.13 3160.34 2957.01 3177.56C2961.89 3194.31 2964.34 3213.17 2964.34 3234.11V3448.46H2890.43V3247.38C2890.43 3217.59 2884.88 3196.87 2873.78 3185.24C2863.13 3173.14 2847.37 3167.08 2826.51 3167.08C2814.53 3167.08 2803.65 3169.88 2793.89 3175.46C2784.57 3181.05 2776.58 3188.73 2769.92 3198.5C2763.26 3207.81 2758.16 3218.75 2754.6 3231.32C2751.05 3243.89 2749.28 3257.15 2749.28 3271.12V3448.46H2675.37V3247.38C2675.37 3217.59 2669.6 3196.87 2658.06 3185.24C2646.96 3173.14 2630.76 3167.08 2609.46 3167.08C2597.92 3167.08 2587.49 3169.88 2578.16 3175.46C2568.84 3181.05 2560.85 3188.73 2554.19 3198.5C2547.54 3207.81 2542.43 3218.75 2538.88 3231.32C2535.33 3243.89 2533.55 3257.15 2533.55 3271.12V3448.46H2459.65V3106.34Z" fill="#010B17"/>
<path d="M3023.07 3106.34H3092.98V3152.42H3096.97C3107.18 3135.67 3121.39 3121.93 3139.58 3111.23C3157.78 3100.52 3177.09 3095.17 3197.51 3095.17C3221.92 3095.17 3242.79 3101.22 3260.1 3113.32C3277.85 3124.96 3290.72 3140.32 3298.71 3159.4C3309.81 3141.25 3324.68 3126.12 3343.32 3114.02C3361.97 3101.45 3384.38 3095.17 3410.57 3095.17C3430.54 3095.17 3447.86 3098.66 3462.5 3105.64C3477.15 3112.16 3489.14 3121.47 3498.46 3133.57C3508.22 3145.67 3515.55 3160.34 3520.43 3177.56C3525.31 3194.31 3527.75 3213.17 3527.75 3234.11V3448.46H3453.85V3247.38C3453.85 3217.59 3448.3 3196.87 3437.2 3185.24C3426.55 3173.14 3410.79 3167.08 3389.93 3167.08C3377.95 3167.08 3367.07 3169.88 3357.31 3175.46C3347.98 3181.05 3339.99 3188.73 3333.34 3198.5C3326.68 3207.81 3321.57 3218.75 3318.02 3231.32C3314.47 3243.89 3312.7 3257.15 3312.7 3271.12V3448.46H3238.79V3247.38C3238.79 3217.59 3233.02 3196.87 3221.48 3185.24C3210.38 3173.14 3194.18 3167.08 3172.88 3167.08C3161.33 3167.08 3150.9 3169.88 3141.58 3175.46C3132.26 3181.05 3124.27 3188.73 3117.61 3198.5C3110.96 3207.81 3105.85 3218.75 3102.3 3231.32C3098.75 3243.89 3096.97 3257.15 3096.97 3271.12V3448.46H3023.07V3106.34Z" fill="#010B17"/>
<path d="M3813.53 3402.38H3809.53C3799.77 3418.67 3785.79 3432.4 3767.59 3443.57C3749.83 3454.28 3729.64 3459.63 3707 3459.63C3665.72 3459.63 3634.87 3446.83 3614.45 3421.23C3594.03 3395.16 3583.82 3360.72 3583.82 3317.9V3106.34H3657.73V3307.42C3657.73 3337.21 3664.16 3358.16 3677.04 3370.26C3690.35 3381.9 3707.66 3387.72 3728.97 3387.72C3741.4 3387.72 3752.5 3384.92 3762.26 3379.34C3772.47 3373.75 3781.13 3366.3 3788.23 3357C3795.33 3347.22 3800.66 3336.28 3804.21 3324.18C3807.76 3311.61 3809.53 3298.58 3809.53 3285.08V3106.34H3883.44V3448.46H3813.53V3402.38Z" fill="#010B17"/>
<path d="M4014.35 3152.42H4018.34C4028.11 3136.13 4041.87 3122.63 4059.62 3111.93C4077.82 3100.76 4098.24 3095.17 4120.88 3095.17C4162.16 3095.17 4193.01 3108.2 4213.43 3134.27C4233.85 3159.87 4244.05 3194.08 4244.05 3236.9V3448.46H4170.15V3247.38C4170.15 3217.59 4163.49 3196.87 4150.17 3185.24C4137.3 3173.14 4120.21 3167.08 4098.91 3167.08C4086.03 3167.08 4074.72 3169.88 4064.95 3175.46C4055.18 3181.05 4046.75 3188.73 4039.65 3198.5C4032.55 3207.81 4027.22 3218.75 4023.67 3231.32C4020.12 3243.42 4018.34 3256.22 4018.34 3269.72V3448.46H3944.44V3106.34H4014.35V3152.42Z" fill="#010B17"/>
<path d="M4345 3199.78C4330.8 3199.78 4318.81 3194.66 4309.05 3184.42C4299.73 3174.18 4295.07 3161.84 4295.07 3147.41C4295.07 3132.98 4299.73 3120.65 4309.05 3110.41C4318.81 3100.17 4330.8 3095.05 4345 3095.05C4358.76 3095.05 4370.3 3100.17 4379.62 3110.41C4389.39 3120.65 4394.27 3132.98 4394.27 3147.41C4394.27 3161.84 4389.39 3174.18 4379.62 3184.42C4370.3 3194.66 4358.76 3199.78 4345 3199.78ZM4307.72 3448.46V3233.71H4381.62V3448.46H4307.72Z" fill="#010B17"/>
<path d="M4481.08 3174.76H4423.82V3106.34H4481.08V3001.61H4554.98V3106.34H4635.55V3174.76H4554.98V3326.97C4554.98 3335.35 4555.87 3343.03 4557.65 3350.01C4559.42 3357 4562.09 3362.81 4565.64 3367.47C4573.18 3376.31 4582.73 3380.73 4594.27 3380.73C4601.37 3380.73 4606.92 3380.27 4610.91 3379.34C4614.91 3377.94 4619.12 3376.08 4623.56 3373.75L4646.2 3442.18C4636.88 3445.9 4627.11 3448.69 4616.9 3450.55C4606.7 3452.88 4595.15 3454.05 4582.28 3454.05C4566.75 3454.05 4552.99 3451.49 4541 3446.37C4529.02 3441.24 4518.59 3434.26 4509.71 3425.42C4490.62 3405.4 4481.08 3378.17 4481.08 3343.73V3174.76Z" fill="#010B17"/>
<path d="M4787.89 3428.91L4652.07 3106.34H4734.63L4824.51 3333.26H4827.84L4915.06 3106.34H4996.96L4792.55 3599.27H4713.99L4787.89 3428.91Z" fill="#010B17"/>
<path d="M4395.37 3146.71C4395.37 3176.33 4372.47 3200.34 4344.22 3200.34C4315.98 3200.34 4293.08 3176.33 4293.08 3146.71C4293.08 3117.09 4315.98 3093.08 4344.22 3093.08C4372.47 3093.08 4395.37 3117.09 4395.37 3146.71Z" fill="#010B17"/>
<path d="M14.2688 2624.22H61.3587L97.911 2761.87L103.18 2787.22H105.814L112.73 2761.87L146.647 2655.83H188.139L222.386 2761.87L228.972 2786.9H231.607L236.546 2761.87L270.793 2624.22H317.883L255.316 2860H212.507L175.626 2746.39L168.71 2720.38H166.076L159.161 2746.39L122.279 2860H79.4702L14.2688 2624.22ZM391.351 2666.37V2721.04H485.86V2763.19H391.351V2817.85H496.397V2860H346.895V2624.22H496.397V2666.37H391.351ZM537.272 2624.22H581.727V2817.85H681.505V2860H537.272V2624.22ZM914.495 2822.13C902.86 2836.18 889.139 2846.94 873.333 2854.4C857.526 2861.65 839.854 2865.27 820.315 2865.27C802.753 2865.27 786.398 2862.09 771.25 2855.72C756.321 2849.35 743.369 2840.68 732.392 2829.7C721.416 2818.73 712.744 2805.78 706.378 2790.85C700.011 2775.7 696.828 2759.45 696.828 2742.11C696.828 2724.77 700.011 2708.63 706.378 2693.7C712.744 2678.56 721.416 2665.49 732.392 2654.52C743.369 2643.54 756.321 2634.87 771.25 2628.5C786.398 2622.14 802.753 2618.95 820.315 2618.95C839.195 2618.95 855.77 2622.25 870.04 2628.83C884.529 2635.42 897.372 2644.97 908.568 2657.48L877.284 2687.78C870.259 2679.65 862.137 2673.18 852.916 2668.35C843.915 2663.52 833.158 2661.1 820.645 2661.1C809.668 2661.1 799.35 2663.08 789.69 2667.03C780.031 2670.76 771.579 2676.14 764.334 2683.17C757.309 2690.19 751.711 2698.75 747.54 2708.85C743.369 2718.73 741.283 2729.82 741.283 2742.11C741.283 2754.4 743.369 2765.6 747.54 2775.7C751.711 2785.58 757.309 2794.03 764.334 2801.06C771.579 2808.08 780.031 2813.57 789.69 2817.52C799.35 2821.25 809.668 2823.12 820.645 2823.12C833.817 2823.12 845.452 2820.48 855.551 2815.22C865.869 2809.73 874.979 2802.04 882.882 2792.16L914.495 2822.13ZM1058.6 2865.27C1041.04 2865.27 1024.68 2862.09 1009.53 2855.72C994.606 2849.35 981.654 2840.68 970.677 2829.7C959.7 2818.51 951.029 2805.45 944.662 2790.52C938.515 2775.37 935.442 2759.23 935.442 2742.11C935.442 2724.99 938.515 2708.96 944.662 2694.03C951.029 2678.89 959.7 2665.82 970.677 2654.85C981.654 2643.65 994.606 2634.87 1009.53 2628.5C1024.68 2622.14 1041.04 2618.95 1058.6 2618.95C1076.16 2618.95 1092.41 2622.14 1107.34 2628.5C1122.48 2634.87 1135.55 2643.65 1146.52 2654.85C1157.5 2665.82 1166.06 2678.89 1172.21 2694.03C1178.57 2708.96 1181.76 2724.99 1181.76 2742.11C1181.76 2759.23 1178.57 2775.37 1172.21 2790.52C1166.06 2805.45 1157.5 2818.51 1146.52 2829.7C1135.55 2840.68 1122.48 2849.35 1107.34 2855.72C1092.41 2862.09 1076.16 2865.27 1058.6 2865.27ZM1058.6 2823.12C1069.58 2823.12 1079.78 2821.14 1089.22 2817.19C1098.88 2813.24 1107.23 2807.75 1114.25 2800.73C1121.5 2793.7 1127.09 2785.25 1131.05 2775.37C1135.22 2765.27 1137.3 2754.18 1137.3 2742.11C1137.3 2730.04 1135.22 2719.06 1131.05 2709.18C1127.09 2699.08 1121.5 2690.52 1114.25 2683.5C1107.23 2676.47 1098.88 2670.98 1089.22 2667.03C1079.78 2663.08 1069.58 2661.1 1058.6 2661.1C1047.62 2661.1 1037.31 2663.08 1027.65 2667.03C1018.21 2670.98 1009.86 2676.47 1002.62 2683.5C995.594 2690.52 989.996 2699.08 985.825 2709.18C981.873 2719.06 979.897 2730.04 979.897 2742.11C979.897 2754.18 981.873 2765.27 985.825 2775.37C989.996 2785.25 995.594 2793.7 1002.62 2800.73C1009.86 2807.75 1018.21 2813.24 1027.65 2817.19C1037.31 2821.14 1047.62 2823.12 1058.6 2823.12ZM1217.74 2624.22H1261.54L1333.65 2749.03H1336.29L1408.4 2624.22H1452.53V2860H1408.4V2743.76L1411.04 2704.24H1408.4L1348.47 2809.95H1321.8L1261.54 2704.24H1258.9L1261.54 2743.76V2860H1217.74V2624.22ZM1544.54 2666.37V2721.04H1639.05V2763.19H1544.54V2817.85H1649.59V2860H1500.09V2624.22H1649.59V2666.37H1544.54ZM1799.69 2860V2666.37H1733.83V2624.22H1910.01V2666.37H1844.15V2860H1799.69ZM2043.28 2865.27C2025.72 2865.27 2009.37 2862.09 1994.22 2855.72C1979.29 2849.35 1966.34 2840.68 1955.36 2829.7C1944.38 2818.51 1935.71 2805.45 1929.35 2790.52C1923.2 2775.37 1920.13 2759.23 1920.13 2742.11C1920.13 2724.99 1923.2 2708.96 1929.35 2694.03C1935.71 2678.89 1944.38 2665.82 1955.36 2654.85C1966.34 2643.65 1979.29 2634.87 1994.22 2628.5C2009.37 2622.14 2025.72 2618.95 2043.28 2618.95C2060.85 2618.95 2077.09 2622.14 2092.02 2628.5C2107.17 2634.87 2120.23 2643.65 2131.21 2654.85C2142.18 2665.82 2150.75 2678.89 2156.89 2694.03C2163.26 2708.96 2166.44 2724.99 2166.44 2742.11C2166.44 2759.23 2163.26 2775.37 2156.89 2790.52C2150.75 2805.45 2142.18 2818.51 2131.21 2829.7C2120.23 2840.68 2107.17 2849.35 2092.02 2855.72C2077.09 2862.09 2060.85 2865.27 2043.28 2865.27ZM2043.28 2823.12C2054.26 2823.12 2064.47 2821.14 2073.91 2817.19C2083.57 2813.24 2091.91 2807.75 2098.94 2800.73C2106.18 2793.7 2111.78 2785.25 2115.73 2775.37C2119.9 2765.27 2121.99 2754.18 2121.99 2742.11C2121.99 2730.04 2119.9 2719.06 2115.73 2709.18C2111.78 2699.08 2106.18 2690.52 2098.94 2683.5C2091.91 2676.47 2083.57 2670.98 2073.91 2667.03C2064.47 2663.08 2054.26 2661.1 2043.28 2661.1C2032.31 2661.1 2021.99 2663.08 2012.33 2667.03C2002.89 2670.98 1994.55 2676.47 1987.3 2683.5C1980.28 2690.52 1974.68 2699.08 1970.51 2709.18C1966.56 2719.06 1964.58 2730.04 1964.58 2742.11C1964.58 2754.18 1966.56 2765.27 1970.51 2775.37C1974.68 2785.25 1980.28 2793.7 1987.3 2800.73C1994.55 2807.75 2002.89 2813.24 2012.33 2817.19C2021.99 2821.14 2032.31 2823.12 2043.28 2823.12Z" fill="#4285F4"/>
</svg>
