<svg width="4997" height="4531" viewBox="0 0 4997 4531" fill="none" xmlns="http://www.w3.org/2000/svg">
<path d="M1145.73 223.854C1129.66 214.671 1116.97 201.984 1107.66 185.793C1098.36 169.602 1093.65 151.719 1093.65 132.265C1093.65 112.812 1098.36 94.8084 1107.66 78.7381C1116.97 62.547 1129.66 49.8598 1145.73 40.6768C1161.8 31.4938 1179.32 26.9023 1198.29 26.9023C1213.15 26.9023 1227.04 29.5607 1240.21 34.7563C1253.26 40.0728 1264.02 47.4433 1272.48 56.9888L1255.32 74.1465C1248.91 66.2926 1240.7 60.1304 1230.67 55.9014C1220.64 51.6724 1209.89 49.4975 1198.41 49.4975C1184.27 49.4975 1171.1 52.8806 1158.78 59.7678C1146.45 66.6551 1136.54 76.3215 1129.17 88.7669C1121.68 101.212 1118.06 115.712 1118.06 132.024C1118.06 148.335 1121.8 162.835 1129.17 175.28C1136.54 187.726 1146.45 197.513 1158.78 204.279C1171.1 211.167 1184.27 214.55 1198.41 214.55C1212.54 214.55 1223.3 212.375 1232.36 208.146C1241.42 203.917 1249.4 198.359 1256.16 191.351C1261 186.034 1264.98 179.63 1268 172.139C1271.03 164.647 1272.84 156.431 1273.32 147.611H1198.89V125.378H1295.92C1296.88 130.695 1297.37 135.528 1297.37 139.998C1297.37 152.444 1295.43 164.527 1291.45 176.247C1287.46 187.967 1281.18 198.238 1272.6 207.058C1253.63 227.237 1228.86 237.266 1198.41 237.266C1179.44 237.266 1161.92 232.674 1145.85 223.491L1145.73 223.854Z" fill="black"/>
<path d="M1350.07 227.921C1339.19 221.397 1330.62 212.455 1324.57 201.097C1318.41 189.739 1315.39 177.052 1315.39 163.157C1315.39 149.262 1318.41 136.575 1324.57 125.217C1330.62 113.859 1339.19 104.918 1350.07 98.3927C1360.94 91.868 1373.27 88.7266 1387.04 88.7266C1400.82 88.7266 1413.14 91.9888 1424.14 98.3927C1435.13 104.797 1443.71 113.859 1449.75 125.217C1455.91 136.575 1458.94 149.262 1458.94 163.157C1458.94 177.052 1455.91 189.739 1449.75 201.097C1443.59 212.455 1435.13 221.397 1424.14 227.921C1413.14 234.446 1400.82 237.709 1387.04 237.709C1373.27 237.709 1360.94 234.446 1350.07 227.921ZM1410.72 209.435C1418.1 205.085 1423.9 198.923 1428.37 190.948C1432.84 182.973 1435.01 173.669 1435.01 163.157C1435.01 152.645 1432.84 143.341 1428.37 135.367C1423.9 127.392 1418.1 121.229 1410.72 116.88C1403.35 112.53 1395.5 110.355 1387.04 110.355C1378.58 110.355 1370.97 112.53 1363.6 116.88C1356.23 121.229 1350.43 127.392 1345.96 135.367C1341.49 143.341 1339.31 152.645 1339.31 163.157C1339.31 173.669 1341.49 182.973 1345.96 190.948C1350.43 198.923 1356.23 205.085 1363.6 209.435C1370.97 213.784 1378.7 215.959 1387.04 215.959C1395.38 215.959 1403.35 213.784 1410.72 209.435Z" fill="black"/>
<path d="M1509.9 227.921C1499.02 221.397 1490.44 212.455 1484.4 201.097C1478.24 189.739 1475.22 177.052 1475.22 163.157C1475.22 149.262 1478.24 136.575 1484.4 125.217C1490.44 113.859 1499.02 104.918 1509.9 98.3927C1520.77 91.868 1533.1 88.7266 1546.87 88.7266C1560.64 88.7266 1572.97 91.9888 1583.96 98.3927C1594.96 104.797 1603.54 113.859 1609.58 125.217C1615.74 136.575 1618.76 149.262 1618.76 163.157C1618.76 177.052 1615.74 189.739 1609.58 201.097C1603.42 212.455 1594.96 221.397 1583.96 227.921C1572.97 234.446 1560.64 237.709 1546.87 237.709C1533.1 237.709 1520.77 234.446 1509.9 227.921ZM1570.55 209.435C1577.92 205.085 1583.72 198.923 1588.19 190.948C1592.66 182.973 1594.84 173.669 1594.84 163.157C1594.84 152.645 1592.66 143.341 1588.19 135.367C1583.72 127.392 1577.92 121.229 1570.55 116.88C1563.18 112.53 1555.33 110.355 1546.87 110.355C1538.41 110.355 1530.8 112.53 1523.43 116.88C1516.06 121.229 1510.26 127.392 1505.79 135.367C1501.32 143.341 1499.14 152.645 1499.14 163.157C1499.14 173.669 1501.32 182.973 1505.79 190.948C1510.26 198.923 1516.06 205.085 1523.43 209.435C1530.8 213.784 1538.53 215.959 1546.87 215.959C1555.21 215.959 1563.18 213.784 1570.55 209.435Z" fill="black"/>
<path d="M1663.05 286.403C1652.29 278.307 1645.04 268.883 1641.3 258.25L1663.53 248.946C1666.31 257.162 1671.38 263.929 1678.63 269.124C1685.88 274.32 1694.46 276.857 1704.49 276.857C1719.35 276.857 1730.71 272.507 1738.69 263.929C1746.66 255.35 1750.65 243.267 1750.65 227.801V212.818H1749.56C1745.09 219.947 1738.57 225.867 1730.11 230.58C1721.65 235.292 1712.1 237.588 1701.35 237.588C1689.51 237.588 1678.51 234.325 1668.36 227.921C1658.21 221.518 1650.12 212.576 1644.08 201.339C1638.04 189.981 1635.02 177.294 1635.02 163.157C1635.02 149.02 1638.04 136.212 1644.08 124.975C1650.12 113.738 1658.21 104.797 1668.36 98.3927C1678.51 91.9888 1689.51 88.7266 1701.35 88.7266C1712.1 88.7266 1721.65 91.0222 1730.11 95.7345C1738.57 100.447 1745.09 106.367 1749.56 113.496H1750.65V93.1972H1773.49V227.438C1773.49 242.904 1770.46 255.954 1764.42 266.587C1758.38 277.34 1750.17 285.315 1739.77 290.511C1729.38 295.827 1717.54 298.365 1704.37 298.365C1687.46 298.365 1673.68 294.377 1662.93 286.282L1663.05 286.403ZM1727.93 209.556C1734.82 205.327 1740.5 199.164 1744.73 191.31C1748.96 183.456 1751.13 174.032 1751.13 163.278C1751.13 152.524 1748.96 143.1 1744.73 135.125C1740.5 127.15 1734.94 120.988 1727.93 116.88C1720.93 112.771 1713.31 110.597 1705.1 110.597C1696.88 110.597 1689.15 112.771 1682.26 117.001C1675.25 121.23 1669.69 127.392 1665.46 135.246C1661.24 143.22 1659.06 152.524 1659.06 163.278C1659.06 174.032 1661.24 183.456 1665.46 191.31C1669.69 199.164 1675.25 205.327 1682.26 209.556C1689.27 213.785 1696.88 215.959 1705.1 215.959C1713.31 215.959 1720.93 213.785 1727.93 209.556Z" fill="black"/>
<path d="M1802.31 31.25H1826.24V233.155H1802.31V31.25Z" fill="black"/>
<path d="M1883 228.011C1872.36 221.608 1864.03 212.787 1857.98 201.55C1851.94 190.313 1848.92 177.505 1848.92 163.247C1848.92 149.714 1851.7 137.269 1857.38 125.911C1863.06 114.553 1871.03 105.491 1881.55 98.8452C1892.06 92.1996 1903.9 88.8164 1917.55 88.8164C1931.21 88.8164 1942.93 91.8371 1953.2 97.9993C1963.47 104.162 1971.32 112.74 1976.76 123.857C1982.2 134.973 1984.98 147.781 1984.98 162.16C1984.98 164.818 1984.73 166.63 1984.37 167.838H1873.33C1873.69 178.351 1876.23 187.292 1880.94 194.542C1885.65 201.792 1891.57 207.229 1898.58 210.733C1905.59 214.358 1912.96 216.049 1920.45 216.049C1938.09 216.049 1951.75 207.471 1961.29 190.071L1982.44 200.221C1976.4 211.458 1968.06 220.52 1957.43 227.407C1946.79 234.295 1934.11 237.678 1919.24 237.678C1905.71 237.678 1893.63 234.536 1883 228.132V228.011ZM1959.6 147.66C1959.24 141.981 1957.67 136.423 1954.77 130.744C1951.99 125.065 1947.4 120.353 1941.11 116.365C1934.83 112.378 1926.74 110.445 1917.07 110.445C1906.56 110.445 1897.37 113.828 1889.76 120.594C1882.15 127.361 1877.2 136.423 1875.14 147.66H1959.72H1959.6Z" fill="black"/>
<path d="M2076.62 31.1676H2137.76C2158.42 31.1676 2176.54 35.3966 2191.89 43.9755C2207.35 52.5543 2219.2 64.3957 2227.41 79.6202C2235.63 94.8446 2239.86 112.365 2239.86 132.06C2239.86 151.755 2235.75 169.275 2227.41 184.5C2219.07 199.724 2207.23 211.565 2191.89 220.144C2176.42 228.723 2158.42 232.952 2137.76 232.952H2076.62V31.0469V31.1676ZM2137.76 210.236C2161.68 210.236 2180.53 203.349 2194.43 189.695C2208.32 176.042 2215.33 156.83 2215.33 132.181C2215.33 107.532 2208.32 88.4407 2194.43 74.6662C2180.53 60.8916 2161.68 54.1253 2137.76 54.1253H2100.54V210.357H2137.76V210.236Z" fill="black"/>
<path d="M2294.19 228.011C2283.56 221.608 2275.22 212.787 2269.18 201.55C2263.14 190.313 2260.12 177.505 2260.12 163.247C2260.12 149.714 2262.9 137.269 2268.58 125.911C2274.25 114.553 2282.23 105.491 2292.74 98.8452C2303.25 92.1996 2315.09 88.8164 2328.75 88.8164C2342.4 88.8164 2354.12 91.8371 2364.39 97.9993C2374.66 104.162 2382.52 112.74 2387.95 123.857C2393.39 134.973 2396.17 147.781 2396.17 162.16C2396.17 164.818 2395.93 166.63 2395.57 167.838H2284.52C2284.89 178.351 2287.42 187.292 2292.14 194.542C2296.85 201.792 2302.77 207.229 2309.78 210.733C2316.79 214.358 2324.16 216.049 2331.65 216.049C2349.29 216.049 2362.94 207.471 2372.49 190.071L2393.63 200.221C2387.59 211.458 2379.25 220.52 2368.62 227.407C2357.99 234.295 2345.3 237.678 2330.44 237.678C2316.91 237.678 2304.82 234.536 2294.19 228.132V228.011ZM2370.8 147.66C2370.43 141.981 2368.86 136.423 2365.96 130.744C2363.18 125.065 2358.59 120.353 2352.31 116.365C2346.03 112.378 2337.93 110.445 2328.26 110.445C2317.75 110.445 2308.57 113.828 2300.96 120.594C2293.35 127.361 2288.39 136.423 2286.34 147.66H2370.92H2370.8Z" fill="black"/>
<path d="M2401.7 93.1719H2427.68L2470.58 204.818H2471.18L2514.56 93.1719H2539.93L2482.66 233.092H2458.37L2401.7 93.1719Z" fill="black"/>
<path d="M2583.71 228.011C2573.07 221.608 2564.74 212.787 2558.69 201.55C2552.65 190.313 2549.63 177.505 2549.63 163.247C2549.63 149.714 2552.41 137.269 2558.09 125.911C2563.77 114.553 2571.74 105.491 2582.26 98.8452C2592.77 92.1996 2604.61 88.8164 2618.26 88.8164C2631.92 88.8164 2643.64 91.8371 2653.91 97.9993C2664.18 104.162 2672.03 112.74 2677.47 123.857C2682.91 134.973 2685.69 147.781 2685.69 162.16C2685.69 164.818 2685.44 166.63 2685.08 167.838H2574.04C2574.4 178.351 2576.94 187.292 2581.65 194.542C2586.36 201.792 2592.29 207.229 2599.29 210.733C2606.3 214.358 2613.67 216.049 2621.16 216.049C2638.8 216.049 2652.46 207.471 2662 190.071L2683.15 200.221C2677.11 211.458 2668.77 220.52 2658.14 227.407C2647.5 234.295 2634.82 237.678 2619.96 237.678C2606.42 237.678 2594.34 234.536 2583.71 228.132V228.011ZM2660.31 147.66C2659.95 141.981 2658.38 136.423 2655.48 130.744C2652.7 125.065 2648.11 120.353 2641.83 116.365C2635.54 112.378 2627.45 110.445 2617.78 110.445C2607.27 110.445 2598.09 113.828 2590.47 120.594C2582.86 127.361 2577.91 136.423 2575.85 147.66H2660.43H2660.31Z" fill="black"/>
<path d="M2710.03 31.25H2733.96V233.155H2710.03V31.25Z" fill="black"/>
<path d="M2791.42 227.921C2780.55 221.397 2771.97 212.455 2765.93 201.097C2759.76 189.739 2756.74 177.052 2756.74 163.157C2756.74 149.262 2759.76 136.575 2765.93 125.217C2771.97 113.859 2780.55 104.918 2791.42 98.3927C2802.29 91.868 2814.62 88.7266 2828.39 88.7266C2842.17 88.7266 2854.49 91.9888 2865.49 98.3927C2876.48 104.797 2885.06 113.859 2891.1 125.217C2897.27 136.575 2900.29 149.262 2900.29 163.157C2900.29 177.052 2897.27 189.739 2891.1 201.097C2884.94 212.455 2876.48 221.397 2865.49 227.921C2854.49 234.446 2842.17 237.709 2828.39 237.709C2814.62 237.709 2802.29 234.446 2791.42 227.921ZM2852.08 209.435C2859.45 205.085 2865.25 198.923 2869.72 190.948C2874.19 182.973 2876.36 173.669 2876.36 163.157C2876.36 152.645 2874.19 143.341 2869.72 135.367C2865.25 127.392 2859.45 121.229 2852.08 116.88C2844.71 112.53 2836.85 110.355 2828.39 110.355C2819.94 110.355 2812.32 112.53 2804.95 116.88C2797.58 121.229 2791.78 127.392 2787.31 135.367C2782.84 143.341 2780.67 152.645 2780.67 163.157C2780.67 173.669 2782.84 182.973 2787.31 190.948C2791.78 198.923 2797.58 205.085 2804.95 209.435C2812.32 213.784 2820.06 215.959 2828.39 215.959C2836.73 215.959 2844.71 213.784 2852.08 209.435Z" fill="black"/>
<path d="M2922.03 93.1972H2944.87V113.738H2945.96C2950.43 106.609 2956.95 100.568 2965.41 95.8554C2973.87 91.1431 2983.65 88.7266 2994.77 88.7266C3006.85 88.7266 3017.85 91.9888 3028 98.3927C3038.15 104.797 3046.24 113.738 3052.29 124.975C3058.33 136.212 3061.35 148.899 3061.35 163.036C3061.35 177.173 3058.33 189.86 3052.29 201.097C3046.24 212.334 3038.15 221.276 3028 227.68C3017.85 234.084 3006.73 237.467 2994.77 237.467C2983.65 237.467 2973.87 235.05 2965.29 230.217C2956.71 225.384 2950.31 219.343 2945.96 211.972H2944.87L2945.96 231.426V293.773H2922.03V92.9555V93.1972ZM3014.1 209.314C3021.11 204.964 3026.79 198.802 3031.02 190.827C3035.25 182.852 3037.42 173.548 3037.42 163.036C3037.42 152.524 3035.25 143.22 3031.02 135.246C3026.79 127.271 3021.11 121.109 3014.1 116.759C3007.1 112.409 2999.36 110.234 2991.15 110.234C2982.93 110.234 2975.2 112.409 2968.19 116.638C2961.18 120.867 2955.5 127.029 2951.27 135.004C2947.04 142.979 2944.87 152.403 2944.87 163.036C2944.87 173.669 2947.04 182.852 2951.27 190.948C2955.5 199.043 2961.18 205.206 2968.19 209.435C2975.2 213.664 2982.93 215.839 2991.15 215.839C2999.36 215.839 3007.1 213.664 3014.1 209.314Z" fill="black"/>
<path d="M3117.32 228.011C3106.69 221.608 3098.35 212.787 3092.31 201.55C3086.27 190.313 3083.25 177.505 3083.25 163.247C3083.25 149.714 3086.03 137.269 3091.71 125.911C3097.39 114.553 3105.36 105.491 3115.87 98.8452C3126.39 92.1996 3138.23 88.8164 3151.88 88.8164C3165.53 88.8164 3177.26 91.8371 3187.53 97.9993C3197.8 104.162 3205.65 112.74 3211.09 123.857C3216.52 134.973 3219.3 147.781 3219.3 162.16C3219.3 164.818 3219.06 166.63 3218.7 167.838H3107.66C3108.02 178.351 3110.56 187.292 3115.27 194.542C3119.98 201.792 3125.9 207.229 3132.91 210.733C3139.92 214.358 3147.29 216.049 3154.78 216.049C3172.42 216.049 3186.08 207.471 3195.62 190.071L3216.77 200.221C3210.72 211.458 3202.39 220.52 3191.75 227.407C3181.12 234.295 3168.43 237.678 3153.57 237.678C3140.04 237.678 3127.96 234.536 3117.32 228.132V228.011ZM3193.93 147.66C3193.57 141.981 3192 136.423 3189.1 130.744C3186.32 125.065 3181.73 120.353 3175.44 116.365C3169.16 112.378 3161.06 110.445 3151.4 110.445C3140.89 110.445 3131.7 113.828 3124.09 120.594C3116.48 127.361 3111.52 136.423 3109.47 147.66H3194.05H3193.93Z" fill="black"/>
<path d="M3243.48 93.1972H3266.31V116.034H3267.4C3270.06 108.301 3275.5 101.897 3283.59 96.5804C3291.81 91.2639 3299.9 88.7266 3308 88.7266C3313.8 88.7266 3319.24 89.6931 3324.31 91.5056V117.121C3319.24 114.342 3312.71 112.892 3304.62 112.892C3298.09 112.892 3291.93 114.826 3286.13 118.692C3280.33 122.559 3275.86 127.634 3272.48 134.037C3269.09 140.441 3267.4 147.449 3267.4 154.941V232.996H3243.48V93.0764V93.1972Z" fill="black"/>
<path d="M3447.81 223.854C3431.74 214.671 3419.05 201.984 3409.75 185.793C3400.45 169.602 3395.73 151.719 3395.73 132.265C3395.73 112.812 3400.45 94.8084 3409.75 78.7381C3419.05 62.547 3431.74 49.8598 3447.81 40.6768C3463.88 31.4938 3481.4 26.9023 3500.37 26.9023C3515.23 26.9023 3529.13 29.5607 3542.3 34.7563C3555.35 40.0728 3566.1 47.4433 3574.56 56.9888L3557.4 74.1465C3551 66.2926 3542.78 60.1304 3532.75 55.9014C3522.73 51.6724 3511.97 49.4975 3500.49 49.4975C3486.36 49.4975 3473.19 52.8806 3460.86 59.7678C3448.54 66.6551 3438.63 76.3215 3431.26 88.7669C3423.77 101.212 3420.14 115.712 3420.14 132.024C3420.14 148.335 3423.89 162.835 3431.26 175.28C3438.63 187.726 3448.54 197.513 3460.86 204.279C3473.19 211.167 3486.36 214.55 3500.49 214.55C3514.63 214.55 3525.38 212.375 3534.45 208.146C3543.51 203.917 3551.48 198.359 3558.25 191.351C3563.08 186.034 3567.07 179.63 3570.09 172.139C3573.11 164.647 3574.92 156.431 3575.41 147.611H3500.98V125.378H3598C3598.97 130.695 3599.45 135.528 3599.45 139.998C3599.45 152.444 3597.52 164.527 3593.53 176.247C3589.54 187.967 3583.26 198.238 3574.68 207.058C3555.71 227.237 3530.94 237.266 3500.49 237.266C3481.52 237.266 3464 232.674 3447.93 223.491L3447.81 223.854Z" fill="black"/>
<path d="M3626.72 93.1972H3649.56V116.034H3650.64C3653.3 108.301 3658.74 101.897 3666.83 96.5804C3675.05 91.2639 3683.15 88.7266 3691.24 88.7266C3697.04 88.7266 3702.48 89.6931 3707.55 91.5056V117.121C3702.48 114.342 3695.95 112.892 3687.86 112.892C3681.33 112.892 3675.17 114.826 3669.37 118.692C3663.57 122.559 3659.1 127.634 3655.72 134.037C3652.33 140.441 3650.64 147.449 3650.64 154.941V232.996H3626.72V93.0764V93.1972Z" fill="black"/>
<path d="M3745.4 227.921C3734.52 221.397 3725.94 212.455 3719.9 201.097C3713.74 189.739 3710.72 177.052 3710.72 163.157C3710.72 149.262 3713.74 136.575 3719.9 125.217C3725.94 113.859 3734.52 104.918 3745.4 98.3927C3756.27 91.868 3768.6 88.7266 3782.37 88.7266C3796.14 88.7266 3808.47 91.9888 3819.46 98.3927C3830.46 104.797 3839.04 113.859 3845.08 125.217C3851.24 136.575 3854.26 149.262 3854.26 163.157C3854.26 177.052 3851.24 189.739 3845.08 201.097C3838.92 212.455 3830.46 221.397 3819.46 227.921C3808.47 234.446 3796.14 237.709 3782.37 237.709C3768.6 237.709 3756.27 234.446 3745.4 227.921ZM3806.05 209.435C3813.42 205.085 3819.22 198.923 3823.69 190.948C3828.16 182.973 3830.34 173.669 3830.34 163.157C3830.34 152.645 3828.16 143.341 3823.69 135.367C3819.22 127.392 3813.42 121.229 3806.05 116.88C3798.68 112.53 3790.83 110.355 3782.37 110.355C3773.91 110.355 3766.3 112.53 3758.93 116.88C3751.56 121.229 3745.76 127.392 3741.29 135.367C3736.82 143.341 3734.64 152.645 3734.64 163.157C3734.64 173.669 3736.82 182.973 3741.29 190.948C3745.76 198.923 3751.56 205.085 3758.93 209.435C3766.3 213.784 3774.03 215.959 3782.37 215.959C3790.71 215.959 3798.68 213.784 3806.05 209.435Z" fill="black"/>
<path d="M3889.25 222.58C3880.31 212.672 3875.84 198.776 3875.84 181.135V93.1719H3899.76V177.148C3899.76 202.885 3911.36 215.813 3934.44 215.813C3942.17 215.813 3949.06 213.638 3955.22 209.289C3961.38 204.939 3965.97 199.38 3969.36 192.372C3972.62 185.485 3974.31 178.115 3974.31 170.382V93.1719H3997.99V233.092H3975.4V212.188H3974.31C3970.2 219.317 3963.92 225.359 3955.58 230.192C3947.25 235.025 3938.18 237.563 3928.64 237.563C3911.36 237.563 3898.19 232.608 3889.25 222.58Z" fill="black"/>
<path d="M4029.32 93.1972H4052.16V113.738H4053.24C4057.72 106.609 4064.24 100.568 4072.7 95.8554C4081.16 91.1431 4090.94 88.7266 4102.06 88.7266C4114.14 88.7266 4125.14 91.9888 4135.29 98.3927C4145.44 104.797 4153.53 113.738 4159.57 124.975C4165.62 136.212 4168.64 148.899 4168.64 163.036C4168.64 177.173 4165.62 189.86 4159.57 201.097C4153.53 212.334 4145.44 221.276 4135.29 227.68C4125.14 234.084 4114.02 237.467 4102.06 237.467C4090.94 237.467 4081.16 235.05 4072.58 230.217C4064 225.384 4057.59 219.343 4053.24 211.972H4052.16L4053.24 231.426V293.773H4029.32V92.9555V93.1972ZM4121.39 209.314C4128.4 204.964 4134.08 198.802 4138.31 190.827C4142.54 182.852 4144.71 173.548 4144.71 163.036C4144.71 152.524 4142.54 143.22 4138.31 135.246C4134.08 127.271 4128.4 121.109 4121.39 116.759C4114.38 112.409 4106.65 110.234 4098.43 110.234C4090.22 110.234 4082.49 112.409 4075.48 116.638C4068.47 120.867 4062.79 127.029 4058.56 135.004C4054.33 142.979 4052.16 152.403 4052.16 163.036C4052.16 173.669 4054.33 182.852 4058.56 190.948C4062.79 199.043 4068.47 205.206 4075.48 209.435C4082.49 213.664 4090.22 215.839 4098.43 215.839C4106.65 215.839 4114.38 213.664 4121.39 209.314Z" fill="black"/>
<path d="M4203.04 226.366C4192.65 218.875 4185.52 209.571 4181.29 198.455L4202.43 189.151C4206.18 197.971 4211.5 204.738 4218.38 209.45C4225.27 214.162 4232.76 216.458 4240.86 216.458C4249.92 216.458 4257.41 214.525 4263.21 210.538C4269.13 206.55 4272.15 201.838 4272.15 196.159C4272.15 190.48 4269.98 186.251 4265.51 182.626C4261.04 179.001 4253.55 175.981 4242.79 173.322L4223.58 168.489C4213.07 166.073 4204.13 161.602 4196.63 155.198C4189.14 148.794 4185.52 140.336 4185.52 129.824C4185.52 121.124 4188.06 113.754 4193.01 107.591C4197.96 101.429 4204.61 96.7167 4212.95 93.4544C4221.16 90.3128 4230.22 88.6211 4240.01 88.6211C4252.09 88.6211 4262.97 91.4002 4272.88 96.9583C4282.79 102.516 4289.79 110.37 4293.9 120.52L4272.76 129.582C4269.74 122.816 4265.14 117.862 4259.1 114.599C4253.06 111.337 4246.17 109.766 4238.68 109.766C4231.19 109.766 4224.79 111.579 4218.87 115.083C4212.95 118.708 4209.93 123.299 4209.93 128.857C4209.93 133.69 4211.86 137.557 4215.73 140.457C4219.59 143.236 4225.75 145.773 4234.21 148.069L4255.12 153.144C4269.01 156.769 4279.4 162.085 4286.29 169.093C4293.18 176.101 4296.56 184.559 4296.56 194.346C4296.56 202.442 4294.26 209.813 4289.55 216.337C4284.84 222.983 4278.31 228.058 4269.86 231.804C4261.4 235.549 4251.85 237.483 4241.1 237.483C4226.24 237.483 4213.67 233.737 4203.28 226.245L4203.04 226.366Z" fill="black"/>
<path d="M544.793 135.209L635.174 83.0107C656.44 70.6861 663.689 43.4996 651.485 22.2337C639.161 0.967791 611.974 -6.28202 590.708 5.92171L434.477 96.0602L544.793 135.088V135.209Z" fill="#FD2C25"/>
<path d="M612.752 269.373C628.097 269.373 643.08 261.399 651.296 247.141C663.621 225.875 656.25 198.688 634.984 186.364L478.752 96.2254C457.487 83.9009 430.3 91.2713 417.975 112.537C405.651 133.803 413.021 160.99 434.287 173.314L590.519 263.453C597.527 267.44 605.14 269.373 612.752 269.373Z" fill="#2B82FB"/>
<path d="M768.162 269.312C775.653 269.312 783.386 267.378 790.394 263.391L946.626 173.253L837.759 133.379L745.929 186.423C724.663 198.747 717.413 225.934 729.617 247.2C737.833 261.458 752.816 269.432 768.162 269.432V269.312Z" fill="#FFBA00"/>
<path d="M924.275 179.123C939.621 179.123 954.603 171.149 962.82 156.891C975.144 135.625 967.774 108.438 946.508 96.1139L790.276 5.9754C769.01 -6.34916 741.823 1.02148 729.499 22.2874C717.174 43.5533 724.545 70.7398 745.811 83.0644L902.043 173.203C909.051 177.19 916.663 179.123 924.275 179.123Z" fill="#00A150"/>
<path d="M1249.4 443.015H1212.14C1211.46 438.186 1210.07 433.897 1207.97 430.147C1205.87 426.34 1203.18 423.102 1199.89 420.432C1196.6 417.762 1192.8 415.716 1188.49 414.296C1184.24 412.876 1179.62 412.166 1174.63 412.166C1165.61 412.166 1157.76 414.41 1151.06 418.898C1144.37 423.329 1139.18 429.806 1135.5 438.328C1131.81 446.793 1129.97 457.076 1129.97 469.177C1129.97 481.619 1131.81 492.073 1135.5 500.538C1139.24 509.003 1144.46 515.395 1151.15 519.713C1157.84 524.03 1165.58 526.189 1174.37 526.189C1179.31 526.189 1183.87 525.536 1188.07 524.229C1192.32 522.922 1196.09 521.019 1199.38 518.519C1202.67 515.963 1205.39 512.867 1207.55 509.231C1209.76 505.595 1211.29 501.447 1212.14 496.789L1249.4 496.959C1248.43 504.97 1246.02 512.696 1242.17 520.139C1238.37 527.524 1233.24 534.143 1226.77 539.995C1220.36 545.79 1212.71 550.392 1203.8 553.8C1194.96 557.152 1184.95 558.828 1173.78 558.828C1158.24 558.828 1144.34 555.306 1132.09 548.261C1119.9 541.216 1110.26 531.018 1103.17 517.667C1096.14 504.316 1092.62 488.153 1092.62 469.177C1092.62 450.145 1096.2 433.953 1103.34 420.602C1110.49 407.251 1120.19 397.082 1132.43 390.094C1144.68 383.049 1158.46 379.527 1173.78 379.527C1183.87 379.527 1193.23 380.947 1201.85 383.788C1210.52 386.628 1218.21 390.776 1224.9 396.23C1231.59 401.627 1237.04 408.246 1241.23 416.086C1245.48 423.926 1248.21 432.902 1249.4 443.015Z" fill="#0F9D58"/>
<path d="M1311.37 381.913V556.442H1275.13V381.913H1311.37Z" fill="#0F9D58"/>
<path d="M1399.43 558.999C1386.22 558.999 1374.79 556.186 1365.15 550.562C1355.56 544.881 1348.16 536.984 1342.95 526.871C1337.73 516.701 1335.12 504.913 1335.12 491.505C1335.12 477.983 1337.73 466.166 1342.95 456.054C1348.16 445.884 1355.56 437.987 1365.15 432.363C1374.79 426.681 1386.22 423.841 1399.43 423.841C1412.64 423.841 1424.04 426.681 1433.62 432.363C1443.27 437.987 1450.69 445.884 1455.91 456.054C1461.13 466.166 1463.74 477.983 1463.74 491.505C1463.74 504.913 1461.13 516.701 1455.91 526.871C1450.69 536.984 1443.27 544.881 1433.62 550.562C1424.04 556.186 1412.64 558.999 1399.43 558.999ZM1399.6 530.876C1405.61 530.876 1410.63 529.172 1414.66 525.763C1418.68 522.298 1421.72 517.582 1423.76 511.617C1425.86 505.651 1426.9 498.862 1426.9 491.249C1426.9 483.636 1425.86 476.847 1423.76 470.882C1421.72 464.916 1418.68 460.201 1414.66 456.735C1410.63 453.27 1405.61 451.537 1399.6 451.537C1393.53 451.537 1388.43 453.27 1384.29 456.735C1380.2 460.201 1377.11 464.916 1375.02 470.882C1372.97 476.847 1371.95 483.636 1371.95 491.249C1371.95 498.862 1372.97 505.651 1375.02 511.617C1377.11 517.582 1380.2 522.298 1384.29 525.763C1388.43 529.172 1393.53 530.876 1399.6 530.876Z" fill="#0F9D58"/>
<path d="M1571.09 500.709V425.545H1607.33V556.442H1572.53V532.666H1571.17C1568.22 540.336 1563.32 546.5 1556.46 551.159C1549.65 555.817 1541.34 558.147 1531.53 558.147C1522.8 558.147 1515.12 556.158 1508.48 552.181C1501.85 548.204 1496.66 542.551 1492.91 535.222C1489.23 527.894 1487.36 519.116 1487.3 508.89V425.545H1523.54V502.413C1523.59 510.14 1525.66 516.247 1529.75 520.735C1533.83 525.223 1539.3 527.468 1546.16 527.468C1550.53 527.468 1554.61 526.473 1558.41 524.485C1562.21 522.44 1565.28 519.428 1567.6 515.452C1569.98 511.475 1571.14 506.56 1571.09 500.709Z" fill="#0F9D58"/>
<path d="M1684.46 558.573C1674.53 558.573 1665.54 556.016 1657.49 550.903C1649.5 545.733 1643.14 538.148 1638.44 528.149C1633.79 518.093 1631.46 505.765 1631.46 491.164C1631.46 476.165 1633.87 463.695 1638.69 453.753C1643.51 443.754 1649.92 436.283 1657.92 431.34C1665.97 426.34 1674.79 423.841 1684.37 423.841C1691.69 423.841 1697.78 425.091 1702.66 427.59C1707.59 430.033 1711.56 433.101 1714.57 436.794C1717.63 440.43 1719.96 444.009 1721.54 447.532H1722.65V381.913H1758.8V556.442H1723.08V535.478H1721.54C1719.84 539.114 1717.43 542.722 1714.31 546.301C1711.25 549.823 1707.25 552.749 1702.32 555.079C1697.44 557.408 1691.49 558.573 1684.46 558.573ZM1695.94 529.683C1701.78 529.683 1706.72 528.092 1710.74 524.911C1714.82 521.673 1717.94 517.156 1720.1 511.361C1722.31 505.566 1723.42 498.777 1723.42 490.994C1723.42 483.21 1722.34 476.449 1720.18 470.711C1718.03 464.973 1714.91 460.542 1710.83 457.417C1706.74 454.292 1701.78 452.73 1695.94 452.73C1689.99 452.73 1684.97 454.349 1680.88 457.588C1676.8 460.826 1673.71 465.314 1671.61 471.052C1669.51 476.79 1668.47 483.437 1668.47 490.994C1668.47 498.607 1669.51 505.339 1671.61 511.191C1673.77 516.986 1676.86 521.531 1680.88 524.826C1684.97 528.064 1689.99 529.683 1695.94 529.683Z" fill="#0F9D58"/>
<path d="M1908.88 524.4C1902.02 524.4 1895.75 522.724 1890.08 519.372C1884.41 515.963 1879.87 511.418 1876.47 505.737C1873.12 500.055 1871.45 493.777 1871.45 486.903C1871.45 479.972 1873.12 473.694 1876.47 468.07C1879.87 462.388 1884.41 457.872 1890.08 454.52C1895.75 451.111 1902.02 449.406 1908.88 449.406C1915.8 449.406 1922.06 451.111 1927.68 454.52C1933.35 457.872 1937.86 462.388 1941.2 468.07C1944.6 473.694 1946.31 479.972 1946.31 486.903C1946.31 493.777 1944.6 500.055 1941.2 505.737C1937.86 511.418 1933.35 515.963 1927.68 519.372C1922.06 522.724 1915.8 524.4 1908.88 524.4Z" fill="black"/>
<path d="M2098.23 516.606C2090.41 516.606 2083.3 515.326 2076.91 512.766C2070.53 510.206 2064.7 506.527 2059.43 501.727C2054.16 496.768 2049.29 490.848 2044.82 483.969L2068.53 470.05C2072.2 475.65 2076.04 480.209 2080.03 483.729C2084.18 487.248 2089.21 489.008 2095.12 489.008C2100.23 489.008 2104.54 487.408 2108.05 484.209C2111.57 481.009 2113.32 474.77 2113.32 465.49C2113.32 455.571 2111.33 448.692 2107.34 444.852C2103.5 440.853 2097.91 438.853 2090.57 438.853C2085.78 438.853 2081.23 439.413 2076.91 440.533C2072.76 441.493 2068.85 442.853 2065.18 444.612L2056.31 419.895C2061.42 417.655 2067.09 415.735 2073.32 414.135C2079.55 412.535 2086.58 411.735 2094.4 411.735C2105.26 411.735 2114.44 413.975 2121.95 418.455C2129.61 422.774 2135.44 429.014 2139.43 437.173C2143.43 445.332 2145.42 455.011 2145.42 466.21C2145.42 475.81 2144.07 483.889 2141.35 490.448C2138.8 496.848 2135.2 501.967 2130.57 505.807C2126.1 509.646 2121.07 512.446 2115.48 514.206C2109.89 515.806 2104.14 516.606 2098.23 516.606ZM2204.83 556.442C2195.09 556.442 2187.58 555.402 2182.31 553.322C2177.04 551.083 2173.05 548.203 2170.33 544.683C2167.78 541.323 2165.86 537.244 2164.59 532.444C2163.47 527.645 2162.91 521.485 2162.91 513.966V411.735L2195.01 414.375V511.566C2195.01 515.086 2195.25 518.046 2195.73 520.445C2196.21 522.685 2197 524.365 2198.12 525.485C2199.88 527.085 2201.79 528.125 2203.87 528.605C2205.95 528.925 2209.22 529.085 2213.69 529.085L2211.3 556.442H2204.83Z" fill="black"/>
<path d="M2274.75 556.442C2265.01 556.442 2257.42 555.402 2251.99 553.322C2246.72 551.243 2242.73 548.363 2240.01 544.683C2237.62 541.323 2235.78 537.404 2234.51 532.924C2233.39 528.285 2232.83 521.965 2232.83 513.966V411.735L2264.93 414.375V511.566C2264.93 515.086 2265.17 518.046 2265.65 520.445C2266.12 522.685 2266.92 524.365 2268.04 525.485C2269.8 527.085 2271.71 528.125 2273.79 528.605C2275.87 528.925 2279.14 529.085 2283.61 529.085L2281.22 556.442H2274.75Z" fill="black"/>
<path d="M2248.64 391.337C2243.69 391.337 2239.53 389.577 2236.18 386.058C2232.83 382.538 2231.15 378.218 2231.15 373.099C2231.15 368.139 2232.83 363.98 2236.18 360.62C2239.53 357.1 2243.69 355.341 2248.64 355.341C2253.75 355.341 2257.98 357.1 2261.33 360.62C2264.53 363.98 2266.12 368.139 2266.12 373.099C2266.12 378.218 2264.53 382.538 2261.33 386.058C2257.98 389.577 2253.75 391.337 2248.64 391.337Z" fill="black"/>
<path d="M2347.57 531.724C2339.74 531.724 2332.4 530.285 2325.53 527.405C2318.66 524.525 2313.07 520.285 2308.76 514.686C2304.61 508.926 2302.53 501.967 2302.53 493.808C2302.53 486.289 2304.45 479.809 2308.28 474.37C2312.11 468.77 2317.46 464.451 2324.33 461.411C2331.2 458.211 2339.1 456.611 2348.05 456.611C2351.72 456.611 2355.07 456.851 2358.11 457.331C2361.3 457.651 2364.09 458.051 2366.49 458.531L2362.42 484.689C2360.82 484.369 2358.9 484.049 2356.67 483.729C2354.59 483.409 2352.12 483.249 2349.24 483.249C2344.13 483.249 2340.3 484.209 2337.74 486.129C2335.19 487.888 2333.91 490.368 2333.91 493.568C2333.91 497.728 2335.59 500.687 2338.94 502.447C2342.3 504.047 2346.45 504.847 2351.4 504.847C2357.95 504.847 2364.25 503.407 2370.32 500.527C2376.55 497.488 2382.86 493.008 2389.25 487.088V519.965C2383.98 523.485 2378.31 526.365 2372.24 528.605C2366.17 530.684 2357.95 531.724 2347.57 531.724ZM2318.1 481.569C2312.19 478.049 2307.32 474.37 2303.49 470.53C2299.82 466.53 2297.02 462.371 2295.11 458.051C2293.35 453.572 2292.47 448.932 2292.47 444.132C2292.47 434.533 2296.14 425.974 2303.49 418.455C2310.84 410.935 2322.57 404.936 2338.7 400.456L2350.2 426.614C2343.33 428.374 2338.06 430.214 2334.39 432.134C2330.72 434.053 2328.16 436.133 2326.73 438.373C2325.29 440.453 2324.57 442.773 2324.57 445.332C2324.57 449.652 2326.17 453.412 2329.36 456.611C2332.71 459.811 2337.75 462.451 2344.45 464.531L2318.1 481.569ZM2429.97 556.442C2420.23 556.442 2412.64 555.402 2407.21 553.322C2401.94 551.243 2397.95 548.363 2395.23 544.683C2392.84 541.323 2391 537.404 2389.73 532.924C2388.61 528.285 2388.05 521.965 2388.05 513.966V411.735L2420.15 414.375V511.566C2420.15 515.086 2420.39 518.046 2420.87 520.445C2421.34 522.685 2422.14 524.365 2423.26 525.485C2425.02 527.085 2426.93 528.125 2429.01 528.605C2431.09 528.925 2434.36 529.085 2438.83 529.085L2436.44 556.442H2429.97Z" fill="black"/>
<path d="M2500.02 556.442C2490.28 556.442 2482.77 555.402 2477.5 553.322C2472.23 551.083 2468.24 548.203 2465.52 544.683C2462.65 540.844 2460.65 536.524 2459.54 531.724C2458.58 526.925 2458.1 521.005 2458.1 513.966V413.175C2456.98 406.136 2455.54 399.897 2453.79 394.457C2452.03 388.858 2449.95 384.138 2447.56 380.298C2445.32 376.299 2442.77 373.339 2439.89 371.419C2437.02 369.339 2433.99 368.299 2430.79 368.299C2426.32 368.299 2422.89 369.819 2420.49 372.859C2417.94 375.739 2416.66 380.218 2416.66 386.298C2416.66 388.218 2416.74 390.217 2416.9 392.297C2417.06 394.217 2417.3 396.137 2417.62 398.057L2385.76 397.577C2385.44 395.337 2385.2 393.017 2385.04 390.617C2384.72 388.218 2384.56 385.738 2384.56 383.178C2384.56 369.899 2388.31 359.66 2395.82 352.461C2403.32 345.102 2414.26 341.422 2428.64 341.422C2437.9 341.422 2446.04 343.422 2453.07 347.421C2460.25 351.261 2466.32 356.46 2471.27 363.02C2476.38 369.579 2480.46 377.019 2483.49 385.338C2486.68 393.497 2488.92 401.976 2490.2 410.775V511.566C2490.2 515.086 2490.44 518.046 2490.92 520.445C2491.39 522.685 2492.19 524.365 2493.31 525.485C2494.91 527.085 2496.74 528.125 2498.82 528.605C2501.06 528.925 2504.41 529.085 2508.88 529.085L2506.49 556.442H2500.02Z" fill="black"/>
<path d="M2645.9 556.442C2636.15 556.442 2628.57 555.402 2623.14 553.322C2617.87 551.243 2613.88 548.363 2611.16 544.683C2608.77 541.323 2606.93 537.404 2605.65 532.924C2604.54 528.285 2603.98 521.965 2603.98 513.966V411.735L2636.08 414.375V511.566C2636.08 515.086 2636.31 518.046 2636.79 520.445C2637.27 522.685 2638.07 524.365 2639.19 525.485C2640.95 527.085 2642.86 528.125 2644.94 528.605C2647.01 528.925 2650.29 529.085 2654.76 529.085L2652.36 556.442H2645.9ZM2550.08 514.446C2546.41 514.446 2542.49 513.326 2538.34 511.086C2534.35 508.846 2530.52 505.887 2526.84 502.207C2523.33 498.527 2520.38 494.288 2517.98 489.488C2515.75 484.689 2514.63 479.809 2514.63 474.85C2514.63 470.21 2515.83 466.13 2518.22 462.611C2520.78 459.091 2525.73 457.331 2533.07 457.331H2614.76V484.689H2566.37V495.488C2566.37 502.207 2564.93 507.087 2562.06 510.126C2559.18 513.006 2555.19 514.446 2550.08 514.446Z" fill="black"/>
<path d="M2710.18 516.606C2702.36 516.606 2695.25 515.326 2688.86 512.766C2682.48 510.206 2676.65 506.527 2671.38 501.727C2666.11 496.768 2661.24 490.848 2656.77 483.969L2680.48 470.05C2684.15 475.65 2687.99 480.209 2691.98 483.729C2696.13 487.248 2701.16 489.008 2707.07 489.008C2712.18 489.008 2716.49 487.408 2720 484.209C2723.52 481.009 2725.27 474.77 2725.27 465.49C2725.27 455.571 2723.28 448.692 2719.29 444.852C2715.45 440.853 2709.86 438.853 2702.52 438.853C2697.73 438.853 2693.18 439.413 2688.86 440.533C2684.71 441.493 2680.8 442.853 2677.13 444.612L2668.26 419.895C2673.37 417.655 2679.04 415.735 2685.27 414.135C2691.5 412.535 2698.53 411.735 2706.35 411.735C2717.21 411.735 2726.39 413.975 2733.9 418.455C2741.56 422.774 2747.39 429.014 2751.38 437.173C2755.38 445.332 2757.37 455.011 2757.37 466.21C2757.37 475.81 2756.01 483.889 2753.3 490.448C2750.75 496.848 2747.15 501.967 2742.52 505.807C2738.05 509.646 2733.02 512.446 2727.43 514.206C2721.84 515.806 2716.09 516.606 2710.18 516.606ZM2816.78 556.442C2807.04 556.442 2799.53 555.402 2794.26 553.322C2788.99 551.083 2785 548.203 2782.28 544.683C2779.73 541.323 2777.81 537.244 2776.54 532.444C2775.42 527.645 2774.86 521.485 2774.86 513.966V411.735L2806.96 414.375V511.566C2806.96 515.086 2807.2 518.046 2807.68 520.445C2808.15 522.685 2808.95 524.365 2810.07 525.485C2811.83 527.085 2813.74 528.125 2815.82 528.605C2817.9 528.925 2821.17 529.085 2825.64 529.085L2823.25 556.442H2816.78Z" fill="black"/>
<path d="M2933.65 556.442C2925.5 556.442 2917.92 555.642 2910.89 554.042C2903.86 552.442 2897.16 549.803 2890.77 546.123C2884.54 542.443 2878.39 537.484 2872.33 531.244C2866.26 524.845 2860.03 516.926 2853.64 507.487L2859.87 488.528C2866.26 487.888 2872.25 486.369 2877.83 483.969C2883.42 481.409 2887.98 478.129 2891.49 474.13C2895 469.97 2896.76 465.091 2896.76 459.491C2896.76 451.972 2894.28 446.692 2889.33 443.652C2884.54 440.613 2878.55 439.093 2871.37 439.093C2865.62 439.093 2860.35 439.653 2855.56 440.773C2850.77 441.893 2846.3 443.412 2842.14 445.332L2833.04 419.895C2838.79 417.495 2845.18 415.575 2852.2 414.135C2859.23 412.535 2866.9 411.735 2875.2 411.735C2885.74 411.735 2895.08 413.575 2903.23 417.255C2911.53 420.775 2918 426.054 2922.63 433.093C2927.42 440.133 2929.81 448.852 2929.81 459.251C2929.81 467.41 2928.06 474.93 2924.54 481.809C2921.19 488.528 2916.32 494.448 2909.93 499.567C2903.7 504.687 2896.28 508.687 2887.66 511.566C2879.03 514.286 2869.45 515.646 2858.91 515.646C2850.61 515.646 2844.22 513.886 2839.75 510.366C2835.44 506.847 2833.28 502.127 2833.28 496.208C2833.28 490.448 2835.2 486.129 2839.03 483.249C2842.86 480.209 2847.73 478.689 2853.64 478.689C2858.27 478.689 2862.58 479.649 2866.58 481.569C2870.57 483.489 2875.12 487.008 2880.23 492.128L2880.95 497.648C2888.29 507.087 2895 513.966 2901.07 518.286C2907.3 522.605 2913.13 525.405 2918.56 526.685C2924.15 527.805 2929.66 528.365 2935.08 528.365H2940.35L2938.2 556.442H2933.65Z" fill="black"/>
<path d="M47.0232 4480.14V4342H0V4311.93H125.787V4342H78.7639V4480.14H47.0232Z" fill="black"/>
<path d="M144.598 4311.93H175.398V4359.15L173.517 4380.06H175.398C178.69 4374.58 183.392 4370.12 189.505 4366.67C195.775 4363.07 202.75 4361.27 210.431 4361.27C225.321 4361.27 236.293 4365.65 243.347 4374.42C250.557 4383.19 254.162 4395.17 254.162 4410.37V4480.14H223.362V4414.12C223.362 4406.14 221.481 4400.11 217.719 4396.03C213.957 4391.81 208.707 4389.69 201.967 4389.69C197.734 4389.69 193.973 4390.63 190.681 4392.51C187.389 4394.23 184.568 4396.66 182.217 4399.79C180.022 4402.93 178.298 4406.61 177.044 4410.84C175.947 4414.91 175.398 4419.29 175.398 4423.99V4480.14H144.598V4311.93Z" fill="black"/>
<path d="M388.7 4452.42C383.371 4461.81 376.161 4469.41 367.069 4475.2C358.135 4481 347.163 4483.9 334.153 4483.9C325.376 4483.9 317.225 4482.41 309.701 4479.43C302.334 4476.3 295.908 4471.99 290.422 4466.51C284.936 4461.03 280.625 4454.61 277.49 4447.25C274.512 4439.73 273.023 4431.51 273.023 4422.58C273.023 4414.28 274.512 4406.45 277.49 4399.09C280.468 4391.57 284.622 4385.07 289.951 4379.59C295.281 4373.95 301.55 4369.49 308.761 4366.2C316.128 4362.91 324.2 4361.27 332.978 4361.27C342.225 4361.27 350.455 4362.83 357.665 4365.97C364.875 4368.94 370.91 4373.17 375.769 4378.65C380.628 4383.98 384.311 4390.32 386.819 4397.68C389.327 4405.04 390.581 4413.03 390.581 4421.64C390.581 4422.74 390.581 4423.68 390.581 4424.46C390.424 4425.4 390.346 4426.26 390.346 4427.04C390.189 4427.83 390.111 4428.69 390.111 4429.63H303.353C303.98 4434.33 305.234 4438.4 307.115 4441.84C309.153 4445.13 311.582 4447.95 314.403 4450.3C317.382 4452.49 320.595 4454.14 324.043 4455.23C327.492 4456.17 331.018 4456.64 334.623 4456.64C341.677 4456.64 347.476 4455.08 352.022 4451.95C356.724 4448.66 360.408 4444.59 363.072 4439.73L388.7 4452.42ZM360.721 4407.78C360.565 4405.75 359.859 4403.47 358.605 4400.97C357.508 4398.46 355.784 4396.11 353.433 4393.92C351.238 4391.73 348.417 4389.93 344.968 4388.52C341.677 4387.11 337.68 4386.4 332.978 4386.4C326.394 4386.4 320.595 4388.28 315.579 4392.04C310.563 4395.8 307.036 4401.05 304.999 4407.78H360.721Z" fill="black"/>
<path d="M490.832 4380.06H492.713C496.318 4374.27 501.177 4369.72 507.29 4366.44C513.403 4362.99 520.379 4361.27 528.216 4361.27C535.426 4361.27 541.774 4362.44 547.26 4364.79C552.746 4367.14 557.213 4370.51 560.662 4374.89C564.267 4379.12 566.931 4384.29 568.656 4390.4C570.537 4396.35 571.477 4403 571.477 4410.37V4480.14H540.677V4414.12C540.677 4405.82 538.796 4399.72 535.034 4395.8C531.429 4391.73 526.1 4389.69 519.046 4389.69C514.814 4389.69 511.052 4390.63 507.761 4392.51C504.626 4394.23 501.883 4396.66 499.532 4399.79C497.337 4402.77 495.613 4406.37 494.359 4410.6C493.262 4414.67 492.713 4419.06 492.713 4423.76V4480.14H461.913V4365.03H490.832V4380.06Z" fill="black"/>
<path d="M706.015 4452.42C700.686 4461.81 693.475 4469.41 684.384 4475.2C675.45 4481 664.478 4483.9 651.468 4483.9C642.69 4483.9 634.54 4482.41 627.016 4479.43C619.649 4476.3 613.222 4471.99 607.736 4466.51C602.25 4461.03 597.94 4454.61 594.805 4447.25C591.827 4439.73 590.338 4431.51 590.338 4422.58C590.338 4414.28 591.827 4406.45 594.805 4399.09C597.783 4391.57 601.937 4385.07 607.266 4379.59C612.595 4373.95 618.865 4369.49 626.075 4366.2C633.442 4362.91 641.515 4361.27 650.292 4361.27C659.54 4361.27 667.769 4362.83 674.98 4365.97C682.19 4368.94 688.225 4373.17 693.084 4378.65C697.943 4383.98 701.626 4390.32 704.134 4397.68C706.642 4405.04 707.896 4413.03 707.896 4421.64C707.896 4422.74 707.896 4423.68 707.896 4424.46C707.739 4425.4 707.661 4426.26 707.661 4427.04C707.504 4427.83 707.426 4428.69 707.426 4429.63H620.668C621.295 4434.33 622.549 4438.4 624.43 4441.84C626.467 4445.13 628.897 4447.95 631.718 4450.3C634.696 4452.49 637.91 4454.14 641.358 4455.23C644.806 4456.17 648.333 4456.64 651.938 4456.64C658.992 4456.64 664.791 4455.08 669.337 4451.95C674.039 4448.66 677.723 4444.59 680.387 4439.73L706.015 4452.42ZM678.036 4407.78C677.879 4405.75 677.174 4403.47 675.92 4400.97C674.823 4398.46 673.099 4396.11 670.748 4393.92C668.553 4391.73 665.732 4389.93 662.283 4388.52C658.992 4387.11 654.995 4386.4 650.292 4386.4C643.709 4386.4 637.91 4388.28 632.894 4392.04C627.878 4395.8 624.351 4401.05 622.314 4407.78H678.036Z" fill="black"/>
<path d="M713.044 4365.03H747.607L766.651 4437.15H768.297L791.103 4365.03H822.844L845.885 4437.15H847.531L866.34 4365.03H900.432L863.519 4480.14H830.367L807.326 4407.55H805.68L782.639 4480.14H749.958L713.044 4365.03Z" fill="black"/>
<path d="M953.901 4365.03H988.463L1007.51 4437.15H1009.15L1031.96 4365.03H1063.7L1086.74 4437.15H1088.39L1107.2 4365.03H1141.29L1104.38 4480.14H1071.22L1048.18 4407.55H1046.54L1023.5 4480.14H990.814L953.901 4365.03Z" fill="black"/>
<path d="M1224.03 4467.92H1222.15C1218.54 4472.31 1214.16 4476.06 1208.98 4479.2C1203.97 4482.33 1197.46 4483.9 1189.47 4483.9C1183.51 4483.9 1177.87 4482.88 1172.54 4480.84C1167.37 4478.96 1162.82 4476.3 1158.9 4472.85C1154.98 4469.41 1151.93 4465.26 1149.73 4460.4C1147.54 4455.55 1146.44 4450.22 1146.44 4444.43C1146.44 4438.48 1147.62 4433.15 1149.97 4428.45C1152.32 4423.6 1155.61 4419.45 1159.84 4416C1164.08 4412.56 1169.01 4409.97 1174.66 4408.25C1180.46 4406.37 1186.73 4405.43 1193.47 4405.43C1200.99 4405.43 1207.18 4406.06 1212.04 4407.31C1216.9 4408.41 1220.9 4409.58 1224.03 4410.84V4407.31C1224.03 4401.2 1221.6 4396.19 1216.74 4392.28C1211.88 4388.2 1205.85 4386.17 1198.64 4386.17C1187.98 4386.17 1178.97 4390.63 1171.6 4399.56L1149.26 4384.29C1161.49 4368.94 1178.18 4361.27 1199.34 4361.27C1217.21 4361.27 1230.85 4365.5 1240.25 4373.95C1249.66 4382.25 1254.36 4394.63 1254.36 4411.07V4480.14H1224.03V4467.92ZM1224.03 4433.39C1220.43 4431.66 1216.66 4430.33 1212.75 4429.39C1208.98 4428.3 1204.83 4427.75 1200.28 4427.75C1192.92 4427.75 1187.2 4429.39 1183.12 4432.68C1179.2 4435.81 1177.24 4439.73 1177.24 4444.43C1177.24 4449.13 1179.12 4452.89 1182.89 4455.7C1186.8 4458.52 1191.27 4459.93 1196.29 4459.93C1200.36 4459.93 1204.12 4459.23 1207.57 4457.82C1211.02 4456.25 1213.92 4454.3 1216.27 4451.95C1218.78 4449.44 1220.66 4446.62 1221.91 4443.49C1223.33 4440.2 1224.03 4436.83 1224.03 4433.39Z" fill="black"/>
<path d="M1312.76 4474.5L1264.33 4365.03H1299.36L1328.51 4434.8H1330.16L1358.14 4365.03H1392.47L1320.28 4530.88H1287.13L1312.76 4474.5Z" fill="black"/>
<path d="M1454.51 4391.34H1434.29V4365.03H1454.51V4329.79H1485.31V4365.03H1513.53V4391.34H1485.31V4435.97C1485.31 4438.63 1485.55 4441.14 1486.02 4443.49C1486.65 4445.68 1487.74 4447.56 1489.31 4449.13C1491.51 4451.63 1494.64 4452.89 1498.72 4452.89C1501.38 4452.89 1503.5 4452.65 1505.06 4452.18C1506.63 4451.55 1508.12 4450.77 1509.53 4449.83L1518.23 4476.85C1514.63 4478.57 1510.71 4479.82 1506.47 4480.61C1502.4 4481.55 1497.85 4482.02 1492.84 4482.02C1487.04 4482.02 1481.79 4481.15 1477.09 4479.43C1472.54 4477.55 1468.7 4475.05 1465.56 4471.91C1458.2 4464.87 1454.51 4454.84 1454.51 4441.84V4391.34Z" fill="black"/>
<path d="M1589.58 4361.27C1598.52 4361.27 1606.67 4362.83 1614.04 4365.97C1621.56 4368.94 1627.99 4373.17 1633.32 4378.65C1638.8 4383.98 1643.03 4390.4 1646.01 4397.91C1649.15 4405.43 1650.71 4413.65 1650.71 4422.58C1650.71 4431.51 1649.15 4439.73 1646.01 4447.25C1643.03 4454.77 1638.8 4461.26 1633.32 4466.75C1627.99 4472.07 1621.56 4476.3 1614.04 4479.43C1606.67 4482.41 1598.52 4483.9 1589.58 4483.9C1580.65 4483.9 1572.42 4482.41 1564.9 4479.43C1557.53 4476.3 1551.1 4472.07 1545.62 4466.75C1540.29 4461.26 1536.06 4454.77 1532.92 4447.25C1529.94 4439.73 1528.45 4431.51 1528.45 4422.58C1528.45 4413.65 1529.94 4405.43 1532.92 4397.91C1536.06 4390.4 1540.29 4383.98 1545.62 4378.65C1551.1 4373.17 1557.53 4368.94 1564.9 4365.97C1572.42 4362.83 1580.65 4361.27 1589.58 4361.27ZM1589.58 4455.47C1593.5 4455.47 1597.27 4454.77 1600.87 4453.36C1604.63 4451.79 1607.92 4449.6 1610.74 4446.78C1613.57 4443.96 1615.76 4440.51 1617.33 4436.44C1619.05 4432.37 1619.91 4427.75 1619.91 4422.58C1619.91 4417.41 1619.05 4412.79 1617.33 4408.72C1615.76 4404.65 1613.57 4401.2 1610.74 4398.38C1607.92 4395.57 1604.63 4393.45 1600.87 4392.04C1597.27 4390.48 1593.5 4389.69 1589.58 4389.69C1585.51 4389.69 1581.67 4390.48 1578.06 4392.04C1574.46 4393.45 1571.25 4395.57 1568.42 4398.38C1565.6 4401.2 1563.33 4404.65 1561.61 4408.72C1560.04 4412.79 1559.25 4417.41 1559.25 4422.58C1559.25 4427.75 1560.04 4432.37 1561.61 4436.44C1563.33 4440.51 1565.6 4443.96 1568.42 4446.78C1571.25 4449.6 1574.46 4451.79 1578.06 4453.36C1581.67 4454.77 1585.51 4455.47 1589.58 4455.47Z" fill="black"/>
<path d="M1831.5 4450.77C1826.48 4460.48 1819.43 4468.47 1810.33 4474.73C1801.4 4480.84 1790.19 4483.9 1776.71 4483.9C1767.78 4483.9 1759.55 4482.41 1752.03 4479.43C1744.66 4476.3 1738.23 4471.99 1732.75 4466.51C1727.42 4461.03 1723.18 4454.61 1720.05 4447.25C1717.07 4439.73 1715.58 4431.51 1715.58 4422.58C1715.58 4413.65 1717.07 4405.43 1720.05 4397.91C1723.18 4390.4 1727.42 4383.98 1732.75 4378.65C1738.23 4373.17 1744.66 4368.94 1752.03 4365.97C1759.55 4362.83 1767.78 4361.27 1776.71 4361.27C1790.04 4361.27 1801.24 4364.32 1810.33 4370.43C1819.43 4376.54 1826.09 4384.45 1830.32 4394.16L1802.11 4405.9C1799.44 4400.58 1795.99 4396.58 1791.76 4393.92C1787.69 4391.1 1782.51 4389.69 1776.24 4389.69C1772.17 4389.69 1768.33 4390.48 1764.72 4392.04C1761.12 4393.61 1757.9 4395.8 1755.08 4398.62C1752.42 4401.44 1750.3 4404.88 1748.73 4408.96C1747.17 4413.03 1746.38 4417.57 1746.38 4422.58C1746.38 4427.59 1747.17 4432.13 1748.73 4436.21C1750.3 4440.28 1752.42 4443.72 1755.08 4446.54C1757.9 4449.36 1761.12 4451.55 1764.72 4453.12C1768.33 4454.69 1772.17 4455.47 1776.24 4455.47C1782.67 4455.47 1788.08 4454.06 1792.47 4451.24C1797.01 4448.27 1800.62 4444.04 1803.28 4438.56L1831.5 4450.77Z" fill="#0F9D58"/>
<path d="M1850.29 4480.14V4311.93H1881.09V4480.14H1850.29Z" fill="#0F9D58"/>
<path d="M1960.86 4361.27C1969.79 4361.27 1977.94 4362.83 1985.31 4365.97C1992.83 4368.94 1999.26 4373.17 2004.59 4378.65C2010.07 4383.98 2014.31 4390.4 2017.28 4397.91C2020.42 4405.43 2021.99 4413.65 2021.99 4422.58C2021.99 4431.51 2020.42 4439.73 2017.28 4447.25C2014.31 4454.77 2010.07 4461.26 2004.59 4466.75C1999.26 4472.07 1992.83 4476.3 1985.31 4479.43C1977.94 4482.41 1969.79 4483.9 1960.86 4483.9C1951.92 4483.9 1943.69 4482.41 1936.17 4479.43C1928.8 4476.3 1922.38 4472.07 1916.89 4466.75C1911.56 4461.26 1907.33 4454.77 1904.19 4447.25C1901.22 4439.73 1899.73 4431.51 1899.73 4422.58C1899.73 4413.65 1901.22 4405.43 1904.19 4397.91C1907.33 4390.4 1911.56 4383.98 1916.89 4378.65C1922.38 4373.17 1928.8 4368.94 1936.17 4365.97C1943.69 4362.83 1951.92 4361.27 1960.86 4361.27ZM1960.86 4455.47C1964.78 4455.47 1968.54 4454.77 1972.14 4453.36C1975.9 4451.79 1979.2 4449.6 1982.02 4446.78C1984.84 4443.96 1987.03 4440.51 1988.6 4436.44C1990.32 4432.37 1991.19 4427.75 1991.19 4422.58C1991.19 4417.41 1990.32 4412.79 1988.6 4408.72C1987.03 4404.65 1984.84 4401.2 1982.02 4398.38C1979.2 4395.57 1975.9 4393.45 1972.14 4392.04C1968.54 4390.48 1964.78 4389.69 1960.86 4389.69C1956.78 4389.69 1952.94 4390.48 1949.34 4392.04C1945.73 4393.45 1942.52 4395.57 1939.7 4398.38C1936.87 4401.2 1934.6 4404.65 1932.88 4408.72C1931.31 4412.79 1930.53 4417.41 1930.53 4422.58C1930.53 4427.75 1931.31 4432.37 1932.88 4436.44C1934.6 4440.51 1936.87 4443.96 1939.7 4446.78C1942.52 4449.6 1945.73 4451.79 1949.34 4453.36C1952.94 4454.77 1956.78 4455.47 1960.86 4455.47Z" fill="#0F9D58"/>
<path d="M2120.33 4465.1H2118.45C2114.85 4470.9 2109.99 4475.52 2103.88 4478.96C2097.76 4482.25 2090.79 4483.9 2082.95 4483.9C2068.37 4483.9 2057.48 4479.43 2050.27 4470.5C2043.22 4461.58 2039.69 4449.68 2039.69 4434.8V4365.03H2070.49V4431.04C2070.49 4439.34 2072.29 4445.52 2075.9 4449.6C2079.66 4453.51 2085.07 4455.47 2092.12 4455.47C2096.35 4455.47 2100.03 4454.61 2103.17 4452.89C2106.46 4451.01 2109.2 4448.58 2111.4 4445.6C2113.75 4442.47 2115.47 4438.87 2116.57 4434.8C2117.83 4430.57 2118.45 4426.1 2118.45 4421.41V4365.03H2149.25V4480.14H2120.33V4465.1Z" fill="#0F9D58"/>
<path d="M2260.31 4466.28H2258.43C2255.6 4471.13 2251.22 4475.28 2245.26 4478.73C2239.3 4482.17 2231.94 4483.9 2223.16 4483.9C2215.79 4483.9 2208.74 4482.41 2202 4479.43C2195.41 4476.3 2189.54 4472.07 2184.36 4466.75C2179.35 4461.26 2175.35 4454.77 2172.37 4447.25C2169.39 4439.73 2167.91 4431.51 2167.91 4422.58C2167.91 4413.65 2169.39 4405.43 2172.37 4397.91C2175.35 4390.4 2179.35 4383.98 2184.36 4378.65C2189.54 4373.17 2195.41 4368.94 2202 4365.97C2208.74 4362.83 2215.79 4361.27 2223.16 4361.27C2231.94 4361.27 2239.3 4362.99 2245.26 4366.44C2251.22 4369.88 2255.6 4374.03 2258.43 4378.89H2260.31L2258.43 4362.44V4311.93H2289.23V4480.14H2260.31V4466.28ZM2229.51 4455.47C2233.58 4455.47 2237.42 4454.77 2241.03 4453.36C2244.79 4451.79 2248.08 4449.6 2250.9 4446.78C2253.72 4443.96 2256 4440.51 2257.72 4436.44C2259.44 4432.37 2260.31 4427.75 2260.31 4422.58C2260.31 4417.41 2259.44 4412.79 2257.72 4408.72C2256 4404.65 2253.72 4401.2 2250.9 4398.38C2248.08 4395.57 2244.79 4393.45 2241.03 4392.04C2237.42 4390.48 2233.58 4389.69 2229.51 4389.69C2225.43 4389.69 2221.51 4390.48 2217.75 4392.04C2214.15 4393.61 2210.93 4395.8 2208.11 4398.62C2205.29 4401.44 2203.02 4404.88 2201.29 4408.96C2199.57 4413.03 2198.71 4417.57 2198.71 4422.58C2198.71 4427.59 2199.57 4432.13 2201.29 4436.21C2203.02 4440.28 2205.29 4443.72 2208.11 4446.54C2210.93 4449.36 2214.15 4451.55 2217.75 4453.12C2221.51 4454.69 2225.43 4455.47 2229.51 4455.47Z" fill="#0F9D58"/>
<path d="M2334.04 4481.55C2328.4 4481.55 2323.54 4479.59 2319.46 4475.67C2315.55 4471.6 2313.59 4466.75 2313.59 4461.11C2313.59 4455.47 2315.55 4450.69 2319.46 4446.78C2323.54 4442.86 2328.4 4440.9 2334.04 4440.9C2339.68 4440.9 2344.46 4442.86 2348.38 4446.78C2352.3 4450.69 2354.26 4455.47 2354.26 4461.11C2354.26 4466.75 2352.3 4471.6 2348.38 4475.67C2344.46 4479.59 2339.68 4481.55 2334.04 4481.55Z" fill="#0F9D58"/>
<path d="M265.659 4072.46H261.665C252.787 4087.36 239.249 4100.39 221.05 4111.56C202.851 4122.27 181.101 4127.62 155.8 4127.62C134.938 4127.62 114.964 4123.2 95.8771 4114.35C77.2343 4105.04 60.8109 4092.24 46.6069 4075.95C32.4029 4059.66 21.0841 4040.58 12.6504 4018.7C4.21681 3996.36 0 3971.92 0 3945.39C0 3918.86 4.21681 3894.65 12.6504 3872.78C21.0841 3850.43 32.4029 3831.12 46.6069 3814.82C60.8109 3798.53 77.2343 3785.97 95.8771 3777.12C114.964 3767.81 134.938 3763.16 155.8 3763.16C181.101 3763.16 202.851 3768.74 221.05 3779.91C239.249 3790.62 252.787 3803.42 261.665 3818.32H265.659L261.665 3770.84V3616.54H335.57V4116.45H265.659V4072.46ZM169.782 4055.7C182.211 4055.7 194.195 4053.14 205.736 4048.02C217.721 4042.9 227.93 4035.69 236.364 4026.38C245.241 4017.07 252.343 4005.67 257.67 3992.17C262.996 3978.2 265.659 3962.61 265.659 3945.39C265.659 3928.17 262.996 3912.81 257.67 3899.31C252.343 3885.34 245.241 3873.71 236.364 3864.4C227.93 3855.09 217.721 3847.87 205.736 3842.75C194.195 3837.63 182.211 3835.07 169.782 3835.07C156.91 3835.07 144.703 3837.63 133.163 3842.75C121.622 3847.87 111.413 3855.32 102.535 3865.09C94.1016 3874.4 87.2215 3885.81 81.895 3899.31C76.5685 3912.81 73.9053 3928.17 73.9053 3945.39C73.9053 3962.61 76.5685 3977.97 81.895 3991.47C87.2215 4004.97 94.1016 4016.6 102.535 4026.38C111.413 4035.69 121.622 4042.9 133.163 4048.02C144.703 4053.14 156.91 4055.7 169.782 4055.7Z" fill="#010B17"/>
<path d="M599.903 4074.56H595.908C586.143 4088.05 573.492 4100.39 557.957 4111.56C542.421 4122.27 522.669 4127.62 498.699 4127.62C481.388 4127.62 465.187 4124.59 450.095 4118.54C435.003 4112.96 421.909 4105.04 410.812 4094.8C399.715 4084.1 390.837 4071.76 384.179 4057.8C377.965 4043.37 374.858 4027.54 374.858 4010.32C374.858 3992.17 378.187 3975.88 384.845 3961.45C391.947 3947.02 401.49 3934.92 413.475 3925.14C425.904 3915.37 440.552 3907.92 457.419 3902.8C474.286 3897.21 492.485 3894.42 512.015 3894.42C533.765 3894.42 551.964 3896.75 566.612 3901.4C581.26 3905.59 592.357 3909.55 599.903 3913.27V3900.01C599.903 3889.76 597.683 3880.22 593.245 3871.38C589.25 3862.53 583.479 3855.09 575.933 3849.04C568.831 3842.52 560.62 3837.63 551.298 3834.37C541.977 3830.65 532.212 3828.79 522.003 3828.79C505.579 3828.79 490.709 3832.28 477.393 3839.26C464.521 3845.78 452.98 3856.48 442.771 3871.38L384.179 3830.88C399.715 3808.54 419.024 3791.78 442.105 3780.61C465.187 3768.98 491.375 3763.16 520.671 3763.16C569.053 3763.16 606.339 3775.73 632.528 3800.86C659.16 3826 672.476 3861.84 672.476 3908.38V4116.45H599.903V4074.56ZM599.903 3974.01C590.138 3967.96 579.263 3963.08 567.278 3959.35C555.293 3955.63 541.533 3953.77 525.997 3953.77C502.916 3953.77 484.495 3959.35 470.735 3970.52C456.975 3981.69 450.095 3995.19 450.095 4011.02C450.095 4019.4 451.87 4026.85 455.421 4033.36C458.972 4039.41 463.411 4044.77 468.738 4049.42C474.508 4054.07 480.944 4057.57 488.046 4059.89C495.592 4062.22 503.138 4063.38 510.684 4063.38C522.668 4063.38 533.987 4061.06 544.64 4056.4C555.737 4051.28 565.28 4044.77 573.27 4036.85C581.26 4028.47 587.696 4018.93 592.579 4008.23C597.461 3997.52 599.903 3986.12 599.903 3974.01Z" fill="#010B17"/>
<path d="M823.397 4096.9L687.572 3774.33H770.132L860.017 4001.24H863.346L950.568 3774.33H1032.46L828.058 4267.26H749.492L823.397 4096.9Z" fill="#010B17"/>
<path d="M1176.68 4127.62C1156.7 4127.62 1138.73 4124.83 1122.75 4119.24C1106.77 4113.65 1092.79 4106.44 1080.8 4097.6C1068.82 4088.29 1058.61 4077.81 1050.17 4066.18C1042.18 4054.54 1035.97 4042.44 1031.53 4029.87L1098.11 4000.55C1105.66 4020.56 1116.53 4035.46 1130.74 4045.23C1144.94 4054.54 1160.26 4059.2 1176.68 4059.2C1195.32 4059.2 1209.97 4055.24 1220.62 4047.33C1231.28 4039.41 1236.6 4030.57 1236.6 4020.79C1236.6 4011.02 1232.61 4002.64 1224.62 3995.66C1216.63 3988.21 1201.54 3981.69 1179.34 3976.11L1132.74 3964.24C1122.53 3961.91 1112.09 3958.42 1101.44 3953.77C1091.23 3948.65 1081.69 3942.36 1072.81 3934.92C1063.93 3927 1056.61 3917.69 1050.84 3906.99C1045.51 3895.82 1042.85 3882.78 1042.85 3867.89C1042.85 3851.13 1046.18 3836.24 1052.84 3823.2C1059.94 3810.17 1069.48 3799.23 1081.47 3790.39C1093.45 3781.54 1107.21 3774.79 1122.75 3770.14C1138.73 3765.48 1155.59 3763.16 1173.35 3763.16C1188 3763.16 1201.98 3764.79 1215.3 3768.04C1229.06 3771.3 1241.71 3776.19 1253.25 3782.71C1264.79 3789.22 1275 3797.6 1283.87 3807.84C1293.2 3817.62 1300.52 3829.25 1305.85 3842.75L1240.6 3871.38C1234.38 3856.48 1224.62 3845.78 1211.3 3839.26C1197.98 3832.28 1184.45 3828.79 1170.69 3828.79C1164.47 3828.79 1158.04 3829.72 1151.38 3831.58C1145.16 3832.98 1139.39 3835.31 1134.07 3838.56C1129.18 3841.36 1124.97 3845.08 1121.42 3849.73C1118.31 3854.39 1116.76 3859.51 1116.76 3865.09C1116.76 3874.4 1120.53 3881.85 1128.07 3887.44C1136.06 3892.56 1148.05 3897.21 1164.03 3901.4L1213.96 3914.67C1247.7 3923.51 1272.33 3937.01 1287.87 3955.16C1303.85 3972.85 1311.84 3993.8 1311.84 4018C1311.84 4032.9 1308.51 4046.86 1301.85 4059.89C1295.64 4072.93 1286.54 4084.56 1274.55 4094.8C1262.57 4105.04 1248.14 4112.96 1231.28 4118.54C1214.85 4124.59 1196.65 4127.62 1176.68 4127.62Z" fill="#010B17"/>
<path d="M1890.84 4057.91H2012.41V4121.4H1792.92V4055.92C1811.84 4036.41 1829.34 4018.39 1845.43 4001.85C1852.37 3994.91 1859.3 3987.8 1866.24 3980.52C1872.86 3973.25 1879.01 3966.63 1884.69 3960.68C1890.68 3954.4 1895.89 3948.94 1900.3 3944.31C1905.03 3939.35 1908.5 3935.55 1910.71 3932.9C1919.85 3922.32 1926.32 3913.06 1930.1 3905.12C1933.89 3896.85 1935.78 3887.92 1935.78 3878.33C1935.78 3868.74 1932.31 3860.64 1925.37 3854.03C1918.75 3847.08 1909.45 3843.61 1897.46 3843.61C1885.48 3843.61 1875.86 3847.25 1868.61 3854.52C1861.67 3861.47 1856.47 3870.73 1853 3882.3L1788.66 3854.52C1791.5 3844.27 1795.92 3834.35 1801.91 3824.76C1807.9 3815.17 1815.47 3806.74 1824.61 3799.46C1833.76 3791.85 1844.48 3785.74 1856.78 3781.11C1869.4 3776.48 1883.27 3774.16 1898.41 3774.16C1915.44 3774.16 1930.73 3776.81 1944.3 3782.1C1957.86 3787.06 1969.21 3794 1978.35 3802.93C1987.82 3811.86 1995.07 3822.44 2000.11 3834.68C2005.16 3846.92 2007.68 3860.15 2007.68 3874.37C2007.68 3894.87 2003.11 3913.89 1993.96 3931.41C1985.13 3948.61 1972.68 3965.64 1956.59 3982.51L1888.48 4052.95L1890.84 4057.91Z" fill="#010B17"/>
<path d="M2187.74 4129.34C2166.3 4129.34 2147.06 4124.88 2130.03 4115.95C2113 4107.02 2098.5 4094.62 2086.51 4078.74C2074.53 4062.87 2065.23 4044.18 2058.6 4022.69C2052.3 4000.86 2049.14 3977.22 2049.14 3951.75C2049.14 3926.29 2052.3 3902.81 2058.6 3881.31C2065.23 3859.48 2074.53 3840.63 2086.51 3824.76C2098.5 3808.89 2113 3796.48 2130.03 3787.56C2147.06 3778.63 2166.3 3774.16 2187.74 3774.16C2208.87 3774.16 2227.95 3778.63 2244.98 3787.56C2262.33 3796.48 2276.99 3808.89 2288.98 3824.76C2300.96 3840.63 2310.11 3859.48 2316.41 3881.31C2323.04 3902.81 2326.35 3926.29 2326.35 3951.75C2326.35 3977.22 2323.04 4000.86 2316.41 4022.69C2310.11 4044.18 2300.96 4062.87 2288.98 4078.74C2276.99 4094.62 2262.33 4107.02 2244.98 4115.95C2227.95 4124.88 2208.87 4129.34 2187.74 4129.34ZM2187.74 4059.89C2198.47 4059.89 2207.93 4057.25 2216.13 4051.96C2224.64 4046.33 2231.74 4038.73 2237.42 4029.14C2243.41 4019.55 2247.82 4008.14 2250.66 3994.91C2253.81 3981.68 2255.39 3967.29 2255.39 3951.75C2255.39 3936.21 2253.81 3921.82 2250.66 3908.59C2247.82 3895.37 2243.41 3883.96 2237.42 3874.37C2231.74 3864.78 2224.64 3857.33 2216.13 3852.04C2207.93 3846.42 2198.47 3843.61 2187.74 3843.61C2177.02 3843.61 2167.4 3846.42 2158.89 3852.04C2150.69 3857.33 2143.59 3864.78 2137.6 3874.37C2131.93 3883.96 2127.51 3895.37 2124.36 3908.59C2121.52 3921.82 2120.1 3936.21 2120.1 3951.75C2120.1 3967.29 2121.52 3981.68 2124.36 3994.91C2127.51 4008.14 2131.93 4019.55 2137.6 4029.14C2143.59 4038.73 2150.69 4046.33 2158.89 4051.96C2167.4 4057.25 2177.02 4059.89 2187.74 4059.89Z" fill="#010B17"/>
<path d="M2458.83 4057.91H2580.4V4121.4H2360.91V4055.92C2379.83 4036.41 2397.34 4018.39 2413.42 4001.85C2420.36 3994.91 2427.29 3987.8 2434.23 3980.52C2440.86 3973.25 2447 3966.63 2452.68 3960.68C2458.67 3954.4 2463.88 3948.94 2468.29 3944.31C2473.02 3939.35 2476.49 3935.55 2478.7 3932.9C2487.84 3922.32 2494.31 3913.06 2498.09 3905.12C2501.88 3896.85 2503.77 3887.92 2503.77 3878.33C2503.77 3868.74 2500.3 3860.64 2493.36 3854.03C2486.74 3847.08 2477.44 3843.61 2465.45 3843.61C2453.47 3843.61 2443.85 3847.25 2436.6 3854.52C2429.66 3861.47 2424.46 3870.73 2420.99 3882.3L2356.65 3854.52C2359.49 3844.27 2363.91 3834.35 2369.9 3824.76C2375.89 3815.17 2383.46 3806.74 2392.6 3799.46C2401.75 3791.85 2412.47 3785.74 2424.77 3781.11C2437.39 3776.48 2451.26 3774.16 2466.4 3774.16C2483.43 3774.16 2498.72 3776.81 2512.29 3782.1C2525.85 3787.06 2537.2 3794 2546.34 3802.93C2555.81 3811.86 2563.06 3822.44 2568.11 3834.68C2573.15 3846.92 2575.67 3860.15 2575.67 3874.37C2575.67 3894.87 2571.1 3913.89 2561.96 3931.41C2553.13 3948.61 2540.67 3965.64 2524.58 3982.51L2456.47 4052.95L2458.83 4057.91Z" fill="#010B17"/>
<path d="M2733.03 4129.34C2720.1 4129.34 2707.33 4127.52 2694.71 4123.88C2682.1 4120.25 2670.43 4114.62 2659.71 4107.02C2649.3 4099.41 2640.15 4089.82 2632.27 4078.25C2624.39 4066.67 2618.71 4053.11 2615.24 4037.57L2680.05 4011.28C2683.2 4026.82 2689.19 4039.06 2698.02 4047.99C2706.85 4056.58 2718.52 4060.88 2733.03 4060.88C2745.64 4060.88 2756.37 4056.25 2765.2 4046.99C2774.03 4037.73 2778.44 4026.16 2778.44 4012.27C2778.44 3998.38 2774.03 3986.81 2765.2 3977.55C2756.68 3968.29 2745.8 3963.66 2732.56 3963.66C2723.41 3963.66 2715.53 3965.48 2708.9 3969.11C2702.28 3972.75 2696.6 3977.38 2691.87 3983L2623.76 3950.26L2641.26 3782.1H2830V3845.59H2700.39L2688.09 3916.03L2692.82 3917.52C2698.81 3912.56 2706.22 3907.93 2715.05 3903.63C2724.2 3899.33 2735.24 3897.18 2748.17 3897.18C2761.41 3897.18 2774.03 3900 2786.01 3905.62C2798.31 3910.91 2809.03 3918.51 2818.18 3928.44C2827.64 3938.36 2835.21 3950.43 2840.88 3964.65C2846.56 3978.87 2849.4 3994.74 2849.4 4012.27C2849.4 4029.8 2846.56 4045.84 2840.88 4060.39C2835.21 4074.61 2827.17 4086.84 2816.76 4097.1C2806.35 4107.35 2794.05 4115.29 2779.86 4120.91C2765.67 4126.53 2750.06 4129.34 2733.03 4129.34Z" fill="#010B17"/>
<path fill-rule="evenodd" clip-rule="evenodd" d="M1586.02 3784.06C1568.32 3761.5 1535.38 3761.5 1517.68 3784.06L1511.96 3791.35C1502.6 3803.28 1488.18 3809.54 1473.51 3808.05L1464.56 3807.14C1436.83 3804.31 1413.54 3828.73 1416.23 3857.81L1417.1 3867.2C1418.53 3882.58 1412.56 3897.7 1401.18 3907.52L1394.23 3913.52C1372.72 3932.08 1372.72 3966.62 1394.23 3985.18L1401.18 3991.18C1412.56 4001 1418.53 4016.11 1417.1 4031.5L1416.23 4040.89C1413.54 4069.96 1436.83 4094.39 1464.56 4091.56L1473.51 4090.65C1488.18 4089.16 1502.6 4095.42 1511.96 4107.35L1517.68 4114.64C1535.38 4137.19 1568.32 4137.19 1586.02 4114.64L1591.74 4107.35C1601.1 4095.42 1615.52 4089.16 1630.19 4090.65L1639.14 4091.56C1666.87 4094.39 1690.16 4069.96 1687.47 4040.89L1686.6 4031.5C1685.17 4016.11 1691.14 4001 1702.52 3991.18L1709.47 3985.18C1730.98 3966.62 1730.98 3932.08 1709.47 3913.52L1702.52 3907.52C1691.14 3897.7 1685.17 3882.58 1686.6 3867.2L1687.47 3857.81C1690.16 3828.73 1666.87 3804.31 1639.14 3807.14L1630.19 3808.05C1615.52 3809.54 1601.1 3803.28 1591.74 3791.35L1586.02 3784.06ZM1561.96 3822.41C1558.07 3813.22 1545.63 3813.22 1541.74 3822.41L1525.3 3861.24C1522.91 3866.88 1516.71 3869.58 1511.21 3867.36L1473.4 3852.09C1464.45 3848.48 1455.66 3857.7 1459.1 3867.09L1473.66 3906.73C1475.78 3912.5 1473.21 3919 1467.82 3921.5L1430.8 3938.75C1422.03 3942.83 1422.03 3955.87 1430.8 3959.95L1467.82 3977.19C1473.21 3979.7 1475.78 3986.2 1473.66 3991.97L1459.1 4031.61C1455.66 4041 1464.45 4050.22 1473.4 4046.61L1511.21 4031.34C1516.71 4029.12 1522.91 4031.81 1525.3 4037.46L1541.74 4076.29C1545.63 4085.48 1558.07 4085.48 1561.96 4076.29L1578.4 4037.46C1580.79 4031.81 1586.99 4029.12 1592.49 4031.34L1630.3 4046.61C1639.25 4050.22 1648.04 4041 1644.6 4031.61L1630.04 3991.97C1627.92 3986.2 1630.49 3979.7 1635.88 3977.19L1672.9 3959.95C1681.67 3955.87 1681.67 3942.83 1672.9 3938.75L1635.88 3921.5C1630.49 3919 1627.92 3912.5 1630.04 3906.73L1644.6 3867.09C1648.04 3857.7 1639.25 3848.48 1630.3 3852.09L1592.49 3867.36C1586.99 3869.58 1580.79 3866.88 1578.4 3861.24L1561.96 3822.41Z" fill="#FAAB00"/>
<path d="M3119.93 3767.65H3081.37V3900.79L2991.59 3806.65L2964.33 3835.24L3054.11 3929.38H2927.14V3969.82H3054.11L2964.33 4063.96L2991.59 4092.55L3081.37 3998.41V4131.55H3119.93V3998.41L3209.71 4092.55L3236.97 4063.96L3147.19 3969.82H3274.16V3929.38H3147.19L3236.97 3835.24L3209.71 3806.65L3119.93 3900.79V3767.65Z" fill="#EA4336"/>
<path d="M320.256 3355.64C314.042 3369.14 306.274 3381.94 296.953 3394.04C288.075 3405.67 277.422 3416.15 264.994 3425.46C253.009 3434.3 239.027 3441.28 223.047 3446.4C207.068 3451.52 189.535 3454.08 170.448 3454.08C145.591 3454.08 122.732 3449.66 101.869 3440.82C81.0072 3431.51 63.0303 3418.71 47.9385 3402.42C32.8468 3386.13 21.0841 3366.81 12.6504 3344.47C4.21681 3322.12 0 3297.92 0 3271.85C0 3245.79 4.21681 3221.58 12.6504 3199.24C21.0841 3176.9 32.8468 3157.58 47.9385 3141.29C63.0303 3125 81.0072 3112.43 101.869 3103.59C122.732 3094.28 145.591 3089.62 170.448 3089.62C189.535 3089.62 206.846 3092.18 222.382 3097.3C238.361 3102.42 252.343 3109.64 264.328 3118.95C276.756 3127.79 287.409 3138.26 296.287 3150.37C305.164 3162 312.266 3174.34 317.593 3187.37L249.68 3217.39C242.134 3199.71 231.703 3185.97 218.387 3176.2C205.07 3166.42 188.203 3161.54 167.785 3161.54C155.356 3161.54 143.372 3164.33 131.831 3169.92C120.734 3175.04 110.747 3182.48 101.869 3192.26C93.4357 3201.57 86.5557 3212.97 81.2292 3226.47C76.3466 3239.97 73.9053 3255.1 73.9053 3271.85C73.9053 3288.61 76.3466 3303.74 81.2292 3317.24C86.5557 3330.73 93.4357 3342.37 101.869 3352.15C110.747 3361.46 120.734 3368.9 131.831 3374.49C143.372 3379.61 155.356 3382.17 167.785 3382.17C188.203 3382.17 205.514 3377.28 219.718 3367.51C234.366 3357.27 245.685 3343.3 253.675 3325.61L320.256 3355.64Z" fill="#010B17"/>
<path d="M360.34 3442.91V2943H434.245V3442.91H360.34Z" fill="#010B17"/>
<path d="M1084.98 3396.83H1080.98C1071.22 3413.12 1057.24 3426.85 1039.04 3438.02C1021.28 3448.73 1001.09 3454.08 978.447 3454.08C937.167 3454.08 906.318 3441.28 885.899 3415.68C865.481 3389.62 855.272 3355.17 855.272 3312.35V3100.79H929.177V3301.88C929.177 3331.67 935.613 3352.61 948.486 3364.71C961.802 3376.35 979.113 3382.17 1000.42 3382.17C1012.85 3382.17 1023.94 3379.38 1033.71 3373.79C1043.92 3368.2 1052.57 3360.76 1059.68 3351.45C1066.78 3341.67 1072.11 3330.73 1075.66 3318.63C1079.21 3306.06 1080.98 3293.03 1080.98 3279.53V3100.79H1154.89V3442.91H1084.98V3396.83Z" fill="#010B17"/>
<path d="M1459.65 3398.93H1455.66C1446.78 3413.82 1433.24 3426.85 1415.04 3438.02C1396.84 3448.73 1375.09 3454.08 1349.79 3454.08C1328.93 3454.08 1308.96 3449.66 1289.87 3440.82C1271.23 3431.51 1254.8 3418.71 1240.6 3402.42C1226.4 3386.13 1215.08 3367.04 1206.64 3345.16C1198.21 3322.82 1193.99 3298.38 1193.99 3271.85C1193.99 3245.32 1198.21 3221.12 1206.64 3199.24C1215.08 3176.9 1226.4 3157.58 1240.6 3141.29C1254.8 3125 1271.23 3112.43 1289.87 3103.59C1308.96 3094.28 1328.93 3089.62 1349.79 3089.62C1375.09 3089.62 1396.84 3095.21 1415.04 3106.38C1433.24 3117.08 1446.78 3129.89 1455.66 3144.78H1459.65L1455.66 3097.3V2943H1529.56V3442.91H1459.65V3398.93ZM1363.78 3382.17C1376.2 3382.17 1388.19 3379.61 1399.73 3374.49C1411.71 3369.37 1421.92 3362.15 1430.36 3352.84C1439.23 3343.53 1446.34 3332.13 1451.66 3318.63C1456.99 3304.67 1459.65 3289.08 1459.65 3271.85C1459.65 3254.63 1456.99 3239.27 1451.66 3225.77C1446.34 3211.81 1439.23 3200.17 1430.36 3190.86C1421.92 3181.55 1411.71 3174.34 1399.73 3169.22C1388.19 3164.1 1376.2 3161.54 1363.78 3161.54C1350.9 3161.54 1338.7 3164.1 1327.16 3169.22C1315.62 3174.34 1305.41 3181.78 1296.53 3191.56C1288.1 3200.87 1281.22 3212.27 1275.89 3225.77C1270.56 3239.27 1267.9 3254.63 1267.9 3271.85C1267.9 3289.08 1270.56 3304.44 1275.89 3317.93C1281.22 3331.43 1288.1 3343.07 1296.53 3352.84C1305.41 3362.15 1315.62 3369.37 1327.16 3374.49C1338.7 3379.61 1350.9 3382.17 1363.78 3382.17Z" fill="#010B17"/>
<path d="M646.432 3092.57C550.191 3092.57 472.173 3174.39 472.173 3275.31C568.414 3275.31 646.432 3193.49 646.432 3092.57Z" fill="#4285F4"/>
<path d="M646.432 3458.04C550.191 3458.04 472.173 3376.23 472.173 3275.31C568.414 3275.31 646.432 3357.12 646.432 3458.04Z" fill="#4285F4"/>
<path d="M646.432 3092.57C742.673 3092.57 820.692 3174.39 820.692 3275.31C724.451 3275.31 646.432 3193.49 646.432 3092.57Z" fill="#4285F4"/>
<path d="M646.432 3458.04C742.673 3458.04 820.692 3376.23 820.692 3275.31C724.451 3275.31 646.432 3357.12 646.432 3458.04Z" fill="#4285F4"/>
<path d="M2033.61 3355.64C2027.39 3369.14 2019.62 3381.94 2010.3 3394.04C2001.42 3405.67 1990.77 3416.15 1978.34 3425.46C1966.36 3434.3 1952.38 3441.28 1936.4 3446.4C1920.42 3451.52 1902.88 3454.08 1883.8 3454.08C1858.94 3454.08 1836.08 3449.66 1815.22 3440.82C1794.36 3431.51 1776.38 3418.71 1761.29 3402.42C1746.2 3386.13 1734.43 3366.81 1726 3344.47C1717.57 3322.12 1713.35 3297.92 1713.35 3271.85C1713.35 3245.79 1717.57 3221.58 1726 3199.24C1734.43 3176.9 1746.2 3157.58 1761.29 3141.29C1776.38 3125 1794.36 3112.43 1815.22 3103.59C1836.08 3094.28 1858.94 3089.62 1883.8 3089.62C1902.88 3089.62 1920.2 3092.18 1935.73 3097.3C1951.71 3102.42 1965.69 3109.64 1977.68 3118.95C1990.11 3127.79 2000.76 3138.26 2009.64 3150.37C2018.51 3162 2025.62 3174.34 2030.94 3187.37L1963.03 3217.39C1955.48 3199.71 1945.05 3185.97 1931.74 3176.2C1918.42 3166.42 1901.55 3161.54 1881.13 3161.54C1868.71 3161.54 1856.72 3164.33 1845.18 3169.92C1834.08 3175.04 1824.1 3182.48 1815.22 3192.26C1806.78 3201.57 1799.91 3212.97 1794.58 3226.47C1789.7 3239.97 1787.25 3255.1 1787.25 3271.85C1787.25 3288.61 1789.7 3303.74 1794.58 3317.24C1799.91 3330.73 1806.78 3342.37 1815.22 3352.15C1824.1 3361.46 1834.08 3368.9 1845.18 3374.49C1856.72 3379.61 1868.71 3382.17 1881.13 3382.17C1901.55 3382.17 1918.86 3377.28 1933.07 3367.51C1947.72 3357.27 1959.03 3343.3 1967.02 3325.61L2033.61 3355.64Z" fill="#010B17"/>
<path fill-rule="evenodd" clip-rule="evenodd" d="M2238.53 3093.89C2142.21 3093.89 2064.13 3175.77 2064.13 3276.78C2064.13 3377.78 2142.21 3459.67 2238.53 3459.67C2334.85 3459.67 2412.93 3377.78 2412.93 3276.78C2412.93 3175.77 2334.85 3093.89 2238.53 3093.89ZM2238.53 3398.7C2174.32 3398.7 2122.26 3344.12 2122.26 3276.78H2354.8C2354.8 3344.12 2302.74 3398.7 2238.53 3398.7Z" fill="#34A853"/>
<path d="M2459.65 3106.34H2529.56V3152.42H2533.55C2543.76 3135.67 2557.97 3121.93 2576.17 3111.23C2594.37 3100.52 2613.67 3095.17 2634.09 3095.17C2658.51 3095.17 2679.37 3101.22 2696.68 3113.32C2714.43 3124.96 2727.31 3140.32 2735.3 3159.4C2746.39 3141.25 2761.26 3126.12 2779.91 3114.02C2798.55 3101.45 2820.96 3095.17 2847.15 3095.17C2867.13 3095.17 2884.44 3098.66 2899.09 3105.64C2913.73 3112.16 2925.72 3121.47 2935.04 3133.57C2944.8 3145.67 2952.13 3160.34 2957.01 3177.56C2961.89 3194.31 2964.34 3213.17 2964.34 3234.11V3448.46H2890.43V3247.38C2890.43 3217.59 2884.88 3196.87 2873.78 3185.24C2863.13 3173.14 2847.37 3167.08 2826.51 3167.08C2814.53 3167.08 2803.65 3169.88 2793.89 3175.46C2784.57 3181.05 2776.58 3188.73 2769.92 3198.5C2763.26 3207.81 2758.16 3218.75 2754.6 3231.32C2751.05 3243.89 2749.28 3257.15 2749.28 3271.12V3448.46H2675.37V3247.38C2675.37 3217.59 2669.6 3196.87 2658.06 3185.24C2646.96 3173.14 2630.76 3167.08 2609.46 3167.08C2597.92 3167.08 2587.49 3169.88 2578.16 3175.46C2568.84 3181.05 2560.85 3188.73 2554.19 3198.5C2547.54 3207.81 2542.43 3218.75 2538.88 3231.32C2535.33 3243.89 2533.55 3257.15 2533.55 3271.12V3448.46H2459.65V3106.34Z" fill="#010B17"/>
<path d="M3023.07 3106.34H3092.98V3152.42H3096.97C3107.18 3135.67 3121.39 3121.93 3139.58 3111.23C3157.78 3100.52 3177.09 3095.17 3197.51 3095.17C3221.92 3095.17 3242.79 3101.22 3260.1 3113.32C3277.85 3124.96 3290.72 3140.32 3298.71 3159.4C3309.81 3141.25 3324.68 3126.12 3343.32 3114.02C3361.97 3101.45 3384.38 3095.17 3410.57 3095.17C3430.54 3095.17 3447.86 3098.66 3462.5 3105.64C3477.15 3112.16 3489.14 3121.47 3498.46 3133.57C3508.22 3145.67 3515.55 3160.34 3520.43 3177.56C3525.31 3194.31 3527.75 3213.17 3527.75 3234.11V3448.46H3453.85V3247.38C3453.85 3217.59 3448.3 3196.87 3437.2 3185.24C3426.55 3173.14 3410.79 3167.08 3389.93 3167.08C3377.95 3167.08 3367.07 3169.88 3357.31 3175.46C3347.98 3181.05 3339.99 3188.73 3333.34 3198.5C3326.68 3207.81 3321.57 3218.75 3318.02 3231.32C3314.47 3243.89 3312.7 3257.15 3312.7 3271.12V3448.46H3238.79V3247.38C3238.79 3217.59 3233.02 3196.87 3221.48 3185.24C3210.38 3173.14 3194.18 3167.08 3172.88 3167.08C3161.33 3167.08 3150.9 3169.88 3141.58 3175.46C3132.26 3181.05 3124.27 3188.73 3117.61 3198.5C3110.96 3207.81 3105.85 3218.75 3102.3 3231.32C3098.75 3243.89 3096.97 3257.15 3096.97 3271.12V3448.46H3023.07V3106.34Z" fill="#010B17"/>
<path d="M3813.53 3402.38H3809.53C3799.77 3418.67 3785.79 3432.4 3767.59 3443.57C3749.83 3454.28 3729.64 3459.63 3707 3459.63C3665.72 3459.63 3634.87 3446.83 3614.45 3421.23C3594.03 3395.16 3583.82 3360.72 3583.82 3317.9V3106.34H3657.73V3307.42C3657.73 3337.21 3664.16 3358.16 3677.04 3370.26C3690.35 3381.9 3707.66 3387.72 3728.97 3387.72C3741.4 3387.72 3752.5 3384.92 3762.26 3379.34C3772.47 3373.75 3781.13 3366.3 3788.23 3357C3795.33 3347.22 3800.66 3336.28 3804.21 3324.18C3807.76 3311.61 3809.53 3298.58 3809.53 3285.08V3106.34H3883.44V3448.46H3813.53V3402.38Z" fill="#010B17"/>
<path d="M4014.35 3152.42H4018.34C4028.11 3136.13 4041.87 3122.63 4059.62 3111.93C4077.82 3100.76 4098.24 3095.17 4120.88 3095.17C4162.16 3095.17 4193.01 3108.2 4213.43 3134.27C4233.85 3159.87 4244.05 3194.08 4244.05 3236.9V3448.46H4170.15V3247.38C4170.15 3217.59 4163.49 3196.87 4150.17 3185.24C4137.3 3173.14 4120.21 3167.08 4098.91 3167.08C4086.03 3167.08 4074.72 3169.88 4064.95 3175.46C4055.18 3181.05 4046.75 3188.73 4039.65 3198.5C4032.55 3207.81 4027.22 3218.75 4023.67 3231.32C4020.12 3243.42 4018.34 3256.22 4018.34 3269.72V3448.46H3944.44V3106.34H4014.35V3152.42Z" fill="#010B17"/>
<path d="M4345 3199.78C4330.8 3199.78 4318.81 3194.66 4309.05 3184.42C4299.73 3174.18 4295.07 3161.84 4295.07 3147.41C4295.07 3132.98 4299.73 3120.65 4309.05 3110.41C4318.81 3100.17 4330.8 3095.05 4345 3095.05C4358.76 3095.05 4370.3 3100.17 4379.62 3110.41C4389.39 3120.65 4394.27 3132.98 4394.27 3147.41C4394.27 3161.84 4389.39 3174.18 4379.62 3184.42C4370.3 3194.66 4358.76 3199.78 4345 3199.78ZM4307.72 3448.46V3233.71H4381.62V3448.46H4307.72Z" fill="#010B17"/>
<path d="M4481.08 3174.76H4423.82V3106.34H4481.08V3001.61H4554.98V3106.34H4635.55V3174.76H4554.98V3326.97C4554.98 3335.35 4555.87 3343.03 4557.65 3350.01C4559.42 3357 4562.09 3362.81 4565.64 3367.47C4573.18 3376.31 4582.73 3380.73 4594.27 3380.73C4601.37 3380.73 4606.92 3380.27 4610.91 3379.34C4614.91 3377.94 4619.12 3376.08 4623.56 3373.75L4646.2 3442.18C4636.88 3445.9 4627.11 3448.69 4616.9 3450.55C4606.7 3452.88 4595.15 3454.05 4582.28 3454.05C4566.75 3454.05 4552.99 3451.49 4541 3446.37C4529.02 3441.24 4518.59 3434.26 4509.71 3425.42C4490.62 3405.4 4481.08 3378.17 4481.08 3343.73V3174.76Z" fill="#010B17"/>
<path d="M4787.89 3428.91L4652.07 3106.34H4734.63L4824.51 3333.26H4827.84L4915.06 3106.34H4996.96L4792.55 3599.27H4713.99L4787.89 3428.91Z" fill="#010B17"/>
<path d="M4395.37 3146.71C4395.37 3176.33 4372.47 3200.34 4344.22 3200.34C4315.98 3200.34 4293.08 3176.33 4293.08 3146.71C4293.08 3117.09 4315.98 3093.08 4344.22 3093.08C4372.47 3093.08 4395.37 3117.09 4395.37 3146.71Z" fill="#010B17"/>
<path d="M59.2688 2456.22H106.359L142.911 2593.87L148.18 2619.22H150.814L157.73 2593.87L191.647 2487.83H233.139L267.386 2593.87L273.972 2618.9H276.607L281.546 2593.87L315.793 2456.22H362.883L300.316 2692H257.507L220.626 2578.39L213.71 2552.38H211.076L204.161 2578.39L167.279 2692H124.47L59.2688 2456.22ZM436.351 2498.37V2553.04H530.86V2595.19H436.351V2649.85H541.397V2692H391.895V2456.22H541.397V2498.37H436.351ZM582.272 2456.22H626.727V2649.85H726.505V2692H582.272V2456.22ZM959.495 2654.13C947.86 2668.18 934.139 2678.94 918.333 2686.4C902.526 2693.65 884.854 2697.27 865.315 2697.27C847.753 2697.27 831.398 2694.09 816.25 2687.72C801.321 2681.35 788.369 2672.68 777.392 2661.7C766.416 2650.73 757.744 2637.78 751.378 2622.85C745.011 2607.7 741.828 2591.45 741.828 2574.11C741.828 2556.77 745.011 2540.63 751.378 2525.7C757.744 2510.56 766.416 2497.49 777.392 2486.52C788.369 2475.54 801.321 2466.87 816.25 2460.5C831.398 2454.14 847.753 2450.95 865.315 2450.95C884.195 2450.95 900.77 2454.25 915.04 2460.83C929.529 2467.42 942.372 2476.97 953.568 2489.48L922.284 2519.78C915.259 2511.65 907.137 2505.18 897.916 2500.35C888.915 2495.52 878.158 2493.1 865.645 2493.1C854.668 2493.1 844.35 2495.08 834.69 2499.03C825.031 2502.76 816.579 2508.14 809.334 2515.17C802.309 2522.19 796.711 2530.75 792.54 2540.85C788.369 2550.73 786.283 2561.82 786.283 2574.11C786.283 2586.4 788.369 2597.6 792.54 2607.7C796.711 2617.58 802.309 2626.03 809.334 2633.06C816.579 2640.08 825.031 2645.57 834.69 2649.52C844.35 2653.25 854.668 2655.12 865.645 2655.12C878.817 2655.12 890.452 2652.48 900.551 2647.22C910.869 2641.73 919.979 2634.04 927.882 2624.16L959.495 2654.13ZM1103.6 2697.27C1086.04 2697.27 1069.68 2694.09 1054.53 2687.72C1039.61 2681.35 1026.65 2672.68 1015.68 2661.7C1004.7 2650.51 996.029 2637.45 989.662 2622.52C983.515 2607.37 980.442 2591.23 980.442 2574.11C980.442 2556.99 983.515 2540.96 989.662 2526.03C996.029 2510.89 1004.7 2497.82 1015.68 2486.85C1026.65 2475.65 1039.61 2466.87 1054.53 2460.5C1069.68 2454.14 1086.04 2450.95 1103.6 2450.95C1121.16 2450.95 1137.41 2454.14 1152.34 2460.5C1167.48 2466.87 1180.55 2475.65 1191.52 2486.85C1202.5 2497.82 1211.06 2510.89 1217.21 2526.03C1223.57 2540.96 1226.76 2556.99 1226.76 2574.11C1226.76 2591.23 1223.57 2607.37 1217.21 2622.52C1211.06 2637.45 1202.5 2650.51 1191.52 2661.7C1180.55 2672.68 1167.48 2681.35 1152.34 2687.72C1137.41 2694.09 1121.16 2697.27 1103.6 2697.27ZM1103.6 2655.12C1114.58 2655.12 1124.78 2653.14 1134.22 2649.19C1143.88 2645.24 1152.23 2639.75 1159.25 2632.73C1166.5 2625.7 1172.09 2617.25 1176.05 2607.37C1180.22 2597.27 1182.3 2586.18 1182.3 2574.11C1182.3 2562.04 1180.22 2551.06 1176.05 2541.18C1172.09 2531.08 1166.5 2522.52 1159.25 2515.5C1152.23 2508.47 1143.88 2502.98 1134.22 2499.03C1124.78 2495.08 1114.58 2493.1 1103.6 2493.1C1092.62 2493.1 1082.31 2495.08 1072.65 2499.03C1063.21 2502.98 1054.86 2508.47 1047.62 2515.5C1040.59 2522.52 1035 2531.08 1030.82 2541.18C1026.87 2551.06 1024.9 2562.04 1024.9 2574.11C1024.9 2586.18 1026.87 2597.27 1030.82 2607.37C1035 2617.25 1040.59 2625.7 1047.62 2632.73C1054.86 2639.75 1063.21 2645.24 1072.65 2649.19C1082.31 2653.14 1092.62 2655.12 1103.6 2655.12ZM1262.74 2456.22H1306.54L1378.65 2581.03H1381.29L1453.4 2456.22H1497.53V2692H1453.4V2575.76L1456.04 2536.24H1453.4L1393.47 2641.95H1366.8L1306.54 2536.24H1303.9L1306.54 2575.76V2692H1262.74V2456.22ZM1589.54 2498.37V2553.04H1684.05V2595.19H1589.54V2649.85H1694.59V2692H1545.09V2456.22H1694.59V2498.37H1589.54ZM1844.69 2692V2498.37H1778.83V2456.22H1955.01V2498.37H1889.15V2692H1844.69ZM2088.28 2697.27C2070.72 2697.27 2054.37 2694.09 2039.22 2687.72C2024.29 2681.35 2011.34 2672.68 2000.36 2661.7C1989.38 2650.51 1980.71 2637.45 1974.35 2622.52C1968.2 2607.37 1965.13 2591.23 1965.13 2574.11C1965.13 2556.99 1968.2 2540.96 1974.35 2526.03C1980.71 2510.89 1989.38 2497.82 2000.36 2486.85C2011.34 2475.65 2024.29 2466.87 2039.22 2460.5C2054.37 2454.14 2070.72 2450.95 2088.28 2450.95C2105.85 2450.95 2122.09 2454.14 2137.02 2460.5C2152.17 2466.87 2165.23 2475.65 2176.21 2486.85C2187.18 2497.82 2195.75 2510.89 2201.89 2526.03C2208.26 2540.96 2211.44 2556.99 2211.44 2574.11C2211.44 2591.23 2208.26 2607.37 2201.89 2622.52C2195.75 2637.45 2187.18 2650.51 2176.21 2661.7C2165.23 2672.68 2152.17 2681.35 2137.02 2687.72C2122.09 2694.09 2105.85 2697.27 2088.28 2697.27ZM2088.28 2655.12C2099.26 2655.12 2109.47 2653.14 2118.91 2649.19C2128.57 2645.24 2136.91 2639.75 2143.94 2632.73C2151.18 2625.7 2156.78 2617.25 2160.73 2607.37C2164.9 2597.27 2166.99 2586.18 2166.99 2574.11C2166.99 2562.04 2164.9 2551.06 2160.73 2541.18C2156.78 2531.08 2151.18 2522.52 2143.94 2515.5C2136.91 2508.47 2128.57 2502.98 2118.91 2499.03C2109.47 2495.08 2099.26 2493.1 2088.28 2493.1C2077.31 2493.1 2066.99 2495.08 2057.33 2499.03C2047.89 2502.98 2039.55 2508.47 2032.3 2515.5C2025.28 2522.52 2019.68 2531.08 2015.51 2541.18C2011.56 2551.06 2009.58 2562.04 2009.58 2574.11C2009.58 2586.18 2011.56 2597.27 2015.51 2607.37C2019.68 2617.25 2025.28 2625.7 2032.3 2632.73C2039.55 2639.75 2047.89 2645.24 2057.33 2649.19C2066.99 2653.14 2077.31 2655.12 2088.28 2655.12Z" fill="#4285F4"/>
</svg>
